<?xml version='1.0' encoding='UTF-8' standalone='no'?>
<svg height="314pt" viewBox="0 0 418 314" xmlns="http://www.w3.org/2000/svg" width="418pt" xmlns:xlink="http://www.w3.org/1999/xlink">
 <title>Figure 14</title>
 <desc>
Creator: GL2PS 1.4.2, (C) 1999-2020 C. Geuzaine
For: Octave
CreationDate: Mon Nov 14 20:00:58 2022
</desc>
 <defs/>
 <polygon fill="#ffffff" points="0,0 418,0 418,314 0,314"/>
 <g>
  <polygon shape-rendering="crispEdges" fill="#ffffff" points="0,314 418,314 418,0 0,0"/>
  <clipPath id="cp00418314">
   <polygon points="0,314 418,314 418,0 0,0"/>
  </clipPath>
  <g clip-path="url(#cp00418314)">
   <polygon shape-rendering="crispEdges" fill="#ffffff" points="54.4343,277.546 378.946,277.546 378.946,23.5533 54.4343,23.5533"/>
   <polyline stroke-linejoin="miter" stroke-width="0.5" stroke-linecap="butt" stroke="#191919" stroke-dasharray="1,3,1,3,1,3,1,3" stroke-opacity="0.25" fill="none" points="70.6599,277.546 70.6599,23.5533"/>
   <polyline stroke-linejoin="miter" stroke-width="0.5" stroke-linecap="butt" stroke="#191919" stroke-dasharray="1,3,1,3,1,3,1,3" stroke-opacity="0.25" fill="none" points="86.8855,277.546 86.8855,23.5533"/>
   <polyline stroke-linejoin="miter" stroke-width="0.5" stroke-linecap="butt" stroke="#191919" stroke-dasharray="1,3,1,3,1,3,1,3" stroke-opacity="0.25" fill="none" points="103.111,277.546 103.111,23.5533"/>
   <polyline stroke-linejoin="miter" stroke-width="0.5" stroke-linecap="butt" stroke="#191919" stroke-dasharray="1,3,1,3,1,3,1,3" stroke-opacity="0.25" fill="none" points="119.337,277.546 119.337,23.5533"/>
   <polyline stroke-linejoin="miter" stroke-width="0.5" stroke-linecap="butt" stroke="#191919" stroke-dasharray="1,3,1,3,1,3,1,3" stroke-opacity="0.25" fill="none" points="151.788,277.546 151.788,23.5533"/>
   <polyline stroke-linejoin="miter" stroke-width="0.5" stroke-linecap="butt" stroke="#191919" stroke-dasharray="1,3,1,3,1,3,1,3" stroke-opacity="0.25" fill="none" points="168.014,277.546 168.014,23.5533"/>
   <polyline stroke-linejoin="miter" stroke-width="0.5" stroke-linecap="butt" stroke="#191919" stroke-dasharray="1,3,1,3,1,3,1,3" stroke-opacity="0.25" fill="none" points="184.239,277.546 184.239,23.5533"/>
   <polyline stroke-linejoin="miter" stroke-width="0.5" stroke-linecap="butt" stroke="#191919" stroke-dasharray="1,3,1,3,1,3,1,3" stroke-opacity="0.25" fill="none" points="200.465,277.546 200.465,23.5533"/>
   <polyline stroke-linejoin="miter" stroke-width="0.5" stroke-linecap="butt" stroke="#191919" stroke-dasharray="1,3,1,3,1,3,1,3" stroke-opacity="0.25" fill="none" points="232.916,277.546 232.916,23.5533"/>
   <polyline stroke-linejoin="miter" stroke-width="0.5" stroke-linecap="butt" stroke="#191919" stroke-dasharray="1,3,1,3,1,3,1,3" stroke-opacity="0.25" fill="none" points="249.142,277.546 249.142,23.5533"/>
   <polyline stroke-linejoin="miter" stroke-width="0.5" stroke-linecap="butt" stroke="#191919" stroke-dasharray="1,3,1,3,1,3,1,3" stroke-opacity="0.25" fill="none" points="265.367,277.546 265.367,23.5533"/>
   <polyline stroke-linejoin="miter" stroke-width="0.5" stroke-linecap="butt" stroke="#191919" stroke-dasharray="1,3,1,3,1,3,1,3" stroke-opacity="0.25" fill="none" points="281.593,277.546 281.593,23.5533"/>
   <polyline stroke-linejoin="miter" stroke-width="0.5" stroke-linecap="butt" stroke="#191919" stroke-dasharray="1,3,1,3,1,3,1,3" stroke-opacity="0.25" fill="none" points="314.044,277.546 314.044,23.5533"/>
   <polyline stroke-linejoin="miter" stroke-width="0.5" stroke-linecap="butt" stroke="#191919" stroke-dasharray="1,3,1,3,1,3,1,3" stroke-opacity="0.25" fill="none" points="330.27,277.546 330.27,23.5533"/>
   <polyline stroke-linejoin="miter" stroke-width="0.5" stroke-linecap="butt" stroke="#191919" stroke-dasharray="1,3,1,3,1,3,1,3" stroke-opacity="0.25" fill="none" points="346.495,277.546 346.495,23.5533"/>
   <polyline stroke-linejoin="miter" stroke-width="0.5" stroke-linecap="butt" stroke="#191919" stroke-dasharray="1,3,1,3,1,3,1,3" stroke-opacity="0.25" fill="none" points="362.721,277.546 362.721,23.5533"/>
   <polyline stroke-linejoin="miter" stroke-width="0.5" stroke-linecap="butt" stroke="#191919" stroke-dasharray="1,3,1,3,1,3,1,3" stroke-opacity="0.25" fill="none" points="54.4343,277.546 54.4343,23.5533"/>
   <polyline stroke-linejoin="miter" stroke-width="0.5" stroke-linecap="butt" stroke="#191919" stroke-dasharray="1,3,1,3,1,3,1,3" stroke-opacity="0.25" fill="none" points="135.562,277.546 135.562,23.5533"/>
   <polyline stroke-linejoin="miter" stroke-width="0.5" stroke-linecap="butt" stroke="#191919" stroke-dasharray="1,3,1,3,1,3,1,3" stroke-opacity="0.25" fill="none" points="216.69,277.546 216.69,23.5533"/>
   <polyline stroke-linejoin="miter" stroke-width="0.5" stroke-linecap="butt" stroke="#191919" stroke-dasharray="1,3,1,3,1,3,1,3" stroke-opacity="0.25" fill="none" points="297.818,277.546 297.818,23.5533"/>
   <polyline stroke-linejoin="miter" stroke-width="0.5" stroke-linecap="butt" stroke="#191919" stroke-dasharray="1,3,1,3,1,3,1,3" stroke-opacity="0.25" fill="none" points="378.946,277.546 378.946,23.5533"/>
   <polyline stroke-linejoin="miter" stroke-width="0.5" stroke-linecap="butt" stroke="#262626" fill="none" points="54.4343,277.546 54.4343,274.301"/>
   <polyline stroke-linejoin="miter" stroke-width="0.5" stroke-linecap="butt" stroke="#262626" fill="none" points="54.4343,23.5533 54.4343,26.7983"/>
   <polyline stroke-linejoin="miter" stroke-width="0.5" stroke-linecap="butt" stroke="#262626" fill="none" points="135.562,277.546 135.562,274.301"/>
   <polyline stroke-linejoin="miter" stroke-width="0.5" stroke-linecap="butt" stroke="#262626" fill="none" points="135.562,23.5533 135.562,26.7983"/>
   <polyline stroke-linejoin="miter" stroke-width="0.5" stroke-linecap="butt" stroke="#262626" fill="none" points="216.69,277.546 216.69,274.301"/>
   <polyline stroke-linejoin="miter" stroke-width="0.5" stroke-linecap="butt" stroke="#262626" fill="none" points="216.69,23.5533 216.69,26.7983"/>
   <polyline stroke-linejoin="miter" stroke-width="0.5" stroke-linecap="butt" stroke="#262626" fill="none" points="297.818,277.546 297.818,274.301"/>
   <polyline stroke-linejoin="miter" stroke-width="0.5" stroke-linecap="butt" stroke="#262626" fill="none" points="297.818,23.5533 297.818,26.7983"/>
   <polyline stroke-linejoin="miter" stroke-width="0.5" stroke-linecap="butt" stroke="#262626" fill="none" points="378.946,277.546 378.946,274.301"/>
   <polyline stroke-linejoin="miter" stroke-width="0.5" stroke-linecap="butt" stroke="#262626" fill="none" points="378.946,23.5533 378.946,26.7983"/>
   <g font-style="normal" font-family="FreeSans" font-weight="normal" font-size="10" xml:space="preserve" transform="translate(46.9343,293.045) rotate(-0,7.5,-8)">
    <text y="-0" fill="rgb(38,38,38)" x="0 3 9 ">-10</text>
   </g>
   <g font-style="normal" font-family="FreeSans" font-weight="normal" font-size="10" xml:space="preserve" transform="translate(131.062,293.045) rotate(-0,4.5,-8)">
    <text y="-0" fill="rgb(38,38,38)" x="0 3 ">-5</text>
   </g>
   <g font-style="normal" font-family="FreeSans" font-weight="normal" font-size="10" xml:space="preserve" transform="translate(213.69,293.045) rotate(-0,3,-8)">
    <text y="-0" fill="rgb(38,38,38)" x="0 ">0</text>
   </g>
   <g font-style="normal" font-family="FreeSans" font-weight="normal" font-size="10" xml:space="preserve" transform="translate(294.818,293.045) rotate(-0,3,-8)">
    <text y="-0" fill="rgb(38,38,38)" x="0 ">5</text>
   </g>
   <g font-style="normal" font-family="FreeSans" font-weight="normal" font-size="10" xml:space="preserve" transform="translate(372.946,293.045) rotate(-0,6,-8)">
    <text y="-0" fill="rgb(38,38,38)" x="0 6 ">10</text>
   </g>
   <polyline stroke-linejoin="miter" stroke-width="0.5" stroke-linecap="butt" stroke="#191919" stroke-dasharray="1,3,1,3,1,3,1,3" stroke-opacity="0.25" fill="none" points="54.4343,264.846 378.946,264.846"/>
   <polyline stroke-linejoin="miter" stroke-width="0.5" stroke-linecap="butt" stroke="#191919" stroke-dasharray="1,3,1,3,1,3,1,3" stroke-opacity="0.25" fill="none" points="54.4343,252.146 378.946,252.146"/>
   <polyline stroke-linejoin="miter" stroke-width="0.5" stroke-linecap="butt" stroke="#191919" stroke-dasharray="1,3,1,3,1,3,1,3" stroke-opacity="0.25" fill="none" points="54.4343,239.447 378.946,239.447"/>
   <polyline stroke-linejoin="miter" stroke-width="0.5" stroke-linecap="butt" stroke="#191919" stroke-dasharray="1,3,1,3,1,3,1,3" stroke-opacity="0.25" fill="none" points="54.4343,226.747 378.946,226.747"/>
   <polyline stroke-linejoin="miter" stroke-width="0.5" stroke-linecap="butt" stroke="#191919" stroke-dasharray="1,3,1,3,1,3,1,3" stroke-opacity="0.25" fill="none" points="54.4343,201.348 378.946,201.348"/>
   <polyline stroke-linejoin="miter" stroke-width="0.5" stroke-linecap="butt" stroke="#191919" stroke-dasharray="1,3,1,3,1,3,1,3" stroke-opacity="0.25" fill="none" points="54.4343,188.648 378.946,188.648"/>
   <polyline stroke-linejoin="miter" stroke-width="0.5" stroke-linecap="butt" stroke="#191919" stroke-dasharray="1,3,1,3,1,3,1,3" stroke-opacity="0.25" fill="none" points="54.4343,175.949 378.946,175.949"/>
   <polyline stroke-linejoin="miter" stroke-width="0.5" stroke-linecap="butt" stroke="#191919" stroke-dasharray="1,3,1,3,1,3,1,3" stroke-opacity="0.25" fill="none" points="54.4343,163.249 378.946,163.249"/>
   <polyline stroke-linejoin="miter" stroke-width="0.5" stroke-linecap="butt" stroke="#191919" stroke-dasharray="1,3,1,3,1,3,1,3" stroke-opacity="0.25" fill="none" points="54.4343,137.85 378.946,137.85"/>
   <polyline stroke-linejoin="miter" stroke-width="0.5" stroke-linecap="butt" stroke="#191919" stroke-dasharray="1,3,1,3,1,3,1,3" stroke-opacity="0.25" fill="none" points="54.4343,125.15 378.946,125.15"/>
   <polyline stroke-linejoin="miter" stroke-width="0.5" stroke-linecap="butt" stroke="#191919" stroke-dasharray="1,3,1,3,1,3,1,3" stroke-opacity="0.25" fill="none" points="54.4343,112.451 378.946,112.451"/>
   <polyline stroke-linejoin="miter" stroke-width="0.5" stroke-linecap="butt" stroke="#191919" stroke-dasharray="1,3,1,3,1,3,1,3" stroke-opacity="0.25" fill="none" points="54.4343,99.751 378.946,99.751"/>
   <polyline stroke-linejoin="miter" stroke-width="0.5" stroke-linecap="butt" stroke="#191919" stroke-dasharray="1,3,1,3,1,3,1,3" stroke-opacity="0.25" fill="none" points="54.4343,74.3517 378.946,74.3517"/>
   <polyline stroke-linejoin="miter" stroke-width="0.5" stroke-linecap="butt" stroke="#191919" stroke-dasharray="1,3,1,3,1,3,1,3" stroke-opacity="0.25" fill="none" points="54.4343,61.6521 378.946,61.6521"/>
   <polyline stroke-linejoin="miter" stroke-width="0.5" stroke-linecap="butt" stroke="#191919" stroke-dasharray="1,3,1,3,1,3,1,3" stroke-opacity="0.25" fill="none" points="54.4343,48.9525 378.946,48.9525"/>
   <polyline stroke-linejoin="miter" stroke-width="0.5" stroke-linecap="butt" stroke="#191919" stroke-dasharray="1,3,1,3,1,3,1,3" stroke-opacity="0.25" fill="none" points="54.4343,36.2529 378.946,36.2529"/>
   <polyline stroke-linejoin="miter" stroke-width="0.5" stroke-linecap="butt" stroke="#191919" stroke-dasharray="1,3,1,3,1,3,1,3" stroke-opacity="0.25" fill="none" points="54.4343,277.546 378.946,277.546"/>
   <polyline stroke-linejoin="miter" stroke-width="0.5" stroke-linecap="butt" stroke="#191919" stroke-dasharray="1,3,1,3,1,3,1,3" stroke-opacity="0.25" fill="none" points="54.4343,214.048 378.946,214.048"/>
   <polyline stroke-linejoin="miter" stroke-width="0.5" stroke-linecap="butt" stroke="#191919" stroke-dasharray="1,3,1,3,1,3,1,3" stroke-opacity="0.25" fill="none" points="54.4343,150.549 378.946,150.549"/>
   <polyline stroke-linejoin="miter" stroke-width="0.5" stroke-linecap="butt" stroke="#191919" stroke-dasharray="1,3,1,3,1,3,1,3" stroke-opacity="0.25" fill="none" points="54.4343,87.0514 378.946,87.0514"/>
   <polyline stroke-linejoin="miter" stroke-width="0.5" stroke-linecap="butt" stroke="#191919" stroke-dasharray="1,3,1,3,1,3,1,3" stroke-opacity="0.25" fill="none" points="54.4343,23.5533 378.946,23.5533"/>
   <polyline stroke-linejoin="miter" stroke-width="0.5" stroke-linecap="butt" stroke="#262626" fill="none" points="54.4343,277.546 57.6745,277.546"/>
   <polyline stroke-linejoin="miter" stroke-width="0.5" stroke-linecap="butt" stroke="#262626" fill="none" points="378.946,277.546 375.706,277.546"/>
   <polyline stroke-linejoin="miter" stroke-width="0.5" stroke-linecap="butt" stroke="#262626" fill="none" points="54.4343,214.048 57.6745,214.048"/>
   <polyline stroke-linejoin="miter" stroke-width="0.5" stroke-linecap="butt" stroke="#262626" fill="none" points="378.946,214.048 375.706,214.048"/>
   <polyline stroke-linejoin="miter" stroke-width="0.5" stroke-linecap="butt" stroke="#262626" fill="none" points="54.4343,150.549 57.6745,150.549"/>
   <polyline stroke-linejoin="miter" stroke-width="0.5" stroke-linecap="butt" stroke="#262626" fill="none" points="378.946,150.549 375.706,150.549"/>
   <polyline stroke-linejoin="miter" stroke-width="0.5" stroke-linecap="butt" stroke="#262626" fill="none" points="54.4343,87.0514 57.6745,87.0514"/>
   <polyline stroke-linejoin="miter" stroke-width="0.5" stroke-linecap="butt" stroke="#262626" fill="none" points="378.946,87.0514 375.706,87.0514"/>
   <polyline stroke-linejoin="miter" stroke-width="0.5" stroke-linecap="butt" stroke="#262626" fill="none" points="54.4343,23.5533 57.6745,23.5533"/>
   <polyline stroke-linejoin="miter" stroke-width="0.5" stroke-linecap="butt" stroke="#262626" fill="none" points="378.946,23.5533 375.706,23.5533"/>
   <g font-style="normal" font-family="FreeSans" font-weight="normal" font-size="10" xml:space="preserve" transform="translate(34.4418,281.546) rotate(-0,15,-4)">
    <text y="-0" fill="rgb(38,38,38)" x="0 3 9 ">-10</text>
   </g>
   <g font-style="normal" font-family="FreeSans" font-weight="normal" font-size="10" xml:space="preserve" transform="translate(40.4418,218.048) rotate(-0,9,-4)">
    <text y="-0" fill="rgb(38,38,38)" x="0 3 ">-5</text>
   </g>
   <g font-style="normal" font-family="FreeSans" font-weight="normal" font-size="10" xml:space="preserve" transform="translate(43.4418,154.549) rotate(-0,6,-4)">
    <text y="-0" fill="rgb(38,38,38)" x="0 ">0</text>
   </g>
   <g font-style="normal" font-family="FreeSans" font-weight="normal" font-size="10" xml:space="preserve" transform="translate(43.4418,91.0514) rotate(-0,6,-4)">
    <text y="-0" fill="rgb(38,38,38)" x="0 ">5</text>
   </g>
   <g font-style="normal" font-family="FreeSans" font-weight="normal" font-size="10" xml:space="preserve" transform="translate(37.4418,27.5533) rotate(-0,12,-4)">
    <text y="-0" fill="rgb(38,38,38)" x="0 6 ">10</text>
   </g>
   <polyline stroke-linejoin="miter" stroke-width="0.5" stroke-linecap="square" stroke="#262626" stroke-dasharray="16,0" fill="none" points="54.4343,277.546 378.946,277.546"/>
   <polyline stroke-linejoin="miter" stroke-width="0.5" stroke-linecap="square" stroke="#262626" stroke-dasharray="16,0" fill="none" points="54.4343,23.5533 378.946,23.5533"/>
   <polyline stroke-linejoin="miter" stroke-width="0.5" stroke-linecap="square" stroke="#262626" stroke-dasharray="16,0" fill="none" points="54.4343,277.546 54.4343,23.5533"/>
   <polyline stroke-linejoin="miter" stroke-width="0.5" stroke-linecap="square" stroke="#262626" stroke-dasharray="16,0" fill="none" points="378.946,277.546 378.946,23.5533"/>
   <g font-style="normal" font-family="FreeSans" font-weight="normal" font-size="15" xml:space="preserve" transform="translate(166.69,314.045) rotate(-0,50,-16)">
    <text y="-4" fill="rgb(38,38,38)" x="0 10 18 25 28 36 44 52 56 66 70 75 83 95 ">Posição Y (cm)</text>
   </g>
   <g font-style="normal" font-family="FreeSans" font-weight="normal" font-size="15" xml:space="preserve" transform="translate(-20.5582,150.549) rotate(-90,50,0)">
    <text y="-4" fill="rgb(38,38,38)" x="0 10 18 25 28 36 44 52 56 66 70 75 83 95 ">Posição X (cm)</text>
   </g>
   <polyline stroke-linejoin="round" stroke-width="0.5" stroke-linecap="butt" stroke="#0000ff" fill="none" points="238.972,148.761 238.972,148.761 238.972,148.761 238.972,148.761 238.972,148.761 234.401,149.655 233.259,149.655 230.973,149.655 229.831,151.444 229.831,151.444 230.973,151.444 234.401,150.549 234.401,150.549 233.259,150.549 233.259,150.549 232.116,151.444 232.116,153.232 232.116,155.021 235.544,161.282 237.829,164.859 245.828,172.908 251.541,177.38 251.541,177.38 262.968,184.534 269.823,187.217 275.537,189.006 284.678,189.9 292.676,187.217 297.247,180.957 299.532,176.485 299.532,171.119 297.247,158.598 293.819,151.444 290.391,143.395 285.821,136.24 280.107,129.085 268.681,115.67 260.682,109.41 242.4,97.7834 233.259,93.3117 222.975,88.84 212.691,86.157 193.266,84.3683 184.125,85.2627 166.985,89.7344 166.985,89.7344 160.129,94.2061 145.275,105.832 132.706,129.085 131.563,138.029 130.42,147.866 130.42,158.598 136.134,177.38 141.847,186.323 149.845,195.266 166.985,209.576 174.984,215.836 182.982,220.308 190.981,224.78 197.837,228.357 211.548,231.934 211.548,231.934 227.545,231.04 227.545,231.04 245.828,223.885 252.684,220.308 260.682,215.836 274.394,205.104 280.107,198.844 284.678,191.689 289.249,184.534 292.676,176.485 294.962,160.387 294.962,152.338 293.819,144.289 290.391,126.402 285.821,117.459 281.25,109.41 260.682,87.9457 250.398,82.5797 240.115,79.0023 228.688,75.425 205.835,74.5306 194.409,76.3193 182.982,79.0023 162.415,88.84 153.273,95.1004 145.275,102.255 132.706,117.459 129.278,125.508 128.135,133.557 130.42,151.444 132.706,159.493 138.419,168.436 144.132,176.485 150.988,183.64 164.7,197.055 172.698,203.315 186.41,213.153 193.266,217.625 198.979,221.202 205.835,223.885 217.262,227.463 221.832,227.463 237.829,223.885 243.543,220.308 250.398,216.731 262.968,207.787 262.968,207.787 274.394,196.161 278.965,189.9 284.678,175.591 288.106,168.436 289.249,160.387 290.391,152.338 288.106,135.346 284.678,128.191 281.25,121.036 269.823,106.727 262.968,100.466 253.826,95.1004 234.401,87.0514 222.975,85.2627 212.691,83.474 189.838,84.3683 178.412,86.157 168.128,88.84 148.703,97.7834 140.704,103.149 133.848,110.304 125.85,126.402 124.707,135.346 124.707,144.289 131.563,163.07 142.99,181.851 152.131,190.795 160.129,198.844 177.269,213.153 185.268,218.519 193.266,222.097 198.979,224.78 204.693,226.568 212.691,226.568 216.119,225.674 218.404,224.78 225.26,222.097 229.831,220.308 234.401,217.625 245.828,212.259 252.684,209.576 259.54,205.104 274.394,195.266 281.25,189.9 288.106,182.746 298.39,167.542 301.818,158.598 304.103,149.655 301.818,131.768 298.39,121.931 293.819,112.987 267.538,90.6287 256.112,84.3683 242.4,79.8967 228.688,77.2136 200.122,74.5306 186.41,76.3193 173.841,79.8967 150.988,90.6287 141.847,96.8891 133.848,104.938 124.707,121.036 122.422,129.98 123.564,138.923 129.278,156.81 134.991,165.753 141.847,174.697 149.845,182.746 164.7,197.055 172.698,203.315 179.554,208.681 186.41,213.153 197.837,220.308 205.835,223.885 205.835,223.885 212.691,224.78 216.119,224.78 219.547,224.78 227.545,221.202 232.116,218.519 237.829,215.836 250.398,207.787 258.397,202.421 266.396,197.055 281.25,183.64 294.962,168.436 304.103,151.444 306.388,141.606 307.531,132.663 302.96,116.565 302.96,116.565 290.391,104.938 281.25,100.466 269.823,96.8891 243.543,93.3117 229.831,92.4174 214.976,93.3117 200.122,94.2061 186.41,95.1004 158.987,100.466 138.419,109.41 129.278,113.882 122.422,120.142 115.566,132.663 115.566,139.817 121.279,155.021 126.992,163.07 133.848,171.119 142.99,178.274 161.272,191.689 170.413,197.949 186.41,207.787 194.409,212.259 205.835,220.308 210.406,222.991 213.834,224.78 218.404,225.674 219.547,224.78 221.832,223.885 227.545,220.308 230.973,218.519 236.687,215.836 242.4,212.259 250.398,208.681 267.538,199.738 275.537,194.372 291.534,180.063 298.39,172.014 307.531,153.232 310.959,144.289 310.959,134.451 309.816,125.508 306.388,116.565 292.676,101.361 272.109,90.6287 259.54,86.157 245.828,82.5797 213.834,78.108 197.837,78.108 182.982,79.8967 155.559,87.0514 144.132,93.3117 133.848,99.5721 121.279,116.565 118.994,124.614 118.994,134.451 123.564,153.232 129.278,163.07 136.134,172.014 153.273,188.112 162.415,195.266 170.413,201.527 186.41,212.259 186.41,212.259 198.979,219.414 203.55,221.202 208.12,222.991 214.976,224.78 221.832,224.78 228.688,222.097 233.259,220.308 238.972,217.625 243.543,214.048 250.398,210.47 262.968,200.632 269.823,194.372 275.537,188.112 286.963,172.908 291.534,164.859 294.962,156.81 298.39,138.923 298.39,138.923 293.819,121.931 290.391,112.987 283.535,105.832 266.396,91.5231 256.112,86.157 243.543,80.791 216.119,72.7419 185.268,70.0589 154.416,73.6363 140.704,78.108 126.992,84.3683 107.567,100.466 102.997,110.304 99.5689,121.036 99.5689,132.663 101.854,144.289 106.425,155.021 117.851,175.591 124.707,185.429 133.848,194.372 142.99,202.421 163.557,218.519 173.841,224.78 203.55,236.406 212.691,238.195 221.832,238.195 238.972,235.512 238.972,235.512 249.256,227.463 252.684,222.097 256.112,216.731 262.968,204.21 266.396,197.949 268.681,191.689 274.394,179.168 277.822,172.014 280.107,165.753 283.535,152.338 284.678,146.078 285.821,139.817 284.678,128.191 283.535,121.931 280.107,116.565 270.966,107.621 264.11,103.149 256.112,100.466 224.118,95.9948 211.548,95.9948 198.979,96.8891 186.41,98.6778 161.272,104.044 149.845,108.516 140.704,112.987 125.85,124.614 121.279,130.874 118.994,138.029 120.137,152.338 123.564,160.387 128.135,167.542 142.99,183.64 152.131,190.795 161.272,197.055 179.554,208.681 187.553,213.153 195.551,215.836 202.407,218.519 208.12,219.414 218.404,220.308 225.26,219.414 234.401,216.731 240.115,214.942 245.828,213.153 251.541,210.47 257.254,206.893 269.823,198.844 278.965,188.112 278.965,188.112 286.963,175.591 290.391,168.436 291.534,152.338 290.391,145.183 288.106,137.134 284.678,128.191 273.251,112.987 266.396,106.727 257.254,100.466 248.113,95.1004 225.26,87.9457 213.834,86.157 202.407,85.2627 189.838,85.2627 165.842,88.84 154.416,92.4174 133.848,103.149 125.85,110.304 115.566,126.402 113.281,135.346 113.281,145.183 120.137,165.753 125.85,176.485 134.991,186.323 155.559,204.21 155.559,204.21 176.126,219.414 186.41,225.674 211.548,237.3 218.404,239.089 222.975,239.983 230.973,238.195 234.401,236.406 236.687,232.829 237.829,230.146 237.829,227.463 241.257,222.991 243.543,222.991 245.828,222.991 249.256,223.885 250.398,225.674 252.684,226.568 256.112,229.251 258.397,230.146 259.54,230.146 259.54,229.251 259.54,228.357 259.54,227.463 259.54,226.568 259.54,225.674 260.682,225.674 260.682,227.463 261.825,227.463 260.682,227.463 261.825,227.463 260.682,225.674 260.682,225.674 260.682,225.674 260.682,225.674 260.682,226.568 260.682,227.463 260.682,227.463 261.825,227.463 260.682,226.568 260.682,226.568 261.825,225.674 260.682,225.674"/>
   <polyline stroke-linejoin="round" stroke-width="0.5" stroke-linecap="butt" stroke="#ff0000" fill="none" points="216.69,150.549 216.69,150.549 216.69,150.549 216.69,150.549 216.69,150.549 216.69,150.549 216.69,150.549 216.69,150.549 216.69,150.549 216.69,150.549 216.69,150.549 216.69,150.549 216.69,239.447 234.458,238.352 251.788,235.096 268.254,229.758 283.451,222.469 297.003,213.409 308.578,202.802 317.89,190.908 324.711,178.02 328.871,164.456 330.27,150.549 328.871,136.643 324.711,123.079 317.89,110.191 308.578,98.2969 297.003,87.6896 283.451,78.63 268.254,71.3414 251.788,66.0031 234.458,62.7466 216.69,61.6521 198.923,62.7466 181.592,66.0031 165.126,71.3414 149.93,78.63 136.378,87.6896 124.803,98.2969 115.49,110.191 108.67,123.079 104.509,136.643 103.111,150.549 104.509,164.456 108.67,178.02 115.49,190.908 124.803,202.802 136.378,213.409 149.93,222.469 165.126,229.758 181.592,235.096 198.923,238.352 198.923,238.352 216.69,239.447 234.458,238.352 251.788,235.096 268.254,229.758 283.451,222.469 297.003,213.409 308.578,202.802 317.89,190.908 324.711,178.02 328.871,164.456 330.27,150.549 328.871,136.643 324.711,123.079 317.89,110.191 308.578,98.2969 297.003,87.6896 283.451,78.63 268.254,71.3414 251.788,66.0031 234.458,62.7466 216.69,61.6521 198.923,62.7466 181.592,66.0031 165.126,71.3414 149.93,78.63 136.378,87.6896 124.803,98.2969 115.49,110.191 108.67,123.079 104.509,136.643 103.111,150.549 104.509,164.456 108.67,178.02 115.49,190.908 124.803,202.802 136.378,213.409 149.93,222.469 165.126,229.758 181.592,235.096 198.923,238.352 198.923,238.352 216.69,239.447 234.458,238.352 251.788,235.096 268.254,229.758 283.451,222.469 297.003,213.409 308.578,202.802 317.89,190.908 324.711,178.02 328.871,164.456 330.27,150.549 328.871,136.643 324.711,123.079 317.89,110.191 308.578,98.2969 297.003,87.6896 283.451,78.63 268.254,71.3414 251.788,66.0031 234.458,62.7466 216.69,61.6521 198.923,62.7466 181.592,66.0031 165.126,71.3414 149.93,78.63 136.378,87.6896 124.803,98.2969 115.49,110.191 108.67,123.079 104.509,136.643 103.111,150.549 104.509,164.456 108.67,178.02 115.49,190.908 124.803,202.802 136.378,213.409 149.93,222.469 165.126,229.758 181.592,235.096 198.923,238.352 198.923,238.352 216.69,239.447 234.458,238.352 251.788,235.096 268.254,229.758 283.451,222.469 297.003,213.409 308.578,202.802 317.89,190.908 324.711,178.02 328.871,164.456 330.27,150.549 328.871,136.643 324.711,123.079 317.89,110.191 308.578,98.2969 297.003,87.6896 283.451,78.63 268.254,71.3414 251.788,66.0031 234.458,62.7466 216.69,61.6521 198.923,62.7466 181.592,66.0031 165.126,71.3414 149.93,78.63 136.378,87.6896 124.803,98.2969 115.49,110.191 108.67,123.079 104.509,136.643 103.111,150.549 104.509,164.456 108.67,178.02 115.49,190.908 124.803,202.802 136.378,213.409 149.93,222.469 165.126,229.758 181.592,235.096 198.923,238.352 198.923,238.352 216.69,239.447 234.458,238.352 251.788,235.096 268.254,229.758 283.451,222.469 297.003,213.409 308.578,202.802 317.89,190.908 324.711,178.02 328.871,164.456 330.27,150.549 328.871,136.643 324.711,123.079 317.89,110.191 308.578,98.2969 297.003,87.6896 283.451,78.63 268.254,71.3414 251.788,66.0031 234.458,62.7466 216.69,61.6521 198.923,62.7466 181.592,66.0031 165.126,71.3414 149.93,78.63 136.378,87.6896 124.803,98.2969 115.49,110.191 108.67,123.079 104.509,136.643 103.111,150.549 104.509,164.456 108.67,178.02 115.49,190.908 124.803,202.802 136.378,213.409 149.93,222.469 165.126,229.758 181.592,235.096 198.923,238.352 198.923,238.352 216.69,239.447 234.458,238.352 251.788,235.096 268.254,229.758 283.451,222.469 297.003,213.409 308.578,202.802 317.89,190.908 324.711,178.02 328.871,164.456 330.27,150.549 328.871,136.643 324.711,123.079 317.89,110.191 308.578,98.2969 297.003,87.6896 283.451,78.63 268.254,71.3414 251.788,66.0031 234.458,62.7466 216.69,61.6521 198.923,62.7466 181.592,66.0031 165.126,71.3414 149.93,78.63 136.378,87.6896 124.803,98.2969 115.49,110.191 108.67,123.079 104.509,136.643 103.111,150.549 104.509,164.456 108.67,178.02 115.49,190.908 124.803,202.802 136.378,213.409 149.93,222.469 165.126,229.758 181.592,235.096 198.923,238.352 198.923,238.352 216.69,239.447 234.458,238.352 251.788,235.096 268.254,229.758 283.451,222.469 297.003,213.409 308.578,202.802 317.89,190.908 324.711,178.02 328.871,164.456 330.27,150.549 328.871,136.643 324.711,123.079 317.89,110.191 308.578,98.2969 297.003,87.6896 283.451,78.63 268.254,71.3414 251.788,66.0031 234.458,62.7466 216.69,61.6521 198.923,62.7466 181.592,66.0031 165.126,71.3414 149.93,78.63 136.378,87.6896 124.803,98.2969 115.49,110.191 108.67,123.079 104.509,136.643 103.111,150.549 104.509,164.456 108.67,178.02 115.49,190.908 124.803,202.802 136.378,213.409 149.93,222.469 165.126,229.758 181.592,235.096 198.923,238.352 198.923,238.352 216.69,239.447 234.458,238.352 251.788,235.096 268.254,229.758 283.451,222.469 297.003,213.409 308.578,202.802 317.89,190.908 324.711,178.02 328.871,164.456 330.27,150.549 328.871,136.643 324.711,123.079 317.89,110.191 308.578,98.2969 297.003,87.6896 283.451,78.63 268.254,71.3414 251.788,66.0031 234.458,62.7466 216.69,61.6521 198.923,62.7466 181.592,66.0031 165.126,71.3414 149.93,78.63 136.378,87.6896 124.803,98.2969 115.49,110.191 108.67,123.079 104.509,136.643 103.111,150.549 104.509,164.456 108.67,178.02 115.49,190.908 124.803,202.802 136.378,213.409 149.93,222.469 165.126,229.758 181.592,235.096 198.923,238.352 198.923,238.352 216.69,239.447 234.458,238.352 251.788,235.096 268.254,229.758 283.451,222.469 297.003,213.409 308.578,202.802 317.89,190.908 324.711,178.02 328.871,164.456 330.27,150.549 328.871,136.643 324.711,123.079 317.89,110.191 308.578,98.2969 297.003,87.6896 283.451,78.63 268.254,71.3414 251.788,66.0031 234.458,62.7466 216.69,61.6521 198.923,62.7466 181.592,66.0031 165.126,71.3414 149.93,78.63 136.378,87.6896 124.803,98.2969 115.49,110.191 108.67,123.079 104.509,136.643 103.111,150.549 104.509,164.456 108.67,178.02 115.49,190.908 124.803,202.802 136.378,213.409 149.93,222.469 165.126,229.758 181.592,235.096 198.923,238.352 198.923,238.352 216.69,239.447 234.458,238.352 251.788,235.096 268.254,229.758 283.451,222.469 283.451,222.469 283.451,222.469 283.451,222.469 283.451,222.469 283.451,222.469 283.451,222.469 283.451,222.469 283.451,222.469 283.451,222.469 283.451,222.469 283.451,222.469 283.451,222.469 283.451,222.469 283.451,222.469 283.451,222.469 283.451,222.469 283.451,222.469 283.451,222.469 283.451,222.469 283.451,222.469 283.451,222.469 283.451,222.469 283.451,222.469 283.451,222.469 283.451,222.469 283.451,222.469 283.451,222.469 283.451,222.469 283.451,222.469 283.451,222.469 283.451,222.469 283.451,222.469 283.451,222.469 283.451,222.469 283.451,222.469 283.451,222.469 283.451,222.469 283.451,222.469 283.451,222.469"/>
   <polyline stroke-linejoin="round" stroke-width="0.5" stroke-linecap="butt" stroke="#000000" fill="none" points="238.972,148.761 238.929,148.764 238.589,148.791 237.812,148.854 236.624,148.949 235.123,149.07 233.42,149.206 231.619,149.351 229.804,149.497 228.041,149.638 226.375,149.772 224.839,149.895 223.451,150.007 222.216,150.279 221.172,151.716 220.546,154.871 220.672,159.575 221.843,165.349 224.25,171.624 227.968,177.845 232.959,183.529 239.092,188.277 246.154,191.784 253.878,193.837 261.956,194.309 270.062,193.152 277.862,190.386 285.035,186.096 291.277,180.416 296.32,173.528 299.933,165.645 301.932,157.01 302.186,147.885 300.614,138.538 297.196,129.245 291.962,120.273 285,111.88 276.445,104.302 266.479,97.7541 255.326,92.4209 243.244,88.4535 230.516,85.9659 217.446,85.0329 204.349,85.6884 191.543,87.9249 179.341,91.6941 168.042,96.9085 157.923,103.443 149.234,111.14 142.19,119.812 136.965,129.246 133.69,139.211 132.447,149.462 133.232,159.743 135.827,169.793 140.049,179.387 145.809,188.331 153.036,196.449 161.636,203.577 171.475,209.562 182.379,214.272 194.131,217.594 206.481,219.443 219.152,219.765 231.848,218.541 244.266,215.785 256.104,211.552 267.07,205.929 276.888,199.04 285.311,191.041 292.124,182.114 297.149,172.469 300.256,162.331 301.359,151.941 300.424,141.548 297.465,131.399 292.549,121.74 285.792,112.803 277.355,104.805 267.44,97.9396 256.289,92.3733 244.173,88.2414 231.387,85.6443 218.244,84.6449 205.067,85.2671 192.178,87.4951 179.893,91.2739 168.515,96.5102 158.323,103.075 149.567,110.807 142.464,119.516 137.187,128.987 133.866,138.987 132.584,149.271 133.337,159.583 135.905,169.662 140.105,179.28 145.847,188.245 153.06,196.382 161.649,203.525 171.48,209.523 182.378,214.244 194.126,217.574 206.473,219.43 219.142,219.757 231.837,218.537 244.255,215.785 256.093,211.554 267.06,205.932 276.879,199.045 285.303,191.046 292.116,182.119 297.143,172.474 300.25,162.336 301.354,151.946 300.42,141.552 297.462,131.403 292.547,121.743 285.79,112.806 277.353,104.808 267.439,97.9416 256.288,92.3749 244.172,88.2427 231.386,85.6454 218.244,84.6457 205.067,85.2677 192.177,87.4956 179.893,91.2743 168.515,96.5105 158.323,103.075 149.567,110.807 142.464,119.516 137.187,128.987 133.866,138.987 132.584,149.271 133.337,159.583 135.905,169.662 140.105,179.28 145.847,188.245 153.06,196.381 161.649,203.525 171.48,209.523 182.378,214.244 194.126,217.574 206.473,219.43 219.142,219.757 231.837,218.537 244.255,215.785 256.094,211.554 267.06,205.932 276.879,199.045 285.303,191.046 292.116,182.119 297.143,172.474 300.25,162.336 301.354,151.946 300.42,141.552 297.462,131.403 292.547,121.743 285.79,112.806 277.353,104.808 267.439,97.9416 256.288,92.3749 244.172,88.2427 231.386,85.6454 218.244,84.6457 205.067,85.2677 192.177,87.4956 179.893,91.2743 168.515,96.5105 158.323,103.075 149.567,110.807 142.464,119.516 137.187,128.987 133.866,138.987 132.584,149.271 133.337,159.583 135.905,169.662 140.105,179.28 145.847,188.245 153.06,196.381 161.649,203.525 171.48,209.523 182.378,214.244 194.126,217.574 206.473,219.43 219.142,219.757 231.837,218.537 244.255,215.785 256.094,211.554 267.06,205.932 276.879,199.045 285.303,191.046 292.116,182.119 297.143,172.474 300.25,162.336 301.354,151.946 300.42,141.552 297.462,131.403 292.547,121.743 285.79,112.806 277.353,104.808 267.439,97.9416 256.288,92.3749 244.172,88.2427 231.386,85.6454 218.244,84.6457 205.067,85.2677 192.177,87.4956 179.893,91.2743 168.515,96.5105 158.323,103.075 149.567,110.807 142.464,119.516 137.187,128.987 133.866,138.987 132.584,149.271 133.337,159.583 135.905,169.662 140.105,179.28 145.847,188.245 153.06,196.381 161.649,203.525 171.48,209.523 182.378,214.244 194.126,217.574 206.473,219.43 219.142,219.757 231.837,218.537 244.255,215.785 256.094,211.554 267.06,205.932 276.879,199.045 285.303,191.046 292.116,182.119 297.143,172.474 300.25,162.336 301.354,151.946 300.42,141.552 297.462,131.403 292.547,121.743 285.79,112.806 277.353,104.808 267.439,97.9416 256.288,92.3749 244.172,88.2427 231.386,85.6454 218.244,84.6457 205.067,85.2677 192.177,87.4956 179.893,91.2743 168.515,96.5105 158.323,103.075 149.567,110.807 142.464,119.516 137.187,128.987 133.866,138.987 132.584,149.271 133.337,159.583 135.905,169.662 140.105,179.28 145.847,188.245 153.06,196.381 161.649,203.525 171.48,209.523 182.378,214.244 194.126,217.574 206.473,219.43 219.142,219.757 231.837,218.537 244.255,215.785 256.094,211.554 267.06,205.932 276.879,199.045 285.303,191.046 292.116,182.119 297.143,172.474 300.25,162.336 301.354,151.946 300.42,141.552 297.462,131.403 292.547,121.743 285.79,112.806 277.353,104.808 267.439,97.9416 256.288,92.3749 244.172,88.2427 231.386,85.6454 218.244,84.6457 205.067,85.2677 192.177,87.4956 179.893,91.2743 168.515,96.5105 158.323,103.075 149.567,110.807 142.464,119.516 137.187,128.987 133.866,138.987 132.584,149.271 133.337,159.583 135.905,169.662 140.105,179.28 145.847,188.245 153.06,196.381 161.649,203.525 171.48,209.523 182.378,214.244 194.126,217.574 206.473,219.43 219.142,219.757 231.837,218.537 244.255,215.785 256.094,211.554 267.06,205.932 276.879,199.045 285.303,191.046 292.116,182.119 297.143,172.474 300.25,162.336 301.354,151.946 300.42,141.552 297.462,131.403 292.547,121.743 285.79,112.806 277.353,104.808 267.439,97.9416 256.288,92.3749 244.172,88.2427 231.386,85.6454 218.244,84.6457 205.067,85.2677 192.177,87.4956 179.893,91.2743 168.515,96.5105 158.323,103.075 149.567,110.807 142.464,119.516 137.187,128.987 133.866,138.987 132.584,149.271 133.337,159.583 135.905,169.662 140.105,179.28 145.847,188.245 153.06,196.381 161.649,203.525 171.48,209.523 182.378,214.244 194.126,217.574 206.473,219.43 219.142,219.757 231.837,218.537 244.255,215.785 256.094,211.554 267.06,205.932 276.879,199.045 285.303,191.046 292.116,182.119 297.143,172.474 300.25,162.336 301.354,151.946 300.42,141.552 297.462,131.403 292.547,121.743 285.79,112.806 277.353,104.808 267.439,97.9416 256.288,92.3749 244.172,88.2427 231.386,85.6454 218.244,84.6457 205.067,85.2677 192.177,87.4956 179.893,91.2743 168.515,96.5105 158.323,103.075 149.567,110.807 142.464,119.516 137.187,128.987 133.866,138.987 132.584,149.271 133.337,159.583 135.905,169.662 140.105,179.28 145.847,188.245 153.06,196.381 161.649,203.525 171.454,209.541 182.123,214.42 193.204,218.251 204.269,221.166 214.971,223.307 225.05,224.811 234.333,225.802 242.72,226.39 250.167,226.668 256.677,226.715 262.284,226.595 267.046,226.36 271.032,226.052 274.322,225.703 276.997,225.337 279.137,224.973 280.818,224.622 282.111,224.295 283.081,223.995 283.786,223.727 284.276,223.49 284.595,223.284 284.781,223.108 284.866,222.959 284.875,222.835 284.83,222.734 284.747,222.652 284.642,222.587 284.524,222.536 284.401,222.498 284.279,222.47 284.162,222.449 284.052,222.435 283.953,222.427 283.864,222.422 283.785,222.421 283.717,222.421 283.659,222.423"/>
  </g>
  <clipPath id="cp00418314">
   <polygon points="0,314 418,314 418,0 0,0"/>
  </clipPath>
  <g clip-path="url(#cp00418314)">
   <polygon shape-rendering="crispEdges" fill="#ffffff" points="265.322,93.8836 370.422,93.8836 370.422,32.0782 265.322,32.0782"/>
   <polyline stroke-linejoin="miter" stroke-width="0.5" stroke-linecap="square" stroke="#262626" stroke-dasharray="16,0" fill="none" points="265.322,93.8836 370.422,93.8836"/>
   <polyline stroke-linejoin="miter" stroke-width="0.5" stroke-linecap="square" stroke="#262626" stroke-dasharray="16,0" fill="none" points="265.322,32.0782 370.422,32.0782"/>
   <polyline stroke-linejoin="miter" stroke-width="0.5" stroke-linecap="square" stroke="#262626" stroke-dasharray="16,0" fill="none" points="265.322,93.8836 265.322,32.0782"/>
   <polyline stroke-linejoin="miter" stroke-width="0.5" stroke-linecap="square" stroke="#262626" stroke-dasharray="16,0" fill="none" points="370.422,93.8836 370.422,32.0782"/>
   <polyline stroke-linejoin="round" stroke-width="0.5" stroke-linecap="butt" stroke="#0000ff" fill="none" points="269.584,43.7999 290.897,43.7999"/>
   <g font-style="normal" font-family="FreeSans" font-weight="normal" font-size="15" xml:space="preserve" transform="translate(295.159,49.7999) rotate(-0,-0,-6)">
    <text y="-0" fill="rgb(0,0,0)" x="0 11 19 27 ">Real</text>
   </g>
   <polyline stroke-linejoin="round" stroke-width="0.5" stroke-linecap="butt" stroke="#ff0000" fill="none" points="269.584,62.9809 290.897,62.9809"/>
   <g font-style="normal" font-family="FreeSans" font-weight="normal" font-size="15" xml:space="preserve" transform="translate(295.159,68.9809) rotate(-0,-0,-6)">
    <text y="-0" fill="rgb(0,0,0)" x="0 11 19 23 31 36 44 52 60 63 ">Referência</text>
   </g>
   <polyline stroke-linejoin="round" stroke-width="0.5" stroke-linecap="butt" stroke="#000000" fill="none" points="269.584,82.1619 290.897,82.1619"/>
   <g font-style="normal" font-family="FreeSans" font-weight="normal" font-size="15" xml:space="preserve" transform="translate(295.159,88.6619) rotate(-0,-0,-6.5)">
    <text y="-1" fill="rgb(0,0,0)" x="0 10 13 25 33 36 44 52 ">Simulada</text>
   </g>
  </g>
 </g>
</svg>
