<?xml version='1.0' encoding='UTF-8' standalone='no'?>
<svg height="295pt" viewBox="0 0 394 295" xmlns="http://www.w3.org/2000/svg" xmlns:xlink="http://www.w3.org/1999/xlink" width="394pt">
 <title>Figure 14</title>
 <desc>
Creator: GL2PS 1.4.2, (C) 1999-2020 C. Geuzaine
For: Octave
CreationDate: Mon Nov 14 20:08:25 2022
</desc>
 <defs/>
 <polygon points="0,0 394,0 394,295 0,295" fill="#ffffff"/>
 <g>
  <polygon shape-rendering="crispEdges" points="0,295 394,295 394,0 0,0" fill="#ffffff"/>
  <clipPath id="cp00394295">
   <polygon points="0,295 394,295 394,0 0,0"/>
  </clipPath>
  <g clip-path="url(#cp00394295)">
   <polygon shape-rendering="crispEdges" points="51.2383,259.108 356.697,259.108 356.697,22.1704 51.2383,22.1704" fill="#ffffff"/>
   <polyline stroke-linejoin="miter" stroke-dasharray="1,3,1,3,1,3,1,3" stroke-linecap="butt" stroke-opacity="0.25" points="66.5112,259.108 66.5112,22.1704" fill="none" stroke="#191919" stroke-width="0.5"/>
   <polyline stroke-linejoin="miter" stroke-dasharray="1,3,1,3,1,3,1,3" stroke-linecap="butt" stroke-opacity="0.25" points="81.7841,259.108 81.7841,22.1704" fill="none" stroke="#191919" stroke-width="0.5"/>
   <polyline stroke-linejoin="miter" stroke-dasharray="1,3,1,3,1,3,1,3" stroke-linecap="butt" stroke-opacity="0.25" points="97.0571,259.108 97.0571,22.1704" fill="none" stroke="#191919" stroke-width="0.5"/>
   <polyline stroke-linejoin="miter" stroke-dasharray="1,3,1,3,1,3,1,3" stroke-linecap="butt" stroke-opacity="0.25" points="112.33,259.108 112.33,22.1704" fill="none" stroke="#191919" stroke-width="0.5"/>
   <polyline stroke-linejoin="miter" stroke-dasharray="1,3,1,3,1,3,1,3" stroke-linecap="butt" stroke-opacity="0.25" points="142.876,259.108 142.876,22.1704" fill="none" stroke="#191919" stroke-width="0.5"/>
   <polyline stroke-linejoin="miter" stroke-dasharray="1,3,1,3,1,3,1,3" stroke-linecap="butt" stroke-opacity="0.25" points="158.149,259.108 158.149,22.1704" fill="none" stroke="#191919" stroke-width="0.5"/>
   <polyline stroke-linejoin="miter" stroke-dasharray="1,3,1,3,1,3,1,3" stroke-linecap="butt" stroke-opacity="0.25" points="173.422,259.108 173.422,22.1704" fill="none" stroke="#191919" stroke-width="0.5"/>
   <polyline stroke-linejoin="miter" stroke-dasharray="1,3,1,3,1,3,1,3" stroke-linecap="butt" stroke-opacity="0.25" points="188.695,259.108 188.695,22.1704" fill="none" stroke="#191919" stroke-width="0.5"/>
   <polyline stroke-linejoin="miter" stroke-dasharray="1,3,1,3,1,3,1,3" stroke-linecap="butt" stroke-opacity="0.25" points="219.241,259.108 219.241,22.1704" fill="none" stroke="#191919" stroke-width="0.5"/>
   <polyline stroke-linejoin="miter" stroke-dasharray="1,3,1,3,1,3,1,3" stroke-linecap="butt" stroke-opacity="0.25" points="234.513,259.108 234.513,22.1704" fill="none" stroke="#191919" stroke-width="0.5"/>
   <polyline stroke-linejoin="miter" stroke-dasharray="1,3,1,3,1,3,1,3" stroke-linecap="butt" stroke-opacity="0.25" points="249.786,259.108 249.786,22.1704" fill="none" stroke="#191919" stroke-width="0.5"/>
   <polyline stroke-linejoin="miter" stroke-dasharray="1,3,1,3,1,3,1,3" stroke-linecap="butt" stroke-opacity="0.25" points="265.059,259.108 265.059,22.1704" fill="none" stroke="#191919" stroke-width="0.5"/>
   <polyline stroke-linejoin="miter" stroke-dasharray="1,3,1,3,1,3,1,3" stroke-linecap="butt" stroke-opacity="0.25" points="295.605,259.108 295.605,22.1704" fill="none" stroke="#191919" stroke-width="0.5"/>
   <polyline stroke-linejoin="miter" stroke-dasharray="1,3,1,3,1,3,1,3" stroke-linecap="butt" stroke-opacity="0.25" points="310.878,259.108 310.878,22.1704" fill="none" stroke="#191919" stroke-width="0.5"/>
   <polyline stroke-linejoin="miter" stroke-dasharray="1,3,1,3,1,3,1,3" stroke-linecap="butt" stroke-opacity="0.25" points="326.151,259.108 326.151,22.1704" fill="none" stroke="#191919" stroke-width="0.5"/>
   <polyline stroke-linejoin="miter" stroke-dasharray="1,3,1,3,1,3,1,3" stroke-linecap="butt" stroke-opacity="0.25" points="341.424,259.108 341.424,22.1704" fill="none" stroke="#191919" stroke-width="0.5"/>
   <polyline stroke-linejoin="miter" stroke-dasharray="1,3,1,3,1,3,1,3" stroke-linecap="butt" stroke-opacity="0.25" points="51.2383,259.108 51.2383,22.1704" fill="none" stroke="#191919" stroke-width="0.5"/>
   <polyline stroke-linejoin="miter" stroke-dasharray="1,3,1,3,1,3,1,3" stroke-linecap="butt" stroke-opacity="0.25" points="127.603,259.108 127.603,22.1704" fill="none" stroke="#191919" stroke-width="0.5"/>
   <polyline stroke-linejoin="miter" stroke-dasharray="1,3,1,3,1,3,1,3" stroke-linecap="butt" stroke-opacity="0.25" points="203.968,259.108 203.968,22.1704" fill="none" stroke="#191919" stroke-width="0.5"/>
   <polyline stroke-linejoin="miter" stroke-dasharray="1,3,1,3,1,3,1,3" stroke-linecap="butt" stroke-opacity="0.25" points="280.332,259.108 280.332,22.1704" fill="none" stroke="#191919" stroke-width="0.5"/>
   <polyline stroke-linejoin="miter" stroke-dasharray="1,3,1,3,1,3,1,3" stroke-linecap="butt" stroke-opacity="0.25" points="356.697,259.108 356.697,22.1704" fill="none" stroke="#191919" stroke-width="0.5"/>
   <polyline stroke-linejoin="miter" stroke-linecap="butt" points="51.2383,259.108 51.2383,256.054" fill="none" stroke="#262626" stroke-width="0.5"/>
   <polyline stroke-linejoin="miter" stroke-linecap="butt" points="51.2383,22.1704 51.2383,25.2242" fill="none" stroke="#262626" stroke-width="0.5"/>
   <polyline stroke-linejoin="miter" stroke-linecap="butt" points="127.603,259.108 127.603,256.054" fill="none" stroke="#262626" stroke-width="0.5"/>
   <polyline stroke-linejoin="miter" stroke-linecap="butt" points="127.603,22.1704 127.603,25.2242" fill="none" stroke="#262626" stroke-width="0.5"/>
   <polyline stroke-linejoin="miter" stroke-linecap="butt" points="203.968,259.108 203.968,256.054" fill="none" stroke="#262626" stroke-width="0.5"/>
   <polyline stroke-linejoin="miter" stroke-linecap="butt" points="203.968,22.1704 203.968,25.2242" fill="none" stroke="#262626" stroke-width="0.5"/>
   <polyline stroke-linejoin="miter" stroke-linecap="butt" points="280.332,259.108 280.332,256.054" fill="none" stroke="#262626" stroke-width="0.5"/>
   <polyline stroke-linejoin="miter" stroke-linecap="butt" points="280.332,22.1704 280.332,25.2242" fill="none" stroke="#262626" stroke-width="0.5"/>
   <polyline stroke-linejoin="miter" stroke-linecap="butt" points="356.697,259.108 356.697,256.054" fill="none" stroke="#262626" stroke-width="0.5"/>
   <polyline stroke-linejoin="miter" stroke-linecap="butt" points="356.697,22.1704 356.697,25.2242" fill="none" stroke="#262626" stroke-width="0.5"/>
   <g transform="translate(43.7382,274.606) rotate(-0,7.5,-8)" font-weight="normal" font-family="FreeSans" xml:space="preserve" font-size="10" font-style="normal">
    <text y="-0" x="0 3 9 " fill="rgb(38,38,38)">-10</text>
   </g>
   <g transform="translate(123.103,274.606) rotate(-0,4.5,-8)" font-weight="normal" font-family="FreeSans" xml:space="preserve" font-size="10" font-style="normal">
    <text y="-0" x="0 3 " fill="rgb(38,38,38)">-5</text>
   </g>
   <g transform="translate(200.968,274.606) rotate(-0,3,-8)" font-weight="normal" font-family="FreeSans" xml:space="preserve" font-size="10" font-style="normal">
    <text y="-0" x="0 " fill="rgb(38,38,38)">0</text>
   </g>
   <g transform="translate(277.332,274.606) rotate(-0,3,-8)" font-weight="normal" font-family="FreeSans" xml:space="preserve" font-size="10" font-style="normal">
    <text y="-0" x="0 " fill="rgb(38,38,38)">5</text>
   </g>
   <g transform="translate(350.697,274.606) rotate(-0,6,-8)" font-weight="normal" font-family="FreeSans" xml:space="preserve" font-size="10" font-style="normal">
    <text y="-0" x="0 6 " fill="rgb(38,38,38)">10</text>
   </g>
   <polyline stroke-linejoin="miter" stroke-dasharray="1,3,1,3,1,3,1,3" stroke-linecap="butt" stroke-opacity="0.25" points="51.2383,247.261 356.697,247.261" fill="none" stroke="#191919" stroke-width="0.5"/>
   <polyline stroke-linejoin="miter" stroke-dasharray="1,3,1,3,1,3,1,3" stroke-linecap="butt" stroke-opacity="0.25" points="51.2383,235.414 356.697,235.414" fill="none" stroke="#191919" stroke-width="0.5"/>
   <polyline stroke-linejoin="miter" stroke-dasharray="1,3,1,3,1,3,1,3" stroke-linecap="butt" stroke-opacity="0.25" points="51.2383,223.567 356.697,223.567" fill="none" stroke="#191919" stroke-width="0.5"/>
   <polyline stroke-linejoin="miter" stroke-dasharray="1,3,1,3,1,3,1,3" stroke-linecap="butt" stroke-opacity="0.25" points="51.2383,211.72 356.697,211.72" fill="none" stroke="#191919" stroke-width="0.5"/>
   <polyline stroke-linejoin="miter" stroke-dasharray="1,3,1,3,1,3,1,3" stroke-linecap="butt" stroke-opacity="0.25" points="51.2383,188.027 356.697,188.027" fill="none" stroke="#191919" stroke-width="0.5"/>
   <polyline stroke-linejoin="miter" stroke-dasharray="1,3,1,3,1,3,1,3" stroke-linecap="butt" stroke-opacity="0.25" points="51.2383,176.18 356.697,176.18" fill="none" stroke="#191919" stroke-width="0.5"/>
   <polyline stroke-linejoin="miter" stroke-dasharray="1,3,1,3,1,3,1,3" stroke-linecap="butt" stroke-opacity="0.25" points="51.2383,164.333 356.697,164.333" fill="none" stroke="#191919" stroke-width="0.5"/>
   <polyline stroke-linejoin="miter" stroke-dasharray="1,3,1,3,1,3,1,3" stroke-linecap="butt" stroke-opacity="0.25" points="51.2383,152.486 356.697,152.486" fill="none" stroke="#191919" stroke-width="0.5"/>
   <polyline stroke-linejoin="miter" stroke-dasharray="1,3,1,3,1,3,1,3" stroke-linecap="butt" stroke-opacity="0.25" points="51.2383,128.792 356.697,128.792" fill="none" stroke="#191919" stroke-width="0.5"/>
   <polyline stroke-linejoin="miter" stroke-dasharray="1,3,1,3,1,3,1,3" stroke-linecap="butt" stroke-opacity="0.25" points="51.2383,116.945 356.697,116.945" fill="none" stroke="#191919" stroke-width="0.5"/>
   <polyline stroke-linejoin="miter" stroke-dasharray="1,3,1,3,1,3,1,3" stroke-linecap="butt" stroke-opacity="0.25" points="51.2383,105.098 356.697,105.098" fill="none" stroke="#191919" stroke-width="0.5"/>
   <polyline stroke-linejoin="miter" stroke-dasharray="1,3,1,3,1,3,1,3" stroke-linecap="butt" stroke-opacity="0.25" points="51.2383,93.2516 356.697,93.2516" fill="none" stroke="#191919" stroke-width="0.5"/>
   <polyline stroke-linejoin="miter" stroke-dasharray="1,3,1,3,1,3,1,3" stroke-linecap="butt" stroke-opacity="0.25" points="51.2383,69.5579 356.697,69.5579" fill="none" stroke="#191919" stroke-width="0.5"/>
   <polyline stroke-linejoin="miter" stroke-dasharray="1,3,1,3,1,3,1,3" stroke-linecap="butt" stroke-opacity="0.25" points="51.2383,57.711 356.697,57.711" fill="none" stroke="#191919" stroke-width="0.5"/>
   <polyline stroke-linejoin="miter" stroke-dasharray="1,3,1,3,1,3,1,3" stroke-linecap="butt" stroke-opacity="0.25" points="51.2383,45.8641 356.697,45.8641" fill="none" stroke="#191919" stroke-width="0.5"/>
   <polyline stroke-linejoin="miter" stroke-dasharray="1,3,1,3,1,3,1,3" stroke-linecap="butt" stroke-opacity="0.25" points="51.2383,34.0172 356.697,34.0172" fill="none" stroke="#191919" stroke-width="0.5"/>
   <polyline stroke-linejoin="miter" stroke-dasharray="1,3,1,3,1,3,1,3" stroke-linecap="butt" stroke-opacity="0.25" points="51.2383,259.108 356.697,259.108" fill="none" stroke="#191919" stroke-width="0.5"/>
   <polyline stroke-linejoin="miter" stroke-dasharray="1,3,1,3,1,3,1,3" stroke-linecap="butt" stroke-opacity="0.25" points="51.2383,199.873 356.697,199.873" fill="none" stroke="#191919" stroke-width="0.5"/>
   <polyline stroke-linejoin="miter" stroke-dasharray="1,3,1,3,1,3,1,3" stroke-linecap="butt" stroke-opacity="0.25" points="51.2383,140.639 356.697,140.639" fill="none" stroke="#191919" stroke-width="0.5"/>
   <polyline stroke-linejoin="miter" stroke-dasharray="1,3,1,3,1,3,1,3" stroke-linecap="butt" stroke-opacity="0.25" points="51.2383,81.4047 356.697,81.4047" fill="none" stroke="#191919" stroke-width="0.5"/>
   <polyline stroke-linejoin="miter" stroke-dasharray="1,3,1,3,1,3,1,3" stroke-linecap="butt" stroke-opacity="0.25" points="51.2383,22.1704 356.697,22.1704" fill="none" stroke="#191919" stroke-width="0.5"/>
   <polyline stroke-linejoin="miter" stroke-linecap="butt" points="51.2383,259.108 54.2974,259.108" fill="none" stroke="#262626" stroke-width="0.5"/>
   <polyline stroke-linejoin="miter" stroke-linecap="butt" points="356.697,259.108 353.638,259.108" fill="none" stroke="#262626" stroke-width="0.5"/>
   <polyline stroke-linejoin="miter" stroke-linecap="butt" points="51.2383,199.873 54.2974,199.873" fill="none" stroke="#262626" stroke-width="0.5"/>
   <polyline stroke-linejoin="miter" stroke-linecap="butt" points="356.697,199.873 353.638,199.873" fill="none" stroke="#262626" stroke-width="0.5"/>
   <polyline stroke-linejoin="miter" stroke-linecap="butt" points="51.2383,140.639 54.2974,140.639" fill="none" stroke="#262626" stroke-width="0.5"/>
   <polyline stroke-linejoin="miter" stroke-linecap="butt" points="356.697,140.639 353.638,140.639" fill="none" stroke="#262626" stroke-width="0.5"/>
   <polyline stroke-linejoin="miter" stroke-linecap="butt" points="51.2383,81.4047 54.2974,81.4047" fill="none" stroke="#262626" stroke-width="0.5"/>
   <polyline stroke-linejoin="miter" stroke-linecap="butt" points="356.697,81.4047 353.638,81.4047" fill="none" stroke="#262626" stroke-width="0.5"/>
   <polyline stroke-linejoin="miter" stroke-linecap="butt" points="51.2383,22.1704 54.2974,22.1704" fill="none" stroke="#262626" stroke-width="0.5"/>
   <polyline stroke-linejoin="miter" stroke-linecap="butt" points="356.697,22.1704 353.638,22.1704" fill="none" stroke="#262626" stroke-width="0.5"/>
   <g transform="translate(31.2307,263.108) rotate(-0,15,-4)" font-weight="normal" font-family="FreeSans" xml:space="preserve" font-size="10" font-style="normal">
    <text y="-0" x="0 3 9 " fill="rgb(38,38,38)">-10</text>
   </g>
   <g transform="translate(37.2307,203.873) rotate(-0,9,-4)" font-weight="normal" font-family="FreeSans" xml:space="preserve" font-size="10" font-style="normal">
    <text y="-0" x="0 3 " fill="rgb(38,38,38)">-5</text>
   </g>
   <g transform="translate(40.2307,144.639) rotate(-0,6,-4)" font-weight="normal" font-family="FreeSans" xml:space="preserve" font-size="10" font-style="normal">
    <text y="-0" x="0 " fill="rgb(38,38,38)">0</text>
   </g>
   <g transform="translate(40.2307,85.4047) rotate(-0,6,-4)" font-weight="normal" font-family="FreeSans" xml:space="preserve" font-size="10" font-style="normal">
    <text y="-0" x="0 " fill="rgb(38,38,38)">5</text>
   </g>
   <g transform="translate(34.2307,26.1704) rotate(-0,12,-4)" font-weight="normal" font-family="FreeSans" xml:space="preserve" font-size="10" font-style="normal">
    <text y="-0" x="0 6 " fill="rgb(38,38,38)">10</text>
   </g>
   <polyline stroke-linejoin="miter" stroke-dasharray="16,0" stroke-linecap="square" points="51.2383,259.108 356.697,259.108" fill="none" stroke="#262626" stroke-width="0.5"/>
   <polyline stroke-linejoin="miter" stroke-dasharray="16,0" stroke-linecap="square" points="51.2383,22.1704 356.697,22.1704" fill="none" stroke="#262626" stroke-width="0.5"/>
   <polyline stroke-linejoin="miter" stroke-dasharray="16,0" stroke-linecap="square" points="51.2383,259.108 51.2383,22.1704" fill="none" stroke="#262626" stroke-width="0.5"/>
   <polyline stroke-linejoin="miter" stroke-dasharray="16,0" stroke-linecap="square" points="356.697,259.108 356.697,22.1704" fill="none" stroke="#262626" stroke-width="0.5"/>
   <g transform="translate(153.968,295.606) rotate(-0,50,-16)" font-weight="normal" font-family="FreeSans" xml:space="preserve" font-size="15" font-style="normal">
    <text y="-4" x="0 10 18 25 28 36 44 52 56 66 70 75 83 95 " fill="rgb(38,38,38)">Posição Y (cm)</text>
   </g>
   <g transform="translate(-23.7693,140.639) rotate(-90,50,0)" font-weight="normal" font-family="FreeSans" xml:space="preserve" font-size="15" font-style="normal">
    <text y="-4" x="0 10 18 25 28 36 44 52 56 66 70 75 83 95 " fill="rgb(38,38,38)">Posição X (cm)</text>
   </g>
   <polyline stroke-linejoin="round" stroke-linecap="butt" points="214.185,140.639 214.185,140.639 214.185,140.639 214.185,140.639 213.11,140.639 210.958,141.473 210.958,141.473 210.958,139.805 212.035,139.805 212.035,139.805 213.11,139.805 212.035,140.639 212.035,140.639 210.958,140.639 210.958,139.805 210.958,139.805 210.958,139.805 210.958,139.805 210.958,140.639 208.808,142.307 202.355,148.148 199.128,151.485 195.9,154.822 189.448,164.834 187.297,169.005 185.145,174.01 185.145,184.022 186.22,188.194 190.523,192.365 200.203,198.205 207.732,199.873 216.337,201.541 235.697,203.211 245.377,203.211 255.057,203.211 271.19,202.377 277.643,202.377 281.945,202.377 285.172,203.211 285.172,204.045 284.097,204.045 279.795,205.714 277.643,206.548 275.492,206.548 274.417,206.548 275.492,205.714 276.568,204.045 279.795,200.707 281.945,198.205 285.172,194.868 287.323,191.531 293.777,177.348 294.852,163.999 294.852,163.999 294.852,148.982 294.852,140.639 294.852,132.296 293.777,117.279 293.777,117.279 294.852,103.096 295.927,98.091 297.003,93.0845 301.305,85.576 303.457,83.0728 305.607,81.4047 307.759,81.4047 306.684,83.908 305.607,84.742 304.532,84.742 299.155,85.576 297.003,85.576 293.777,84.742 286.247,83.0728 281.945,82.2387 276.568,80.5707 270.115,78.9015 253.98,77.2334 244.3,76.3994 220.638,75.5642 206.657,75.5642 193.75,75.5642 165.785,76.3994 152.878,77.2334 142.123,77.2334 123.838,78.9015 117.385,79.7367 114.158,80.5707 114.158,81.4047 116.31,81.4047 119.536,81.4047 130.292,80.5707 135.67,80.5707 143.198,81.4047 145.35,83.0728 145.35,87.2452 145.35,87.2452 139.972,95.5878 135.67,100.593 131.368,106.434 121.688,119.781 118.461,128.125 115.233,136.468 114.158,153.988 114.158,153.988 117.385,172.342 120.613,181.519 135.67,202.377 139.972,207.382 144.273,210.719 149.652,213.222 149.652,212.387 148.576,209.885 143.198,203.211 137.821,199.039 133.518,196.536 125.99,193.199 123.838,194.033 123.838,194.868 128.141,199.039 128.141,199.039 139.972,204.045 147.501,206.548 156.105,209.05 175.465,212.387 175.465,212.387 195.9,214.056 217.412,214.056 217.412,214.056 238.923,213.222 265.812,209.05 272.265,208.216 276.568,206.548 279.795,205.714 283.022,204.879 280.87,205.714 278.719,206.548 273.342,209.885 271.19,210.719 270.115,212.387 270.115,212.387 270.115,212.387 272.265,209.885 275.492,204.879 277.643,201.541 279.795,197.37 280.87,193.199 283.022,189.028 285.172,179.016 286.247,174.01 287.323,168.17 289.475,156.49 289.475,148.982 288.399,134.799 288.399,127.29 287.323,120.617 286.247,113.108 283.022,102.262 281.945,97.2558 280.87,93.9186 280.87,89.7473 280.87,88.9133 281.945,89.7473 283.022,91.4165 285.172,93.0845 285.172,93.0845 285.172,93.0845 284.097,91.4165 284.097,91.4165 278.719,88.0793 275.492,86.41 271.19,84.742 259.359,81.4047 243.225,79.7367 221.715,77.2334 209.883,76.3994 198.052,75.5642 174.39,75.5642 163.635,75.5642 153.955,75.5642 139.972,76.3994 135.67,77.2334 132.443,77.2334 131.368,78.0675 131.368,78.9015 132.443,78.9015 132.443,78.9015 132.443,78.9015 131.368,78.9015 130.292,79.7367 129.216,81.4047 129.216,83.0728 127.065,87.2452 127.065,89.7473 125.99,93.9186 125.99,97.2558 127.065,107.268 127.065,113.108 129.216,125.622 129.216,133.131 130.292,140.639 130.292,148.148 131.368,156.49 131.368,170.673 132.443,176.514 132.443,182.353 132.443,196.536 132.443,199.039 132.443,201.541 132.443,201.541 132.443,200.707 132.443,199.039 132.443,198.205 133.518,196.536 133.518,197.37 134.593,198.205 136.745,200.707 136.745,200.707 142.123,204.045 145.35,205.714 148.576,207.382 158.256,209.05 163.635,209.885 170.088,210.719 186.22,210.719 194.825,210.719 204.505,210.719 226.017,210.719 236.772,210.719 257.208,209.885 264.737,209.885 277.643,209.885 281.945,209.05 283.022,209.05 281.945,209.885 278.719,209.885 276.568,209.885 274.417,210.719 272.265,210.719 270.115,209.05 272.265,206.548 273.342,204.879 274.417,202.377 277.643,196.536 278.719,192.365 280.87,189.028 283.022,179.016 285.172,173.176 286.247,166.502 287.323,159.827 288.399,152.319 289.475,137.302 289.475,128.959 289.475,121.451 288.399,106.434 287.323,98.925 287.323,92.2505 286.247,82.2387 285.172,79.7367 285.172,78.0675 285.172,78.0675 285.172,81.4047 285.172,81.4047 285.172,86.41 285.172,88.9133 283.022,91.4165 280.87,92.2505 278.719,91.4165 275.492,90.5813 266.888,88.0793 252.905,83.908 252.905,83.908 234.62,79.7367 222.79,77.2334 198.052,73.0621 184.07,71.3929 171.163,70.5589 132.443,69.7249 121.688,70.5589 113.083,72.2281 104.478,75.5642 103.403,77.2334 105.553,78.9015 113.083,81.4047 119.536,82.2387 127.065,83.0728 138.896,83.0728 138.896,83.0728 145.35,83.908 146.425,85.576 145.35,88.0793 139.972,93.9186 135.67,98.091 131.368,103.93 122.763,116.444 119.536,123.953 117.385,132.296 116.31,150.651 117.385,160.661 118.461,170.673 125.99,189.028 131.368,197.37 135.67,204.879 143.198,214.891 146.425,217.394 147.501,219.062 146.425,219.062 144.273,218.228 141.048,216.56 134.593,214.056 134.593,214.056 128.141,211.553 128.141,210.719 130.292,210.719 133.518,211.553 137.821,211.553 149.652,212.387 156.105,211.553 163.635,211.553 180.843,209.885 200.203,209.05 200.203,209.05 219.563,209.05 229.243,209.05 238.923,209.05 255.057,210.719 261.51,211.553 266.888,212.387 273.342,212.387 273.342,212.387 274.417,212.387 271.19,212.387 270.115,212.387 269.039,212.387 269.039,211.553 269.039,211.553 271.19,210.719 273.342,208.216 274.417,205.714 275.492,203.211 276.568,200.707 277.643,197.37 279.795,189.862 279.795,185.69 280.87,179.851 281.945,167.336 281.945,159.827 284.097,133.965 285.172,124.788 286.247,115.61 288.399,99.7591 289.475,93.0845 290.55,88.9133 291.625,85.576 291.625,83.908 292.702,84.742 292.702,85.576 293.777,85.576 294.852,85.576 294.852,85.576 293.777,84.742 291.625,83.0728 290.55,82.2387 288.399,82.2387 283.022,81.4047 273.342,81.4047 273.342,81.4047 260.435,82.2387 251.83,83.0728 242.15,83.908 219.563,85.576 207.732,86.41 194.825,86.41 167.936,87.2452 156.105,87.2452 144.273,86.41 125.99,84.742 119.536,83.908 115.233,83.0728 114.158,81.4047 116.31,81.4047 119.536,81.4047 130.292,82.2387 130.292,82.2387 139.972,83.908 144.273,85.576 148.576,93.9186 147.501,97.2558 145.35,101.427 137.821,109.771 133.518,114.776 128.141,120.617 122.763,126.456 118.461,132.296 114.158,144.81 114.158,158.993 116.31,166.502 118.461,174.845 127.065,189.028 132.443,195.702 136.745,200.707 145.35,207.382 146.425,209.05 147.501,209.05 146.425,208.216 144.273,207.382 136.745,204.045 133.518,201.541 129.216,200.707 125.99,199.039 128.141,199.873 131.368,201.541 143.198,204.879 150.728,206.548 159.332,209.05 169.012,211.553 189.448,214.891 200.203,215.725 209.883,216.56 230.32,215.725 240,214.891 248.603,214.056 261.51,210.719 265.812,209.05 267.963,207.382 269.039,206.548 269.039,206.548 266.888,208.216 265.812,209.885 264.737,212.387 264.737,212.387 265.812,214.056 267.963,214.056 271.19,211.553 273.342,209.885 274.417,206.548 276.568,203.211 278.719,194.868 279.795,190.697 281.945,179.016 281.945,165.668 283.022,158.993 283.022,143.976 283.022,135.634 283.022,121.451 283.022,114.776 283.022,109.771 283.022,105.6 283.022,102.262 284.097,98.925 284.097,98.925 284.097,98.925 284.097,98.091 284.097,97.2558 284.097,97.2558 284.097,97.2558 281.945,96.4218 280.87,96.4218 280.87,95.5878 278.719,95.5878 275.492,93.9186 273.342,93.9186 265.812,92.2505 260.435,91.4165 253.98,90.5813 246.452,89.7473 226.017,87.2452 215.26,87.2452 203.43,85.576 178.692,83.908 165.785,83.908 153.955,83.0728 143.198,83.0728 125.99,83.0728 120.613,83.0728 116.31,83.0728 116.31,83.908 118.461,83.908 121.688,83.0728 131.368,83.0728 131.368,83.0728 141.048,83.0728 148.576,87.2452 148.576,89.7473 146.425,93.0845 144.273,97.2558 135.67,106.434 130.292,111.439 124.913,118.113 119.536,124.788 113.083,138.971 110.933,147.314 112.008,163.999 114.158,172.342 117.385,181.519 121.688,189.028 132.443,201.541 137.821,205.714 147.501,209.885 149.652,210.719 150.728,209.885 149.652,208.216 147.501,205.714 138.896,201.541 134.593,199.039 129.216,197.37 121.688,196.536 120.613,197.37 121.688,198.205 130.292,201.541 136.745,204.045 166.86,211.553 179.768,214.056 193.75,215.725 220.638,217.394 232.47,217.394 244.3,216.56 260.435,213.222 265.812,210.719 269.039,209.05 271.19,206.548 270.115,206.548 269.039,207.382 266.888,209.885 265.812,210.719 265.812,210.719 266.888,213.222 269.039,214.056 271.19,212.387 273.342,211.553 274.417,210.719 274.417,209.885 274.417,209.05 273.342,209.05 272.265,209.885 271.19,210.719 271.19,211.553 271.19,211.553 272.265,209.885 272.265,209.885 272.265,208.216 272.265,209.05 273.342,208.216 273.342,209.05 273.342,209.885 272.265,210.719 272.265,210.719 272.265,209.885 272.265,209.05 272.265,209.05 272.265,209.05 272.265,209.885 272.265,209.885 272.265,210.719 272.265,210.719 272.265,209.885 272.265,209.05" fill="none" stroke="#0000ff" stroke-width="0.5"/>
   <polyline stroke-linejoin="round" stroke-linecap="butt" points="203.968,140.639 203.968,140.639 203.968,140.639 203.968,140.639 203.968,140.639 203.968,140.639 203.968,140.639 203.968,140.639 203.968,140.639 203.968,140.639 203.968,140.639 203.968,140.639 203.968,140.639 203.968,140.639 112.33,211.72 127.603,211.72 142.876,211.72 158.149,211.72 173.422,211.72 188.695,211.72 203.968,211.72 219.241,211.72 234.513,211.72 249.786,211.72 265.059,211.72 280.332,211.72 295.605,211.72 295.605,211.72 295.605,211.72 295.605,211.72 295.605,211.72 295.605,211.72 295.605,211.72 295.605,211.72 295.605,211.72 295.605,211.72 295.605,211.72 295.605,211.72 295.605,211.72 295.605,199.873 295.605,188.027 295.605,176.18 295.605,164.333 295.605,152.486 295.605,140.639 295.605,128.792 295.605,116.945 295.605,105.098 295.605,93.2516 295.605,81.4047 295.605,69.5579 295.605,69.5579 295.605,69.5579 295.605,69.5579 295.605,69.5579 295.605,69.5579 295.605,69.5579 295.605,69.5579 295.605,69.5579 295.605,69.5579 295.605,69.5579 295.605,69.5579 295.605,69.5579 280.332,69.5579 265.059,69.5579 249.786,69.5579 234.513,69.5579 219.241,69.5579 203.968,69.5579 188.695,69.5579 173.422,69.5579 158.149,69.5579 142.876,69.5579 127.603,69.5579 112.33,69.5579 112.33,69.5579 112.33,69.5579 112.33,69.5579 112.33,69.5579 112.33,69.5579 112.33,69.5579 112.33,69.5579 112.33,69.5579 112.33,69.5579 112.33,69.5579 112.33,69.5579 112.33,69.5579 112.33,81.4047 112.33,93.2516 112.33,105.098 112.33,116.945 112.33,128.792 112.33,140.639 112.33,152.486 112.33,164.333 112.33,176.18 112.33,188.027 112.33,199.873 112.33,211.72 112.33,211.72 112.33,211.72 112.33,211.72 112.33,211.72 112.33,211.72 112.33,211.72 112.33,211.72 112.33,211.72 112.33,211.72 112.33,211.72 112.33,211.72 112.33,211.72 112.33,211.72 127.603,211.72 142.876,211.72 158.149,211.72 173.422,211.72 188.695,211.72 203.968,211.72 219.241,211.72 234.513,211.72 249.786,211.72 265.059,211.72 280.332,211.72 295.605,211.72 295.605,211.72 295.605,211.72 295.605,211.72 295.605,211.72 295.605,211.72 295.605,211.72 295.605,211.72 295.605,211.72 295.605,211.72 295.605,211.72 295.605,211.72 295.605,211.72 295.605,199.873 295.605,188.027 295.605,176.18 295.605,164.333 295.605,152.486 295.605,140.639 295.605,128.792 295.605,116.945 295.605,105.098 295.605,93.2516 295.605,81.4047 295.605,69.5579 295.605,69.5579 295.605,69.5579 295.605,69.5579 295.605,69.5579 295.605,69.5579 295.605,69.5579 295.605,69.5579 295.605,69.5579 295.605,69.5579 295.605,69.5579 295.605,69.5579 295.605,69.5579 280.332,69.5579 265.059,69.5579 249.786,69.5579 234.513,69.5579 219.241,69.5579 203.968,69.5579 188.695,69.5579 173.422,69.5579 158.149,69.5579 142.876,69.5579 127.603,69.5579 112.33,69.5579 112.33,69.5579 112.33,69.5579 112.33,69.5579 112.33,69.5579 112.33,69.5579 112.33,69.5579 112.33,69.5579 112.33,69.5579 112.33,69.5579 112.33,69.5579 112.33,69.5579 112.33,69.5579 112.33,81.4047 112.33,93.2516 112.33,105.098 112.33,116.945 112.33,128.792 112.33,140.639 112.33,152.486 112.33,164.333 112.33,176.18 112.33,188.027 112.33,199.873 112.33,211.72 112.33,211.72 112.33,211.72 112.33,211.72 112.33,211.72 112.33,211.72 112.33,211.72 112.33,211.72 112.33,211.72 112.33,211.72 112.33,211.72 112.33,211.72 112.33,211.72 112.33,211.72 127.603,211.72 142.876,211.72 158.149,211.72 173.422,211.72 188.695,211.72 203.968,211.72 219.241,211.72 234.513,211.72 249.786,211.72 265.059,211.72 280.332,211.72 295.605,211.72 295.605,211.72 295.605,211.72 295.605,211.72 295.605,211.72 295.605,211.72 295.605,211.72 295.605,211.72 295.605,211.72 295.605,211.72 295.605,211.72 295.605,211.72 295.605,211.72 295.605,199.873 295.605,188.027 295.605,176.18 295.605,164.333 295.605,152.486 295.605,140.639 295.605,128.792 295.605,116.945 295.605,105.098 295.605,93.2516 295.605,81.4047 295.605,69.5579 295.605,69.5579 295.605,69.5579 295.605,69.5579 295.605,69.5579 295.605,69.5579 295.605,69.5579 295.605,69.5579 295.605,69.5579 295.605,69.5579 295.605,69.5579 295.605,69.5579 295.605,69.5579 280.332,69.5579 265.059,69.5579 249.786,69.5579 234.513,69.5579 219.241,69.5579 203.968,69.5579 188.695,69.5579 173.422,69.5579 158.149,69.5579 142.876,69.5579 127.603,69.5579 112.33,69.5579 112.33,69.5579 112.33,69.5579 112.33,69.5579 112.33,69.5579 112.33,69.5579 112.33,69.5579 112.33,69.5579 112.33,69.5579 112.33,69.5579 112.33,69.5579 112.33,69.5579 112.33,69.5579 112.33,81.4047 112.33,93.2516 112.33,105.098 112.33,116.945 112.33,128.792 112.33,140.639 112.33,152.486 112.33,164.333 112.33,176.18 112.33,188.027 112.33,199.873 112.33,211.72 112.33,211.72 112.33,211.72 112.33,211.72 112.33,211.72 112.33,211.72 112.33,211.72 112.33,211.72 112.33,211.72 112.33,211.72 112.33,211.72 112.33,211.72 112.33,211.72 112.33,211.72 127.603,211.72 142.876,211.72 158.149,211.72 173.422,211.72 188.695,211.72 203.968,211.72 219.241,211.72 234.513,211.72 249.786,211.72 265.059,211.72 280.332,211.72 295.605,211.72 295.605,211.72 295.605,211.72 295.605,211.72 295.605,211.72 295.605,211.72 295.605,211.72 295.605,211.72 295.605,211.72 295.605,211.72 295.605,211.72 295.605,211.72 295.605,211.72 295.605,199.873 295.605,188.027 295.605,176.18 295.605,164.333 295.605,152.486 295.605,140.639 295.605,128.792 295.605,116.945 295.605,105.098 295.605,93.2516 295.605,81.4047 295.605,69.5579 295.605,69.5579 295.605,69.5579 295.605,69.5579 295.605,69.5579 295.605,69.5579 295.605,69.5579 295.605,69.5579 295.605,69.5579 295.605,69.5579 295.605,69.5579 295.605,69.5579 295.605,69.5579 280.332,69.5579 265.059,69.5579 249.786,69.5579 234.513,69.5579 219.241,69.5579 203.968,69.5579 188.695,69.5579 173.422,69.5579 158.149,69.5579 142.876,69.5579 127.603,69.5579 112.33,69.5579 112.33,69.5579 112.33,69.5579 112.33,69.5579 112.33,69.5579 112.33,69.5579 112.33,69.5579 112.33,69.5579 112.33,69.5579 112.33,69.5579 112.33,69.5579 112.33,69.5579 112.33,69.5579 112.33,81.4047 112.33,93.2516 112.33,105.098 112.33,116.945 112.33,128.792 112.33,140.639 112.33,152.486 112.33,164.333 112.33,176.18 112.33,188.027 112.33,199.873 112.33,211.72 112.33,211.72 112.33,211.72 112.33,211.72 112.33,211.72 112.33,211.72 112.33,211.72 112.33,211.72 112.33,211.72 112.33,211.72 112.33,211.72 112.33,211.72 112.33,211.72 112.33,211.72 127.603,211.72 142.876,211.72 158.149,211.72 173.422,211.72 188.695,211.72 203.968,211.72 219.241,211.72 234.513,211.72 249.786,211.72 265.059,211.72 280.332,211.72 295.605,211.72 295.605,211.72 295.605,211.72 295.605,211.72 295.605,211.72 295.605,211.72 295.605,211.72 295.605,211.72 295.605,211.72 295.605,211.72 295.605,211.72 295.605,211.72 295.605,211.72 295.605,199.873 295.605,188.027 295.605,176.18 295.605,164.333 295.605,152.486 295.605,140.639 295.605,128.792 295.605,116.945 295.605,105.098 295.605,93.2516 295.605,81.4047 295.605,69.5579 295.605,69.5579 295.605,69.5579 295.605,69.5579 295.605,69.5579 295.605,69.5579 295.605,69.5579 295.605,69.5579 295.605,69.5579 295.605,69.5579 295.605,69.5579 295.605,69.5579 295.605,69.5579 280.332,69.5579 265.059,69.5579 249.786,69.5579 234.513,69.5579 219.241,69.5579 203.968,69.5579 188.695,69.5579 173.422,69.5579 158.149,69.5579 142.876,69.5579 127.603,69.5579 112.33,69.5579 112.33,69.5579 112.33,69.5579 112.33,69.5579 112.33,69.5579 112.33,69.5579 112.33,69.5579 112.33,69.5579 112.33,69.5579 112.33,69.5579 112.33,69.5579 112.33,69.5579 112.33,69.5579 112.33,81.4047 112.33,93.2516 112.33,105.098 112.33,116.945 112.33,128.792 112.33,140.639 112.33,152.486 112.33,164.333 112.33,176.18 112.33,188.027 112.33,199.873 112.33,211.72 112.33,211.72 112.33,211.72 112.33,211.72 112.33,211.72 112.33,211.72 112.33,211.72 112.33,211.72 112.33,211.72 112.33,211.72 112.33,211.72 112.33,211.72 112.33,211.72 112.33,211.72 127.603,211.72 142.876,211.72 158.149,211.72 173.422,211.72 188.695,211.72 203.968,211.72 219.241,211.72 234.513,211.72 249.786,211.72 265.059,211.72 280.332,211.72 295.605,211.72 295.605,211.72 295.605,211.72 295.605,211.72 295.605,211.72 295.605,211.72 295.605,211.72 295.605,211.72 295.605,211.72 295.605,211.72 295.605,211.72 295.605,211.72 295.605,211.72 295.605,211.72 295.605,211.72 295.605,211.72 295.605,211.72 295.605,211.72 295.605,211.72 295.605,211.72 295.605,211.72 295.605,211.72 295.605,211.72 295.605,211.72 295.605,211.72 295.605,211.72 295.605,211.72 295.605,211.72 295.605,211.72 295.605,211.72 295.605,211.72 295.605,211.72 295.605,211.72 295.605,211.72 295.605,211.72 295.605,211.72 295.605,211.72 295.605,211.72 295.605,211.72 295.605,211.72 295.605,211.72 295.605,211.72 295.605,211.72 295.605,211.72 295.605,211.72" fill="none" stroke="#ff0000" stroke-width="0.5"/>
   <polyline stroke-linejoin="round" stroke-linecap="butt" points="214.185,140.639 214.165,140.639 214.01,140.639 213.653,140.639 213.108,140.639 212.42,140.639 211.639,140.639 210.813,140.639 209.981,140.639 209.172,140.639 208.409,140.639 207.705,140.639 207.068,140.639 206.502,140.639 206.007,140.639 205.402,140.778 203.675,141.859 200.435,144.341 196.095,148.13 191.327,152.918 186.801,158.349 183.07,164.096 180.546,169.886 179.504,175.512 180.095,180.824 182.375,185.724 186.325,190.154 191.875,194.091 198.885,197.534 207.022,200.501 215.843,203.021 224.923,205.132 233.903,206.874 242.512,208.291 250.555,209.425 257.911,210.316 264.514,211.002 270.343,211.517 275.411,211.891 279.752,212.152 283.419,212.299 286.474,212.195 288.981,211.623 291.007,210.38 292.618,208.31 293.873,205.315 294.831,201.351 295.541,196.414 296.05,190.537 296.396,183.775 296.614,176.199 296.733,167.889 296.777,158.951 296.766,149.624 296.716,140.223 296.64,131.038 296.549,122.305 296.45,114.192 296.348,106.804 296.249,100.197 296.155,94.3818 296.068,89.3408 295.99,85.0331 295.92,81.4037 295.829,78.3887 295.514,75.9206 294.673,73.9316 293.026,72.3559 290.357,71.1318 286.526,70.2025 281.466,69.5169 275.166,69.0298 267.661,68.7018 259.017,68.4991 249.323,68.3929 238.68,68.3594 227.221,68.3789 215.257,68.4355 203.189,68.5164 191.395,68.6118 180.176,68.714 169.751,68.8174 160.255,68.9178 151.761,69.0126 144.284,69.0998 137.8,69.1786 132.259,69.2484 127.59,69.3094 123.71,69.385 120.534,69.6328 117.973,70.2869 115.944,71.566 114.368,73.6373 113.171,76.6089 112.287,80.5338 111.659,85.4203 111.235,91.2413 110.973,97.9452 110.836,105.464 110.792,113.719 110.816,122.606 110.888,131.886 110.992,141.246 111.114,150.394 111.245,159.096 111.378,167.182 111.507,174.547 111.629,181.136 111.741,186.935 111.842,191.964 111.932,196.262 112.01,199.884 112.078,202.893 112.165,205.357 112.475,207.343 113.309,208.917 114.951,210.14 117.615,211.068 121.44,211.754 126.495,212.241 132.791,212.569 140.292,212.772 148.932,212.879 158.623,212.913 169.265,212.895 180.721,212.839 192.683,212.758 204.75,212.663 216.543,212.562 227.761,212.459 238.185,212.359 247.68,212.264 256.174,212.177 263.651,212.099 270.134,212.029 275.675,211.968 280.345,211.916 284.224,211.849 287.401,211.608 289.961,210.961 291.99,209.687 293.567,207.621 294.764,204.654 295.648,200.732 296.276,195.849 296.699,190.03 296.962,183.329 297.099,175.812 297.143,167.557 297.119,158.671 297.047,149.392 296.943,140.032 296.821,130.885 296.69,122.183 296.557,114.097 296.428,106.732 296.307,100.144 296.195,94.3439 296.093,89.3151 296.003,85.0172 295.925,81.3952 295.828,78.3858 295.508,75.9219 294.665,73.9358 293.016,72.362 290.346,71.139 286.515,70.2102 281.455,69.5248 275.156,69.0375 267.651,68.7091 259.009,68.5058 249.316,68.399 238.673,68.3648 227.215,68.3836 215.252,68.4395 203.185,68.5199 191.391,68.6147 180.173,68.7163 169.748,68.8193 160.254,68.9193 151.759,69.0138 144.283,69.1007 137.8,69.1793 132.259,69.2489 127.59,69.3098 123.71,69.3852 120.534,69.6329 117.973,70.287 115.944,71.566 114.368,73.6373 113.171,76.6088 112.287,80.5338 111.659,85.4202 111.236,91.2412 110.974,97.9451 110.836,105.464 110.792,113.719 110.816,122.606 110.888,131.886 110.992,141.246 111.114,150.394 111.245,159.096 111.378,167.182 111.507,174.547 111.629,181.136 111.741,186.935 111.842,191.964 111.932,196.262 112.01,199.884 112.078,202.893 112.165,205.357 112.475,207.343 113.309,208.917 114.951,210.14 117.615,211.068 121.44,211.754 126.495,212.241 132.791,212.569 140.292,212.772 148.932,212.879 158.623,212.913 169.265,212.895 180.721,212.839 192.683,212.758 204.75,212.663 216.543,212.562 227.761,212.459 238.185,212.359 247.68,212.264 256.174,212.177 263.651,212.099 270.134,212.029 275.675,211.968 280.345,211.916 284.224,211.849 287.401,211.608 289.961,210.961 291.99,209.687 293.567,207.621 294.764,204.654 295.648,200.732 296.276,195.849 296.699,190.03 296.962,183.329 297.099,175.812 297.143,167.557 297.119,158.671 297.047,149.392 296.943,140.032 296.821,130.885 296.69,122.183 296.557,114.097 296.428,106.732 296.307,100.144 296.195,94.3439 296.093,89.3151 296.003,85.0172 295.925,81.3952 295.828,78.3858 295.508,75.9219 294.665,73.9358 293.016,72.362 290.346,71.139 286.515,70.2102 281.455,69.5248 275.156,69.0375 267.651,68.7091 259.009,68.5058 249.316,68.399 238.673,68.3648 227.215,68.3836 215.252,68.4395 203.185,68.5199 191.391,68.6147 180.173,68.7163 169.748,68.8193 160.254,68.9193 151.759,69.0138 144.283,69.1007 137.8,69.1793 132.259,69.2489 127.59,69.3098 123.71,69.3852 120.534,69.6329 117.973,70.287 115.944,71.566 114.368,73.6373 113.171,76.6088 112.287,80.5338 111.659,85.4202 111.236,91.2412 110.974,97.9451 110.836,105.464 110.792,113.719 110.816,122.606 110.888,131.886 110.992,141.246 111.114,150.394 111.245,159.096 111.378,167.182 111.507,174.547 111.629,181.136 111.741,186.935 111.842,191.964 111.932,196.262 112.01,199.884 112.078,202.893 112.165,205.357 112.475,207.343 113.309,208.917 114.951,210.14 117.615,211.068 121.44,211.754 126.495,212.241 132.791,212.569 140.292,212.772 148.932,212.879 158.623,212.913 169.265,212.895 180.721,212.839 192.683,212.758 204.75,212.663 216.543,212.562 227.761,212.459 238.185,212.359 247.68,212.264 256.174,212.177 263.651,212.099 270.134,212.029 275.675,211.968 280.345,211.916 284.224,211.849 287.401,211.608 289.961,210.961 291.99,209.687 293.567,207.621 294.764,204.654 295.648,200.732 296.276,195.849 296.699,190.03 296.962,183.329 297.099,175.812 297.143,167.557 297.119,158.671 297.047,149.392 296.943,140.032 296.821,130.885 296.69,122.183 296.557,114.097 296.428,106.732 296.307,100.144 296.195,94.3439 296.093,89.3151 296.003,85.0172 295.925,81.3952 295.828,78.3858 295.508,75.9219 294.665,73.9358 293.016,72.362 290.346,71.139 286.515,70.2102 281.455,69.5248 275.156,69.0375 267.651,68.7091 259.009,68.5058 249.316,68.399 238.673,68.3648 227.215,68.3836 215.252,68.4395 203.185,68.5199 191.391,68.6147 180.173,68.7163 169.748,68.8193 160.254,68.9193 151.759,69.0138 144.283,69.1007 137.8,69.1793 132.259,69.2489 127.59,69.3098 123.71,69.3852 120.534,69.6329 117.973,70.287 115.944,71.566 114.368,73.6373 113.171,76.6088 112.287,80.5338 111.659,85.4202 111.236,91.2412 110.974,97.9451 110.836,105.464 110.792,113.719 110.816,122.606 110.888,131.886 110.992,141.246 111.114,150.394 111.245,159.096 111.378,167.182 111.507,174.547 111.629,181.136 111.741,186.935 111.842,191.964 111.932,196.262 112.01,199.884 112.078,202.893 112.165,205.357 112.475,207.343 113.309,208.917 114.951,210.14 117.615,211.068 121.44,211.754 126.495,212.241 132.791,212.569 140.292,212.772 148.932,212.879 158.623,212.913 169.265,212.895 180.721,212.839 192.683,212.758 204.75,212.663 216.543,212.562 227.761,212.459 238.185,212.359 247.68,212.264 256.174,212.177 263.651,212.099 270.134,212.029 275.675,211.968 280.345,211.916 284.224,211.849 287.401,211.608 289.961,210.961 291.99,209.687 293.567,207.621 294.764,204.654 295.648,200.732 296.276,195.849 296.699,190.03 296.962,183.329 297.099,175.812 297.143,167.557 297.119,158.671 297.047,149.392 296.943,140.032 296.821,130.885 296.69,122.183 296.557,114.097 296.428,106.732 296.307,100.144 296.195,94.3439 296.093,89.3151 296.003,85.0172 295.925,81.3952 295.828,78.3858 295.508,75.9219 294.665,73.9358 293.016,72.362 290.346,71.139 286.515,70.2102 281.455,69.5248 275.156,69.0375 267.651,68.7091 259.009,68.5058 249.316,68.399 238.673,68.3648 227.215,68.3836 215.252,68.4395 203.185,68.5199 191.391,68.6147 180.173,68.7163 169.748,68.8193 160.254,68.9193 151.759,69.0138 144.283,69.1007 137.8,69.1793 132.259,69.2489 127.59,69.3098 123.71,69.3852 120.534,69.6329 117.973,70.287 115.944,71.566 114.368,73.6373 113.171,76.6088 112.287,80.5338 111.659,85.4202 111.236,91.2412 110.974,97.9451 110.836,105.464 110.792,113.719 110.816,122.606 110.888,131.886 110.992,141.246 111.114,150.394 111.245,159.096 111.378,167.182 111.507,174.547 111.629,181.136 111.741,186.935 111.842,191.964 111.932,196.262 112.01,199.884 112.078,202.893 112.165,205.357 112.475,207.343 113.309,208.917 114.951,210.14 117.615,211.068 121.44,211.754 126.495,212.241 132.791,212.569 140.292,212.772 148.932,212.879 158.623,212.913 169.265,212.895 180.721,212.839 192.683,212.758 204.75,212.663 216.543,212.562 227.761,212.459 238.185,212.359 247.68,212.264 256.174,212.177 263.651,212.099 270.134,212.029 275.675,211.968 280.345,211.916 284.224,211.872 287.401,211.835 289.961,211.804 291.99,211.779 293.567,211.759 294.764,211.744 295.648,211.732 296.276,211.723 296.699,211.717 296.962,211.712 297.099,211.709 297.143,211.708 297.119,211.707 297.047,211.707 296.943,211.707 296.821,211.708 296.69,211.709 296.557,211.71 296.428,211.711 296.307,211.713 296.195,211.714 296.093,211.715 296.003,211.716 295.925,211.716 295.858,211.717 295.8,211.718 295.753,211.718 295.713,211.719 295.681,211.719 295.656,211.719 295.636,211.72" fill="none" stroke="#000000" stroke-width="0.5"/>
  </g>
  <clipPath id="cp00394295">
   <polygon points="0,295 394,295 394,0 0,0"/>
  </clipPath>
  <g clip-path="url(#cp00394295)">
   <polygon shape-rendering="crispEdges" points="243.073,92.5007 348.172,92.5007 348.172,30.6953 243.073,30.6953" fill="#ffffff"/>
   <polyline stroke-linejoin="miter" stroke-dasharray="16,0" stroke-linecap="square" points="243.073,92.5007 348.172,92.5007" fill="none" stroke="#262626" stroke-width="0.5"/>
   <polyline stroke-linejoin="miter" stroke-dasharray="16,0" stroke-linecap="square" points="243.073,30.6953 348.172,30.6953" fill="none" stroke="#262626" stroke-width="0.5"/>
   <polyline stroke-linejoin="miter" stroke-dasharray="16,0" stroke-linecap="square" points="243.073,92.5007 243.073,30.6953" fill="none" stroke="#262626" stroke-width="0.5"/>
   <polyline stroke-linejoin="miter" stroke-dasharray="16,0" stroke-linecap="square" points="348.172,92.5007 348.172,30.6953" fill="none" stroke="#262626" stroke-width="0.5"/>
   <polyline stroke-linejoin="round" stroke-linecap="butt" points="247.335,42.417 268.647,42.417" fill="none" stroke="#0000ff" stroke-width="0.5"/>
   <g transform="translate(272.91,48.417) rotate(-0,-0,-6)" font-weight="normal" font-family="FreeSans" xml:space="preserve" font-size="15" font-style="normal">
    <text y="-0" x="0 11 19 27 " fill="rgb(0,0,0)">Real</text>
   </g>
   <polyline stroke-linejoin="round" stroke-linecap="butt" points="247.335,61.598 268.647,61.598" fill="none" stroke="#ff0000" stroke-width="0.5"/>
   <g transform="translate(272.91,67.598) rotate(-0,-0,-6)" font-weight="normal" font-family="FreeSans" xml:space="preserve" font-size="15" font-style="normal">
    <text y="-0" x="0 11 19 23 31 36 44 52 60 63 " fill="rgb(0,0,0)">Referência</text>
   </g>
   <polyline stroke-linejoin="round" stroke-linecap="butt" points="247.335,80.779 268.647,80.779" fill="none" stroke="#000000" stroke-width="0.5"/>
   <g transform="translate(272.91,87.279) rotate(-0,-0,-6.5)" font-weight="normal" font-family="FreeSans" xml:space="preserve" font-size="15" font-style="normal">
    <text y="-1" x="0 10 13 25 33 36 44 52 " fill="rgb(0,0,0)">Simulada</text>
   </g>
  </g>
 </g>
</svg>
