<?xml version='1.0' encoding='UTF-8' standalone='no'?>
<svg width="394pt" viewBox="0 0 394 295" xmlns="http://www.w3.org/2000/svg" height="295pt" xmlns:xlink="http://www.w3.org/1999/xlink">
 <title>Figure 13</title>
 <desc>
Creator: GL2PS 1.4.2, (C) 1999-2020 C. Geuzaine
For: Octave
CreationDate: Mon Nov 14 20:08:49 2022
</desc>
 <defs/>
 <polygon points="0,0 394,0 394,295 0,295" fill="#ffffff"/>
 <g>
  <polygon points="0,295 394,295 394,0 0,0" fill="#ffffff" shape-rendering="crispEdges"/>
  <clipPath id="cp00394295">
   <polygon points="0,295 394,295 394,0 0,0"/>
  </clipPath>
  <g clip-path="url(#cp00394295)">
   <polygon points="51.2383,259.108 356.697,259.108 356.697,22.1704 51.2383,22.1704" fill="#ffffff" shape-rendering="crispEdges"/>
   <polyline stroke-opacity="0.25" stroke-dasharray="1,3,1,3,1,3,1,3" stroke-width="0.5" stroke-linejoin="miter" stroke="#191919" points="67.6514,259.108 67.6514,22.1704" fill="none" stroke-linecap="butt"/>
   <polyline stroke-opacity="0.25" stroke-dasharray="1,3,1,3,1,3,1,3" stroke-width="0.5" stroke-linejoin="miter" stroke="#191919" points="84.0645,259.108 84.0645,22.1704" fill="none" stroke-linecap="butt"/>
   <polyline stroke-opacity="0.25" stroke-dasharray="1,3,1,3,1,3,1,3" stroke-width="0.5" stroke-linejoin="miter" stroke="#191919" points="100.478,259.108 100.478,22.1704" fill="none" stroke-linecap="butt"/>
   <polyline stroke-opacity="0.25" stroke-dasharray="1,3,1,3,1,3,1,3" stroke-width="0.5" stroke-linejoin="miter" stroke="#191919" points="116.891,259.108 116.891,22.1704" fill="none" stroke-linecap="butt"/>
   <polyline stroke-opacity="0.25" stroke-dasharray="1,3,1,3,1,3,1,3" stroke-width="0.5" stroke-linejoin="miter" stroke="#191919" points="149.717,259.108 149.717,22.1704" fill="none" stroke-linecap="butt"/>
   <polyline stroke-opacity="0.25" stroke-dasharray="1,3,1,3,1,3,1,3" stroke-width="0.5" stroke-linejoin="miter" stroke="#191919" points="166.13,259.108 166.13,22.1704" fill="none" stroke-linecap="butt"/>
   <polyline stroke-opacity="0.25" stroke-dasharray="1,3,1,3,1,3,1,3" stroke-width="0.5" stroke-linejoin="miter" stroke="#191919" points="182.543,259.108 182.543,22.1704" fill="none" stroke-linecap="butt"/>
   <polyline stroke-opacity="0.25" stroke-dasharray="1,3,1,3,1,3,1,3" stroke-width="0.5" stroke-linejoin="miter" stroke="#191919" points="198.956,259.108 198.956,22.1704" fill="none" stroke-linecap="butt"/>
   <polyline stroke-opacity="0.25" stroke-dasharray="1,3,1,3,1,3,1,3" stroke-width="0.5" stroke-linejoin="miter" stroke="#191919" points="231.782,259.108 231.782,22.1704" fill="none" stroke-linecap="butt"/>
   <polyline stroke-opacity="0.25" stroke-dasharray="1,3,1,3,1,3,1,3" stroke-width="0.5" stroke-linejoin="miter" stroke="#191919" points="248.196,259.108 248.196,22.1704" fill="none" stroke-linecap="butt"/>
   <polyline stroke-opacity="0.25" stroke-dasharray="1,3,1,3,1,3,1,3" stroke-width="0.5" stroke-linejoin="miter" stroke="#191919" points="264.609,259.108 264.609,22.1704" fill="none" stroke-linecap="butt"/>
   <polyline stroke-opacity="0.25" stroke-dasharray="1,3,1,3,1,3,1,3" stroke-width="0.5" stroke-linejoin="miter" stroke="#191919" points="281.022,259.108 281.022,22.1704" fill="none" stroke-linecap="butt"/>
   <polyline stroke-opacity="0.25" stroke-dasharray="1,3,1,3,1,3,1,3" stroke-width="0.5" stroke-linejoin="miter" stroke="#191919" points="313.848,259.108 313.848,22.1704" fill="none" stroke-linecap="butt"/>
   <polyline stroke-opacity="0.25" stroke-dasharray="1,3,1,3,1,3,1,3" stroke-width="0.5" stroke-linejoin="miter" stroke="#191919" points="330.261,259.108 330.261,22.1704" fill="none" stroke-linecap="butt"/>
   <polyline stroke-opacity="0.25" stroke-dasharray="1,3,1,3,1,3,1,3" stroke-width="0.5" stroke-linejoin="miter" stroke="#191919" points="346.674,259.108 346.674,22.1704" fill="none" stroke-linecap="butt"/>
   <polyline stroke-opacity="0.15" stroke-dasharray="16,0" stroke-width="0.5" stroke-linejoin="miter" stroke="#262626" points="51.2383,259.108 51.2383,22.1704" fill="none" stroke-linecap="butt"/>
   <polyline stroke-opacity="0.15" stroke-dasharray="16,0" stroke-width="0.5" stroke-linejoin="miter" stroke="#262626" points="133.304,259.108 133.304,22.1704" fill="none" stroke-linecap="butt"/>
   <polyline stroke-opacity="0.15" stroke-dasharray="16,0" stroke-width="0.5" stroke-linejoin="miter" stroke="#262626" points="215.369,259.108 215.369,22.1704" fill="none" stroke-linecap="butt"/>
   <polyline stroke-opacity="0.15" stroke-dasharray="16,0" stroke-width="0.5" stroke-linejoin="miter" stroke="#262626" points="297.435,259.108 297.435,22.1704" fill="none" stroke-linecap="butt"/>
   <polyline stroke-width="0.5" stroke-linejoin="miter" stroke="#262626" points="51.2383,259.108 51.2383,256.054" fill="none" stroke-linecap="butt"/>
   <polyline stroke-width="0.5" stroke-linejoin="miter" stroke="#262626" points="51.2383,22.1704 51.2383,25.2242" fill="none" stroke-linecap="butt"/>
   <polyline stroke-width="0.5" stroke-linejoin="miter" stroke="#262626" points="133.304,259.108 133.304,256.054" fill="none" stroke-linecap="butt"/>
   <polyline stroke-width="0.5" stroke-linejoin="miter" stroke="#262626" points="133.304,22.1704 133.304,25.2242" fill="none" stroke-linecap="butt"/>
   <polyline stroke-width="0.5" stroke-linejoin="miter" stroke="#262626" points="215.369,259.108 215.369,256.054" fill="none" stroke-linecap="butt"/>
   <polyline stroke-width="0.5" stroke-linejoin="miter" stroke="#262626" points="215.369,22.1704 215.369,25.2242" fill="none" stroke-linecap="butt"/>
   <polyline stroke-width="0.5" stroke-linejoin="miter" stroke="#262626" points="297.435,259.108 297.435,256.054" fill="none" stroke-linecap="butt"/>
   <polyline stroke-width="0.5" stroke-linejoin="miter" stroke="#262626" points="297.435,22.1704 297.435,25.2242" fill="none" stroke-linecap="butt"/>
   <g xml:space="preserve" font-size="10" font-family="FreeSans" font-style="normal" font-weight="normal" transform="translate(48.2382,274.606) rotate(-0,3,-8)">
    <text y="-0" fill="rgb(38,38,38)" x="0 ">0</text>
   </g>
   <g xml:space="preserve" font-size="10" font-family="FreeSans" font-style="normal" font-weight="normal" transform="translate(127.304,274.606) rotate(-0,6,-8)">
    <text y="-0" fill="rgb(38,38,38)" x="0 6 ">10</text>
   </g>
   <g xml:space="preserve" font-size="10" font-family="FreeSans" font-style="normal" font-weight="normal" transform="translate(209.369,274.606) rotate(-0,6,-8)">
    <text y="-0" fill="rgb(38,38,38)" x="0 6 ">20</text>
   </g>
   <g xml:space="preserve" font-size="10" font-family="FreeSans" font-style="normal" font-weight="normal" transform="translate(291.435,274.606) rotate(-0,6,-8)">
    <text y="-0" fill="rgb(38,38,38)" x="0 6 ">30</text>
   </g>
   <polyline stroke-opacity="0.25" stroke-dasharray="1,3,1,3,1,3,1,3" stroke-width="0.5" stroke-linejoin="miter" stroke="#191919" points="51.2383,258.246 356.697,258.246" fill="none" stroke-linecap="butt"/>
   <polyline stroke-opacity="0.25" stroke-dasharray="1,3,1,3,1,3,1,3" stroke-width="0.5" stroke-linejoin="miter" stroke="#191919" points="51.2383,251.807 356.697,251.807" fill="none" stroke-linecap="butt"/>
   <polyline stroke-opacity="0.25" stroke-dasharray="1,3,1,3,1,3,1,3" stroke-width="0.5" stroke-linejoin="miter" stroke="#191919" points="51.2383,245.368 356.697,245.368" fill="none" stroke-linecap="butt"/>
   <polyline stroke-opacity="0.25" stroke-dasharray="1,3,1,3,1,3,1,3" stroke-width="0.5" stroke-linejoin="miter" stroke="#191919" points="51.2383,232.489 356.697,232.489" fill="none" stroke-linecap="butt"/>
   <polyline stroke-opacity="0.25" stroke-dasharray="1,3,1,3,1,3,1,3" stroke-width="0.5" stroke-linejoin="miter" stroke="#191919" points="51.2383,226.05 356.697,226.05" fill="none" stroke-linecap="butt"/>
   <polyline stroke-opacity="0.25" stroke-dasharray="1,3,1,3,1,3,1,3" stroke-width="0.5" stroke-linejoin="miter" stroke="#191919" points="51.2383,219.611 356.697,219.611" fill="none" stroke-linecap="butt"/>
   <polyline stroke-opacity="0.25" stroke-dasharray="1,3,1,3,1,3,1,3" stroke-width="0.5" stroke-linejoin="miter" stroke="#191919" points="51.2383,213.172 356.697,213.172" fill="none" stroke-linecap="butt"/>
   <polyline stroke-opacity="0.25" stroke-dasharray="1,3,1,3,1,3,1,3" stroke-width="0.5" stroke-linejoin="miter" stroke="#191919" points="51.2383,200.293 356.697,200.293" fill="none" stroke-linecap="butt"/>
   <polyline stroke-opacity="0.25" stroke-dasharray="1,3,1,3,1,3,1,3" stroke-width="0.5" stroke-linejoin="miter" stroke="#191919" points="51.2383,193.854 356.697,193.854" fill="none" stroke-linecap="butt"/>
   <polyline stroke-opacity="0.25" stroke-dasharray="1,3,1,3,1,3,1,3" stroke-width="0.5" stroke-linejoin="miter" stroke="#191919" points="51.2383,187.415 356.697,187.415" fill="none" stroke-linecap="butt"/>
   <polyline stroke-opacity="0.25" stroke-dasharray="1,3,1,3,1,3,1,3" stroke-width="0.5" stroke-linejoin="miter" stroke="#191919" points="51.2383,180.975 356.697,180.975" fill="none" stroke-linecap="butt"/>
   <polyline stroke-opacity="0.25" stroke-dasharray="1,3,1,3,1,3,1,3" stroke-width="0.5" stroke-linejoin="miter" stroke="#191919" points="51.2383,168.097 356.697,168.097" fill="none" stroke-linecap="butt"/>
   <polyline stroke-opacity="0.25" stroke-dasharray="1,3,1,3,1,3,1,3" stroke-width="0.5" stroke-linejoin="miter" stroke="#191919" points="51.2383,161.658 356.697,161.658" fill="none" stroke-linecap="butt"/>
   <polyline stroke-opacity="0.25" stroke-dasharray="1,3,1,3,1,3,1,3" stroke-width="0.5" stroke-linejoin="miter" stroke="#191919" points="51.2383,155.218 356.697,155.218" fill="none" stroke-linecap="butt"/>
   <polyline stroke-opacity="0.25" stroke-dasharray="1,3,1,3,1,3,1,3" stroke-width="0.5" stroke-linejoin="miter" stroke="#191919" points="51.2383,148.779 356.697,148.779" fill="none" stroke-linecap="butt"/>
   <polyline stroke-opacity="0.25" stroke-dasharray="1,3,1,3,1,3,1,3" stroke-width="0.5" stroke-linejoin="miter" stroke="#191919" points="51.2383,135.901 356.697,135.901" fill="none" stroke-linecap="butt"/>
   <polyline stroke-opacity="0.25" stroke-dasharray="1,3,1,3,1,3,1,3" stroke-width="0.5" stroke-linejoin="miter" stroke="#191919" points="51.2383,129.461 356.697,129.461" fill="none" stroke-linecap="butt"/>
   <polyline stroke-opacity="0.25" stroke-dasharray="1,3,1,3,1,3,1,3" stroke-width="0.5" stroke-linejoin="miter" stroke="#191919" points="51.2383,123.022 356.697,123.022" fill="none" stroke-linecap="butt"/>
   <polyline stroke-opacity="0.25" stroke-dasharray="1,3,1,3,1,3,1,3" stroke-width="0.5" stroke-linejoin="miter" stroke="#191919" points="51.2383,116.583 356.697,116.583" fill="none" stroke-linecap="butt"/>
   <polyline stroke-opacity="0.25" stroke-dasharray="1,3,1,3,1,3,1,3" stroke-width="0.5" stroke-linejoin="miter" stroke="#191919" points="51.2383,103.704 356.697,103.704" fill="none" stroke-linecap="butt"/>
   <polyline stroke-opacity="0.25" stroke-dasharray="1,3,1,3,1,3,1,3" stroke-width="0.5" stroke-linejoin="miter" stroke="#191919" points="51.2383,97.2651 356.697,97.2651" fill="none" stroke-linecap="butt"/>
   <polyline stroke-opacity="0.25" stroke-dasharray="1,3,1,3,1,3,1,3" stroke-width="0.5" stroke-linejoin="miter" stroke="#191919" points="51.2383,90.8259 356.697,90.8259" fill="none" stroke-linecap="butt"/>
   <polyline stroke-opacity="0.25" stroke-dasharray="1,3,1,3,1,3,1,3" stroke-width="0.5" stroke-linejoin="miter" stroke="#191919" points="51.2383,84.3866 356.697,84.3866" fill="none" stroke-linecap="butt"/>
   <polyline stroke-opacity="0.25" stroke-dasharray="1,3,1,3,1,3,1,3" stroke-width="0.5" stroke-linejoin="miter" stroke="#191919" points="51.2383,71.5081 356.697,71.5081" fill="none" stroke-linecap="butt"/>
   <polyline stroke-opacity="0.25" stroke-dasharray="1,3,1,3,1,3,1,3" stroke-width="0.5" stroke-linejoin="miter" stroke="#191919" points="51.2383,65.0689 356.697,65.0689" fill="none" stroke-linecap="butt"/>
   <polyline stroke-opacity="0.25" stroke-dasharray="1,3,1,3,1,3,1,3" stroke-width="0.5" stroke-linejoin="miter" stroke="#191919" points="51.2383,58.6296 356.697,58.6296" fill="none" stroke-linecap="butt"/>
   <polyline stroke-opacity="0.25" stroke-dasharray="1,3,1,3,1,3,1,3" stroke-width="0.5" stroke-linejoin="miter" stroke="#191919" points="51.2383,52.1904 356.697,52.1904" fill="none" stroke-linecap="butt"/>
   <polyline stroke-opacity="0.25" stroke-dasharray="1,3,1,3,1,3,1,3" stroke-width="0.5" stroke-linejoin="miter" stroke="#191919" points="51.2383,39.3119 356.697,39.3119" fill="none" stroke-linecap="butt"/>
   <polyline stroke-opacity="0.25" stroke-dasharray="1,3,1,3,1,3,1,3" stroke-width="0.5" stroke-linejoin="miter" stroke="#191919" points="51.2383,32.8727 356.697,32.8727" fill="none" stroke-linecap="butt"/>
   <polyline stroke-opacity="0.25" stroke-dasharray="1,3,1,3,1,3,1,3" stroke-width="0.5" stroke-linejoin="miter" stroke="#191919" points="51.2383,26.4334 356.697,26.4334" fill="none" stroke-linecap="butt"/>
   <polyline stroke-opacity="0.15" stroke-dasharray="16,0" stroke-width="0.5" stroke-linejoin="miter" stroke="#262626" points="51.2383,238.929 356.697,238.929" fill="none" stroke-linecap="butt"/>
   <polyline stroke-opacity="0.15" stroke-dasharray="16,0" stroke-width="0.5" stroke-linejoin="miter" stroke="#262626" points="51.2383,206.732 356.697,206.732" fill="none" stroke-linecap="butt"/>
   <polyline stroke-opacity="0.15" stroke-dasharray="16,0" stroke-width="0.5" stroke-linejoin="miter" stroke="#262626" points="51.2383,174.536 356.697,174.536" fill="none" stroke-linecap="butt"/>
   <polyline stroke-opacity="0.15" stroke-dasharray="16,0" stroke-width="0.5" stroke-linejoin="miter" stroke="#262626" points="51.2383,142.34 356.697,142.34" fill="none" stroke-linecap="butt"/>
   <polyline stroke-opacity="0.15" stroke-dasharray="16,0" stroke-width="0.5" stroke-linejoin="miter" stroke="#262626" points="51.2383,110.144 356.697,110.144" fill="none" stroke-linecap="butt"/>
   <polyline stroke-opacity="0.15" stroke-dasharray="16,0" stroke-width="0.5" stroke-linejoin="miter" stroke="#262626" points="51.2383,77.9474 356.697,77.9474" fill="none" stroke-linecap="butt"/>
   <polyline stroke-opacity="0.15" stroke-dasharray="16,0" stroke-width="0.5" stroke-linejoin="miter" stroke="#262626" points="51.2383,45.7511 356.697,45.7511" fill="none" stroke-linecap="butt"/>
   <polyline stroke-width="0.5" stroke-linejoin="miter" stroke="#262626" points="51.2383,238.929 54.2974,238.929" fill="none" stroke-linecap="butt"/>
   <polyline stroke-width="0.5" stroke-linejoin="miter" stroke="#262626" points="356.697,238.929 353.638,238.929" fill="none" stroke-linecap="butt"/>
   <polyline stroke-width="0.5" stroke-linejoin="miter" stroke="#262626" points="51.2383,206.732 54.2974,206.732" fill="none" stroke-linecap="butt"/>
   <polyline stroke-width="0.5" stroke-linejoin="miter" stroke="#262626" points="356.697,206.732 353.638,206.732" fill="none" stroke-linecap="butt"/>
   <polyline stroke-width="0.5" stroke-linejoin="miter" stroke="#262626" points="51.2383,174.536 54.2974,174.536" fill="none" stroke-linecap="butt"/>
   <polyline stroke-width="0.5" stroke-linejoin="miter" stroke="#262626" points="356.697,174.536 353.638,174.536" fill="none" stroke-linecap="butt"/>
   <polyline stroke-width="0.5" stroke-linejoin="miter" stroke="#262626" points="51.2383,142.34 54.2974,142.34" fill="none" stroke-linecap="butt"/>
   <polyline stroke-width="0.5" stroke-linejoin="miter" stroke="#262626" points="356.697,142.34 353.638,142.34" fill="none" stroke-linecap="butt"/>
   <polyline stroke-width="0.5" stroke-linejoin="miter" stroke="#262626" points="51.2383,110.144 54.2974,110.144" fill="none" stroke-linecap="butt"/>
   <polyline stroke-width="0.5" stroke-linejoin="miter" stroke="#262626" points="356.697,110.144 353.638,110.144" fill="none" stroke-linecap="butt"/>
   <polyline stroke-width="0.5" stroke-linejoin="miter" stroke="#262626" points="51.2383,77.9474 54.2974,77.9474" fill="none" stroke-linecap="butt"/>
   <polyline stroke-width="0.5" stroke-linejoin="miter" stroke="#262626" points="356.697,77.9474 353.638,77.9474" fill="none" stroke-linecap="butt"/>
   <polyline stroke-width="0.5" stroke-linejoin="miter" stroke="#262626" points="51.2383,45.7511 54.2974,45.7511" fill="none" stroke-linecap="butt"/>
   <polyline stroke-width="0.5" stroke-linejoin="miter" stroke="#262626" points="356.697,45.7511 353.638,45.7511" fill="none" stroke-linecap="butt"/>
   <g xml:space="preserve" font-size="10" font-family="FreeSans" font-style="normal" font-weight="normal" transform="translate(37.2307,242.929) rotate(-0,9,-4)">
    <text y="-0" fill="rgb(38,38,38)" x="0 3 ">-6</text>
   </g>
   <g xml:space="preserve" font-size="10" font-family="FreeSans" font-style="normal" font-weight="normal" transform="translate(37.2307,210.732) rotate(-0,9,-4)">
    <text y="-0" fill="rgb(38,38,38)" x="0 3 ">-4</text>
   </g>
   <g xml:space="preserve" font-size="10" font-family="FreeSans" font-style="normal" font-weight="normal" transform="translate(37.2307,178.536) rotate(-0,9,-4)">
    <text y="-0" fill="rgb(38,38,38)" x="0 3 ">-2</text>
   </g>
   <g xml:space="preserve" font-size="10" font-family="FreeSans" font-style="normal" font-weight="normal" transform="translate(40.2307,146.34) rotate(-0,6,-4)">
    <text y="-0" fill="rgb(38,38,38)" x="0 ">0</text>
   </g>
   <g xml:space="preserve" font-size="10" font-family="FreeSans" font-style="normal" font-weight="normal" transform="translate(40.2307,114.144) rotate(-0,6,-4)">
    <text y="-0" fill="rgb(38,38,38)" x="0 ">2</text>
   </g>
   <g xml:space="preserve" font-size="10" font-family="FreeSans" font-style="normal" font-weight="normal" transform="translate(40.2307,81.9474) rotate(-0,6,-4)">
    <text y="-0" fill="rgb(38,38,38)" x="0 ">4</text>
   </g>
   <g xml:space="preserve" font-size="10" font-family="FreeSans" font-style="normal" font-weight="normal" transform="translate(40.2307,49.7512) rotate(-0,6,-4)">
    <text y="-0" fill="rgb(38,38,38)" x="0 ">6</text>
   </g>
   <polyline stroke-dasharray="16,0" stroke-width="0.5" stroke-linejoin="miter" stroke="#262626" points="51.2383,259.108 356.697,259.108" fill="none" stroke-linecap="square"/>
   <polyline stroke-dasharray="16,0" stroke-width="0.5" stroke-linejoin="miter" stroke="#262626" points="51.2383,22.1704 356.697,22.1704" fill="none" stroke-linecap="square"/>
   <polyline stroke-dasharray="16,0" stroke-width="0.5" stroke-linejoin="miter" stroke="#262626" points="51.2383,259.108 51.2383,22.1704" fill="none" stroke-linecap="square"/>
   <polyline stroke-dasharray="16,0" stroke-width="0.5" stroke-linejoin="miter" stroke="#262626" points="356.697,259.108 356.697,22.1704" fill="none" stroke-linecap="square"/>
   <g xml:space="preserve" font-size="15" font-family="FreeSans" font-style="normal" font-weight="normal" transform="translate(170.968,295.606) rotate(-0,33,-16)">
    <text y="-4" fill="rgb(38,38,38)" x="0 9 17 29 37 45 49 54 61 ">Tempo (s)</text>
   </g>
   <g xml:space="preserve" font-size="15" font-family="FreeSans" font-style="normal" font-weight="normal" transform="translate(-10.7693,140.639) rotate(-90,43,0)">
    <text y="-4" fill="rgb(38,38,38)" x="0 10 18 25 28 36 44 52 56 61 69 81 ">Posição (cm)</text>
   </g>
   <polyline stroke-width="0.5" stroke-linejoin="round" stroke="#0000ff" points="51.2383,131.57 51.7865,131.57 52.335,131.57 52.8863,131.57 53.4341,132.704 53.985,134.972 54.5376,134.972 55.0854,134.972 55.6349,133.837 56.1869,133.837 56.7359,132.704 57.2867,133.837 57.844,133.837 58.3873,134.972 58.9375,134.972 59.4878,134.972 60.0398,134.972 60.5895,134.972 61.1415,134.972 61.6902,137.238 62.2411,144.04 62.7906,147.441 63.3411,150.843 63.8906,157.644 64.4413,159.911 64.9925,162.179 65.5422,162.179 66.0937,161.046 66.6432,156.511 67.1942,146.308 67.7442,138.372 68.2941,129.302 68.844,108.896 69.3938,98.693 69.945,88.49 70.4971,71.4856 71.0452,64.6841 71.5971,60.1493 72.1462,56.7478 72.6965,56.7478 73.2463,57.8811 73.8008,62.4159 74.3502,64.6841 74.8977,66.9507 75.4506,68.0841 75.9992,66.9507 76.5527,65.8174 77.1046,62.4159 77.6511,60.1493 78.1994,56.7478 78.7519,54.4812 79.3011,47.6781 79.8506,46.5448 80.4014,46.5448 80.9524,46.5448 81.5012,46.5448 82.0533,46.5448 82.6061,47.6781 83.1609,47.6781 83.711,46.5448 84.2626,45.4115 84.8118,44.2782 85.3627,39.7433 85.9132,37.4751 86.4661,35.2085 87.0138,32.9403 87.5639,34.0736 88.1171,35.2085 88.6675,36.3418 89.2178,42.0099 89.7651,44.2782 90.3159,47.6781 90.8673,55.6145 91.4157,60.1493 91.9681,65.8174 92.5181,72.6189 93.0675,89.6249 93.6196,99.8279 94.1723,124.769 94.7199,139.505 95.2774,153.109 95.8224,182.585 96.3745,196.19 96.929,207.526 97.4738,226.799 98.0249,233.6 98.5737,237.002 99.125,237.002 99.6752,234.733 100.224,231.333 100.775,219.996 101.324,214.327 101.877,206.393 102.425,204.124 102.979,204.124 103.527,204.124 104.077,209.793 104.626,214.327 105.178,218.862 105.728,229.065 106.278,232.467 106.828,235.868 107.381,237.002 107.928,237.002 108.48,233.6 109.029,230.199 109.581,214.327 110.131,209.793 110.686,205.259 111.232,199.59 111.782,199.59 112.332,200.724 112.883,206.393 113.433,212.061 113.983,216.596 114.533,224.53 115.083,226.799 115.635,226.799 116.186,222.264 116.735,222.264 117.284,209.793 117.837,201.858 118.385,192.788 118.936,172.382 119.487,172.382 120.038,150.843 120.589,128.169 121.138,128.169 121.69,105.496 122.238,77.1537 122.789,70.3523 123.34,65.8174 123.89,62.4159 124.445,59.0144 124.991,61.2826 125.54,63.5492 126.089,69.2174 126.642,71.4856 127.191,72.6189 127.741,72.6189 128.291,72.6189 128.842,70.3523 129.393,66.9507 129.943,64.6841 130.493,62.4159 131.044,61.2826 131.595,59.0144 132.144,56.7478 132.695,55.6145 133.245,54.4812 133.794,52.2129 134.346,52.2129 134.896,53.3462 135.448,53.3462 135.996,54.4812 136.548,55.6145 137.098,59.0144 137.649,60.1493 138.197,61.2826 138.751,61.2826 139.298,61.2826 139.85,60.1493 140.404,59.0144 140.948,56.7478 141.501,56.7478 142.049,56.7478 142.602,57.8811 143.153,57.8811 143.702,63.5492 144.253,66.9507 144.803,71.4856 145.356,83.9552 145.903,100.961 146.454,123.634 147.002,136.105 147.554,148.575 148.105,173.515 148.654,184.852 149.204,195.055 149.756,209.793 150.305,214.327 150.856,217.729 151.407,218.862 151.956,218.862 152.507,217.729 153.059,217.729 153.608,217.729 154.157,218.862 154.71,219.996 155.258,221.13 155.81,221.13 156.359,223.397 156.91,223.397 157.461,224.53 158.014,224.53 158.564,223.397 159.116,223.397 159.664,221.13 160.212,221.13 160.765,219.996 161.314,219.996 161.864,218.862 162.415,218.862 162.965,217.729 163.515,217.729 164.068,217.729 164.616,217.729 165.166,217.729 165.72,217.729 166.267,217.729 166.819,217.729 167.37,217.729 167.918,216.596 168.469,216.596 169.022,215.462 169.569,213.194 170.121,213.194 170.67,207.526 171.22,204.124 171.772,200.724 172.323,190.521 172.87,184.852 173.423,178.05 173.972,161.046 174.522,151.976 175.073,141.773 175.622,119.099 176.174,107.763 176.725,86.2234 177.273,78.287 177.825,64.6841 178.374,60.1493 178.925,59.0144 179.477,60.1493 180.025,63.5492 180.575,65.8174 181.127,68.0841 181.676,70.3523 182.228,72.6189 182.777,70.3523 183.327,69.2174 183.877,68.0841 184.427,64.6841 184.98,63.5492 185.529,61.2826 186.079,59.0144 186.635,56.7478 187.179,55.6145 187.731,54.4812 188.282,53.3462 188.838,52.2129 189.382,52.2129 189.934,52.2129 190.483,53.3462 191.036,54.4812 191.584,54.4812 192.134,55.6145 192.684,56.7478 193.236,56.7478 193.785,56.7478 194.334,56.7478 194.887,56.7478 195.435,56.7478 195.986,56.7478 196.535,59.0144 197.087,61.2826 197.636,63.5492 198.188,66.9507 198.737,76.0204 199.289,90.7583 199.837,90.7583 200.388,110.031 200.94,122.501 201.495,148.575 202.041,163.312 202.592,176.917 203.142,217.729 203.69,229.065 204.24,238.135 204.793,247.205 205.341,248.338 205.893,246.071 206.444,238.135 206.994,231.333 207.542,223.397 208.094,210.927 208.643,210.927 209.194,204.124 209.746,202.991 210.294,204.124 210.844,209.793 211.395,214.327 211.945,218.862 212.495,227.932 213.048,231.333 213.599,233.6 214.148,234.733 214.698,233.6 215.249,232.467 215.8,224.53 216.35,218.862 216.898,214.327 217.45,206.393 218,202.991 218.55,201.858 219.1,202.991 219.652,205.259 220.2,208.659 220.751,215.462 221.301,215.462 221.851,222.264 222.403,222.264 222.957,219.996 223.502,216.596 224.053,212.061 224.603,199.59 225.154,192.788 225.707,184.852 226.253,166.714 226.805,146.308 227.355,146.308 227.906,125.902 228.46,115.699 229.009,105.496 229.561,88.49 230.109,81.6886 230.661,76.0204 231.213,69.2174 231.762,69.2174 232.312,68.0841 232.862,71.4856 233.411,72.6189 233.963,73.7522 234.512,73.7522 235.063,73.7522 235.615,71.4856 236.164,69.2174 236.717,68.0841 237.265,66.9507 237.816,65.8174 238.366,64.6841 238.918,62.4159 239.471,62.4159 240.015,61.2826 240.566,60.1493 241.118,60.1493 241.667,57.8811 242.218,56.7478 242.766,55.6145 243.319,53.3462 243.87,52.2129 244.418,51.0796 244.969,49.9463 245.52,49.9463 246.07,48.8114 246.62,48.8114 247.174,47.6781 247.72,46.5448 248.272,46.5448 248.822,47.6781 249.371,49.9463 249.923,51.0796 250.473,53.3462 251.022,59.0144 251.573,69.2174 252.124,69.2174 252.673,82.8219 253.225,91.8916 253.773,102.095 254.323,125.902 254.875,138.372 255.426,151.976 255.977,180.319 256.525,192.788 257.078,205.259 257.627,224.53 258.182,231.333 258.728,235.868 259.279,237.002 259.83,234.733 260.379,231.333 260.93,219.996 261.48,219.996 262.029,209.793 262.58,205.259 263.131,200.724 263.682,201.858 264.231,204.124 264.782,212.061 265.331,216.596 265.883,222.264 266.431,227.932 266.981,232.467 267.532,237.002 268.084,237.002 268.634,234.733 269.184,232.467 269.735,223.397 270.285,217.729 270.834,213.194 271.386,204.124 271.935,202.991 272.486,201.858 273.037,202.991 273.586,205.259 274.137,213.194 274.688,216.596 275.244,221.13 275.787,224.53 276.338,222.264 276.889,218.862 277.438,206.393 277.99,198.456 278.538,189.387 279.09,179.184 279.642,157.644 280.19,146.308 280.74,136.105 281.29,114.564 281.842,104.361 282.393,95.2931 282.944,81.6886 283.494,77.1537 284.044,74.8871 284.596,73.7522 285.144,73.7522 285.693,76.0204 286.246,77.1537 286.795,78.287 287.348,78.287 287.896,77.1537 288.446,74.8871 288.997,71.4856 289.545,69.2174 290.096,68.0841 290.648,65.8174 291.197,63.5492 291.747,62.4159 292.299,60.1493 292.848,60.1493 293.4,59.0144 293.95,59.0144 294.499,59.0144 295.049,59.0144 295.599,59.0144 296.151,59.0144 296.701,59.0144 297.252,59.0144 297.802,57.8811 298.352,57.8811 298.903,57.8811 299.452,57.8811 300.002,57.8811 300.552,57.8811 301.104,57.8811 301.653,60.1493 302.203,61.2826 302.755,61.2826 303.304,63.5492 303.855,66.9507 304.404,69.2174 304.955,77.1537 305.509,82.8219 306.057,89.6249 306.607,97.5597 307.158,119.099 307.709,130.437 308.257,142.906 308.809,168.981 309.359,182.585 309.911,195.055 310.459,206.393 311.01,224.53 311.563,230.199 312.109,234.733 312.66,234.733 313.211,232.467 313.763,229.065 314.311,218.862 314.863,218.862 315.412,208.659 315.969,200.724 316.517,200.724 317.067,202.991 317.618,205.259 318.167,214.327 318.719,219.996 319.268,225.665 319.817,231.333 320.368,238.135 320.922,240.402 321.473,239.268 322.022,237.002 322.575,233.6 323.124,229.065 323.673,217.729 324.225,212.061 324.775,201.858 325.325,199.59 325.876,198.456 326.425,199.59 326.977,201.858 327.527,210.927 328.077,215.462 328.629,221.13 329.179,229.065 329.734,230.199 330.278,229.065 330.83,219.996 331.379,213.194 331.929,181.452 332.481,167.847 333.03,153.109 333.581,124.769 334.13,112.298 334.685,99.8279 335.232,82.8219 335.783,77.1537 336.335,73.7522 336.883,71.4856 337.436,72.6189 337.986,73.7522 338.535,76.0204 339.089,77.1537 339.638,77.1537 340.186,76.0204 340.738,73.7522 341.287,71.4856 341.838,69.2174 342.389,68.0841 342.939,68.0841 343.488,68.0841 344.038,69.2174 344.588,70.3523 345.141,71.4856 345.69,71.4856 346.242,71.4856 346.793,70.3523 347.342,70.3523 347.892,70.3523 348.441,70.3523 348.992,69.2174 349.542,69.2174 350.093,69.2174 350.646,70.3523 351.197,70.3523 351.748,70.3523 352.301,70.3523 352.845,70.3523 353.397,70.3523 353.947,70.3523 354.495,70.3523 355.047,70.3523 355.597,70.3523 356.147,70.3523 356.697,70.3523" fill="none" stroke-linecap="butt"/>
   <polyline stroke-width="0.5" stroke-linejoin="round" stroke="#ff0000" points="51.2383,142.34 51.7865,142.34 52.335,142.34 52.8863,142.34 53.4341,142.34 53.985,142.34 54.5376,142.34 55.0854,142.34 55.6349,142.34 56.1869,142.34 56.7359,142.34 57.2867,142.34 57.844,142.34 58.3873,142.34 58.9375,238.929 59.4878,222.83 60.0398,206.732 60.5895,190.634 61.1415,174.536 61.6902,158.438 62.2411,142.34 62.7906,126.242 63.3411,110.144 63.8906,94.0455 64.4413,77.9474 64.9925,61.8493 65.5422,45.7511 66.0937,45.7511 66.6432,45.7511 67.1942,45.7511 67.7442,45.7511 68.2941,45.7511 68.844,45.7511 69.3938,45.7511 69.945,45.7511 70.4971,45.7511 71.0452,45.7511 71.5971,45.7511 72.1462,45.7511 72.6965,45.7511 73.2463,45.7511 73.8008,45.7511 74.3502,45.7511 74.8977,45.7511 75.4506,45.7511 75.9992,45.7511 76.5527,45.7511 77.1046,45.7511 77.6511,45.7511 78.1994,45.7511 78.7519,45.7511 79.3011,45.7511 79.8506,45.7511 80.4014,45.7511 80.9524,45.7511 81.5012,45.7511 82.0533,45.7511 82.6061,45.7511 83.1609,45.7511 83.711,45.7511 84.2626,45.7511 84.8118,45.7511 85.3627,45.7511 85.9132,61.8493 86.4661,77.9474 87.0138,94.0455 87.5639,110.144 88.1171,126.242 88.6675,142.34 89.2178,158.438 89.7651,174.536 90.3159,190.634 90.8673,206.732 91.4157,222.83 91.9681,238.929 92.5181,238.929 93.0675,238.929 93.6196,238.929 94.1723,238.929 94.7199,238.929 95.2774,238.929 95.8224,238.929 96.3745,238.929 96.929,238.929 97.4738,238.929 98.0249,238.929 98.5737,238.929 99.125,238.929 99.6752,238.929 100.224,238.929 100.775,238.929 101.324,238.929 101.877,238.929 102.425,238.929 102.979,238.929 103.527,238.929 104.077,238.929 104.626,238.929 105.178,238.929 105.728,238.929 106.278,238.929 106.828,238.929 107.381,238.929 107.928,238.929 108.48,238.929 109.029,238.929 109.581,238.929 110.131,238.929 110.686,238.929 111.232,238.929 111.782,238.929 112.332,238.929 112.883,222.83 113.433,206.732 113.983,190.634 114.533,174.536 115.083,158.438 115.635,142.34 116.186,126.242 116.735,110.144 117.284,94.0455 117.837,77.9474 118.385,61.8493 118.936,45.7511 119.487,45.7511 120.038,45.7511 120.589,45.7511 121.138,45.7511 121.69,45.7511 122.238,45.7511 122.789,45.7511 123.34,45.7511 123.89,45.7511 124.445,45.7511 124.991,45.7511 125.54,45.7511 126.089,45.7511 126.642,45.7511 127.191,45.7511 127.741,45.7511 128.291,45.7511 128.842,45.7511 129.393,45.7511 129.943,45.7511 130.493,45.7511 131.044,45.7511 131.595,45.7511 132.144,45.7511 132.695,45.7511 133.245,45.7511 133.794,45.7511 134.346,45.7511 134.896,45.7511 135.448,45.7511 135.996,45.7511 136.548,45.7511 137.098,45.7511 137.649,45.7511 138.197,45.7511 138.751,45.7511 139.298,61.8493 139.85,77.9474 140.404,94.0455 140.948,110.144 141.501,126.242 142.049,142.34 142.602,158.438 143.153,174.536 143.702,190.634 144.253,206.732 144.803,222.83 145.356,238.929 145.903,238.929 146.454,238.929 147.002,238.929 147.554,238.929 148.105,238.929 148.654,238.929 149.204,238.929 149.756,238.929 150.305,238.929 150.856,238.929 151.407,238.929 151.956,238.929 152.507,238.929 153.059,238.929 153.608,238.929 154.157,238.929 154.71,238.929 155.258,238.929 155.81,238.929 156.359,238.929 156.91,238.929 157.461,238.929 158.014,238.929 158.564,238.929 159.116,238.929 159.664,238.929 160.212,238.929 160.765,238.929 161.314,238.929 161.864,238.929 162.415,238.929 162.965,238.929 163.515,238.929 164.068,238.929 164.616,238.929 165.166,238.929 165.72,238.929 166.267,222.83 166.819,206.732 167.37,190.634 167.918,174.536 168.469,158.438 169.022,142.34 169.569,126.242 170.121,110.144 170.67,94.0455 171.22,77.9474 171.772,61.8493 172.323,45.7511 172.87,45.7511 173.423,45.7511 173.972,45.7511 174.522,45.7511 175.073,45.7511 175.622,45.7511 176.174,45.7511 176.725,45.7511 177.273,45.7511 177.825,45.7511 178.374,45.7511 178.925,45.7511 179.477,45.7511 180.025,45.7511 180.575,45.7511 181.127,45.7511 181.676,45.7511 182.228,45.7511 182.777,45.7511 183.327,45.7511 183.877,45.7511 184.427,45.7511 184.98,45.7511 185.529,45.7511 186.079,45.7511 186.635,45.7511 187.179,45.7511 187.731,45.7511 188.282,45.7511 188.838,45.7511 189.382,45.7511 189.934,45.7511 190.483,45.7511 191.036,45.7511 191.584,45.7511 192.134,45.7511 192.684,61.8493 193.236,77.9474 193.785,94.0455 194.334,110.144 194.887,126.242 195.435,142.34 195.986,158.438 196.535,174.536 197.087,190.634 197.636,206.732 198.188,222.83 198.737,238.929 199.289,238.929 199.837,238.929 200.388,238.929 200.94,238.929 201.495,238.929 202.041,238.929 202.592,238.929 203.142,238.929 203.69,238.929 204.24,238.929 204.793,238.929 205.341,238.929 205.893,238.929 206.444,238.929 206.994,238.929 207.542,238.929 208.094,238.929 208.643,238.929 209.194,238.929 209.746,238.929 210.294,238.929 210.844,238.929 211.395,238.929 211.945,238.929 212.495,238.929 213.048,238.929 213.599,238.929 214.148,238.929 214.698,238.929 215.249,238.929 215.8,238.929 216.35,238.929 216.898,238.929 217.45,238.929 218,238.929 218.55,238.929 219.1,238.929 219.652,222.83 220.2,206.732 220.751,190.634 221.301,174.536 221.851,158.438 222.403,142.34 222.957,126.242 223.502,110.144 224.053,94.0455 224.603,77.9474 225.154,61.8493 225.707,45.7511 226.253,45.7511 226.805,45.7511 227.355,45.7511 227.906,45.7511 228.46,45.7511 229.009,45.7511 229.561,45.7511 230.109,45.7511 230.661,45.7511 231.213,45.7511 231.762,45.7511 232.312,45.7511 232.862,45.7511 233.411,45.7511 233.963,45.7511 234.512,45.7511 235.063,45.7511 235.615,45.7511 236.164,45.7511 236.717,45.7511 237.265,45.7511 237.816,45.7511 238.366,45.7511 238.918,45.7511 239.471,45.7511 240.015,45.7511 240.566,45.7511 241.118,45.7511 241.667,45.7511 242.218,45.7511 242.766,45.7511 243.319,45.7511 243.87,45.7511 244.418,45.7511 244.969,45.7511 245.52,45.7511 246.07,61.8493 246.62,77.9474 247.174,94.0455 247.72,110.144 248.272,126.242 248.822,142.34 249.371,158.438 249.923,174.536 250.473,190.634 251.022,206.732 251.573,222.83 252.124,238.929 252.673,238.929 253.225,238.929 253.773,238.929 254.323,238.929 254.875,238.929 255.426,238.929 255.977,238.929 256.525,238.929 257.078,238.929 257.627,238.929 258.182,238.929 258.728,238.929 259.279,238.929 259.83,238.929 260.379,238.929 260.93,238.929 261.48,238.929 262.029,238.929 262.58,238.929 263.131,238.929 263.682,238.929 264.231,238.929 264.782,238.929 265.331,238.929 265.883,238.929 266.431,238.929 266.981,238.929 267.532,238.929 268.084,238.929 268.634,238.929 269.184,238.929 269.735,238.929 270.285,238.929 270.834,238.929 271.386,238.929 271.935,238.929 272.486,238.929 273.037,222.83 273.586,206.732 274.137,190.634 274.688,174.536 275.244,158.438 275.787,142.34 276.338,126.242 276.889,110.144 277.438,94.0455 277.99,77.9474 278.538,61.8493 279.09,45.7511 279.642,45.7511 280.19,45.7511 280.74,45.7511 281.29,45.7511 281.842,45.7511 282.393,45.7511 282.944,45.7511 283.494,45.7511 284.044,45.7511 284.596,45.7511 285.144,45.7511 285.693,45.7511 286.246,45.7511 286.795,45.7511 287.348,45.7511 287.896,45.7511 288.446,45.7511 288.997,45.7511 289.545,45.7511 290.096,45.7511 290.648,45.7511 291.197,45.7511 291.747,45.7511 292.299,45.7511 292.848,45.7511 293.4,45.7511 293.95,45.7511 294.499,45.7511 295.049,45.7511 295.599,45.7511 296.151,45.7511 296.701,45.7511 297.252,45.7511 297.802,45.7511 298.352,45.7511 298.903,45.7511 299.452,61.8493 300.002,77.9474 300.552,94.0455 301.104,110.144 301.653,126.242 302.203,142.34 302.755,158.438 303.304,174.536 303.855,190.634 304.404,206.732 304.955,222.83 305.509,238.929 306.057,238.929 306.607,238.929 307.158,238.929 307.709,238.929 308.257,238.929 308.809,238.929 309.359,238.929 309.911,238.929 310.459,238.929 311.01,238.929 311.563,238.929 312.109,238.929 312.66,238.929 313.211,238.929 313.763,238.929 314.311,238.929 314.863,238.929 315.412,238.929 315.969,238.929 316.517,238.929 317.067,238.929 317.618,238.929 318.167,238.929 318.719,238.929 319.268,238.929 319.817,238.929 320.368,238.929 320.922,238.929 321.473,238.929 322.022,238.929 322.575,238.929 323.124,238.929 323.673,238.929 324.225,238.929 324.775,238.929 325.325,238.929 325.876,238.929 326.425,222.83 326.977,206.732 327.527,190.634 328.077,174.536 328.629,158.438 329.179,142.34 329.734,126.242 330.278,110.144 330.83,94.0455 331.379,77.9474 331.929,61.8493 332.481,45.7511 333.03,45.7511 333.581,45.7511 334.13,45.7511 334.685,45.7511 335.232,45.7511 335.783,45.7511 336.335,45.7511 336.883,45.7511 337.436,45.7511 337.986,45.7511 338.535,45.7511 339.089,45.7511 339.638,45.7511 340.186,45.7511 340.738,45.7511 341.287,45.7511 341.838,45.7511 342.389,45.7511 342.939,45.7511 343.488,45.7511 344.038,45.7511 344.588,45.7511 345.141,45.7511 345.69,45.7511 346.242,45.7511 346.793,45.7511 347.342,45.7511 347.892,45.7511 348.441,45.7511 348.992,45.7511 349.542,45.7511 350.093,45.7511 350.646,45.7511 351.197,45.7511 351.748,45.7511 352.301,45.7511 352.845,45.7511 353.397,45.7511 353.947,45.7511 354.495,45.7511 355.047,45.7511 355.597,45.7511 356.147,45.7511 356.697,45.7511" fill="none" stroke-linecap="butt"/>
   <polyline stroke-width="0.5" stroke-linejoin="round" stroke="#000000" points="51.2383,142.232 51.7886,142.232 51.7886,142.232 52.339,142.232 52.339,142.234 52.8894,142.234 52.8894,142.238 53.4398,142.238 53.4398,142.243 53.9901,142.243 53.9901,142.251 54.5405,142.251 54.5405,142.259 55.0909,142.259 55.0909,142.268 55.6413,142.268 55.6413,142.276 56.1916,142.276 56.1916,142.285 56.742,142.285 56.742,142.293 57.2924,142.293 57.2924,142.3 57.8428,142.3 57.8428,142.307 58.3932,142.307 58.3932,142.313 58.9435,142.313 58.9435,142.318 59.4939,142.318 59.4939,142.511 60.0443,142.511 60.0443,143.953 60.5946,143.953 60.5946,147.052 61.145,147.052 61.145,151.365 61.6954,151.365 61.6954,156.177 62.2458,156.177 62.2458,160.779 62.7962,160.779 62.7962,164.577 63.3465,164.577 63.3465,167.134 63.8969,167.134 63.8969,168.156 64.4473,168.156 64.4473,167.477 64.9977,167.477 64.9977,165.035 65.548,165.035 65.548,160.845 66.0984,160.845 66.0984,154.981 66.6488,154.981 66.6488,147.585 67.1992,147.585 67.1992,139.008 67.7495,139.008 67.7495,129.713 68.2999,129.713 68.2999,120.15 68.8503,120.15 68.8503,110.692 69.4007,110.692 69.4007,101.628 69.951,101.628 69.951,93.1599 70.5014,93.1599 70.5014,85.416 71.0518,85.416 71.0518,78.4655 71.6022,78.4655 71.6022,72.3302 72.1525,72.3302 72.1525,66.997 72.7029,66.997 72.7029,62.428 73.2533,62.428 73.2533,58.5687 73.8037,58.5687 73.8037,55.3547 74.3541,55.3547 74.3541,52.7168 74.9044,52.7168 74.9044,50.5849 75.4548,50.5849 75.4548,48.8908 76.0052,48.8908 76.0052,47.5699 76.5556,47.5699 76.5556,46.5628 77.1059,46.5628 77.1059,45.8157 77.6563,45.8157 77.6563,45.281 78.2067,45.281 78.2067,44.9169 78.7571,44.9169 78.7571,44.6877 79.3074,44.6877 79.3074,44.5629 79.8578,44.5629 79.8578,44.5169 80.4082,44.5169 80.4082,44.5288 80.9586,44.5288 80.9586,44.5815 81.5089,44.5815 81.5089,44.6614 82.0593,44.6614 82.0593,44.7578 82.6097,44.7578 82.6097,44.8624 83.1601,44.8624 83.1601,44.9691 83.7104,44.9691 83.7104,45.0735 84.2608,45.0735 84.2608,45.1724 84.8112,45.1724 84.8112,45.2638 85.3616,45.2638 85.3616,45.3466 85.9119,45.3466 85.9119,45.4202 86.4623,45.4202 86.4623,45.5161 87.0127,45.5161 87.0127,45.848 87.5631,45.848 87.5631,46.7336 88.1135,46.7336 88.1135,48.4696 88.6638,48.4696 88.6638,51.2831 89.2142,51.2831 89.2142,55.3207 89.7646,55.3207 89.7646,60.6543 90.315,60.6543 90.315,67.2947 90.8653,67.2947 90.8653,75.2054 91.4157,75.2054 91.4157,84.3159 91.9661,84.3159 91.9661,94.5335 92.5165,94.5335 92.5165,105.752 93.0668,105.752 93.0668,117.83 93.6172,117.83 93.6172,130.441 94.1676,130.441 94.1676,143.16 94.718,143.16 94.718,155.592 95.2683,155.592 95.2683,167.417 95.8187,167.417 95.8187,178.406 96.3691,178.406 96.3691,188.414 96.9195,188.414 96.9195,197.367 97.4698,197.367 97.4698,205.248 98.0202,205.248 98.0202,212.082 98.5706,212.082 98.5706,217.922 99.121,217.922 99.121,222.844 99.6713,222.844 99.6713,226.933 100.222,226.933 100.222,230.281 100.772,230.281 100.772,232.98 101.322,232.98 101.322,235.119 101.873,235.119 101.873,236.781 102.423,236.781 102.423,238.043 102.974,238.043 102.974,238.974 103.524,238.974 103.524,239.636 104.074,239.636 104.074,240.082 104.625,240.082 104.625,240.358 105.175,240.358 105.175,240.504 105.725,240.504 105.725,240.55 106.276,240.55 106.276,240.524 106.826,240.524 106.826,240.448 107.377,240.448 107.377,240.339 107.927,240.339 107.927,240.21 108.477,240.21 108.477,240.072 109.028,240.072 109.028,239.932 109.578,239.932 109.578,239.796 110.129,239.796 110.129,239.668 110.679,239.668 110.679,239.55 111.229,239.55 111.229,239.443 111.78,239.443 111.78,239.348 112.33,239.348 112.33,239.266 112.88,239.266 112.88,239.195 113.431,239.195 113.431,239.103 113.981,239.103 113.981,238.776 114.532,238.776 114.532,237.896 115.082,237.896 115.082,236.166 115.632,236.166 115.632,233.358 116.183,233.358 116.183,229.326 116.733,229.326 116.733,223.998 117.283,223.998 117.283,217.362 117.834,217.362 117.834,209.455 118.384,209.455 118.384,200.348 118.935,200.348 118.935,190.134 119.485,190.134 119.485,178.918 120.035,178.918 120.035,166.843 120.586,166.843 120.586,154.234 121.136,154.234 121.136,141.515 121.686,141.515 121.686,129.085 122.237,129.085 122.237,117.261 122.787,117.261 122.787,106.273 123.338,106.273 123.338,96.2656 123.888,96.2656 123.888,87.3125 124.438,87.3125 124.438,79.4316 124.989,79.4316 124.989,72.5983 125.539,72.5983 125.539,66.758 126.089,66.758 126.089,61.8363 126.64,61.8363 126.64,57.7471 127.19,57.7471 127.19,54.3989 127.741,54.3989 127.741,51.7001 128.291,51.7001 128.291,49.5615 128.841,49.5615 128.841,47.8997 129.392,47.8997 129.392,46.6376 129.942,46.6376 129.942,45.7062 130.492,45.7062 130.492,45.0441 131.043,45.0441 131.043,44.5978 131.593,44.5978 131.593,44.3215 132.144,44.3215 132.144,44.1764 132.694,44.1764 132.694,44.13 133.244,44.13 133.244,44.1555 133.795,44.1555 133.795,44.2315 134.345,44.2315 134.345,44.3406 134.895,44.3406 134.895,44.4695 135.446,44.4695 135.446,44.6077 135.996,44.6077 135.996,44.7475 136.547,44.7475 136.547,44.8835 137.097,44.8835 137.097,45.0118 137.647,45.0118 137.647,45.13 138.198,45.13 138.198,45.2367 138.748,45.2367 138.748,45.3314 139.298,45.3314 139.298,45.414 139.849,45.414 139.849,45.5165 140.399,45.5165 140.399,45.8532 140.95,45.8532 140.95,46.7419 141.5,46.7419 141.5,48.4799 142.05,48.4799 142.05,51.2945 142.601,51.2945 142.601,55.3323 143.151,55.3323 143.151,60.6658 143.701,60.6658 143.701,67.3056 144.252,67.3056 144.252,75.2155 144.802,75.2155 144.802,84.3251 145.353,84.3251 145.353,94.5417 145.903,94.5417 145.903,105.76 146.453,105.76 146.453,117.836 147.004,117.836 147.004,130.446 147.554,130.446 147.554,143.165 148.104,143.165 148.104,155.596 148.655,155.596 148.655,167.42 149.205,167.42 149.205,178.408 149.756,178.408 149.756,188.416 150.306,188.416 150.306,197.369 150.856,197.369 150.856,205.25 151.407,205.25 151.407,212.083 151.957,212.083 151.957,217.923 152.507,217.923 152.507,222.845 153.058,222.845 153.058,226.934 153.608,226.934 153.608,230.282 154.159,230.282 154.159,232.98 154.709,232.98 154.709,235.119 155.259,235.119 155.259,236.781 155.81,236.781 155.81,238.042 156.36,238.042 156.36,238.974 156.91,238.974 156.91,239.636 157.461,239.636 157.461,240.082 158.011,240.082 158.011,240.358 158.562,240.358 158.562,240.503 159.112,240.503 159.112,240.55 159.662,240.55 159.662,240.524 160.213,240.524 160.213,240.448 160.763,240.448 160.763,240.339 161.313,240.339 161.313,240.21 161.864,240.21 161.864,240.072 162.414,240.072 162.414,239.932 162.965,239.932 162.965,239.796 163.515,239.796 163.515,239.668 164.065,239.668 164.065,239.55 164.616,239.55 164.616,239.443 165.166,239.443 165.166,239.348 165.716,239.348 165.716,239.266 166.267,239.266 166.267,239.195 166.817,239.195 166.817,239.103 167.368,239.103 167.368,238.776 167.918,238.776 167.918,237.896 168.468,237.896 168.468,236.166 169.019,236.166 169.019,233.358 169.569,233.358 169.569,229.326 170.119,229.326 170.119,223.998 170.67,223.998 170.67,217.362 171.22,217.362 171.22,209.455 171.771,209.455 171.771,200.348 172.321,200.348 172.321,190.134 172.871,190.134 172.871,178.918 173.422,178.918 173.422,166.843 173.972,166.843 173.972,154.234 174.522,154.234 174.522,141.516 175.073,141.516 175.073,129.085 175.623,129.085 175.623,117.261 176.174,117.261 176.174,106.273 176.724,106.273 176.724,96.2656 177.274,96.2656 177.274,87.3125 177.825,87.3125 177.825,79.4316 178.375,79.4316 178.375,72.5983 178.926,72.5983 178.926,66.758 179.476,66.758 179.476,61.8363 180.026,61.8363 180.026,57.7471 180.577,57.7471 180.577,54.3989 181.127,54.3989 181.127,51.7001 181.677,51.7001 181.677,49.5615 182.228,49.5615 182.228,47.8997 182.778,47.8997 182.778,46.6376 183.329,46.6376 183.329,45.7062 183.879,45.7062 183.879,45.0441 184.429,45.0441 184.429,44.5978 184.98,44.5978 184.98,44.3215 185.53,44.3215 185.53,44.1764 186.08,44.1764 186.08,44.13 186.631,44.13 186.631,44.1555 187.181,44.1555 187.181,44.2315 187.732,44.2315 187.732,44.3406 188.282,44.3406 188.282,44.4695 188.832,44.4695 188.832,44.6077 189.383,44.6077 189.383,44.7475 189.933,44.7475 189.933,44.8835 190.483,44.8835 190.483,45.0118 191.034,45.0118 191.034,45.13 191.584,45.13 191.584,45.2367 192.135,45.2367 192.135,45.3314 192.685,45.3314 192.685,45.414 193.235,45.414 193.235,45.5165 193.786,45.5165 193.786,45.8532 194.336,45.8532 194.336,46.7419 194.886,46.7419 194.886,48.4799 195.437,48.4799 195.437,51.2945 195.987,51.2945 195.987,55.3323 196.538,55.3323 196.538,60.6658 197.088,60.6658 197.088,67.3056 197.638,67.3056 197.638,75.2155 198.189,75.2155 198.189,84.3251 198.739,84.3251 198.739,94.5417 199.289,94.5417 199.289,105.76 199.84,105.76 199.84,117.836 200.39,117.836 200.39,130.446 200.941,130.446 200.941,143.165 201.491,143.165 201.491,155.596 202.041,155.596 202.041,167.42 202.592,167.42 202.592,178.408 203.142,178.408 203.142,188.416 203.692,188.416 203.692,197.369 204.243,197.369 204.243,205.25 204.793,205.25 204.793,212.083 205.344,212.083 205.344,217.923 205.894,217.923 205.894,222.845 206.444,222.845 206.444,226.934 206.995,226.934 206.995,230.282 207.545,230.282 207.545,232.98 208.095,232.98 208.095,235.119 208.646,235.119 208.646,236.781 209.196,236.781 209.196,238.042 209.747,238.042 209.747,238.974 210.297,238.974 210.297,239.636 210.847,239.636 210.847,240.082 211.398,240.082 211.398,240.358 211.948,240.358 211.948,240.503 212.498,240.503 212.498,240.55 213.049,240.55 213.049,240.524 213.599,240.524 213.599,240.448 214.15,240.448 214.15,240.339 214.7,240.339 214.7,240.21 215.25,240.21 215.25,240.072 215.801,240.072 215.801,239.932 216.351,239.932 216.351,239.796 216.901,239.796 216.901,239.668 217.452,239.668 217.452,239.55 218.002,239.55 218.002,239.443 218.553,239.443 218.553,239.348 219.103,239.348 219.103,239.266 219.653,239.266 219.653,239.195 220.204,239.195 220.204,239.103 220.754,239.103 220.754,238.776 221.304,238.776 221.304,237.896 221.855,237.896 221.855,236.166 222.405,236.166 222.405,233.358 222.956,233.358 222.956,229.326 223.506,229.326 223.506,223.998 224.056,223.998 224.056,217.362 224.607,217.362 224.607,209.455 225.157,209.455 225.157,200.348 225.707,200.348 225.707,190.134 226.258,190.134 226.258,178.918 226.808,178.918 226.808,166.843 227.359,166.843 227.359,154.234 227.909,154.234 227.909,141.516 228.459,141.516 228.459,129.085 229.01,129.085 229.01,117.261 229.56,117.261 229.56,106.273 230.11,106.273 230.11,96.2656 230.661,96.2656 230.661,87.3125 231.211,87.3125 231.211,79.4316 231.762,79.4316 231.762,72.5983 232.312,72.5983 232.312,66.758 232.862,66.758 232.862,61.8363 233.413,61.8363 233.413,57.7471 233.963,57.7471 233.963,54.3989 234.513,54.3989 234.513,51.7001 235.064,51.7001 235.064,49.5615 235.614,49.5615 235.614,47.8997 236.165,47.8997 236.165,46.6376 236.715,46.6376 236.715,45.7062 237.265,45.7062 237.265,45.0441 237.816,45.0441 237.816,44.5978 238.366,44.5978 238.366,44.3215 238.917,44.3215 238.917,44.1764 239.467,44.1764 239.467,44.13 240.017,44.13 240.017,44.1555 240.568,44.1555 240.568,44.2315 241.118,44.2315 241.118,44.3406 241.668,44.3406 241.668,44.4695 242.219,44.4695 242.219,44.6077 242.769,44.6077 242.769,44.7475 243.32,44.7475 243.32,44.8835 243.87,44.8835 243.87,45.0118 244.42,45.0118 244.42,45.13 244.971,45.13 244.971,45.2367 245.521,45.2367 245.521,45.3314 246.071,45.3314 246.071,45.414 246.622,45.414 246.622,45.5165 247.172,45.5165 247.172,45.8532 247.723,45.8532 247.723,46.7419 248.273,46.7419 248.273,48.4799 248.823,48.4799 248.823,51.2945 249.374,51.2945 249.374,55.3323 249.924,55.3323 249.924,60.6658 250.474,60.6658 250.474,67.3056 251.025,67.3056 251.025,75.2155 251.575,75.2155 251.575,84.3251 252.126,84.3251 252.126,94.5417 252.676,94.5417 252.676,105.76 253.226,105.76 253.226,117.836 253.777,117.836 253.777,130.446 254.327,130.446 254.327,143.165 254.877,143.165 254.877,155.596 255.428,155.596 255.428,167.42 255.978,167.42 255.978,178.408 256.529,178.408 256.529,188.416 257.079,188.416 257.079,197.369 257.629,197.369 257.629,205.25 258.18,205.25 258.18,212.083 258.73,212.083 258.73,217.923 259.28,217.923 259.28,222.845 259.831,222.845 259.831,226.934 260.381,226.934 260.381,230.282 260.932,230.282 260.932,232.98 261.482,232.98 261.482,235.119 262.032,235.119 262.032,236.781 262.583,236.781 262.583,238.042 263.133,238.042 263.133,238.974 263.683,238.974 263.683,239.636 264.234,239.636 264.234,240.082 264.784,240.082 264.784,240.358 265.335,240.358 265.335,240.503 265.885,240.503 265.885,240.55 266.435,240.55 266.435,240.524 266.986,240.524 266.986,240.448 267.536,240.448 267.536,240.339 268.086,240.339 268.086,240.21 268.637,240.21 268.637,240.072 269.187,240.072 269.187,239.932 269.738,239.932 269.738,239.796 270.288,239.796 270.288,239.668 270.838,239.668 270.838,239.55 271.389,239.55 271.389,239.443 271.939,239.443 271.939,239.348 272.489,239.348 272.489,239.266 273.04,239.266 273.04,239.195 273.59,239.195 273.59,239.103 274.141,239.103 274.141,238.776 274.691,238.776 274.691,237.896 275.241,237.896 275.241,236.166 275.792,236.166 275.792,233.358 276.342,233.358 276.342,229.326 276.892,229.326 276.892,223.998 277.443,223.998 277.443,217.362 277.993,217.362 277.993,209.455 278.544,209.455 278.544,200.348 279.094,200.348 279.094,190.134 279.644,190.134 279.644,178.918 280.195,178.918 280.195,166.843 280.745,166.843 280.745,154.234 281.295,154.234 281.295,141.516 281.846,141.516 281.846,129.085 282.396,129.085 282.396,117.261 282.947,117.261 282.947,106.273 283.497,106.273 283.497,96.2656 284.047,96.2656 284.047,87.3125 284.598,87.3125 284.598,79.4316 285.148,79.4316 285.148,72.5983 285.698,72.5983 285.698,66.758 286.249,66.758 286.249,61.8363 286.799,61.8363 286.799,57.7471 287.35,57.7471 287.35,54.3989 287.9,54.3989 287.9,51.7001 288.45,51.7001 288.45,49.5615 289.001,49.5615 289.001,47.8997 289.551,47.8997 289.551,46.6376 290.101,46.6376 290.101,45.7062 290.652,45.7062 290.652,45.0441 291.202,45.0441 291.202,44.5978 291.753,44.5978 291.753,44.3215 292.303,44.3215 292.303,44.1764 292.853,44.1764 292.853,44.13 293.404,44.13 293.404,44.1555 293.954,44.1555 293.954,44.2315 294.504,44.2315 294.504,44.3406 295.055,44.3406 295.055,44.4695 295.605,44.4695 295.605,44.6077 296.156,44.6077 296.156,44.7475 296.706,44.7475 296.706,44.8835 297.256,44.8835 297.256,45.0118 297.807,45.0118 297.807,45.13 298.357,45.13 298.357,45.2367 298.907,45.2367 298.907,45.3314 299.458,45.3314 299.458,45.414 300.008,45.414 300.008,45.5165 300.559,45.5165 300.559,45.8532 301.109,45.8532 301.109,46.7419 301.659,46.7419 301.659,48.4799 302.21,48.4799 302.21,51.2945 302.76,51.2945 302.76,55.3323 303.31,55.3323 303.31,60.6658 303.861,60.6658 303.861,67.3056 304.411,67.3056 304.411,75.2155 304.962,75.2155 304.962,84.3251 305.512,84.3251 305.512,94.5417 306.062,94.5417 306.062,105.76 306.613,105.76 306.613,117.836 307.163,117.836 307.163,130.446 307.714,130.446 307.714,143.165 308.264,143.165 308.264,155.596 308.814,155.596 308.814,167.42 309.365,167.42 309.365,178.408 309.915,178.408 309.915,188.416 310.465,188.416 310.465,197.369 311.016,197.369 311.016,205.25 311.566,205.25 311.566,212.083 312.117,212.083 312.117,217.923 312.667,217.923 312.667,222.845 313.217,222.845 313.217,226.934 313.768,226.934 313.768,230.282 314.318,230.282 314.318,232.98 314.868,232.98 314.868,235.119 315.419,235.119 315.419,236.781 315.969,236.781 315.969,238.042 316.52,238.042 316.52,238.974 317.07,238.974 317.07,239.636 317.62,239.636 317.62,240.082 318.171,240.082 318.171,240.358 318.721,240.358 318.721,240.503 319.271,240.503 319.271,240.55 319.822,240.55 319.822,240.524 320.372,240.524 320.372,240.448 320.923,240.448 320.923,240.339 321.473,240.339 321.473,240.21 322.023,240.21 322.023,240.072 322.574,240.072 322.574,239.932 323.124,239.932 323.124,239.796 323.674,239.796 323.674,239.668 324.225,239.668 324.225,239.55 324.775,239.55 324.775,239.443 325.326,239.443 325.326,239.348 325.876,239.348 325.876,239.266 326.426,239.266 326.426,239.195 326.977,239.195 326.977,239.103 327.527,239.103 327.527,238.776 328.077,238.776 328.077,237.896 328.628,237.896 328.628,236.166 329.178,236.166 329.178,233.358 329.729,233.358 329.729,229.326 330.279,229.326 330.279,223.998 330.829,223.998 330.829,217.362 331.38,217.362 331.38,209.455 331.93,209.455 331.93,200.348 332.48,200.348 332.48,190.134 333.031,190.134 333.031,178.918 333.581,178.918 333.581,166.843 334.132,166.843 334.132,154.234 334.682,154.234 334.682,141.516 335.232,141.516 335.232,129.085 335.783,129.085 335.783,117.261 336.333,117.261 336.333,106.273 336.883,106.273 336.883,96.2656 337.434,96.2656 337.434,87.3125 337.984,87.3125 337.984,79.4316 338.535,79.4316 338.535,72.5983 339.085,72.5983 339.085,66.758 339.635,66.758 339.635,61.8363 340.186,61.8363 340.186,57.7471 340.736,57.7471 340.736,54.3989 341.286,54.3989 341.286,51.7001 341.837,51.7001 341.837,49.5615 342.387,49.5615 342.387,47.8997 342.938,47.8997 342.938,46.6376 343.488,46.6376 343.488,45.7062 344.038,45.7062 344.038,45.0441 344.589,45.0441 344.589,44.5978 345.139,44.5978 345.139,44.3215 345.689,44.3215 345.689,44.1764 346.24,44.1764 346.24,44.13 346.79,44.13 346.79,44.1555 347.341,44.1555 347.341,44.2315 347.891,44.2315 347.891,44.3406 348.441,44.3406 348.441,44.4695 348.992,44.4695 348.992,44.6077 349.542,44.6077 349.542,44.7475 350.092,44.7475 350.092,44.8835 350.643,44.8835 350.643,45.0118 351.193,45.0118 351.193,45.13 351.744,45.13 351.744,45.2367 352.294,45.2367 352.294,45.3314 352.844,45.3314 352.844,45.414 353.395,45.414 353.395,45.4851 353.945,45.4851 353.945,45.5454 354.495,45.5454 354.495,45.5958 355.046,45.5958 355.046,45.6374 355.596,45.6374 355.596,45.6711 356.147,45.6711 356.147,45.698 356.697,45.698 356.697,45.7191" fill="none" stroke-linecap="butt"/>
   <polyline stroke-width="0.5" stroke-linejoin="round" stroke="#7f7f7f" points="51.2383,142.34 51.7886,142.34 52.339,142.34 52.8894,142.34 53.4398,142.34 53.9901,142.34 54.5405,142.34 55.0909,142.34 55.6413,142.34 56.1916,142.34 56.742,142.34 57.2924,142.34 57.8428,142.34 58.3932,142.34 58.9435,238.929 59.4939,222.83 60.0443,206.732 60.5946,190.634 61.145,174.536 61.6954,158.438 62.2458,142.34 62.7962,126.242 63.3465,110.144 63.8969,94.0455 64.4473,77.9474 64.9977,61.8493 65.548,45.7511 66.0984,45.7511 66.6488,45.7511 67.1992,45.7511 67.7495,45.7511 68.2999,45.7511 68.8503,45.7511 69.4007,45.7511 69.951,45.7511 70.5014,45.7511 71.0518,45.7511 71.6022,45.7511 72.1525,45.7511 72.7029,45.7511 73.2533,45.7511 73.8037,45.7511 74.3541,45.7511 74.9044,45.7511 75.4548,45.7511 76.0052,45.7511 76.5556,45.7511 77.1059,45.7511 77.6563,45.7511 78.2067,45.7511 78.7571,45.7511 79.3074,45.7511 79.8578,45.7511 80.4082,45.7511 80.9586,45.7511 81.5089,45.7511 82.0593,45.7511 82.6097,45.7511 83.1601,45.7511 83.7104,45.7511 84.2608,45.7511 84.8112,45.7511 85.3616,45.7511 85.9119,61.8493 86.4623,77.9474 87.0127,94.0455 87.5631,110.144 88.1135,126.242 88.6638,142.34 89.2142,158.438 89.7646,174.536 90.315,190.634 90.8653,206.732 91.4157,222.83 91.9661,238.929 92.5165,238.929 93.0668,238.929 93.6172,238.929 94.1676,238.929 94.718,238.929 95.2683,238.929 95.8187,238.929 96.3691,238.929 96.9195,238.929 97.4698,238.929 98.0202,238.929 98.5706,238.929 99.121,238.929 99.6713,238.929 100.222,238.929 100.772,238.929 101.322,238.929 101.873,238.929 102.423,238.929 102.974,238.929 103.524,238.929 104.074,238.929 104.625,238.929 105.175,238.929 105.725,238.929 106.276,238.929 106.826,238.929 107.377,238.929 107.927,238.929 108.477,238.929 109.028,238.929 109.578,238.929 110.129,238.929 110.679,238.929 111.229,238.929 111.78,238.929 112.33,238.929 112.88,222.83 113.431,206.732 113.981,190.634 114.532,174.536 115.082,158.438 115.632,142.34 116.183,126.242 116.733,110.144 117.283,94.0455 117.834,77.9474 118.384,61.8493 118.935,45.7511 119.485,45.7511 120.035,45.7511 120.586,45.7511 121.136,45.7511 121.686,45.7511 122.237,45.7511 122.787,45.7511 123.338,45.7511 123.888,45.7511 124.438,45.7511 124.989,45.7511 125.539,45.7511 126.089,45.7511 126.64,45.7511 127.19,45.7511 127.741,45.7511 128.291,45.7511 128.841,45.7511 129.392,45.7511 129.942,45.7511 130.492,45.7511 131.043,45.7511 131.593,45.7511 132.144,45.7511 132.694,45.7511 133.244,45.7511 133.795,45.7511 134.345,45.7511 134.895,45.7511 135.446,45.7511 135.996,45.7511 136.547,45.7511 137.097,45.7511 137.647,45.7511 138.198,45.7511 138.748,45.7511 139.298,61.8493 139.849,77.9474 140.399,94.0455 140.95,110.144 141.5,126.242 142.05,142.34 142.601,158.438 143.151,174.536 143.701,190.634 144.252,206.732 144.802,222.83 145.353,238.929 145.903,238.929 146.453,238.929 147.004,238.929 147.554,238.929 148.104,238.929 148.655,238.929 149.205,238.929 149.756,238.929 150.306,238.929 150.856,238.929 151.407,238.929 151.957,238.929 152.507,238.929 153.058,238.929 153.608,238.929 154.159,238.929 154.709,238.929 155.259,238.929 155.81,238.929 156.36,238.929 156.91,238.929 157.461,238.929 158.011,238.929 158.562,238.929 159.112,238.929 159.662,238.929 160.213,238.929 160.763,238.929 161.313,238.929 161.864,238.929 162.414,238.929 162.965,238.929 163.515,238.929 164.065,238.929 164.616,238.929 165.166,238.929 165.716,238.929 166.267,222.83 166.817,206.732 167.368,190.634 167.918,174.536 168.468,158.438 169.019,142.34 169.569,126.242 170.119,110.144 170.67,94.0455 171.22,77.9474 171.771,61.8493 172.321,45.7511 172.871,45.7511 173.422,45.7511 173.972,45.7511 174.522,45.7511 175.073,45.7511 175.623,45.7511 176.174,45.7511 176.724,45.7511 177.274,45.7511 177.825,45.7511 178.375,45.7511 178.926,45.7511 179.476,45.7511 180.026,45.7511 180.577,45.7511 181.127,45.7511 181.677,45.7511 182.228,45.7511 182.778,45.7511 183.329,45.7511 183.879,45.7511 184.429,45.7511 184.98,45.7511 185.53,45.7511 186.08,45.7511 186.631,45.7511 187.181,45.7511 187.732,45.7511 188.282,45.7511 188.832,45.7511 189.383,45.7511 189.933,45.7511 190.483,45.7511 191.034,45.7511 191.584,45.7511 192.135,45.7511 192.685,61.8493 193.235,77.9474 193.786,94.0455 194.336,110.144 194.886,126.242 195.437,142.34 195.987,158.438 196.538,174.536 197.088,190.634 197.638,206.732 198.189,222.83 198.739,238.929 199.289,238.929 199.84,238.929 200.39,238.929 200.941,238.929 201.491,238.929 202.041,238.929 202.592,238.929 203.142,238.929 203.692,238.929 204.243,238.929 204.793,238.929 205.344,238.929 205.894,238.929 206.444,238.929 206.995,238.929 207.545,238.929 208.095,238.929 208.646,238.929 209.196,238.929 209.747,238.929 210.297,238.929 210.847,238.929 211.398,238.929 211.948,238.929 212.498,238.929 213.049,238.929 213.599,238.929 214.15,238.929 214.7,238.929 215.25,238.929 215.801,238.929 216.351,238.929 216.901,238.929 217.452,238.929 218.002,238.929 218.553,238.929 219.103,238.929 219.653,222.83 220.204,206.732 220.754,190.634 221.304,174.536 221.855,158.438 222.405,142.34 222.956,126.242 223.506,110.144 224.056,94.0455 224.607,77.9474 225.157,61.8493 225.707,45.7511 226.258,45.7511 226.808,45.7511 227.359,45.7511 227.909,45.7511 228.459,45.7511 229.01,45.7511 229.56,45.7511 230.11,45.7511 230.661,45.7511 231.211,45.7511 231.762,45.7511 232.312,45.7511 232.862,45.7511 233.413,45.7511 233.963,45.7511 234.513,45.7511 235.064,45.7511 235.614,45.7511 236.165,45.7511 236.715,45.7511 237.265,45.7511 237.816,45.7511 238.366,45.7511 238.917,45.7511 239.467,45.7511 240.017,45.7511 240.568,45.7511 241.118,45.7511 241.668,45.7511 242.219,45.7511 242.769,45.7511 243.32,45.7511 243.87,45.7511 244.42,45.7511 244.971,45.7511 245.521,45.7511 246.071,61.8493 246.622,77.9474 247.172,94.0455 247.723,110.144 248.273,126.242 248.823,142.34 249.374,158.438 249.924,174.536 250.474,190.634 251.025,206.732 251.575,222.83 252.126,238.929 252.676,238.929 253.226,238.929 253.777,238.929 254.327,238.929 254.877,238.929 255.428,238.929 255.978,238.929 256.529,238.929 257.079,238.929 257.629,238.929 258.18,238.929 258.73,238.929 259.28,238.929 259.831,238.929 260.381,238.929 260.932,238.929 261.482,238.929 262.032,238.929 262.583,238.929 263.133,238.929 263.683,238.929 264.234,238.929 264.784,238.929 265.335,238.929 265.885,238.929 266.435,238.929 266.986,238.929 267.536,238.929 268.086,238.929 268.637,238.929 269.187,238.929 269.738,238.929 270.288,238.929 270.838,238.929 271.389,238.929 271.939,238.929 272.489,238.929 273.04,222.83 273.59,206.732 274.141,190.634 274.691,174.536 275.241,158.438 275.792,142.34 276.342,126.242 276.892,110.144 277.443,94.0455 277.993,77.9474 278.544,61.8493 279.094,45.7511 279.644,45.7511 280.195,45.7511 280.745,45.7511 281.295,45.7511 281.846,45.7511 282.396,45.7511 282.947,45.7511 283.497,45.7511 284.047,45.7511 284.598,45.7511 285.148,45.7511 285.698,45.7511 286.249,45.7511 286.799,45.7511 287.35,45.7511 287.9,45.7511 288.45,45.7511 289.001,45.7511 289.551,45.7511 290.101,45.7511 290.652,45.7511 291.202,45.7511 291.753,45.7511 292.303,45.7511 292.853,45.7511 293.404,45.7511 293.954,45.7511 294.504,45.7511 295.055,45.7511 295.605,45.7511 296.156,45.7511 296.706,45.7511 297.256,45.7511 297.807,45.7511 298.357,45.7511 298.907,45.7511 299.458,61.8493 300.008,77.9474 300.559,94.0455 301.109,110.144 301.659,126.242 302.21,142.34 302.76,158.438 303.31,174.536 303.861,190.634 304.411,206.732 304.962,222.83 305.512,238.929 306.062,238.929 306.613,238.929 307.163,238.929 307.714,238.929 308.264,238.929 308.814,238.929 309.365,238.929 309.915,238.929 310.465,238.929 311.016,238.929 311.566,238.929 312.117,238.929 312.667,238.929 313.217,238.929 313.768,238.929 314.318,238.929 314.868,238.929 315.419,238.929 315.969,238.929 316.52,238.929 317.07,238.929 317.62,238.929 318.171,238.929 318.721,238.929 319.271,238.929 319.822,238.929 320.372,238.929 320.923,238.929 321.473,238.929 322.023,238.929 322.574,238.929 323.124,238.929 323.674,238.929 324.225,238.929 324.775,238.929 325.326,238.929 325.876,238.929 326.426,222.83 326.977,206.732 327.527,190.634 328.077,174.536 328.628,158.438 329.178,142.34 329.729,126.242 330.279,110.144 330.829,94.0455 331.38,77.9474 331.93,61.8493 332.48,45.7511 333.031,45.7511 333.581,45.7511 334.132,45.7511 334.682,45.7511 335.232,45.7511 335.783,45.7511 336.333,45.7511 336.883,45.7511 337.434,45.7511 337.984,45.7511 338.535,45.7511 339.085,45.7511 339.635,45.7511 340.186,45.7511 340.736,45.7511 341.286,45.7511 341.837,45.7511 342.387,45.7511 342.938,45.7511 343.488,45.7511 344.038,45.7511 344.589,45.7511 345.139,45.7511 345.689,45.7511 346.24,45.7511 346.79,45.7511 347.341,45.7511 347.891,45.7511 348.441,45.7511 348.992,45.7511 349.542,45.7511 350.092,45.7511 350.643,45.7511 351.193,45.7511 351.744,45.7511 352.294,45.7511 352.844,45.7511 353.395,45.7511 353.945,45.7511 354.495,45.7511 355.046,45.7511 355.596,45.7511 356.147,45.7511 356.697,45.7511" fill="none" stroke-linecap="butt"/>
  </g>
  <clipPath id="cp00394295">
   <polygon points="0,295 394,295 394,0 0,0"/>
  </clipPath>
  <g clip-path="url(#cp00394295)">
   <polygon points="243.073,92.5007 348.172,92.5007 348.172,30.6953 243.073,30.6953" fill="#ffffff" shape-rendering="crispEdges"/>
   <polyline stroke-dasharray="16,0" stroke-width="0.5" stroke-linejoin="miter" stroke="#262626" points="243.073,92.5007 348.172,92.5007" fill="none" stroke-linecap="square"/>
   <polyline stroke-dasharray="16,0" stroke-width="0.5" stroke-linejoin="miter" stroke="#262626" points="243.073,30.6953 348.172,30.6953" fill="none" stroke-linecap="square"/>
   <polyline stroke-dasharray="16,0" stroke-width="0.5" stroke-linejoin="miter" stroke="#262626" points="243.073,92.5007 243.073,30.6953" fill="none" stroke-linecap="square"/>
   <polyline stroke-dasharray="16,0" stroke-width="0.5" stroke-linejoin="miter" stroke="#262626" points="348.172,92.5007 348.172,30.6953" fill="none" stroke-linecap="square"/>
   <polyline stroke-width="0.5" stroke-linejoin="round" stroke="#0000ff" points="247.335,42.417 268.647,42.417" fill="none" stroke-linecap="butt"/>
   <g xml:space="preserve" font-size="15" font-family="FreeSans" font-style="normal" font-weight="normal" transform="translate(272.91,48.417) rotate(-0,-0,-6)">
    <text y="-0" fill="rgb(0,0,0)" x="0 11 19 27 ">Real</text>
   </g>
   <polyline stroke-width="0.5" stroke-linejoin="round" stroke="#ff0000" points="247.335,61.598 268.647,61.598" fill="none" stroke-linecap="butt"/>
   <g xml:space="preserve" font-size="15" font-family="FreeSans" font-style="normal" font-weight="normal" transform="translate(272.91,67.598) rotate(-0,-0,-6)">
    <text y="-0" fill="rgb(0,0,0)" x="0 11 19 23 31 36 44 52 60 63 ">Referência</text>
   </g>
   <polyline stroke-width="0.5" stroke-linejoin="round" stroke="#000000" points="247.335,80.779 268.647,80.779" fill="none" stroke-linecap="butt"/>
   <g xml:space="preserve" font-size="15" font-family="FreeSans" font-style="normal" font-weight="normal" transform="translate(272.91,87.279) rotate(-0,-0,-6.5)">
    <text y="-1" fill="rgb(0,0,0)" x="0 10 13 25 33 36 44 52 ">Simulada</text>
   </g>
  </g>
 </g>
</svg>
