<?xml version='1.0' encoding='UTF-8' standalone='no'?>
<svg height="314pt" xmlns:xlink="http://www.w3.org/1999/xlink" xmlns="http://www.w3.org/2000/svg" width="418pt" viewBox="0 0 418 314">
 <title>Figure 13</title>
 <desc>
Creator: GL2PS 1.4.2, (C) 1999-2020 C. Geuzaine
For: Octave
CreationDate: Mon Nov 14 20:01:54 2022
</desc>
 <defs/>
 <polygon fill="#ffffff" points="0,0 418,0 418,314 0,314"/>
 <g>
  <polygon shape-rendering="crispEdges" fill="#ffffff" points="0,314 418,314 418,0 0,0"/>
  <clipPath id="cp00418314">
   <polygon points="0,314 418,314 418,0 0,0"/>
  </clipPath>
  <g clip-path="url(#cp00418314)">
   <polygon shape-rendering="crispEdges" fill="#ffffff" points="54.4343,277.546 378.946,277.546 378.946,23.5533 54.4343,23.5533"/>
   <polyline stroke-linejoin="miter" fill="none" stroke-width="0.5" points="65.8461,277.546 65.8461,23.5533" stroke-opacity="0.25" stroke="#191919" stroke-linecap="butt" stroke-dasharray="1,3,1,3,1,3,1,3"/>
   <polyline stroke-linejoin="miter" fill="none" stroke-width="0.5" points="77.258,277.546 77.258,23.5533" stroke-opacity="0.25" stroke="#191919" stroke-linecap="butt" stroke-dasharray="1,3,1,3,1,3,1,3"/>
   <polyline stroke-linejoin="miter" fill="none" stroke-width="0.5" points="88.6698,277.546 88.6698,23.5533" stroke-opacity="0.25" stroke="#191919" stroke-linecap="butt" stroke-dasharray="1,3,1,3,1,3,1,3"/>
   <polyline stroke-linejoin="miter" fill="none" stroke-width="0.5" points="100.082,277.546 100.082,23.5533" stroke-opacity="0.25" stroke="#191919" stroke-linecap="butt" stroke-dasharray="1,3,1,3,1,3,1,3"/>
   <polyline stroke-linejoin="miter" fill="none" stroke-width="0.5" points="122.905,277.546 122.905,23.5533" stroke-opacity="0.25" stroke="#191919" stroke-linecap="butt" stroke-dasharray="1,3,1,3,1,3,1,3"/>
   <polyline stroke-linejoin="miter" fill="none" stroke-width="0.5" points="134.317,277.546 134.317,23.5533" stroke-opacity="0.25" stroke="#191919" stroke-linecap="butt" stroke-dasharray="1,3,1,3,1,3,1,3"/>
   <polyline stroke-linejoin="miter" fill="none" stroke-width="0.5" points="145.729,277.546 145.729,23.5533" stroke-opacity="0.25" stroke="#191919" stroke-linecap="butt" stroke-dasharray="1,3,1,3,1,3,1,3"/>
   <polyline stroke-linejoin="miter" fill="none" stroke-width="0.5" points="157.141,277.546 157.141,23.5533" stroke-opacity="0.25" stroke="#191919" stroke-linecap="butt" stroke-dasharray="1,3,1,3,1,3,1,3"/>
   <polyline stroke-linejoin="miter" fill="none" stroke-width="0.5" points="179.965,277.546 179.965,23.5533" stroke-opacity="0.25" stroke="#191919" stroke-linecap="butt" stroke-dasharray="1,3,1,3,1,3,1,3"/>
   <polyline stroke-linejoin="miter" fill="none" stroke-width="0.5" points="191.377,277.546 191.377,23.5533" stroke-opacity="0.25" stroke="#191919" stroke-linecap="butt" stroke-dasharray="1,3,1,3,1,3,1,3"/>
   <polyline stroke-linejoin="miter" fill="none" stroke-width="0.5" points="202.788,277.546 202.788,23.5533" stroke-opacity="0.25" stroke="#191919" stroke-linecap="butt" stroke-dasharray="1,3,1,3,1,3,1,3"/>
   <polyline stroke-linejoin="miter" fill="none" stroke-width="0.5" points="214.2,277.546 214.2,23.5533" stroke-opacity="0.25" stroke="#191919" stroke-linecap="butt" stroke-dasharray="1,3,1,3,1,3,1,3"/>
   <polyline stroke-linejoin="miter" fill="none" stroke-width="0.5" points="237.024,277.546 237.024,23.5533" stroke-opacity="0.25" stroke="#191919" stroke-linecap="butt" stroke-dasharray="1,3,1,3,1,3,1,3"/>
   <polyline stroke-linejoin="miter" fill="none" stroke-width="0.5" points="248.436,277.546 248.436,23.5533" stroke-opacity="0.25" stroke="#191919" stroke-linecap="butt" stroke-dasharray="1,3,1,3,1,3,1,3"/>
   <polyline stroke-linejoin="miter" fill="none" stroke-width="0.5" points="259.848,277.546 259.848,23.5533" stroke-opacity="0.25" stroke="#191919" stroke-linecap="butt" stroke-dasharray="1,3,1,3,1,3,1,3"/>
   <polyline stroke-linejoin="miter" fill="none" stroke-width="0.5" points="271.26,277.546 271.26,23.5533" stroke-opacity="0.25" stroke="#191919" stroke-linecap="butt" stroke-dasharray="1,3,1,3,1,3,1,3"/>
   <polyline stroke-linejoin="miter" fill="none" stroke-width="0.5" points="294.083,277.546 294.083,23.5533" stroke-opacity="0.25" stroke="#191919" stroke-linecap="butt" stroke-dasharray="1,3,1,3,1,3,1,3"/>
   <polyline stroke-linejoin="miter" fill="none" stroke-width="0.5" points="305.495,277.546 305.495,23.5533" stroke-opacity="0.25" stroke="#191919" stroke-linecap="butt" stroke-dasharray="1,3,1,3,1,3,1,3"/>
   <polyline stroke-linejoin="miter" fill="none" stroke-width="0.5" points="316.907,277.546 316.907,23.5533" stroke-opacity="0.25" stroke="#191919" stroke-linecap="butt" stroke-dasharray="1,3,1,3,1,3,1,3"/>
   <polyline stroke-linejoin="miter" fill="none" stroke-width="0.5" points="328.319,277.546 328.319,23.5533" stroke-opacity="0.25" stroke="#191919" stroke-linecap="butt" stroke-dasharray="1,3,1,3,1,3,1,3"/>
   <polyline stroke-linejoin="miter" fill="none" stroke-width="0.5" points="351.142,277.546 351.142,23.5533" stroke-opacity="0.25" stroke="#191919" stroke-linecap="butt" stroke-dasharray="1,3,1,3,1,3,1,3"/>
   <polyline stroke-linejoin="miter" fill="none" stroke-width="0.5" points="362.554,277.546 362.554,23.5533" stroke-opacity="0.25" stroke="#191919" stroke-linecap="butt" stroke-dasharray="1,3,1,3,1,3,1,3"/>
   <polyline stroke-linejoin="miter" fill="none" stroke-width="0.5" points="373.966,277.546 373.966,23.5533" stroke-opacity="0.25" stroke="#191919" stroke-linecap="butt" stroke-dasharray="1,3,1,3,1,3,1,3"/>
   <polyline stroke-linejoin="miter" fill="none" stroke-width="0.5" points="54.4343,277.546 54.4343,23.5533" stroke-opacity="0.15" stroke="#262626" stroke-linecap="butt" stroke-dasharray="16,0"/>
   <polyline stroke-linejoin="miter" fill="none" stroke-width="0.5" points="111.494,277.546 111.494,23.5533" stroke-opacity="0.15" stroke="#262626" stroke-linecap="butt" stroke-dasharray="16,0"/>
   <polyline stroke-linejoin="miter" fill="none" stroke-width="0.5" points="168.553,277.546 168.553,23.5533" stroke-opacity="0.15" stroke="#262626" stroke-linecap="butt" stroke-dasharray="16,0"/>
   <polyline stroke-linejoin="miter" fill="none" stroke-width="0.5" points="225.612,277.546 225.612,23.5533" stroke-opacity="0.15" stroke="#262626" stroke-linecap="butt" stroke-dasharray="16,0"/>
   <polyline stroke-linejoin="miter" fill="none" stroke-width="0.5" points="282.671,277.546 282.671,23.5533" stroke-opacity="0.15" stroke="#262626" stroke-linecap="butt" stroke-dasharray="16,0"/>
   <polyline stroke-linejoin="miter" fill="none" stroke-width="0.5" points="339.731,277.546 339.731,23.5533" stroke-opacity="0.15" stroke="#262626" stroke-linecap="butt" stroke-dasharray="16,0"/>
   <polyline stroke-linejoin="miter" fill="none" stroke-width="0.5" points="54.4343,277.546 54.4343,274.301" stroke="#262626" stroke-linecap="butt"/>
   <polyline stroke-linejoin="miter" fill="none" stroke-width="0.5" points="54.4343,23.5533 54.4343,26.7983" stroke="#262626" stroke-linecap="butt"/>
   <polyline stroke-linejoin="miter" fill="none" stroke-width="0.5" points="111.494,277.546 111.494,274.301" stroke="#262626" stroke-linecap="butt"/>
   <polyline stroke-linejoin="miter" fill="none" stroke-width="0.5" points="111.494,23.5533 111.494,26.7983" stroke="#262626" stroke-linecap="butt"/>
   <polyline stroke-linejoin="miter" fill="none" stroke-width="0.5" points="168.553,277.546 168.553,274.301" stroke="#262626" stroke-linecap="butt"/>
   <polyline stroke-linejoin="miter" fill="none" stroke-width="0.5" points="168.553,23.5533 168.553,26.7983" stroke="#262626" stroke-linecap="butt"/>
   <polyline stroke-linejoin="miter" fill="none" stroke-width="0.5" points="225.612,277.546 225.612,274.301" stroke="#262626" stroke-linecap="butt"/>
   <polyline stroke-linejoin="miter" fill="none" stroke-width="0.5" points="225.612,23.5533 225.612,26.7983" stroke="#262626" stroke-linecap="butt"/>
   <polyline stroke-linejoin="miter" fill="none" stroke-width="0.5" points="282.671,277.546 282.671,274.301" stroke="#262626" stroke-linecap="butt"/>
   <polyline stroke-linejoin="miter" fill="none" stroke-width="0.5" points="282.671,23.5533 282.671,26.7983" stroke="#262626" stroke-linecap="butt"/>
   <polyline stroke-linejoin="miter" fill="none" stroke-width="0.5" points="339.731,277.546 339.731,274.301" stroke="#262626" stroke-linecap="butt"/>
   <polyline stroke-linejoin="miter" fill="none" stroke-width="0.5" points="339.731,23.5533 339.731,26.7983" stroke="#262626" stroke-linecap="butt"/>
   <g xml:space="preserve" font-family="FreeSans" font-size="10" font-weight="normal" transform="translate(51.4343,293.045) rotate(-0,3,-8)" font-style="normal">
    <text y="-0" fill="rgb(38,38,38)" x="0 ">0</text>
   </g>
   <g xml:space="preserve" font-family="FreeSans" font-size="10" font-weight="normal" transform="translate(108.494,293.045) rotate(-0,3,-8)" font-style="normal">
    <text y="-0" fill="rgb(38,38,38)" x="0 ">5</text>
   </g>
   <g xml:space="preserve" font-family="FreeSans" font-size="10" font-weight="normal" transform="translate(162.553,293.045) rotate(-0,6,-8)" font-style="normal">
    <text y="-0" fill="rgb(38,38,38)" x="0 6 ">10</text>
   </g>
   <g xml:space="preserve" font-family="FreeSans" font-size="10" font-weight="normal" transform="translate(219.612,293.045) rotate(-0,6,-8)" font-style="normal">
    <text y="-0" fill="rgb(38,38,38)" x="0 6 ">15</text>
   </g>
   <g xml:space="preserve" font-family="FreeSans" font-size="10" font-weight="normal" transform="translate(276.671,293.045) rotate(-0,6,-8)" font-style="normal">
    <text y="-0" fill="rgb(38,38,38)" x="0 6 ">20</text>
   </g>
   <g xml:space="preserve" font-family="FreeSans" font-size="10" font-weight="normal" transform="translate(333.731,293.045) rotate(-0,6,-8)" font-style="normal">
    <text y="-0" fill="rgb(38,38,38)" x="0 6 ">25</text>
   </g>
   <polyline stroke-linejoin="miter" fill="none" stroke-width="0.5" points="54.4343,272.199 378.946,272.199" stroke-opacity="0.25" stroke="#191919" stroke-linecap="butt" stroke-dasharray="1,3,1,3,1,3,1,3"/>
   <polyline stroke-linejoin="miter" fill="none" stroke-width="0.5" points="54.4343,265.703 378.946,265.703" stroke-opacity="0.25" stroke="#191919" stroke-linecap="butt" stroke-dasharray="1,3,1,3,1,3,1,3"/>
   <polyline stroke-linejoin="miter" fill="none" stroke-width="0.5" points="54.4343,259.207 378.946,259.207" stroke-opacity="0.25" stroke="#191919" stroke-linecap="butt" stroke-dasharray="1,3,1,3,1,3,1,3"/>
   <polyline stroke-linejoin="miter" fill="none" stroke-width="0.5" points="54.4343,252.711 378.946,252.711" stroke-opacity="0.25" stroke="#191919" stroke-linecap="butt" stroke-dasharray="1,3,1,3,1,3,1,3"/>
   <polyline stroke-linejoin="miter" fill="none" stroke-width="0.5" points="54.4343,239.719 378.946,239.719" stroke-opacity="0.25" stroke="#191919" stroke-linecap="butt" stroke-dasharray="1,3,1,3,1,3,1,3"/>
   <polyline stroke-linejoin="miter" fill="none" stroke-width="0.5" points="54.4343,233.224 378.946,233.224" stroke-opacity="0.25" stroke="#191919" stroke-linecap="butt" stroke-dasharray="1,3,1,3,1,3,1,3"/>
   <polyline stroke-linejoin="miter" fill="none" stroke-width="0.5" points="54.4343,226.728 378.946,226.728" stroke-opacity="0.25" stroke="#191919" stroke-linecap="butt" stroke-dasharray="1,3,1,3,1,3,1,3"/>
   <polyline stroke-linejoin="miter" fill="none" stroke-width="0.5" points="54.4343,220.232 378.946,220.232" stroke-opacity="0.25" stroke="#191919" stroke-linecap="butt" stroke-dasharray="1,3,1,3,1,3,1,3"/>
   <polyline stroke-linejoin="miter" fill="none" stroke-width="0.5" points="54.4343,207.24 378.946,207.24" stroke-opacity="0.25" stroke="#191919" stroke-linecap="butt" stroke-dasharray="1,3,1,3,1,3,1,3"/>
   <polyline stroke-linejoin="miter" fill="none" stroke-width="0.5" points="54.4343,200.744 378.946,200.744" stroke-opacity="0.25" stroke="#191919" stroke-linecap="butt" stroke-dasharray="1,3,1,3,1,3,1,3"/>
   <polyline stroke-linejoin="miter" fill="none" stroke-width="0.5" points="54.4343,194.248 378.946,194.248" stroke-opacity="0.25" stroke="#191919" stroke-linecap="butt" stroke-dasharray="1,3,1,3,1,3,1,3"/>
   <polyline stroke-linejoin="miter" fill="none" stroke-width="0.5" points="54.4343,187.752 378.946,187.752" stroke-opacity="0.25" stroke="#191919" stroke-linecap="butt" stroke-dasharray="1,3,1,3,1,3,1,3"/>
   <polyline stroke-linejoin="miter" fill="none" stroke-width="0.5" points="54.4343,174.76 378.946,174.76" stroke-opacity="0.25" stroke="#191919" stroke-linecap="butt" stroke-dasharray="1,3,1,3,1,3,1,3"/>
   <polyline stroke-linejoin="miter" fill="none" stroke-width="0.5" points="54.4343,168.265 378.946,168.265" stroke-opacity="0.25" stroke="#191919" stroke-linecap="butt" stroke-dasharray="1,3,1,3,1,3,1,3"/>
   <polyline stroke-linejoin="miter" fill="none" stroke-width="0.5" points="54.4343,161.769 378.946,161.769" stroke-opacity="0.25" stroke="#191919" stroke-linecap="butt" stroke-dasharray="1,3,1,3,1,3,1,3"/>
   <polyline stroke-linejoin="miter" fill="none" stroke-width="0.5" points="54.4343,155.273 378.946,155.273" stroke-opacity="0.25" stroke="#191919" stroke-linecap="butt" stroke-dasharray="1,3,1,3,1,3,1,3"/>
   <polyline stroke-linejoin="miter" fill="none" stroke-width="0.5" points="54.4343,142.281 378.946,142.281" stroke-opacity="0.25" stroke="#191919" stroke-linecap="butt" stroke-dasharray="1,3,1,3,1,3,1,3"/>
   <polyline stroke-linejoin="miter" fill="none" stroke-width="0.5" points="54.4343,135.785 378.946,135.785" stroke-opacity="0.25" stroke="#191919" stroke-linecap="butt" stroke-dasharray="1,3,1,3,1,3,1,3"/>
   <polyline stroke-linejoin="miter" fill="none" stroke-width="0.5" points="54.4343,129.289 378.946,129.289" stroke-opacity="0.25" stroke="#191919" stroke-linecap="butt" stroke-dasharray="1,3,1,3,1,3,1,3"/>
   <polyline stroke-linejoin="miter" fill="none" stroke-width="0.5" points="54.4343,122.793 378.946,122.793" stroke-opacity="0.25" stroke="#191919" stroke-linecap="butt" stroke-dasharray="1,3,1,3,1,3,1,3"/>
   <polyline stroke-linejoin="miter" fill="none" stroke-width="0.5" points="54.4343,109.801 378.946,109.801" stroke-opacity="0.25" stroke="#191919" stroke-linecap="butt" stroke-dasharray="1,3,1,3,1,3,1,3"/>
   <polyline stroke-linejoin="miter" fill="none" stroke-width="0.5" points="54.4343,103.305 378.946,103.305" stroke-opacity="0.25" stroke="#191919" stroke-linecap="butt" stroke-dasharray="1,3,1,3,1,3,1,3"/>
   <polyline stroke-linejoin="miter" fill="none" stroke-width="0.5" points="54.4343,96.8095 378.946,96.8095" stroke-opacity="0.25" stroke="#191919" stroke-linecap="butt" stroke-dasharray="1,3,1,3,1,3,1,3"/>
   <polyline stroke-linejoin="miter" fill="none" stroke-width="0.5" points="54.4343,90.3136 378.946,90.3136" stroke-opacity="0.25" stroke="#191919" stroke-linecap="butt" stroke-dasharray="1,3,1,3,1,3,1,3"/>
   <polyline stroke-linejoin="miter" fill="none" stroke-width="0.5" points="54.4343,77.3218 378.946,77.3218" stroke-opacity="0.25" stroke="#191919" stroke-linecap="butt" stroke-dasharray="1,3,1,3,1,3,1,3"/>
   <polyline stroke-linejoin="miter" fill="none" stroke-width="0.5" points="54.4343,70.8259 378.946,70.8259" stroke-opacity="0.25" stroke="#191919" stroke-linecap="butt" stroke-dasharray="1,3,1,3,1,3,1,3"/>
   <polyline stroke-linejoin="miter" fill="none" stroke-width="0.5" points="54.4343,64.33 378.946,64.33" stroke-opacity="0.25" stroke="#191919" stroke-linecap="butt" stroke-dasharray="1,3,1,3,1,3,1,3"/>
   <polyline stroke-linejoin="miter" fill="none" stroke-width="0.5" points="54.4343,57.8341 378.946,57.8341" stroke-opacity="0.25" stroke="#191919" stroke-linecap="butt" stroke-dasharray="1,3,1,3,1,3,1,3"/>
   <polyline stroke-linejoin="miter" fill="none" stroke-width="0.5" points="54.4343,44.8423 378.946,44.8423" stroke-opacity="0.25" stroke="#191919" stroke-linecap="butt" stroke-dasharray="1,3,1,3,1,3,1,3"/>
   <polyline stroke-linejoin="miter" fill="none" stroke-width="0.5" points="54.4343,38.3463 378.946,38.3463" stroke-opacity="0.25" stroke="#191919" stroke-linecap="butt" stroke-dasharray="1,3,1,3,1,3,1,3"/>
   <polyline stroke-linejoin="miter" fill="none" stroke-width="0.5" points="54.4343,31.8505 378.946,31.8505" stroke-opacity="0.25" stroke="#191919" stroke-linecap="butt" stroke-dasharray="1,3,1,3,1,3,1,3"/>
   <polyline stroke-linejoin="miter" fill="none" stroke-width="0.5" points="54.4343,25.3546 378.946,25.3546" stroke-opacity="0.25" stroke="#191919" stroke-linecap="butt" stroke-dasharray="1,3,1,3,1,3,1,3"/>
   <polyline stroke-linejoin="miter" fill="none" stroke-width="0.5" points="54.4343,246.215 378.946,246.215" stroke-opacity="0.15" stroke="#262626" stroke-linecap="butt" stroke-dasharray="16,0"/>
   <polyline stroke-linejoin="miter" fill="none" stroke-width="0.5" points="54.4343,213.736 378.946,213.736" stroke-opacity="0.15" stroke="#262626" stroke-linecap="butt" stroke-dasharray="16,0"/>
   <polyline stroke-linejoin="miter" fill="none" stroke-width="0.5" points="54.4343,181.256 378.946,181.256" stroke-opacity="0.15" stroke="#262626" stroke-linecap="butt" stroke-dasharray="16,0"/>
   <polyline stroke-linejoin="miter" fill="none" stroke-width="0.5" points="54.4343,148.777 378.946,148.777" stroke-opacity="0.15" stroke="#262626" stroke-linecap="butt" stroke-dasharray="16,0"/>
   <polyline stroke-linejoin="miter" fill="none" stroke-width="0.5" points="54.4343,116.297 378.946,116.297" stroke-opacity="0.15" stroke="#262626" stroke-linecap="butt" stroke-dasharray="16,0"/>
   <polyline stroke-linejoin="miter" fill="none" stroke-width="0.5" points="54.4343,83.8177 378.946,83.8177" stroke-opacity="0.15" stroke="#262626" stroke-linecap="butt" stroke-dasharray="16,0"/>
   <polyline stroke-linejoin="miter" fill="none" stroke-width="0.5" points="54.4343,51.3382 378.946,51.3382" stroke-opacity="0.15" stroke="#262626" stroke-linecap="butt" stroke-dasharray="16,0"/>
   <polyline stroke-linejoin="miter" fill="none" stroke-width="0.5" points="54.4343,246.215 57.6745,246.215" stroke="#262626" stroke-linecap="butt"/>
   <polyline stroke-linejoin="miter" fill="none" stroke-width="0.5" points="378.946,246.215 375.706,246.215" stroke="#262626" stroke-linecap="butt"/>
   <polyline stroke-linejoin="miter" fill="none" stroke-width="0.5" points="54.4343,213.736 57.6745,213.736" stroke="#262626" stroke-linecap="butt"/>
   <polyline stroke-linejoin="miter" fill="none" stroke-width="0.5" points="378.946,213.736 375.706,213.736" stroke="#262626" stroke-linecap="butt"/>
   <polyline stroke-linejoin="miter" fill="none" stroke-width="0.5" points="54.4343,181.256 57.6745,181.256" stroke="#262626" stroke-linecap="butt"/>
   <polyline stroke-linejoin="miter" fill="none" stroke-width="0.5" points="378.946,181.256 375.706,181.256" stroke="#262626" stroke-linecap="butt"/>
   <polyline stroke-linejoin="miter" fill="none" stroke-width="0.5" points="54.4343,148.777 57.6745,148.777" stroke="#262626" stroke-linecap="butt"/>
   <polyline stroke-linejoin="miter" fill="none" stroke-width="0.5" points="378.946,148.777 375.706,148.777" stroke="#262626" stroke-linecap="butt"/>
   <polyline stroke-linejoin="miter" fill="none" stroke-width="0.5" points="54.4343,116.297 57.6745,116.297" stroke="#262626" stroke-linecap="butt"/>
   <polyline stroke-linejoin="miter" fill="none" stroke-width="0.5" points="378.946,116.297 375.706,116.297" stroke="#262626" stroke-linecap="butt"/>
   <polyline stroke-linejoin="miter" fill="none" stroke-width="0.5" points="54.4343,83.8177 57.6745,83.8177" stroke="#262626" stroke-linecap="butt"/>
   <polyline stroke-linejoin="miter" fill="none" stroke-width="0.5" points="378.946,83.8177 375.706,83.8177" stroke="#262626" stroke-linecap="butt"/>
   <polyline stroke-linejoin="miter" fill="none" stroke-width="0.5" points="54.4343,51.3382 57.6745,51.3382" stroke="#262626" stroke-linecap="butt"/>
   <polyline stroke-linejoin="miter" fill="none" stroke-width="0.5" points="378.946,51.3382 375.706,51.3382" stroke="#262626" stroke-linecap="butt"/>
   <g xml:space="preserve" font-family="FreeSans" font-size="10" font-weight="normal" transform="translate(40.4418,250.215) rotate(-0,9,-4)" font-style="normal">
    <text y="-0" fill="rgb(38,38,38)" x="0 3 ">-6</text>
   </g>
   <g xml:space="preserve" font-family="FreeSans" font-size="10" font-weight="normal" transform="translate(40.4418,217.736) rotate(-0,9,-4)" font-style="normal">
    <text y="-0" fill="rgb(38,38,38)" x="0 3 ">-4</text>
   </g>
   <g xml:space="preserve" font-family="FreeSans" font-size="10" font-weight="normal" transform="translate(40.4418,185.256) rotate(-0,9,-4)" font-style="normal">
    <text y="-0" fill="rgb(38,38,38)" x="0 3 ">-2</text>
   </g>
   <g xml:space="preserve" font-family="FreeSans" font-size="10" font-weight="normal" transform="translate(43.4418,152.777) rotate(-0,6,-4)" font-style="normal">
    <text y="-0" fill="rgb(38,38,38)" x="0 ">0</text>
   </g>
   <g xml:space="preserve" font-family="FreeSans" font-size="10" font-weight="normal" transform="translate(43.4418,120.297) rotate(-0,6,-4)" font-style="normal">
    <text y="-0" fill="rgb(38,38,38)" x="0 ">2</text>
   </g>
   <g xml:space="preserve" font-family="FreeSans" font-size="10" font-weight="normal" transform="translate(43.4418,87.8177) rotate(-0,6,-4)" font-style="normal">
    <text y="-0" fill="rgb(38,38,38)" x="0 ">4</text>
   </g>
   <g xml:space="preserve" font-family="FreeSans" font-size="10" font-weight="normal" transform="translate(43.4418,55.3382) rotate(-0,6,-4)" font-style="normal">
    <text y="-0" fill="rgb(38,38,38)" x="0 ">6</text>
   </g>
   <polyline stroke-linejoin="miter" fill="none" stroke-width="0.5" points="54.4343,277.546 378.946,277.546" stroke="#262626" stroke-linecap="square" stroke-dasharray="16,0"/>
   <polyline stroke-linejoin="miter" fill="none" stroke-width="0.5" points="54.4343,23.5533 378.946,23.5533" stroke="#262626" stroke-linecap="square" stroke-dasharray="16,0"/>
   <polyline stroke-linejoin="miter" fill="none" stroke-width="0.5" points="54.4343,277.546 54.4343,23.5533" stroke="#262626" stroke-linecap="square" stroke-dasharray="16,0"/>
   <polyline stroke-linejoin="miter" fill="none" stroke-width="0.5" points="378.946,277.546 378.946,23.5533" stroke="#262626" stroke-linecap="square" stroke-dasharray="16,0"/>
   <g xml:space="preserve" font-family="FreeSans" font-size="15" font-weight="normal" transform="translate(183.69,314.045) rotate(-0,33,-16)" font-style="normal">
    <text y="-4" fill="rgb(38,38,38)" x="0 9 17 29 37 45 49 54 61 ">Tempo (s)</text>
   </g>
   <g xml:space="preserve" font-family="FreeSans" font-size="15" font-weight="normal" transform="translate(-7.5582,150.549) rotate(-90,43,0)" font-style="normal">
    <text y="-4" fill="rgb(38,38,38)" x="0 10 18 25 28 36 44 52 56 61 69 81 ">Posição (cm)</text>
   </g>
   <polyline stroke-linejoin="round" fill="none" stroke-width="0.5" points="54.4343,126.476 55.1973,126.476 55.9628,126.476 56.7275,126.476 57.4957,126.476 58.2603,131.05 59.0239,132.194 59.791,134.481 60.5571,135.625 61.3191,135.625 62.0859,134.481 62.8543,131.05 63.6153,131.05 64.3819,132.194 65.1488,132.194 65.913,133.338 66.6775,133.338 67.4433,133.338 68.2091,129.907 68.9739,127.619 69.739,119.614 70.5045,113.896 71.2708,113.896 72.0338,102.459 72.8004,95.5973 73.5656,89.879 74.3325,80.7299 75.0957,72.7243 75.8612,68.1497 76.6258,65.8625 77.3942,65.8625 78.1589,68.1497 78.9241,71.5807 79.6928,75.0116 80.4539,79.5862 81.2213,85.3044 81.983,96.7409 82.7496,104.746 83.5143,123.045 84.2812,132.194 85.046,142.487 85.8088,152.78 86.5751,172.222 87.3415,181.371 88.1071,198.525 88.8735,198.525 89.6365,205.387 90.4018,220.255 91.1679,232.835 91.9316,233.978 92.696,235.122 93.4623,235.122 94.2281,229.404 94.9952,223.686 95.759,215.68 96.5245,198.525 97.2886,190.52 98.0538,182.514 98.8236,174.509 99.5842,167.647 100.352,153.923 101.115,153.923 101.88,137.912 102.645,137.912 103.412,119.614 104.178,112.752 104.953,104.746 105.713,91.0227 106.478,85.3044 107.244,80.7299 108.009,76.1553 108.774,72.7243 109.541,70.437 110.315,70.437 111.079,71.5807 111.842,75.0116 112.608,79.5862 113.374,84.1608 114.138,104.746 114.906,115.039 115.67,125.332 116.433,136.768 117.201,159.641 117.967,171.078 118.73,182.514 119.495,203.1 120.263,212.249 121.025,220.255 121.792,232.835 122.555,236.266 123.322,237.409 124.087,235.122 124.851,232.835 125.617,227.117 126.381,221.398 127.146,214.536 127.911,200.813 128.676,192.807 129.441,179.083 130.21,172.222 130.973,166.503 131.738,159.641 132.502,148.205 133.269,143.63 134.035,127.619 134.798,121.901 135.569,115.039 136.333,102.459 137.103,102.459 137.864,91.0227 138.634,86.4481 139.397,80.7299 140.162,77.2989 140.931,76.1553 141.694,75.0116 142.456,77.2989 143.225,80.7299 143.99,84.1608 144.758,95.5973 145.52,102.459 146.284,111.608 147.047,131.05 147.815,142.487 148.58,152.78 149.343,175.652 150.113,187.089 150.874,197.382 151.64,216.824 152.407,224.829 153.174,231.691 153.936,239.697 154.703,240.84 155.465,240.84 156.234,233.978 156.998,222.542 157.762,213.393 158.529,205.387 159.296,188.233 160.059,180.227 160.826,172.222 161.591,166.503 162.354,160.785 163.119,152.78 163.886,149.349 164.65,147.061 165.415,140.199 166.183,135.625 166.947,131.05 167.712,119.614 168.476,112.752 169.241,105.89 170.01,91.0227 170.772,84.1608 171.54,77.2989 172.304,67.0061 173.073,63.5752 173.839,61.2879 174.602,63.5752 175.367,67.0061 176.131,71.5807 176.898,97.8846 177.662,109.321 178.425,123.045 179.193,136.768 179.955,165.36 180.722,179.083 181.486,191.664 182.258,214.536 183.023,223.686 183.783,231.691 184.548,240.84 185.314,243.128 186.078,241.984 186.845,236.266 187.609,230.547 188.377,223.686 189.14,215.68 189.904,200.813 190.672,192.807 191.435,185.945 192.203,179.083 192.966,167.647 193.73,159.641 194.498,159.641 195.262,152.78 196.028,149.349 196.794,145.918 197.56,137.912 198.324,133.338 199.088,127.619 199.855,115.039 200.618,107.034 201.386,99.0282 202.149,84.1608 202.914,70.437 203.68,61.2879 204.445,59.0006 205.213,57.857 205.981,62.4315 206.748,62.4315 207.51,75.0116 208.274,84.1608 209.039,95.5973 209.803,121.901 210.567,135.625 211.333,150.492 212.1,165.36 212.871,179.083 213.634,206.531 214.402,227.117 215.167,236.266 215.933,243.128 216.697,249.989 217.462,249.989 218.228,244.271 218.994,238.553 219.764,231.691 220.529,222.542 221.294,204.244 222.061,195.094 222.824,179.083 223.59,171.078 224.355,159.641 225.122,155.067 225.886,151.636 226.651,147.061 227.419,145.918 228.185,143.63 228.947,137.912 229.713,134.481 230.482,128.763 231.244,123.045 232.009,115.039 232.776,97.8846 233.541,89.879 234.307,73.868 235.073,67.0061 235.838,57.857 236.603,54.426 237.37,54.426 238.135,55.5696 238.898,59.0006 239.665,72.7243 240.444,93.31 241.196,105.89 241.96,119.614 242.724,151.636 243.488,167.647 244.261,182.514 245.02,209.962 245.787,221.398 246.55,231.691 247.317,244.271 248.082,246.559 248.845,246.559 249.611,241.984 250.375,236.266 251.144,229.404 251.906,212.249 252.671,203.1 253.441,195.094 254.203,179.083 254.969,179.083 255.733,166.503 256.498,161.929 257.265,157.354 258.028,150.492 258.796,143.63 259.559,136.768 260.324,132.194 261.091,126.476 261.857,121.901 262.62,115.039 263.387,102.459 264.152,95.5973 264.92,89.879 265.681,78.4426 266.45,73.868 267.212,70.437 267.981,67.0061 268.747,67.0061 269.511,71.5807 270.274,75.0116 271.042,81.8735 271.805,99.0282 272.574,109.321 273.337,121.901 274.102,149.349 274.866,180.227 275.633,211.105 276.398,224.829 277.161,238.553 277.928,257.995 278.693,262.57 279.459,266 280.224,266 280.99,263.713 281.753,259.139 282.517,247.702 283.284,240.84 284.052,231.691 284.815,222.542 285.581,201.956 286.344,191.664 287.11,161.929 287.879,152.78 288.647,143.63 289.408,126.476 290.176,126.476 290.936,116.183 291.702,112.752 292.472,109.321 293.232,102.459 293.997,99.0282 294.765,96.7409 295.531,91.0227 296.294,87.5917 297.058,85.3044 297.827,81.8735 298.591,80.7299 299.356,79.5862 300.122,80.7299 300.892,81.8735 301.652,85.3044 302.42,94.4536 303.185,101.315 303.947,109.321 304.714,141.343 305.479,153.923 306.245,166.503 307.007,179.083 307.772,204.244 308.54,215.68 309.304,224.829 310.068,239.697 310.835,244.271 311.602,246.559 312.364,245.415 313.132,241.984 313.896,237.409 314.662,222.542 315.426,213.393 316.19,204.244 316.959,185.945 317.722,177.94 318.488,169.934 319.257,163.072 320.017,157.354 320.787,147.061 321.55,140.199 322.312,131.05 323.079,125.332 323.847,119.614 324.609,113.896 325.378,108.177 326.14,95.5973 326.905,86.4481 327.671,86.4481 328.436,78.4426 329.203,75.0116 329.967,73.868 330.732,75.0116 331.499,77.2989 332.263,80.7299 333.027,92.1663 333.794,99.0282 334.563,108.177 335.324,117.327 336.09,140.199 336.858,151.636 337.622,163.072 338.385,175.652 339.154,199.669 339.919,211.105 340.68,231.691 341.447,239.697 342.214,249.989 342.976,252.277 343.743,252.277 344.511,245.415 345.272,239.697 346.038,230.547 346.807,209.962 347.571,209.962 348.333,189.376 349.099,179.083 349.864,153.923 350.632,147.061 351.395,142.487 352.159,134.481 352.928,131.05 353.689,128.763 354.459,127.619 355.222,127.619 355.985,124.188 356.753,121.901 357.52,119.614 358.283,116.183 359.053,115.039 359.814,112.752 360.579,109.321 361.346,107.034 362.121,105.89 362.874,105.89 363.644,105.89 364.404,105.89 365.17,105.89 365.936,105.89 366.704,104.746 367.466,104.746 368.233,103.603 368.997,104.746 369.762,103.603 370.531,104.746 371.295,104.746 372.057,104.746 372.827,104.746 373.588,104.746 374.362,104.746 375.122,104.746 375.885,103.603 376.649,104.746 377.415,104.746 378.18,103.603 378.946,104.746" stroke="#0000ff" stroke-linecap="butt"/>
   <polyline stroke-linejoin="round" fill="none" stroke-width="0.5" points="54.4343,148.777 55.1973,148.777 55.9628,148.777 56.7275,148.777 57.4957,148.777 58.2603,148.777 59.0239,148.777 59.791,148.777 60.5571,148.777 61.3191,148.777 62.0859,148.777 62.8543,148.777 63.6153,148.777 64.3819,130.994 65.1488,113.648 65.913,97.1679 66.6775,81.9583 67.4433,68.394 68.2091,56.8091 68.9739,47.4886 69.739,40.6622 70.5045,36.498 71.2708,35.0984 72.0338,36.498 72.8004,40.6622 73.5656,47.4886 74.3325,56.8091 75.0957,68.394 75.8612,81.9583 76.6258,97.1679 77.3942,113.648 78.1589,130.994 78.9241,148.777 79.6928,166.56 80.4539,183.905 81.2213,200.386 81.983,215.595 82.7496,229.16 83.5143,240.745 84.2812,250.065 85.046,256.891 85.8088,261.056 86.5751,262.455 87.3415,261.056 88.1071,256.891 88.8735,250.065 89.6365,240.745 90.4018,229.16 91.1679,215.595 91.9316,200.386 92.696,183.905 93.4623,166.56 94.2281,166.56 94.9952,148.777 95.759,130.994 96.5245,113.648 97.2886,97.1679 98.0538,81.9583 98.8236,68.394 99.5842,56.8091 100.352,47.4886 101.115,40.6622 101.88,36.498 102.645,35.0984 103.412,36.498 104.178,40.6622 104.953,47.4886 105.713,56.8091 106.478,68.394 107.244,81.9583 108.009,97.1679 108.774,113.648 109.541,130.994 110.315,148.777 111.079,166.56 111.842,183.905 112.608,200.386 113.374,215.595 114.138,229.16 114.906,240.745 115.67,250.065 116.433,256.891 117.201,261.056 117.967,262.455 118.73,261.056 119.495,256.891 120.263,250.065 121.025,240.745 121.792,229.16 122.555,215.595 123.322,200.386 124.087,183.905 124.851,166.56 125.617,166.56 126.381,148.777 127.146,130.994 127.911,113.648 128.676,97.1679 129.441,81.9583 130.21,68.394 130.973,56.8091 131.738,47.4886 132.502,40.6622 133.269,36.498 134.035,35.0984 134.798,36.498 135.569,40.6622 136.333,47.4886 137.103,56.8091 137.864,68.394 138.634,81.9583 139.397,97.1679 140.162,113.648 140.931,130.994 141.694,148.777 142.456,166.56 143.225,183.905 143.99,200.386 144.758,215.595 145.52,229.16 146.284,240.745 147.047,250.065 147.815,256.891 148.58,261.056 149.343,262.455 150.113,261.056 150.874,256.891 151.64,250.065 152.407,240.745 153.174,229.16 153.936,215.595 154.703,200.386 155.465,183.905 156.234,166.56 156.998,166.56 157.762,148.777 158.529,130.994 159.296,113.648 160.059,97.1679 160.826,81.9583 161.591,68.394 162.354,56.8091 163.119,47.4886 163.886,40.6622 164.65,36.498 165.415,35.0984 166.183,36.498 166.947,40.6622 167.712,47.4886 168.476,56.8091 169.241,68.394 170.01,81.9583 170.772,97.1679 171.54,113.648 172.304,130.994 173.073,148.777 173.839,166.56 174.602,183.905 175.367,200.386 176.131,215.595 176.898,229.16 177.662,240.745 178.425,250.065 179.193,256.891 179.955,261.056 180.722,262.455 181.486,261.056 182.258,256.891 183.023,250.065 183.783,240.745 184.548,229.16 185.314,215.595 186.078,200.386 186.845,183.905 187.609,166.56 188.377,166.56 189.14,148.777 189.904,130.994 190.672,113.648 191.435,97.1679 192.203,81.9583 192.966,68.394 193.73,56.8091 194.498,47.4886 195.262,40.6622 196.028,36.498 196.794,35.0984 197.56,36.498 198.324,40.6622 199.088,47.4886 199.855,56.8091 200.618,68.394 201.386,81.9583 202.149,97.1679 202.914,113.648 203.68,130.994 204.445,148.777 205.213,166.56 205.981,183.905 206.748,200.386 207.51,215.595 208.274,229.16 209.039,240.745 209.803,250.065 210.567,256.891 211.333,261.056 212.1,262.455 212.871,261.056 213.634,256.891 214.402,250.065 215.167,240.745 215.933,229.16 216.697,215.595 217.462,200.386 218.228,183.905 218.994,166.56 219.764,166.56 220.529,148.777 221.294,130.994 222.061,113.648 222.824,97.1679 223.59,81.9583 224.355,68.394 225.122,56.8091 225.886,47.4886 226.651,40.6622 227.419,36.498 228.185,35.0984 228.947,36.498 229.713,40.6622 230.482,47.4886 231.244,56.8091 232.009,68.394 232.776,81.9583 233.541,97.1679 234.307,113.648 235.073,130.994 235.838,148.777 236.603,166.56 237.37,183.905 238.135,200.386 238.898,215.595 239.665,229.16 240.444,240.745 241.196,250.065 241.96,256.891 242.724,261.056 243.488,262.455 244.261,261.056 245.02,256.891 245.787,250.065 246.55,240.745 247.317,229.16 248.082,215.595 248.845,200.386 249.611,183.905 250.375,166.56 251.144,166.56 251.906,148.777 252.671,130.994 253.441,113.648 254.203,97.1679 254.969,81.9583 255.733,68.394 256.498,56.8091 257.265,47.4886 258.028,40.6622 258.796,36.498 259.559,35.0984 260.324,36.498 261.091,40.6622 261.857,47.4886 262.62,56.8091 263.387,68.394 264.152,81.9583 264.92,97.1679 265.681,113.648 266.45,130.994 267.212,148.777 267.981,166.56 268.747,183.905 269.511,200.386 270.274,215.595 271.042,229.16 271.805,240.745 272.574,250.065 273.337,256.891 274.102,261.056 274.866,262.455 275.633,261.056 276.398,256.891 277.161,250.065 277.928,240.745 278.693,229.16 279.459,215.595 280.224,200.386 280.99,183.905 281.753,166.56 282.517,166.56 283.284,148.777 284.052,130.994 284.815,113.648 285.581,97.1679 286.344,81.9583 287.11,68.394 287.879,56.8091 288.647,47.4886 289.408,40.6622 290.176,36.498 290.936,35.0984 291.702,36.498 292.472,40.6622 293.232,47.4886 293.997,56.8091 294.765,68.394 295.531,81.9583 296.294,97.1679 297.058,113.648 297.827,130.994 298.591,148.777 299.356,166.56 300.122,183.905 300.892,200.386 301.652,215.595 302.42,229.16 303.185,240.745 303.947,250.065 304.714,256.891 305.479,261.056 306.245,262.455 307.007,261.056 307.772,256.891 308.54,250.065 309.304,240.745 310.068,229.16 310.835,215.595 311.602,200.386 312.364,183.905 313.132,166.56 313.896,166.56 314.662,148.777 315.426,130.994 316.19,113.648 316.959,97.1679 317.722,81.9583 318.488,68.394 319.257,56.8091 320.017,47.4886 320.787,40.6622 321.55,36.498 322.312,35.0984 323.079,36.498 323.847,40.6622 324.609,47.4886 325.378,56.8091 326.14,68.394 326.905,81.9583 327.671,97.1679 328.436,113.648 329.203,130.994 329.967,148.777 330.732,166.56 331.499,183.905 332.263,200.386 333.027,215.595 333.794,229.16 334.563,240.745 335.324,250.065 336.09,256.891 336.858,261.056 337.622,262.455 338.385,261.056 339.154,256.891 339.919,250.065 340.68,240.745 341.447,229.16 342.214,215.595 342.976,200.386 343.743,183.905 344.511,166.56 345.272,166.56 346.038,148.777 346.807,130.994 347.571,113.648 348.333,97.1679 349.099,81.9583 349.864,81.9583 350.632,81.9583 351.395,81.9583 352.159,81.9583 352.928,81.9583 353.689,81.9583 354.459,81.9583 355.222,81.9583 355.985,81.9583 356.753,81.9583 357.52,81.9583 358.283,81.9583 359.053,81.9583 359.814,81.9583 360.579,81.9583 361.346,81.9583 362.121,81.9583 362.874,81.9583 363.644,81.9583 364.404,81.9583 365.17,81.9583 365.936,81.9583 366.704,81.9583 367.466,81.9583 368.233,81.9583 368.997,81.9583 369.762,81.9583 370.531,81.9583 371.295,81.9583 372.057,81.9583 372.827,81.9583 373.588,81.9583 374.362,81.9583 375.122,81.9583 375.885,81.9583 376.649,81.9583 377.415,81.9583 378.18,81.9583 378.946,81.9583" stroke="#ff0000" stroke-linecap="butt"/>
   <polyline stroke-linejoin="round" fill="none" stroke-width="0.5" points="54.4343,148.554 55.1996,148.554 55.1996,148.554 55.965,148.554 55.965,148.558 56.7304,148.558 56.7304,148.565 57.4957,148.565 57.4957,148.577 58.2611,148.577 58.2611,148.592 59.0264,148.592 59.0264,148.609 59.7918,148.609 59.7918,148.627 60.5572,148.627 60.5572,148.646 61.3225,148.646 61.3225,148.663 62.0879,148.663 62.0879,148.68 62.8532,148.68 62.8532,148.695 63.6186,148.695 63.6186,148.709 64.3839,148.709 64.3839,148.721 65.1493,148.721 65.1493,148.698 65.9147,148.698 65.9147,148.402 66.68,148.402 66.68,147.494 67.4454,147.494 67.4454,145.666 68.2107,145.666 68.2107,142.716 68.9761,142.716 68.9761,138.555 69.7415,138.555 69.7415,133.206 70.5068,133.206 70.5068,126.792 71.2722,126.792 71.2722,119.511 72.0375,119.511 72.0375,111.62 72.8029,111.62 72.8029,103.419 73.5683,103.419 73.5683,95.2249 74.3336,95.2249 74.3336,87.3647 75.099,87.3647 75.099,80.1551 75.8643,80.1551 75.8643,73.8928 76.6297,73.8928 76.6297,68.8439 77.3951,68.8439 77.3951,65.2352 78.1604,65.2352 78.1604,63.2475 78.9258,63.2475 78.9258,63.0114 79.6911,63.0114 79.6911,64.6034 80.4565,64.6034 80.4565,68.0451 81.2218,68.0451 81.2218,73.3032 81.9872,73.3032 81.9872,80.2909 82.7526,80.2909 82.7526,88.8714 83.5179,88.8714 83.5179,98.8619 84.2833,98.8619 84.2833,110.039 85.0486,110.039 85.0486,122.145 85.814,122.145 85.814,134.895 86.5794,134.895 86.5794,147.986 87.3447,147.986 87.3447,161.103 88.1101,161.103 88.1101,173.926 88.8754,173.926 88.8754,186.144 89.6408,186.144 89.6408,197.458 90.4062,197.458 90.4062,207.589 91.1715,207.589 91.1715,216.289 91.9369,216.289 91.9369,223.341 92.7022,223.341 92.7022,228.572 93.4676,228.572 93.4676,231.851 94.2329,231.851 94.2329,233.096 94.9983,233.096 94.9983,232.31 95.7637,232.31 95.7637,229.713 96.529,229.713 96.529,225.488 97.2944,225.488 97.2944,219.723 98.0597,219.723 98.0597,212.489 98.8251,212.489 98.8251,203.882 99.5905,203.882 99.5905,194.033 100.356,194.033 100.356,183.12 101.121,183.12 101.121,171.357 101.887,171.357 101.887,158.996 102.652,158.996 102.652,146.315 103.417,146.315 103.417,133.607 104.183,133.607 104.183,121.178 104.948,121.178 104.948,109.329 105.713,109.329 105.713,98.354 106.479,98.354 106.479,88.5269 107.244,88.5269 107.244,80.0965 108.009,80.0965 108.009,73.278 108.775,73.278 108.775,68.2477 109.54,68.2477 109.54,65.138 110.305,65.138 110.305,64.0339 111.071,64.0339 111.071,64.9704 111.836,64.9704 111.836,67.9316 112.602,67.9316 112.602,72.8514 113.367,72.8514 113.367,79.6144 114.132,79.6144 114.132,88.0593 114.898,88.0593 114.898,97.9825 115.663,97.9825 115.663,109.143 116.428,109.143 116.428,121.27 117.194,121.27 117.194,134.067 117.959,134.067 117.959,147.222 118.724,147.222 118.724,160.411 119.49,160.411 119.49,173.311 120.255,173.311 120.255,185.606 121.021,185.606 121.021,196.994 121.786,196.994 121.786,207.195 122.551,207.195 122.551,215.958 123.317,215.958 123.317,223.068 124.082,223.068 124.082,228.35 124.847,228.35 124.847,231.673 125.613,231.673 125.613,232.957 126.378,232.957 126.378,232.203 127.143,232.203 127.143,229.633 127.909,229.633 127.909,225.429 128.674,225.429 128.674,219.682 129.439,219.682 129.439,212.463 130.205,212.463 130.205,203.866 130.97,203.866 130.97,194.026 131.736,194.026 131.736,183.119 132.501,183.119 132.501,171.361 133.266,171.361 133.266,159.003 134.032,159.003 134.032,146.323 134.797,146.323 134.797,133.617 135.562,133.617 135.562,121.188 136.328,121.188 136.328,109.339 137.093,109.339 137.093,98.3636 137.858,98.3636 137.858,88.5359 138.624,88.5359 138.624,80.1047 139.389,80.1047 139.389,73.2854 140.154,73.2854 140.154,68.2542 140.92,68.2542 140.92,65.1437 141.685,65.1437 141.685,64.0387 142.451,64.0387 142.451,64.9744 143.216,64.9744 143.216,67.935 143.981,67.935 143.981,72.8542 144.747,72.8542 144.747,79.6167 145.512,79.6167 145.512,88.0611 146.277,88.0611 146.277,97.9839 147.043,97.9839 147.043,109.144 147.808,109.144 147.808,121.271 148.573,121.271 148.573,134.068 149.339,134.068 149.339,147.222 150.104,147.222 150.104,160.411 150.869,160.411 150.869,173.311 151.635,173.311 151.635,185.606 152.4,185.606 152.4,196.994 153.166,196.994 153.166,207.195 153.931,207.195 153.931,215.958 154.696,215.958 154.696,223.068 155.462,223.068 155.462,228.35 156.227,228.35 156.227,231.673 156.992,231.673 156.992,232.956 157.758,232.956 157.758,232.203 158.523,232.203 158.523,229.633 159.288,229.633 159.288,225.429 160.054,225.429 160.054,219.682 160.819,219.682 160.819,212.463 161.585,212.463 161.585,203.866 162.35,203.866 162.35,194.026 163.115,194.026 163.115,183.119 163.881,183.119 163.881,171.361 164.646,171.361 164.646,159.003 165.411,159.003 165.411,146.323 166.177,146.323 166.177,133.617 166.942,133.617 166.942,121.188 167.707,121.188 167.707,109.339 168.473,109.339 168.473,98.3636 169.238,98.3636 169.238,88.5359 170.003,88.5359 170.003,80.1047 170.769,80.1047 170.769,73.2854 171.534,73.2854 171.534,68.2542 172.3,68.2542 172.3,65.1437 173.065,65.1437 173.065,64.0387 173.83,64.0387 173.83,64.9744 174.596,64.9744 174.596,67.935 175.361,67.935 175.361,72.8542 176.126,72.8542 176.126,79.6167 176.892,79.6167 176.892,88.0611 177.657,88.0611 177.657,97.9839 178.422,97.9839 178.422,109.144 179.188,109.144 179.188,121.271 179.953,121.271 179.953,134.068 180.718,134.068 180.718,147.222 181.484,147.222 181.484,160.411 182.249,160.411 182.249,173.311 183.015,173.311 183.015,185.606 183.78,185.606 183.78,196.994 184.545,196.994 184.545,207.195 185.311,207.195 185.311,215.958 186.076,215.958 186.076,223.068 186.841,223.068 186.841,228.35 187.607,228.35 187.607,231.673 188.372,231.673 188.372,232.956 189.137,232.956 189.137,232.203 189.903,232.203 189.903,229.633 190.668,229.633 190.668,225.429 191.434,225.429 191.434,219.682 192.199,219.682 192.199,212.463 192.964,212.463 192.964,203.866 193.73,203.866 193.73,194.026 194.495,194.026 194.495,183.119 195.26,183.119 195.26,171.361 196.026,171.361 196.026,159.003 196.791,159.003 196.791,146.323 197.556,146.323 197.556,133.617 198.322,133.617 198.322,121.188 199.087,121.188 199.087,109.339 199.852,109.339 199.852,98.3636 200.618,98.3636 200.618,88.5359 201.383,88.5359 201.383,80.1047 202.149,80.1047 202.149,73.2854 202.914,73.2854 202.914,68.2542 203.679,68.2542 203.679,65.1437 204.445,65.1437 204.445,64.0387 205.21,64.0387 205.21,64.9744 205.975,64.9744 205.975,67.935 206.741,67.935 206.741,72.8542 207.506,72.8542 207.506,79.6167 208.271,79.6167 208.271,88.0611 209.037,88.0611 209.037,97.9839 209.802,97.9839 209.802,109.144 210.567,109.144 210.567,121.271 211.333,121.271 211.333,134.068 212.098,134.068 212.098,147.222 212.864,147.222 212.864,160.411 213.629,160.411 213.629,173.311 214.394,173.311 214.394,185.606 215.16,185.606 215.16,196.994 215.925,196.994 215.925,207.195 216.69,207.195 216.69,215.958 217.456,215.958 217.456,223.068 218.221,223.068 218.221,228.35 218.986,228.35 218.986,231.673 219.752,231.673 219.752,232.956 220.517,232.956 220.517,232.203 221.283,232.203 221.283,229.633 222.048,229.633 222.048,225.429 222.813,225.429 222.813,219.682 223.579,219.682 223.579,212.463 224.344,212.463 224.344,203.866 225.109,203.866 225.109,194.026 225.875,194.026 225.875,183.119 226.64,183.119 226.64,171.361 227.405,171.361 227.405,159.003 228.171,159.003 228.171,146.323 228.936,146.323 228.936,133.617 229.701,133.617 229.701,121.188 230.467,121.188 230.467,109.339 231.232,109.339 231.232,98.3636 231.997,98.3636 231.997,88.5359 232.763,88.5359 232.763,80.1047 233.528,80.1047 233.528,73.2854 234.294,73.2854 234.294,68.2542 235.059,68.2542 235.059,65.1437 235.824,65.1437 235.824,64.0387 236.59,64.0387 236.59,64.9744 237.355,64.9744 237.355,67.935 238.12,67.935 238.12,72.8542 238.886,72.8542 238.886,79.6167 239.651,79.6167 239.651,88.0611 240.416,88.0611 240.416,97.9839 241.182,97.9839 241.182,109.144 241.947,109.144 241.947,121.271 242.713,121.271 242.713,134.068 243.478,134.068 243.478,147.222 244.243,147.222 244.243,160.411 245.009,160.411 245.009,173.311 245.774,173.311 245.774,185.606 246.539,185.606 246.539,196.994 247.305,196.994 247.305,207.195 248.07,207.195 248.07,215.958 248.835,215.958 248.835,223.068 249.601,223.068 249.601,228.35 250.366,228.35 250.366,231.673 251.131,231.673 251.131,232.956 251.897,232.956 251.897,232.203 252.662,232.203 252.662,229.633 253.428,229.633 253.428,225.429 254.193,225.429 254.193,219.682 254.958,219.682 254.958,212.463 255.724,212.463 255.724,203.866 256.489,203.866 256.489,194.026 257.254,194.026 257.254,183.119 258.02,183.119 258.02,171.361 258.785,171.361 258.785,159.003 259.55,159.003 259.55,146.323 260.316,146.323 260.316,133.617 261.081,133.617 261.081,121.188 261.846,121.188 261.846,109.339 262.612,109.339 262.612,98.3636 263.377,98.3636 263.377,88.5359 264.143,88.5359 264.143,80.1047 264.908,80.1047 264.908,73.2854 265.673,73.2854 265.673,68.2542 266.439,68.2542 266.439,65.1437 267.204,65.1437 267.204,64.0387 267.969,64.0387 267.969,64.9744 268.735,64.9744 268.735,67.935 269.5,67.935 269.5,72.8542 270.265,72.8542 270.265,79.6167 271.031,79.6167 271.031,88.0611 271.796,88.0611 271.796,97.9839 272.562,97.9839 272.562,109.144 273.327,109.144 273.327,121.271 274.092,121.271 274.092,134.068 274.858,134.068 274.858,147.222 275.623,147.222 275.623,160.411 276.388,160.411 276.388,173.311 277.154,173.311 277.154,185.606 277.919,185.606 277.919,196.994 278.684,196.994 278.684,207.195 279.45,207.195 279.45,215.958 280.215,215.958 280.215,223.068 280.98,223.068 280.98,228.35 281.746,228.35 281.746,231.673 282.511,231.673 282.511,232.956 283.277,232.956 283.277,232.203 284.042,232.203 284.042,229.633 284.807,229.633 284.807,225.429 285.573,225.429 285.573,219.682 286.338,219.682 286.338,212.463 287.103,212.463 287.103,203.866 287.869,203.866 287.869,194.026 288.634,194.026 288.634,183.119 289.399,183.119 289.399,171.361 290.165,171.361 290.165,159.003 290.93,159.003 290.93,146.323 291.695,146.323 291.695,133.617 292.461,133.617 292.461,121.188 293.226,121.188 293.226,109.339 293.992,109.339 293.992,98.3636 294.757,98.3636 294.757,88.5359 295.522,88.5359 295.522,80.1047 296.288,80.1047 296.288,73.2854 297.053,73.2854 297.053,68.2542 297.818,68.2542 297.818,65.1437 298.584,65.1437 298.584,64.0387 299.349,64.0387 299.349,64.9744 300.114,64.9744 300.114,67.935 300.88,67.935 300.88,72.8542 301.645,72.8542 301.645,79.6167 302.411,79.6167 302.411,88.0611 303.176,88.0611 303.176,97.9839 303.941,97.9839 303.941,109.144 304.707,109.144 304.707,121.271 305.472,121.271 305.472,134.068 306.237,134.068 306.237,147.222 307.003,147.222 307.003,160.411 307.768,160.411 307.768,173.311 308.533,173.311 308.533,185.606 309.299,185.606 309.299,196.994 310.064,196.994 310.064,207.195 310.829,207.195 310.829,215.958 311.595,215.958 311.595,223.068 312.36,223.068 312.36,228.35 313.126,228.35 313.126,231.673 313.891,231.673 313.891,232.956 314.656,232.956 314.656,232.203 315.422,232.203 315.422,229.633 316.187,229.633 316.187,225.429 316.952,225.429 316.952,219.682 317.718,219.682 317.718,212.463 318.483,212.463 318.483,203.866 319.248,203.866 319.248,194.026 320.014,194.026 320.014,183.119 320.779,183.119 320.779,171.361 321.544,171.361 321.544,159.003 322.31,159.003 322.31,146.323 323.075,146.323 323.075,133.617 323.841,133.617 323.841,121.188 324.606,121.188 324.606,109.339 325.371,109.339 325.371,98.3636 326.137,98.3636 326.137,88.5359 326.902,88.5359 326.902,80.1047 327.667,80.1047 327.667,73.2854 328.433,73.2854 328.433,68.2542 329.198,68.2542 329.198,65.1437 329.963,65.1437 329.963,64.0387 330.729,64.0387 330.729,64.9744 331.494,64.9744 331.494,67.935 332.259,67.935 332.259,72.8542 333.025,72.8542 333.025,79.6167 333.79,79.6167 333.79,88.0611 334.556,88.0611 334.556,97.9839 335.321,97.9839 335.321,109.144 336.086,109.144 336.086,121.271 336.852,121.271 336.852,134.068 337.617,134.068 337.617,147.222 338.382,147.222 338.382,160.411 339.148,160.411 339.148,173.311 339.913,173.311 339.913,185.606 340.678,185.606 340.678,196.994 341.444,196.994 341.444,207.195 342.209,207.195 342.209,215.958 342.975,215.958 342.975,223.068 343.74,223.068 343.74,228.35 344.505,228.35 344.505,231.673 345.271,231.673 345.271,232.956 346.036,232.956 346.036,232.203 346.801,232.203 346.801,229.633 347.567,229.633 347.567,225.429 348.332,225.429 348.332,219.682 349.097,219.682 349.097,212.463 349.863,212.463 349.863,203.866 350.628,203.866 350.628,194.053 351.393,194.053 351.393,183.374 352.159,183.374 352.159,172.284 352.924,172.284 352.924,161.209 353.69,161.209 353.69,150.498 354.455,150.498 354.455,140.41 355.22,140.41 355.22,131.118 355.986,131.118 355.986,122.724 356.751,122.724 356.751,115.271 357.516,115.271 357.516,108.755 358.282,108.755 358.282,103.143 359.047,103.143 359.047,98.3775 359.812,98.3775 359.812,94.3875 360.578,94.3875 360.578,91.0944 361.343,91.0944 361.343,88.4171 362.108,88.4171 362.108,86.2754 362.874,86.2754 362.874,84.593 363.639,84.593 363.639,83.2988 364.405,83.2988 364.405,82.3279 365.17,82.3279 365.17,81.6227 365.935,81.6227 365.935,81.1323 366.701,81.1323 366.701,80.8127 367.466,80.8127 367.466,80.6264 368.231,80.6264 368.231,80.5419 368.997,80.5419 368.997,80.5329 369.762,80.5329 369.762,80.5781 370.527,80.5781 370.527,80.6602 371.293,80.6602 371.293,80.7657 372.058,80.7657 372.058,80.8841 372.824,80.8841 372.824,81.0073 373.589,81.0073 373.589,81.1295 374.354,81.1295 374.354,81.2466 375.12,81.2466 375.12,81.3558 375.885,81.3558 375.885,81.4555 376.65,81.4555 376.65,81.5446 377.416,81.5446 377.416,81.6232 378.181,81.6232 378.181,81.6913 378.946,81.6913 378.946,81.7495" stroke="#000000" stroke-linecap="butt"/>
   <polyline stroke-linejoin="round" fill="none" stroke-width="0.5" points="54.4343,148.777 55.1996,148.777 55.965,148.777 56.7304,148.777 57.4957,148.777 58.2611,148.777 59.0264,148.777 59.7918,148.777 60.5572,148.777 61.3225,148.777 62.0879,148.777 62.8532,148.777 63.6186,148.777 64.3839,130.994 65.1493,113.648 65.9147,97.1679 66.68,81.9583 67.4454,68.394 68.2107,56.8091 68.9761,47.4886 69.7415,40.6622 70.5068,36.498 71.2722,35.0984 72.0375,36.498 72.8029,40.6622 73.5683,47.4886 74.3336,56.8091 75.099,68.394 75.8643,81.9583 76.6297,97.1679 77.3951,113.648 78.1604,130.994 78.9258,148.777 79.6911,166.56 80.4565,183.905 81.2218,200.386 81.9872,215.595 82.7526,229.16 83.5179,240.745 84.2833,250.065 85.0486,256.891 85.814,261.056 86.5794,262.455 87.3447,261.056 88.1101,256.891 88.8754,250.065 89.6408,240.745 90.4062,229.16 91.1715,215.595 91.9369,200.386 92.7022,183.905 93.4676,166.56 94.2329,166.56 94.9983,148.777 95.7637,130.994 96.529,113.648 97.2944,97.1679 98.0597,81.9583 98.8251,68.394 99.5905,56.8091 100.356,47.4886 101.121,40.6622 101.887,36.498 102.652,35.0984 103.417,36.498 104.183,40.6622 104.948,47.4886 105.713,56.8091 106.479,68.394 107.244,81.9583 108.009,97.1679 108.775,113.648 109.54,130.994 110.305,148.777 111.071,166.56 111.836,183.905 112.602,200.386 113.367,215.595 114.132,229.16 114.898,240.745 115.663,250.065 116.428,256.891 117.194,261.056 117.959,262.455 118.724,261.056 119.49,256.891 120.255,250.065 121.021,240.745 121.786,229.16 122.551,215.595 123.317,200.386 124.082,183.905 124.847,166.56 125.613,166.56 126.378,148.777 127.143,130.994 127.909,113.648 128.674,97.1679 129.439,81.9583 130.205,68.394 130.97,56.8091 131.736,47.4886 132.501,40.6622 133.266,36.498 134.032,35.0984 134.797,36.498 135.562,40.6622 136.328,47.4886 137.093,56.8091 137.858,68.394 138.624,81.9583 139.389,97.1679 140.154,113.648 140.92,130.994 141.685,148.777 142.451,166.56 143.216,183.905 143.981,200.386 144.747,215.595 145.512,229.16 146.277,240.745 147.043,250.065 147.808,256.891 148.573,261.056 149.339,262.455 150.104,261.056 150.869,256.891 151.635,250.065 152.4,240.745 153.166,229.16 153.931,215.595 154.696,200.386 155.462,183.905 156.227,166.56 156.992,166.56 157.758,148.777 158.523,130.994 159.288,113.648 160.054,97.1679 160.819,81.9583 161.585,68.394 162.35,56.8091 163.115,47.4886 163.881,40.6622 164.646,36.498 165.411,35.0984 166.177,36.498 166.942,40.6622 167.707,47.4886 168.473,56.8091 169.238,68.394 170.003,81.9583 170.769,97.1679 171.534,113.648 172.3,130.994 173.065,148.777 173.83,166.56 174.596,183.905 175.361,200.386 176.126,215.595 176.892,229.16 177.657,240.745 178.422,250.065 179.188,256.891 179.953,261.056 180.718,262.455 181.484,261.056 182.249,256.891 183.015,250.065 183.78,240.745 184.545,229.16 185.311,215.595 186.076,200.386 186.841,183.905 187.607,166.56 188.372,166.56 189.137,148.777 189.903,130.994 190.668,113.648 191.434,97.1679 192.199,81.9583 192.964,68.394 193.73,56.8091 194.495,47.4886 195.26,40.6622 196.026,36.498 196.791,35.0984 197.556,36.498 198.322,40.6622 199.087,47.4886 199.852,56.8091 200.618,68.394 201.383,81.9583 202.149,97.1679 202.914,113.648 203.679,130.994 204.445,148.777 205.21,166.56 205.975,183.905 206.741,200.386 207.506,215.595 208.271,229.16 209.037,240.745 209.802,250.065 210.567,256.891 211.333,261.056 212.098,262.455 212.864,261.056 213.629,256.891 214.394,250.065 215.16,240.745 215.925,229.16 216.69,215.595 217.456,200.386 218.221,183.905 218.986,166.56 219.752,166.56 220.517,148.777 221.283,130.994 222.048,113.648 222.813,97.1679 223.579,81.9583 224.344,68.394 225.109,56.8091 225.875,47.4886 226.64,40.6622 227.405,36.498 228.171,35.0984 228.936,36.498 229.701,40.6622 230.467,47.4886 231.232,56.8091 231.997,68.394 232.763,81.9583 233.528,97.1679 234.294,113.648 235.059,130.994 235.824,148.777 236.59,166.56 237.355,183.905 238.12,200.386 238.886,215.595 239.651,229.16 240.416,240.745 241.182,250.065 241.947,256.891 242.713,261.056 243.478,262.455 244.243,261.056 245.009,256.891 245.774,250.065 246.539,240.745 247.305,229.16 248.07,215.595 248.835,200.386 249.601,183.905 250.366,166.56 251.131,166.56 251.897,148.777 252.662,130.994 253.428,113.648 254.193,97.1679 254.958,81.9583 255.724,68.394 256.489,56.8091 257.254,47.4886 258.02,40.6622 258.785,36.498 259.55,35.0984 260.316,36.498 261.081,40.6622 261.846,47.4886 262.612,56.8091 263.377,68.394 264.143,81.9583 264.908,97.1679 265.673,113.648 266.439,130.994 267.204,148.777 267.969,166.56 268.735,183.905 269.5,200.386 270.265,215.595 271.031,229.16 271.796,240.745 272.562,250.065 273.327,256.891 274.092,261.056 274.858,262.455 275.623,261.056 276.388,256.891 277.154,250.065 277.919,240.745 278.684,229.16 279.45,215.595 280.215,200.386 280.98,183.905 281.746,166.56 282.511,166.56 283.277,148.777 284.042,130.994 284.807,113.648 285.573,97.1679 286.338,81.9583 287.103,68.394 287.869,56.8091 288.634,47.4886 289.399,40.6622 290.165,36.498 290.93,35.0984 291.695,36.498 292.461,40.6622 293.226,47.4886 293.992,56.8091 294.757,68.394 295.522,81.9583 296.288,97.1679 297.053,113.648 297.818,130.994 298.584,148.777 299.349,166.56 300.114,183.905 300.88,200.386 301.645,215.595 302.411,229.16 303.176,240.745 303.941,250.065 304.707,256.891 305.472,261.056 306.237,262.455 307.003,261.056 307.768,256.891 308.533,250.065 309.299,240.745 310.064,229.16 310.829,215.595 311.595,200.386 312.36,183.905 313.126,166.56 313.891,166.56 314.656,148.777 315.422,130.994 316.187,113.648 316.952,97.1679 317.718,81.9583 318.483,68.394 319.248,56.8091 320.014,47.4886 320.779,40.6622 321.544,36.498 322.31,35.0984 323.075,36.498 323.841,40.6622 324.606,47.4886 325.371,56.8091 326.137,68.394 326.902,81.9583 327.667,97.1679 328.433,113.648 329.198,130.994 329.963,148.777 330.729,166.56 331.494,183.905 332.259,200.386 333.025,215.595 333.79,229.16 334.556,240.745 335.321,250.065 336.086,256.891 336.852,261.056 337.617,262.455 338.382,261.056 339.148,256.891 339.913,250.065 340.678,240.745 341.444,229.16 342.209,215.595 342.975,200.386 343.74,183.905 344.505,166.56 345.271,166.56 346.036,148.777 346.801,130.994 347.567,113.648 348.332,97.1679 349.097,81.9583 349.863,81.9583 350.628,81.9583 351.393,81.9583 352.159,81.9583 352.924,81.9583 353.69,81.9583 354.455,81.9583 355.22,81.9583 355.986,81.9583 356.751,81.9583 357.516,81.9583 358.282,81.9583 359.047,81.9583 359.812,81.9583 360.578,81.9583 361.343,81.9583 362.108,81.9583 362.874,81.9583 363.639,81.9583 364.405,81.9583 365.17,81.9583 365.935,81.9583 366.701,81.9583 367.466,81.9583 368.231,81.9583 368.997,81.9583 369.762,81.9583 370.527,81.9583 371.293,81.9583 372.058,81.9583 372.824,81.9583 373.589,81.9583 374.354,81.9583 375.12,81.9583 375.885,81.9583 376.65,81.9583 377.416,81.9583 378.181,81.9583 378.946,81.9583" stroke="#7f7f7f" stroke-linecap="butt"/>
  </g>
  <clipPath id="cp00418314">
   <polygon points="0,314 418,314 418,0 0,0"/>
  </clipPath>
  <g clip-path="url(#cp00418314)">
   <polygon shape-rendering="crispEdges" fill="#ffffff" points="265.322,93.8836 370.422,93.8836 370.422,32.0782 265.322,32.0782"/>
   <polyline stroke-linejoin="miter" fill="none" stroke-width="0.5" points="265.322,93.8836 370.422,93.8836" stroke="#262626" stroke-linecap="square" stroke-dasharray="16,0"/>
   <polyline stroke-linejoin="miter" fill="none" stroke-width="0.5" points="265.322,32.0782 370.422,32.0782" stroke="#262626" stroke-linecap="square" stroke-dasharray="16,0"/>
   <polyline stroke-linejoin="miter" fill="none" stroke-width="0.5" points="265.322,93.8836 265.322,32.0782" stroke="#262626" stroke-linecap="square" stroke-dasharray="16,0"/>
   <polyline stroke-linejoin="miter" fill="none" stroke-width="0.5" points="370.422,93.8836 370.422,32.0782" stroke="#262626" stroke-linecap="square" stroke-dasharray="16,0"/>
   <polyline stroke-linejoin="round" fill="none" stroke-width="0.5" points="269.584,43.7999 290.897,43.7999" stroke="#0000ff" stroke-linecap="butt"/>
   <g xml:space="preserve" font-family="FreeSans" font-size="15" font-weight="normal" transform="translate(295.159,49.7999) rotate(-0,-0,-6)" font-style="normal">
    <text y="-0" fill="rgb(0,0,0)" x="0 11 19 27 ">Real</text>
   </g>
   <polyline stroke-linejoin="round" fill="none" stroke-width="0.5" points="269.584,62.9809 290.897,62.9809" stroke="#ff0000" stroke-linecap="butt"/>
   <g xml:space="preserve" font-family="FreeSans" font-size="15" font-weight="normal" transform="translate(295.159,68.9809) rotate(-0,-0,-6)" font-style="normal">
    <text y="-0" fill="rgb(0,0,0)" x="0 11 19 23 31 36 44 52 60 63 ">Referência</text>
   </g>
   <polyline stroke-linejoin="round" fill="none" stroke-width="0.5" points="269.584,82.1619 290.897,82.1619" stroke="#000000" stroke-linecap="butt"/>
   <g xml:space="preserve" font-family="FreeSans" font-size="15" font-weight="normal" transform="translate(295.159,88.6619) rotate(-0,-0,-6.5)" font-style="normal">
    <text y="-1" fill="rgb(0,0,0)" x="0 10 13 25 33 36 44 52 ">Simulada</text>
   </g>
  </g>
 </g>
</svg>
