<?xml version='1.0' encoding='UTF-8' standalone='no'?>
<svg xmlns="http://www.w3.org/2000/svg" xmlns:xlink="http://www.w3.org/1999/xlink" height="324pt" viewBox="0 0 435 324" width="435pt">
 <title>gl2ps_renderer figure</title>
 <desc>
Creator: GL2PS 1.4.2, (C) 1999-2020 C. Geuzaine
For: Octave
CreationDate: Tue Jun 21 21:25:31 2022
</desc>
 <defs/>
 <polygon points="0,0 435,0 435,324 0,324" fill="#ffffff"/>
 <g>
  <polygon points="0,324 435,324 435,0 0,0" fill="#ffffff" shape-rendering="crispEdges"/>
  <clipPath id="cp00435324">
   <polygon points="0,324 435,324 435,0 0,0"/>
  </clipPath>
  <g clip-path="url(#cp00435324)">
   <polygon points="56.6003,289.237 394.025,289.237 394.025,24.3739 56.6003,24.3739" fill="#ffffff" shape-rendering="crispEdges"/>
   <polyline stroke-dasharray="1,3,1,3,1,3,1,3" points="67.8478,289.237 67.8478,24.3739" stroke-linecap="butt" stroke-opacity="0.25" stroke="#191919" stroke-linejoin="miter" fill="none" stroke-width="0.5"/>
   <polyline stroke-dasharray="1,3,1,3,1,3,1,3" points="79.0953,289.237 79.0953,24.3739" stroke-linecap="butt" stroke-opacity="0.25" stroke="#191919" stroke-linejoin="miter" fill="none" stroke-width="0.5"/>
   <polyline stroke-dasharray="1,3,1,3,1,3,1,3" points="90.3428,289.237 90.3428,24.3739" stroke-linecap="butt" stroke-opacity="0.25" stroke="#191919" stroke-linejoin="miter" fill="none" stroke-width="0.5"/>
   <polyline stroke-dasharray="1,3,1,3,1,3,1,3" points="101.59,289.237 101.59,24.3739" stroke-linecap="butt" stroke-opacity="0.25" stroke="#191919" stroke-linejoin="miter" fill="none" stroke-width="0.5"/>
   <polyline stroke-dasharray="1,3,1,3,1,3,1,3" points="124.085,289.237 124.085,24.3739" stroke-linecap="butt" stroke-opacity="0.25" stroke="#191919" stroke-linejoin="miter" fill="none" stroke-width="0.5"/>
   <polyline stroke-dasharray="1,3,1,3,1,3,1,3" points="135.333,289.237 135.333,24.3739" stroke-linecap="butt" stroke-opacity="0.25" stroke="#191919" stroke-linejoin="miter" fill="none" stroke-width="0.5"/>
   <polyline stroke-dasharray="1,3,1,3,1,3,1,3" points="146.58,289.237 146.58,24.3739" stroke-linecap="butt" stroke-opacity="0.25" stroke="#191919" stroke-linejoin="miter" fill="none" stroke-width="0.5"/>
   <polyline stroke-dasharray="1,3,1,3,1,3,1,3" points="157.828,289.237 157.828,24.3739" stroke-linecap="butt" stroke-opacity="0.25" stroke="#191919" stroke-linejoin="miter" fill="none" stroke-width="0.5"/>
   <polyline stroke-dasharray="1,3,1,3,1,3,1,3" points="180.323,289.237 180.323,24.3739" stroke-linecap="butt" stroke-opacity="0.25" stroke="#191919" stroke-linejoin="miter" fill="none" stroke-width="0.5"/>
   <polyline stroke-dasharray="1,3,1,3,1,3,1,3" points="191.57,289.237 191.57,24.3739" stroke-linecap="butt" stroke-opacity="0.25" stroke="#191919" stroke-linejoin="miter" fill="none" stroke-width="0.5"/>
   <polyline stroke-dasharray="1,3,1,3,1,3,1,3" points="202.818,289.237 202.818,24.3739" stroke-linecap="butt" stroke-opacity="0.25" stroke="#191919" stroke-linejoin="miter" fill="none" stroke-width="0.5"/>
   <polyline stroke-dasharray="1,3,1,3,1,3,1,3" points="214.065,289.237 214.065,24.3739" stroke-linecap="butt" stroke-opacity="0.25" stroke="#191919" stroke-linejoin="miter" fill="none" stroke-width="0.5"/>
   <polyline stroke-dasharray="1,3,1,3,1,3,1,3" points="236.56,289.237 236.56,24.3739" stroke-linecap="butt" stroke-opacity="0.25" stroke="#191919" stroke-linejoin="miter" fill="none" stroke-width="0.5"/>
   <polyline stroke-dasharray="1,3,1,3,1,3,1,3" points="247.808,289.237 247.808,24.3739" stroke-linecap="butt" stroke-opacity="0.25" stroke="#191919" stroke-linejoin="miter" fill="none" stroke-width="0.5"/>
   <polyline stroke-dasharray="1,3,1,3,1,3,1,3" points="259.055,289.237 259.055,24.3739" stroke-linecap="butt" stroke-opacity="0.25" stroke="#191919" stroke-linejoin="miter" fill="none" stroke-width="0.5"/>
   <polyline stroke-dasharray="1,3,1,3,1,3,1,3" points="270.303,289.237 270.303,24.3739" stroke-linecap="butt" stroke-opacity="0.25" stroke="#191919" stroke-linejoin="miter" fill="none" stroke-width="0.5"/>
   <polyline stroke-dasharray="1,3,1,3,1,3,1,3" points="292.798,289.237 292.798,24.3739" stroke-linecap="butt" stroke-opacity="0.25" stroke="#191919" stroke-linejoin="miter" fill="none" stroke-width="0.5"/>
   <polyline stroke-dasharray="1,3,1,3,1,3,1,3" points="304.045,289.237 304.045,24.3739" stroke-linecap="butt" stroke-opacity="0.25" stroke="#191919" stroke-linejoin="miter" fill="none" stroke-width="0.5"/>
   <polyline stroke-dasharray="1,3,1,3,1,3,1,3" points="315.293,289.237 315.293,24.3739" stroke-linecap="butt" stroke-opacity="0.25" stroke="#191919" stroke-linejoin="miter" fill="none" stroke-width="0.5"/>
   <polyline stroke-dasharray="1,3,1,3,1,3,1,3" points="326.54,289.237 326.54,24.3739" stroke-linecap="butt" stroke-opacity="0.25" stroke="#191919" stroke-linejoin="miter" fill="none" stroke-width="0.5"/>
   <polyline stroke-dasharray="1,3,1,3,1,3,1,3" points="349.035,289.237 349.035,24.3739" stroke-linecap="butt" stroke-opacity="0.25" stroke="#191919" stroke-linejoin="miter" fill="none" stroke-width="0.5"/>
   <polyline stroke-dasharray="1,3,1,3,1,3,1,3" points="360.283,289.237 360.283,24.3739" stroke-linecap="butt" stroke-opacity="0.25" stroke="#191919" stroke-linejoin="miter" fill="none" stroke-width="0.5"/>
   <polyline stroke-dasharray="1,3,1,3,1,3,1,3" points="371.53,289.237 371.53,24.3739" stroke-linecap="butt" stroke-opacity="0.25" stroke="#191919" stroke-linejoin="miter" fill="none" stroke-width="0.5"/>
   <polyline stroke-dasharray="1,3,1,3,1,3,1,3" points="382.778,289.237 382.778,24.3739" stroke-linecap="butt" stroke-opacity="0.25" stroke="#191919" stroke-linejoin="miter" fill="none" stroke-width="0.5"/>
   <polyline stroke-dasharray="1,3,1,3,1,3,1,3" points="56.6003,289.237 56.6003,24.3739" stroke-linecap="butt" stroke-opacity="0.25" stroke="#191919" stroke-linejoin="miter" fill="none" stroke-width="0.5"/>
   <polyline stroke-dasharray="1,3,1,3,1,3,1,3" points="112.838,289.237 112.838,24.3739" stroke-linecap="butt" stroke-opacity="0.25" stroke="#191919" stroke-linejoin="miter" fill="none" stroke-width="0.5"/>
   <polyline stroke-dasharray="1,3,1,3,1,3,1,3" points="169.075,289.237 169.075,24.3739" stroke-linecap="butt" stroke-opacity="0.25" stroke="#191919" stroke-linejoin="miter" fill="none" stroke-width="0.5"/>
   <polyline stroke-dasharray="1,3,1,3,1,3,1,3" points="225.313,289.237 225.313,24.3739" stroke-linecap="butt" stroke-opacity="0.25" stroke="#191919" stroke-linejoin="miter" fill="none" stroke-width="0.5"/>
   <polyline stroke-dasharray="1,3,1,3,1,3,1,3" points="281.55,289.237 281.55,24.3739" stroke-linecap="butt" stroke-opacity="0.25" stroke="#191919" stroke-linejoin="miter" fill="none" stroke-width="0.5"/>
   <polyline stroke-dasharray="1,3,1,3,1,3,1,3" points="337.788,289.237 337.788,24.3739" stroke-linecap="butt" stroke-opacity="0.25" stroke="#191919" stroke-linejoin="miter" fill="none" stroke-width="0.5"/>
   <polyline stroke-dasharray="1,3,1,3,1,3,1,3" points="394.025,289.237 394.025,24.3739" stroke-linecap="butt" stroke-opacity="0.25" stroke="#191919" stroke-linejoin="miter" fill="none" stroke-width="0.5"/>
   <polyline points="56.6003,289.237 56.6003,285.864" stroke-linecap="butt" stroke="#262626" stroke-linejoin="miter" fill="none" stroke-width="0.5"/>
   <polyline points="56.6003,24.3739 56.6003,27.7464" stroke-linecap="butt" stroke="#262626" stroke-linejoin="miter" fill="none" stroke-width="0.5"/>
   <polyline points="112.838,289.237 112.838,285.864" stroke-linecap="butt" stroke="#262626" stroke-linejoin="miter" fill="none" stroke-width="0.5"/>
   <polyline points="112.838,24.3739 112.838,27.7464" stroke-linecap="butt" stroke="#262626" stroke-linejoin="miter" fill="none" stroke-width="0.5"/>
   <polyline points="169.075,289.237 169.075,285.864" stroke-linecap="butt" stroke="#262626" stroke-linejoin="miter" fill="none" stroke-width="0.5"/>
   <polyline points="169.075,24.3739 169.075,27.7464" stroke-linecap="butt" stroke="#262626" stroke-linejoin="miter" fill="none" stroke-width="0.5"/>
   <polyline points="225.313,289.237 225.313,285.864" stroke-linecap="butt" stroke="#262626" stroke-linejoin="miter" fill="none" stroke-width="0.5"/>
   <polyline points="225.313,24.3739 225.313,27.7464" stroke-linecap="butt" stroke="#262626" stroke-linejoin="miter" fill="none" stroke-width="0.5"/>
   <polyline points="281.55,289.237 281.55,285.864" stroke-linecap="butt" stroke="#262626" stroke-linejoin="miter" fill="none" stroke-width="0.5"/>
   <polyline points="281.55,24.3739 281.55,27.7464" stroke-linecap="butt" stroke="#262626" stroke-linejoin="miter" fill="none" stroke-width="0.5"/>
   <polyline points="337.788,289.237 337.788,285.864" stroke-linecap="butt" stroke="#262626" stroke-linejoin="miter" fill="none" stroke-width="0.5"/>
   <polyline points="337.788,24.3739 337.788,27.7464" stroke-linecap="butt" stroke="#262626" stroke-linejoin="miter" fill="none" stroke-width="0.5"/>
   <polyline points="394.025,289.237 394.025,285.864" stroke-linecap="butt" stroke="#262626" stroke-linejoin="miter" fill="none" stroke-width="0.5"/>
   <polyline points="394.025,24.3739 394.025,27.7464" stroke-linecap="butt" stroke="#262626" stroke-linejoin="miter" fill="none" stroke-width="0.5"/>
   <text font-family="FreeSans" font-style="normal" transform="translate(44.6003,304.733) rotate(-0,12,-8)" font-size="10" xml:space="preserve" font-weight="normal">
    <tspan x="0 3 9 12 18 " fill="rgb(38,38,38)" y="-0">-0.15</tspan>
   </text>
   <text font-family="FreeSans" font-style="normal" transform="translate(103.838,304.733) rotate(-0,9,-8)" font-size="10" xml:space="preserve" font-weight="normal">
    <tspan x="0 3 9 12 " fill="rgb(38,38,38)" y="-0">-0.1</tspan>
   </text>
   <text font-family="FreeSans" font-style="normal" transform="translate(157.075,304.733) rotate(-0,12,-8)" font-size="10" xml:space="preserve" font-weight="normal">
    <tspan x="0 3 9 12 18 " fill="rgb(38,38,38)" y="-0">-0.05</tspan>
   </text>
   <text font-family="FreeSans" font-style="normal" transform="translate(222.313,304.733) rotate(-0,3,-8)" font-size="10" xml:space="preserve" font-weight="normal">
    <tspan x="0 " fill="rgb(38,38,38)" y="-0">0</tspan>
   </text>
   <text font-family="FreeSans" font-style="normal" transform="translate(271.05,304.733) rotate(-0,10.5,-8)" font-size="10" xml:space="preserve" font-weight="normal">
    <tspan x="0 6 9 15 " fill="rgb(38,38,38)" y="-0">0.05</tspan>
   </text>
   <text font-family="FreeSans" font-style="normal" transform="translate(330.288,304.733) rotate(-0,7.5,-8)" font-size="10" xml:space="preserve" font-weight="normal">
    <tspan x="0 6 9 " fill="rgb(38,38,38)" y="-0">0.1</tspan>
   </text>
   <text font-family="FreeSans" font-style="normal" transform="translate(383.525,304.733) rotate(-0,10.5,-8)" font-size="10" xml:space="preserve" font-weight="normal">
    <tspan x="0 6 9 15 " fill="rgb(38,38,38)" y="-0">0.15</tspan>
   </text>
   <polyline stroke-dasharray="1,3,1,3,1,3,1,3" points="56.6003,278.642 394.025,278.642" stroke-linecap="butt" stroke-opacity="0.25" stroke="#191919" stroke-linejoin="miter" fill="none" stroke-width="0.5"/>
   <polyline stroke-dasharray="1,3,1,3,1,3,1,3" points="56.6003,268.048 394.025,268.048" stroke-linecap="butt" stroke-opacity="0.25" stroke="#191919" stroke-linejoin="miter" fill="none" stroke-width="0.5"/>
   <polyline stroke-dasharray="1,3,1,3,1,3,1,3" points="56.6003,257.453 394.025,257.453" stroke-linecap="butt" stroke-opacity="0.25" stroke="#191919" stroke-linejoin="miter" fill="none" stroke-width="0.5"/>
   <polyline stroke-dasharray="1,3,1,3,1,3,1,3" points="56.6003,246.859 394.025,246.859" stroke-linecap="butt" stroke-opacity="0.25" stroke="#191919" stroke-linejoin="miter" fill="none" stroke-width="0.5"/>
   <polyline stroke-dasharray="1,3,1,3,1,3,1,3" points="56.6003,225.67 394.025,225.67" stroke-linecap="butt" stroke-opacity="0.25" stroke="#191919" stroke-linejoin="miter" fill="none" stroke-width="0.5"/>
   <polyline stroke-dasharray="1,3,1,3,1,3,1,3" points="56.6003,215.075 394.025,215.075" stroke-linecap="butt" stroke-opacity="0.25" stroke="#191919" stroke-linejoin="miter" fill="none" stroke-width="0.5"/>
   <polyline stroke-dasharray="1,3,1,3,1,3,1,3" points="56.6003,204.481 394.025,204.481" stroke-linecap="butt" stroke-opacity="0.25" stroke="#191919" stroke-linejoin="miter" fill="none" stroke-width="0.5"/>
   <polyline stroke-dasharray="1,3,1,3,1,3,1,3" points="56.6003,193.886 394.025,193.886" stroke-linecap="butt" stroke-opacity="0.25" stroke="#191919" stroke-linejoin="miter" fill="none" stroke-width="0.5"/>
   <polyline stroke-dasharray="1,3,1,3,1,3,1,3" points="56.6003,172.697 394.025,172.697" stroke-linecap="butt" stroke-opacity="0.25" stroke="#191919" stroke-linejoin="miter" fill="none" stroke-width="0.5"/>
   <polyline stroke-dasharray="1,3,1,3,1,3,1,3" points="56.6003,162.103 394.025,162.103" stroke-linecap="butt" stroke-opacity="0.25" stroke="#191919" stroke-linejoin="miter" fill="none" stroke-width="0.5"/>
   <polyline stroke-dasharray="1,3,1,3,1,3,1,3" points="56.6003,151.508 394.025,151.508" stroke-linecap="butt" stroke-opacity="0.25" stroke="#191919" stroke-linejoin="miter" fill="none" stroke-width="0.5"/>
   <polyline stroke-dasharray="1,3,1,3,1,3,1,3" points="56.6003,140.914 394.025,140.914" stroke-linecap="butt" stroke-opacity="0.25" stroke="#191919" stroke-linejoin="miter" fill="none" stroke-width="0.5"/>
   <polyline stroke-dasharray="1,3,1,3,1,3,1,3" points="56.6003,119.725 394.025,119.725" stroke-linecap="butt" stroke-opacity="0.25" stroke="#191919" stroke-linejoin="miter" fill="none" stroke-width="0.5"/>
   <polyline stroke-dasharray="1,3,1,3,1,3,1,3" points="56.6003,109.13 394.025,109.13" stroke-linecap="butt" stroke-opacity="0.25" stroke="#191919" stroke-linejoin="miter" fill="none" stroke-width="0.5"/>
   <polyline stroke-dasharray="1,3,1,3,1,3,1,3" points="56.6003,98.5355 394.025,98.5355" stroke-linecap="butt" stroke-opacity="0.25" stroke="#191919" stroke-linejoin="miter" fill="none" stroke-width="0.5"/>
   <polyline stroke-dasharray="1,3,1,3,1,3,1,3" points="56.6003,87.941 394.025,87.941" stroke-linecap="butt" stroke-opacity="0.25" stroke="#191919" stroke-linejoin="miter" fill="none" stroke-width="0.5"/>
   <polyline stroke-dasharray="1,3,1,3,1,3,1,3" points="56.6003,66.752 394.025,66.752" stroke-linecap="butt" stroke-opacity="0.25" stroke="#191919" stroke-linejoin="miter" fill="none" stroke-width="0.5"/>
   <polyline stroke-dasharray="1,3,1,3,1,3,1,3" points="56.6003,56.1574 394.025,56.1574" stroke-linecap="butt" stroke-opacity="0.25" stroke="#191919" stroke-linejoin="miter" fill="none" stroke-width="0.5"/>
   <polyline stroke-dasharray="1,3,1,3,1,3,1,3" points="56.6003,45.5629 394.025,45.5629" stroke-linecap="butt" stroke-opacity="0.25" stroke="#191919" stroke-linejoin="miter" fill="none" stroke-width="0.5"/>
   <polyline stroke-dasharray="1,3,1,3,1,3,1,3" points="56.6003,34.9684 394.025,34.9684" stroke-linecap="butt" stroke-opacity="0.25" stroke="#191919" stroke-linejoin="miter" fill="none" stroke-width="0.5"/>
   <polyline stroke-dasharray="1,3,1,3,1,3,1,3" points="56.6003,289.237 394.025,289.237" stroke-linecap="butt" stroke-opacity="0.25" stroke="#191919" stroke-linejoin="miter" fill="none" stroke-width="0.5"/>
   <polyline stroke-dasharray="1,3,1,3,1,3,1,3" points="56.6003,236.264 394.025,236.264" stroke-linecap="butt" stroke-opacity="0.25" stroke="#191919" stroke-linejoin="miter" fill="none" stroke-width="0.5"/>
   <polyline stroke-dasharray="1,3,1,3,1,3,1,3" points="56.6003,183.292 394.025,183.292" stroke-linecap="butt" stroke-opacity="0.25" stroke="#191919" stroke-linejoin="miter" fill="none" stroke-width="0.5"/>
   <polyline stroke-dasharray="1,3,1,3,1,3,1,3" points="56.6003,130.319 394.025,130.319" stroke-linecap="butt" stroke-opacity="0.25" stroke="#191919" stroke-linejoin="miter" fill="none" stroke-width="0.5"/>
   <polyline stroke-dasharray="1,3,1,3,1,3,1,3" points="56.6003,77.3465 394.025,77.3465" stroke-linecap="butt" stroke-opacity="0.25" stroke="#191919" stroke-linejoin="miter" fill="none" stroke-width="0.5"/>
   <polyline stroke-dasharray="1,3,1,3,1,3,1,3" points="56.6003,24.3739 394.025,24.3739" stroke-linecap="butt" stroke-opacity="0.25" stroke="#191919" stroke-linejoin="miter" fill="none" stroke-width="0.5"/>
   <polyline points="56.6003,289.237 59.9788,289.237" stroke-linecap="butt" stroke="#262626" stroke-linejoin="miter" fill="none" stroke-width="0.5"/>
   <polyline points="394.025,289.237 390.647,289.237" stroke-linecap="butt" stroke="#262626" stroke-linejoin="miter" fill="none" stroke-width="0.5"/>
   <polyline points="56.6003,236.264 59.9788,236.264" stroke-linecap="butt" stroke="#262626" stroke-linejoin="miter" fill="none" stroke-width="0.5"/>
   <polyline points="394.025,236.264 390.647,236.264" stroke-linecap="butt" stroke="#262626" stroke-linejoin="miter" fill="none" stroke-width="0.5"/>
   <polyline points="56.6003,183.292 59.9788,183.292" stroke-linecap="butt" stroke="#262626" stroke-linejoin="miter" fill="none" stroke-width="0.5"/>
   <polyline points="394.025,183.292 390.647,183.292" stroke-linecap="butt" stroke="#262626" stroke-linejoin="miter" fill="none" stroke-width="0.5"/>
   <polyline points="56.6003,130.319 59.9788,130.319" stroke-linecap="butt" stroke="#262626" stroke-linejoin="miter" fill="none" stroke-width="0.5"/>
   <polyline points="394.025,130.319 390.647,130.319" stroke-linecap="butt" stroke="#262626" stroke-linejoin="miter" fill="none" stroke-width="0.5"/>
   <polyline points="56.6003,77.3465 59.9788,77.3465" stroke-linecap="butt" stroke="#262626" stroke-linejoin="miter" fill="none" stroke-width="0.5"/>
   <polyline points="394.025,77.3465 390.647,77.3465" stroke-linecap="butt" stroke="#262626" stroke-linejoin="miter" fill="none" stroke-width="0.5"/>
   <polyline points="56.6003,24.3739 59.9788,24.3739" stroke-linecap="butt" stroke="#262626" stroke-linejoin="miter" fill="none" stroke-width="0.5"/>
   <polyline points="394.025,24.3739 390.647,24.3739" stroke-linecap="butt" stroke="#262626" stroke-linejoin="miter" fill="none" stroke-width="0.5"/>
   <text font-family="FreeSans" font-style="normal" transform="translate(27.594,293.237) rotate(-0,24,-4)" font-size="10" xml:space="preserve" font-weight="normal">
    <tspan x="0 3 9 12 18 " fill="rgb(38,38,38)" y="-0">-0.15</tspan>
   </text>
   <text font-family="FreeSans" font-style="normal" transform="translate(33.594,240.264) rotate(-0,18,-4)" font-size="10" xml:space="preserve" font-weight="normal">
    <tspan x="0 3 9 12 " fill="rgb(38,38,38)" y="-0">-0.1</tspan>
   </text>
   <text font-family="FreeSans" font-style="normal" transform="translate(27.594,187.292) rotate(-0,24,-4)" font-size="10" xml:space="preserve" font-weight="normal">
    <tspan x="0 3 9 12 18 " fill="rgb(38,38,38)" y="-0">-0.05</tspan>
   </text>
   <text font-family="FreeSans" font-style="normal" transform="translate(45.594,134.319) rotate(-0,6,-4)" font-size="10" xml:space="preserve" font-weight="normal">
    <tspan x="0 " fill="rgb(38,38,38)" y="-0">0</tspan>
   </text>
   <text font-family="FreeSans" font-style="normal" transform="translate(30.594,81.3465) rotate(-0,21,-4)" font-size="10" xml:space="preserve" font-weight="normal">
    <tspan x="0 6 9 15 " fill="rgb(38,38,38)" y="-0">0.05</tspan>
   </text>
   <text font-family="FreeSans" font-style="normal" transform="translate(36.594,28.3739) rotate(-0,15,-4)" font-size="10" xml:space="preserve" font-weight="normal">
    <tspan x="0 6 9 " fill="rgb(38,38,38)" y="-0">0.1</tspan>
   </text>
   <polyline stroke-dasharray="16,0" points="56.6003,289.237 394.025,289.237" stroke-linecap="square" stroke="#262626" stroke-linejoin="miter" fill="none" stroke-width="0.5"/>
   <polyline stroke-dasharray="16,0" points="56.6003,24.3739 394.025,24.3739" stroke-linecap="square" stroke="#262626" stroke-linejoin="miter" fill="none" stroke-width="0.5"/>
   <polyline stroke-dasharray="16,0" points="56.6003,289.237 56.6003,24.3739" stroke-linecap="square" stroke="#262626" stroke-linejoin="miter" fill="none" stroke-width="0.5"/>
   <polyline stroke-dasharray="16,0" points="394.025,289.237 394.025,24.3739" stroke-linecap="square" stroke="#262626" stroke-linejoin="miter" fill="none" stroke-width="0.5"/>
   <text font-family="FreeSans" font-style="normal" transform="translate(182.313,321.733) rotate(-0,43,-12)" font-size="11" xml:space="preserve" font-weight="normal">
    <tspan x="0 7 13 18 20 26 32 38 41 47 56 59 66 69 73 82 " fill="rgb(38,38,38)" y="-3">Posição em X (m)</tspan>
   </text>
   <text font-family="FreeSans" font-style="normal" transform="translate(-20.406,156.805) rotate(-90,43,0)" font-size="11" xml:space="preserve" font-weight="normal">
    <tspan x="0 7 13 18 20 26 32 38 41 47 56 59 66 69 73 82 " fill="rgb(38,38,38)" y="-3">Posição em Y (m)</tspan>
   </text>
   <text font-family="FreeSans" font-style="normal" transform="translate(154.313,14.3739) rotate(-0,71,0)" font-size="11" xml:space="preserve" font-weight="bold">
    <tspan x="0 7 14 20 23 29 35 42 46 53 57 60 67 73 76 82 85 92 99 105 108 114 120 127 131 138 " fill="rgb(0,0,0)" y="-3">Posição(X) pela Posição(Y)</tspan>
   </text>
   <polyline points="225.313,130.319 225.313,130.319 225.313,130.319 225.313,130.319 225.313,130.319 225.313,130.319 225.313,130.319 225.313,130.319 225.313,130.319 225.313,130.319 225.313,130.319 225.313,130.319 225.313,130.319 225.313,130.319 225.313,130.319 225.313,130.319 225.313,130.319 225.313,130.319 225.313,130.319 225.313,130.319 225.313,130.576 225.346,131.884 225.548,135.003 226.152,139.936 227.39,146.125 229.42,152.916 232.313,159.738 236.067,166.126 240.619,171.72 245.862,176.247 251.651,179.516 257.82,181.4 264.186,181.836 270.562,180.811 276.757,178.357 282.589,174.544 287.884,169.477 292.484,163.285 296.248,156.119 299.057,148.146 300.814,139.547 301.445,130.507 300.902,121.218 299.161,111.87 296.224,102.649 292.115,93.7361 286.884,85.3002 280.601,77.5001 273.355,70.4795 265.255,64.3659 256.424,59.2691 247,55.2794 237.129,52.4674 226.969,50.8826 216.679,50.5536 206.423,51.4877 196.365,53.6715 186.664,57.0711 177.475,61.6333 168.945,67.2863 161.21,73.9413 154.394,81.4941 148.605,89.8268 143.938,98.8095 140.468,108.303 138.252,118.16 137.328,128.228 137.713,138.353 139.405,148.379 142.382,158.152 146.601,167.522 152.001,176.347 158.47,184.493 165.788,191.84 173.688,198.297 181.988,203.805 190.625,208.322 199.579,211.815 208.818,214.252 218.287,215.606 227.905,215.856 237.573,214.994 247.175,213.021 256.586,209.952 265.676,205.818 274.311,200.663 282.36,194.549 289.696,187.549 296.201,179.753 301.766,171.262 306.296,162.191 309.71,152.664 311.946,142.811 312.956,132.773 312.713,122.69 311.211,112.709 308.461,102.973 304.496,93.6237 299.365,84.7988 293.139,76.6282 285.904,69.2331 277.764,62.7236 268.835,57.1974 259.247,52.7378 249.141,49.4126 238.666,47.2728 227.976,46.3522 217.231,46.6662 206.591,48.212 196.214,50.9685 186.256,54.8963 176.865,59.9386 168.183,66.0219 160.341,73.057 153.456,80.9404 147.631,89.556 142.956,98.7763 139.502,108.465 137.319,118.478 136.443,128.667 136.887,138.882 138.646,148.969 141.694,158.779 145.987,168.166 151.46,176.991 158.001,185.122 165.389,192.443 173.354,198.866 181.716,204.333 190.408,208.806 199.412,212.252 208.697,214.64 218.206,215.945 227.858,216.149 237.555,215.242 247.181,213.226 256.612,210.118 265.717,205.949 274.364,200.762 282.422,194.619 289.763,187.594 296.271,179.777 301.837,171.268 306.367,162.183 309.779,152.643 312.011,142.781 313.017,132.736 312.77,122.648 311.262,112.664 308.507,102.926 304.536,93.5768 299.4,84.7527 293.169,76.5838 285.93,69.191 277.785,62.6844 268.851,57.1614 259.26,52.7052 249.151,49.3835 238.672,47.2473 227.98,46.3301 217.233,46.6474 206.591,48.1964 196.212,50.9557 186.253,54.8862 176.861,59.9309 168.179,66.0163 160.336,73.0533 153.45,80.9384 147.626,89.5553 142.951,98.7767 139.496,108.466 137.314,118.48 136.439,128.67 136.883,138.885 138.642,148.972 141.691,158.782 145.984,168.17 151.458,176.994 157.998,185.125 165.387,192.446 173.353,198.869 181.714,204.336 190.407,208.808 199.412,212.254 208.696,214.642 218.205,215.947 227.858,216.15 237.555,215.243 247.181,213.227 256.612,210.119 265.717,205.949 274.364,200.762 282.422,194.619 289.764,187.594 296.272,179.777 301.838,171.268 306.367,162.183 309.779,152.643 312.011,142.781 313.017,132.735 312.77,122.648 311.263,112.664 308.507,102.926 304.536,93.5765 299.401,84.7525 293.169,76.5836 285.93,69.1908 277.785,62.6842 268.852,57.1612 259.26,52.7051 249.151,49.3834 238.672,47.2472 227.98,46.33 217.233,46.6474 206.591,48.1963 196.212,50.9557 186.253,54.8861 176.861,59.9308 168.179,66.0163 160.336,73.0533 153.45,80.9384 147.626,89.5553 142.951,98.7767 139.496,108.466 137.314,118.48 136.439,128.67 136.883,138.885 138.642,148.972 141.691,158.783 145.984,168.17 151.458,176.995 157.998,185.125 165.387,192.446 173.353,198.869 181.714,204.336 190.407,208.809 199.412,212.254 208.696,214.642 218.205,215.947 227.858,216.15 237.555,215.243 247.181,213.227 256.612,210.119 265.717,205.949 274.364,200.762 282.422,194.619 289.764,187.594 296.272,179.777 301.838,171.268 306.367,162.183 309.779,152.643 312.011,142.781 313.017,132.735 312.77,122.648 311.263,112.664 308.507,102.926 304.536,93.5765 299.401,84.7525 293.169,76.5836 285.93,69.1908 277.785,62.6842 268.852,57.1612 259.26,52.7051 249.151,49.3834 238.672,47.2472 227.98,46.33 217.233,46.6474 206.591,48.1963 196.212,50.9557 186.253,54.8861 176.861,59.9308 168.179,66.0163 160.336,73.0533 153.45,80.9384 147.626,89.5553 142.951,98.7767 139.496,108.466 137.314,118.48 136.439,128.67 136.883,138.885 138.642,148.972 141.691,158.783 145.984,168.17 151.458,176.995 157.998,185.125 165.387,192.446 173.353,198.869 181.714,204.336 190.407,208.809 199.412,212.254 208.696,214.642 218.205,215.947 227.858,216.15 237.555,215.243 247.181,213.227 256.612,210.119 265.717,205.949 274.364,200.762 282.422,194.619 289.764,187.594 296.272,179.777 301.838,171.268 306.367,162.183 309.779,152.643 312.011,142.781 313.017,132.735 312.77,122.648 311.263,112.664 308.507,102.926 304.536,93.5765 299.401,84.7525 293.169,76.5836 285.93,69.1908 277.785,62.6842 268.852,57.1612 259.26,52.7051 249.151,49.3834 238.672,47.2472 227.98,46.33 217.233,46.6474 206.591,48.1963 196.212,50.9557 186.253,54.8861 176.861,59.9308 168.179,66.0163 160.336,73.0533 153.45,80.9384 147.626,89.5553 142.951,98.7767 139.496,108.466 137.314,118.48 136.439,128.67 136.883,138.885 138.642,148.972 141.691,158.783 145.984,168.17 151.458,176.995 157.998,185.125 165.387,192.446 173.353,198.869 181.714,204.336 190.407,208.809 199.412,212.254 208.696,214.642 218.205,215.947 227.858,216.15 237.555,215.243 247.181,213.227 256.612,210.119 265.717,205.949 274.364,200.762 282.422,194.619 289.764,187.594 296.272,179.777 301.838,171.268 306.367,162.183 309.779,152.643 312.011,142.781 313.017,132.735 312.77,122.648 311.263,112.664 308.507,102.926 304.536,93.5765 299.401,84.7525 293.169,76.5836 285.93,69.1908 277.785,62.6842 268.852,57.1612 259.26,52.7051 249.151,49.3834 238.672,47.2472 227.98,46.33 217.233,46.6474 206.591,48.1963 196.212,50.9557 186.253,54.8861 176.861,59.9308 168.179,66.0163 160.336,73.0533 153.45,80.9384 147.626,89.5553 142.951,98.7767 139.496,108.466 137.314,118.48 136.439,128.67 136.883,138.885 138.642,148.972 141.691,158.783 145.984,168.17 151.458,176.995 157.998,185.125 165.387,192.446 173.353,198.869 181.714,204.336 190.407,208.809 199.412,212.254 208.696,214.642 218.205,215.947 227.858,216.15 237.555,215.243 247.181,213.227 256.612,210.119 265.717,205.949 274.364,200.762 282.422,194.619 289.764,187.594 296.272,179.777 301.838,171.268 306.367,162.183 309.779,152.643 312.011,142.781 313.017,132.735 312.77,122.648 311.263,112.664 308.507,102.926 304.536,93.5765 299.401,84.7525 293.169,76.5836 285.93,69.1908 277.785,62.6842 268.852,57.1612 259.26,52.7051 249.151,49.3834 238.672,47.2472 227.98,46.33 217.233,46.6474 206.591,48.1963 196.212,50.9557 186.253,54.8861 176.861,59.9308 168.179,66.0163 160.336,73.0533 153.45,80.9384 147.626,89.5553 142.951,98.7767 139.496,108.466 137.314,118.48 136.439,128.67 136.883,138.885 138.642,148.972 141.691,158.783 145.984,168.17 151.458,176.995 157.998,185.125 165.387,192.446 173.353,198.869 181.714,204.336 190.407,208.809 199.412,212.254 208.696,214.642 218.205,215.947 227.858,216.15 237.555,215.243 247.181,213.227 256.612,210.119 265.717,205.949 274.364,200.762 282.422,194.619 289.764,187.594 296.272,179.777 301.838,171.268 306.367,162.183 309.779,152.643 312.011,142.781 313.017,132.735 312.77,122.648 311.263,112.664 308.507,102.926 304.536,93.5765 299.401,84.7525 293.169,76.5836 285.93,69.1908 277.785,62.6842 268.852,57.1612 259.26,52.7051 249.151,49.3834 238.672,47.2472 227.98,46.33 217.233,46.6474 206.591,48.1963 196.212,50.9557 186.253,54.8861 176.861,59.9308 168.179,66.0163 160.336,73.0533 153.45,80.9384 147.615,89.5259 142.865,98.5697 139.17,107.733 136.456,116.681 134.625,125.147 133.574,132.943 133.197,139.948 133.39,146.096 134.053,151.365 135.092,155.765 136.421,159.33 137.961,162.112 139.644,164.177 141.408,165.597 143.201,166.446 144.981,166.804 146.711,166.744 148.364,166.339 149.917,165.657 151.355,164.761 152.668,163.706 153.849,162.543 154.897,161.316 155.813,160.062 156.6,158.813 157.266,157.595 157.817,156.428 158.262,155.329 158.611,154.309 158.873,153.377 159.058,152.535 159.176,151.788 159.238,151.133 159.251,150.568 159.224,150.09 159.165,149.693 159.081,149.371 158.979,149.117 158.863,148.926 158.74,148.789 158.613,148.7 158.485,148.652" stroke-linecap="butt" stroke="#0071bc" stroke-linejoin="round" fill="none" stroke-width="0.5"/>
   <polyline points="225.313,130.319 225.313,130.319 225.313,130.319 225.313,130.319 225.313,130.319 225.313,130.319 225.313,130.319 225.313,130.319 225.313,130.319 225.313,130.319 225.313,130.319 225.313,130.319 225.313,130.319 225.313,130.319 225.313,130.319 225.313,130.319 225.313,130.319 225.313,130.319 225.313,130.319 225.313,197.065 233.948,196.567 242.455,195.082 250.706,192.631 258.579,189.252 265.956,184.994 272.727,179.921 278.791,174.108 284.058,167.643 288.449,160.621 291.899,153.147 294.356,145.334 295.784,137.296 296.161,129.154 295.482,121.03 293.757,113.044 291.012,105.316 287.288,97.9602 282.639,91.0871 277.136,84.7988 270.86,79.1891 263.905,74.3416 256.375,70.3287 248.382,67.21 240.045,65.0322 231.489,63.8276 222.84,63.6143 214.228,64.3954 205.781,66.1592 197.626,68.8796 189.883,72.5158 182.669,77.0138 176.09,82.3064 170.245,88.3148 165.221,94.9494 161.092,102.111 157.922,109.694 155.755,117.583 154.626,125.663 154.551,133.812 155.53,141.909 157.55,149.834 160.58,157.467 164.575,164.696 169.475,171.412 175.208,177.515 181.687,182.915 188.818,187.531 196.492,191.294 204.596,194.148 213.008,196.051 221.604,196.973 221.604,196.973 225.313,197.065 233.948,196.567 242.455,195.082 250.706,192.631 258.579,189.252 265.956,184.994 272.727,179.921 278.791,174.108 284.058,167.643 288.449,160.621 291.899,153.147 294.356,145.334 295.784,137.296 296.161,129.154 295.482,121.03 293.757,113.044 291.012,105.316 287.288,97.9602 282.639,91.0871 277.136,84.7988 270.86,79.1891 263.905,74.3416 256.375,70.3287 248.382,67.21 240.045,65.0322 231.489,63.8276 222.84,63.6143 214.228,64.3954 205.781,66.1592 197.626,68.8796 189.883,72.5158 182.669,77.0138 176.09,82.3064 170.245,88.3148 165.221,94.9494 161.092,102.111 157.922,109.694 155.755,117.583 154.626,125.663 154.551,133.812 155.53,141.909 157.55,149.834 160.58,157.467 164.575,164.696 169.475,171.412 175.208,177.515 181.687,182.915 188.818,187.531 196.492,191.294 204.596,194.148 213.008,196.051 221.604,196.973 221.604,196.973 225.313,197.065 233.948,196.567 242.455,195.082 250.706,192.631 258.579,189.252 265.956,184.994 272.727,179.921 278.791,174.108 284.058,167.643 288.449,160.621 291.899,153.147 294.356,145.334 295.784,137.296 296.161,129.154 295.482,121.03 293.757,113.044 291.012,105.316 287.288,97.9602 282.639,91.0871 277.136,84.7988 270.86,79.1891 263.905,74.3416 256.375,70.3287 248.382,67.21 240.045,65.0322 231.489,63.8276 222.84,63.6143 214.228,64.3954 205.781,66.1592 197.626,68.8796 189.883,72.5158 182.669,77.0138 176.09,82.3064 170.245,88.3148 165.221,94.9494 161.092,102.111 157.922,109.694 155.755,117.583 154.626,125.663 154.551,133.812 155.53,141.909 157.55,149.834 160.58,157.467 164.575,164.696 169.475,171.412 175.208,177.515 181.687,182.915 188.818,187.531 196.492,191.294 204.596,194.148 213.008,196.051 221.604,196.973 221.604,196.973 225.313,197.065 233.948,196.567 242.455,195.082 250.706,192.631 258.579,189.252 265.956,184.994 272.727,179.921 278.791,174.108 284.058,167.643 288.449,160.621 291.899,153.147 294.356,145.334 295.784,137.296 296.161,129.154 295.482,121.03 293.757,113.044 291.012,105.316 287.288,97.9602 282.639,91.0871 277.136,84.7988 270.86,79.1891 263.905,74.3416 256.375,70.3287 248.382,67.21 240.045,65.0322 231.489,63.8276 222.84,63.6143 214.228,64.3954 205.781,66.1592 197.626,68.8796 189.883,72.5158 182.669,77.0138 176.09,82.3064 170.245,88.3148 165.221,94.9494 161.092,102.111 157.922,109.694 155.755,117.583 154.626,125.663 154.551,133.812 155.53,141.909 157.55,149.834 160.58,157.467 164.575,164.696 169.475,171.412 175.208,177.515 181.687,182.915 188.818,187.531 196.492,191.294 204.596,194.148 213.008,196.051 221.604,196.973 221.604,196.973 225.313,197.065 233.948,196.567 242.455,195.082 250.706,192.631 258.579,189.252 265.956,184.994 272.727,179.921 278.791,174.108 284.058,167.643 288.449,160.621 291.899,153.147 294.356,145.334 295.784,137.296 296.161,129.154 295.482,121.03 293.757,113.044 291.012,105.316 287.288,97.9602 282.639,91.0871 277.136,84.7988 270.86,79.1891 263.905,74.3416 256.375,70.3287 248.382,67.21 240.045,65.0322 231.489,63.8276 222.84,63.6143 214.228,64.3954 205.781,66.1592 197.626,68.8796 189.883,72.5158 182.669,77.0138 176.09,82.3064 170.245,88.3148 165.221,94.9494 161.092,102.111 157.922,109.694 155.755,117.583 154.626,125.663 154.551,133.812 155.53,141.909 157.55,149.834 160.58,157.467 164.575,164.696 169.475,171.412 175.208,177.515 181.687,182.915 188.818,187.531 196.492,191.294 204.596,194.148 213.008,196.051 221.604,196.973 221.604,196.973 225.313,197.065 233.948,196.567 242.455,195.082 250.706,192.631 258.579,189.252 265.956,184.994 272.727,179.921 278.791,174.108 284.058,167.643 288.449,160.621 291.899,153.147 294.356,145.334 295.784,137.296 296.161,129.154 295.482,121.03 293.757,113.044 291.012,105.316 287.288,97.9602 282.639,91.0871 277.136,84.7988 270.86,79.1891 263.905,74.3416 256.375,70.3287 248.382,67.21 240.045,65.0322 231.489,63.8276 222.84,63.6143 214.228,64.3954 205.781,66.1592 197.626,68.8796 189.883,72.5158 182.669,77.0138 176.09,82.3064 170.245,88.3148 165.221,94.9494 161.092,102.111 157.922,109.694 155.755,117.583 154.626,125.663 154.551,133.812 155.53,141.909 157.55,149.834 160.58,157.467 164.575,164.696 169.475,171.412 175.208,177.515 181.687,182.915 188.818,187.531 196.492,191.294 204.596,194.148 213.008,196.051 221.604,196.973 221.604,196.973 225.313,197.065 233.948,196.567 242.455,195.082 250.706,192.631 258.579,189.252 265.956,184.994 272.727,179.921 278.791,174.108 284.058,167.643 288.449,160.621 291.899,153.147 294.356,145.334 295.784,137.296 296.161,129.154 295.482,121.03 293.757,113.044 291.012,105.316 287.288,97.9602 282.639,91.0871 277.136,84.7988 270.86,79.1891 263.905,74.3416 256.375,70.3287 248.382,67.21 240.045,65.0322 231.489,63.8276 222.84,63.6143 214.228,64.3954 205.781,66.1592 197.626,68.8796 189.883,72.5158 182.669,77.0138 176.09,82.3064 170.245,88.3148 165.221,94.9494 161.092,102.111 157.922,109.694 155.755,117.583 154.626,125.663 154.551,133.812 155.53,141.909 157.55,149.834 160.58,157.467 164.575,164.696 169.475,171.412 175.208,177.515 181.687,182.915 188.818,187.531 196.492,191.294 204.596,194.148 213.008,196.051 221.604,196.973 221.604,196.973 225.313,197.065 233.948,196.567 242.455,195.082 250.706,192.631 258.579,189.252 265.956,184.994 272.727,179.921 278.791,174.108 284.058,167.643 288.449,160.621 291.899,153.147 294.356,145.334 295.784,137.296 296.161,129.154 295.482,121.03 293.757,113.044 291.012,105.316 287.288,97.9602 282.639,91.0871 277.136,84.7988 270.86,79.1891 263.905,74.3416 256.375,70.3287 248.382,67.21 240.045,65.0322 231.489,63.8276 222.84,63.6143 214.228,64.3954 205.781,66.1592 197.626,68.8796 189.883,72.5158 182.669,77.0138 176.09,82.3064 170.245,88.3148 165.221,94.9494 161.092,102.111 157.922,109.694 155.755,117.583 154.626,125.663 154.551,133.812 155.53,141.909 157.55,149.834 160.58,157.467 164.575,164.696 169.475,171.412 175.208,177.515 181.687,182.915 188.818,187.531 196.492,191.294 204.596,194.148 213.008,196.051 221.604,196.973 221.604,196.973 225.313,197.065 233.948,196.567 242.455,195.082 250.706,192.631 258.579,189.252 265.956,184.994 272.727,179.921 278.791,174.108 284.058,167.643 288.449,160.621 291.899,153.147 294.356,145.334 295.784,137.296 296.161,129.154 295.482,121.03 293.757,113.044 291.012,105.316 287.288,97.9602 282.639,91.0871 277.136,84.7988 270.86,79.1891 263.905,74.3416 256.375,70.3287 248.382,67.21 240.045,65.0322 231.489,63.8276 222.84,63.6143 214.228,64.3954 205.781,66.1592 197.626,68.8796 189.883,72.5158 182.669,77.0138 176.09,82.3064 170.245,88.3148 165.221,94.9494 161.092,102.111 157.922,109.694 155.755,117.583 154.626,125.663 154.551,133.812 155.53,141.909 157.55,149.834 157.55,149.834 157.55,149.834 157.55,149.834 157.55,149.834 157.55,149.834 157.55,149.834 157.55,149.834 157.55,149.834 157.55,149.834 157.55,149.834 157.55,149.834 157.55,149.834 157.55,149.834 157.55,149.834 157.55,149.834 157.55,149.834 157.55,149.834 157.55,149.834 157.55,149.834 157.55,149.834 157.55,149.834 157.55,149.834 157.55,149.834 157.55,149.834 157.55,149.834 157.55,149.834 157.55,149.834 157.55,149.834 157.55,149.834 157.55,149.834 157.55,149.834 157.55,149.834 157.55,149.834 157.55,149.834 157.55,149.834 157.55,149.834 157.55,149.834 157.55,149.834 157.55,149.834 157.55,149.834 157.55,149.834 157.55,149.834 157.55,149.834" stroke-linecap="butt" stroke="#000000" stroke-linejoin="round" fill="none" stroke-width="0.5"/>
   <polyline points="226.437,134.557 226.437,134.557 226.437,134.557 226.437,134.557 226.437,134.557 226.437,134.557 226.437,134.557 226.437,134.557 226.437,134.557 226.437,134.557 226.437,134.557 226.437,134.557 226.437,134.557 226.437,134.557 226.437,134.557 226.437,134.557 226.437,134.557 226.437,134.557 226.437,134.557 226.437,134.557 226.437,134.557 226.437,134.557 226.437,134.557 226.437,134.557 226.437,137.735 226.437,137.735 226.437,139.854 234.311,146.211 239.934,148.33 239.934,149.389 244.433,149.389 244.433,151.508 257.93,151.508 260.18,151.508 269.178,147.27 269.178,147.27 273.677,144.092 281.55,136.676 281.55,136.676 283.8,132.438 288.299,126.081 288.299,126.081 288.299,120.784 291.673,109.13 291.673,105.952 291.673,103.833 289.423,91.1194 288.299,87.941 288.299,85.8221 280.425,76.287 279.301,74.1681 277.051,74.1681 268.053,67.8114 268.053,67.8114 264.679,67.8114 261.305,67.8114 245.558,67.8114 241.059,67.8114 220.814,74.1681 215.19,76.287 210.691,78.4059 189.321,90.0599 184.822,93.2383 179.198,97.4761 163.452,114.427 160.077,118.665 160.077,118.665 153.329,144.092 153.329,149.389 155.578,165.281 155.578,170.578 157.828,175.876 170.2,194.946 173.574,200.243 178.073,203.421 198.319,216.135 202.818,218.254 218.564,223.551 229.812,225.67 234.311,225.67 251.182,225.67 255.681,225.67 260.18,221.432 279.301,212.956 282.675,209.778 287.174,206.6 304.045,190.708 307.419,186.47 310.794,182.232 314.168,177.994 322.041,158.924 324.291,152.568 324.291,148.33 324.291,127.141 322.041,109.13 322.041,104.892 316.417,95.3572 316.417,95.3572 305.17,76.287 301.796,72.0492 298.421,68.8709 281.55,56.1574 277.051,54.0385 272.552,51.9196 252.307,45.5629 246.683,45.5629 241.059,45.5629 221.938,45.5629 209.566,45.5629 190.446,48.7413 184.822,49.8008 178.073,51.9196 155.578,62.5142 151.079,65.6925 146.58,69.9303 134.208,87.941 131.959,93.2383 126.335,114.427 126.335,120.784 126.335,120.784 126.335,132.438 134.208,156.805 143.206,174.816 146.58,180.113 151.079,185.411 170.2,205.54 175.824,208.719 181.448,212.956 206.192,224.61 212.94,224.61 218.564,227.789 241.059,229.908 246.683,229.908 263.554,224.61 268.053,222.491 273.677,222.491 277.051,219.313 293.922,207.659 298.421,204.481 301.796,201.302 315.293,184.351 315.293,180.113 319.792,174.816 326.54,155.746 326.54,150.449 326.54,145.151 326.54,129.26 324.291,123.962 323.166,118.665 316.417,96.4166 313.043,93.2383 310.794,87.941 297.297,68.8709 292.798,65.6925 288.299,61.4547 271.427,47.6818 266.928,45.5629 261.305,45.5629 239.934,37.0873 234.311,37.0873 234.311,37.0873 203.943,37.0873 198.319,37.0873 181.448,42.3846 175.824,44.5035 170.2,47.6818 151.079,62.5142 147.705,66.752 145.456,72.0492 135.333,93.2383 135.333,99.595 133.083,105.952 131.959,131.379 131.959,137.735 136.458,156.805 138.707,164.222 140.957,169.519 143.206,175.876 157.828,197.065 162.327,202.362 183.697,219.313 190.446,222.491 196.069,225.67 219.689,233.086 226.437,233.086 232.061,234.145 254.556,229.908 260.18,229.908 274.802,221.432 284.924,215.075 289.423,210.837 301.796,199.183 305.17,194.946 309.669,190.708 320.916,171.638 320.916,166.34 324.291,161.043 328.79,139.854 328.79,134.557 328.79,129.26 326.54,113.368 323.166,102.773 320.916,98.5355 313.043,84.7626 309.669,80.5249 306.295,76.287 290.548,62.5142 286.049,59.3358 280.425,56.1574 261.305,46.6224 256.806,46.6224 251.182,43.444 233.186,40.2657 220.814,40.2657 214.065,40.2657 196.069,40.2657 189.321,42.3846 182.572,44.5035 160.077,54.0385 154.454,57.2169 149.955,60.3953 135.333,78.4059 131.959,83.7032 129.709,89.0005 122.961,112.308 122.961,118.665 122.961,126.081 122.961,151.508 126.335,157.865 134.208,175.876 137.582,182.232 145.456,192.827 160.077,207.659 165.701,210.837 171.325,215.075 176.949,218.254 202.818,226.729 209.566,226.729 215.19,229.908 242.184,229.908 247.808,229.908 266.928,223.551 272.552,221.432 283.8,216.135 299.546,205.54 304.045,202.362 308.544,198.124 322.041,177.994 325.415,172.697 325.415,168.459 332.164,146.211 332.164,139.854 332.164,134.557 329.914,118.665 328.79,112.308 325.415,101.714 322.041,96.4166 313.043,81.5843 309.669,77.3465 291.673,60.3953 287.174,57.2169 281.55,54.0385 260.18,43.444 253.431,41.3251 247.808,41.3251 221.938,36.0279 215.19,36.0279 208.441,36.0279 182.572,39.2062 176.949,41.3251 158.953,49.8008 153.329,52.9791 148.83,56.1574 133.083,74.1681 129.709,78.4059 127.46,84.7626 121.836,108.071 120.711,114.427 120.711,120.784 120.711,146.211 122.961,151.508 122.961,158.924 130.834,175.876 134.208,181.173 137.582,186.47 154.454,205.54 158.953,208.719 164.576,212.956 189.321,224.61 196.069,226.729 202.818,228.848 229.812,228.848 236.56,228.848 243.309,228.848 269.178,221.432 269.178,221.432 275.926,221.432 288.299,214.016 304.045,203.421 309.669,199.183 326.54,180.113 329.914,174.816 333.289,169.519 342.287,147.27 342.287,141.973 342.287,136.676 342.287,112.308 342.287,107.011 340.037,100.654 337.788,95.3572 324.291,73.1087 310.794,60.3953 305.17,56.1574 299.546,52.9791 293.922,48.7413 269.178,39.2062 262.429,36.0279 255.681,36.0279 226.437,31.7901 218.564,31.7901 211.816,31.7901 181.448,34.9684 174.699,37.0873 154.454,44.5035 148.83,47.6818 143.206,50.8602 125.21,67.8114 121.836,72.0492 118.462,78.4059 108.339,101.714 108.339,108.071 106.089,114.427 106.089,141.973 109.464,147.27 112.838,154.686 124.085,179.054 124.085,179.054 128.584,185.411 154.454,210.837 154.454,210.837 181.448,225.67 189.321,228.848 196.069,230.967 226.437,236.264 233.186,236.264 239.934,236.264 268.053,230.967 273.677,230.967 280.425,226.729 304.045,211.897 308.544,207.659 314.168,203.421 326.54,189.648 326.54,184.351 332.164,177.994 338.912,155.746 338.912,149.389 338.912,145.151 338.912,119.725 338.912,114.427 335.538,109.13 326.54,84.7626 323.166,80.5249 319.792,75.2276 307.419,61.4547 302.92,57.2169 297.297,52.9791 274.802,40.2657 269.178,40.2657 243.309,30.7306 236.56,30.7306 229.812,30.7306 221.938,27.5522 193.82,29.6712 187.071,31.7901 180.323,31.7901 154.454,42.3846 148.83,45.5629 148.83,45.5629 124.085,67.8114 120.711,73.1087 111.713,92.1788 108.339,98.5355 106.089,105.952 103.84,134.557 103.84,141.973 107.214,149.389 117.337,176.935 120.711,184.351 134.208,202.362 145.456,212.956 151.079,218.254 170.2,228.848 175.824,232.026 183.697,234.145 190.446,237.324 217.439,240.502 224.188,240.502 232.061,240.502 259.055,233.086 265.804,233.086 290.548,217.194 296.172,212.956 301.796,208.719 320.916,190.708 320.916,190.708 324.291,185.411 335.538,165.281 338.912,153.627 338.912,153.627 341.162,131.379 340.037,126.081 340.037,118.665 332.164,97.4761 328.79,91.1194 325.415,85.8221 310.794,65.6925 305.17,60.3953 289.423,49.8008 282.675,46.6224 271.427,41.3251 252.307,36.0279 245.558,36.0279 237.685,32.8495 210.691,32.8495 203.943,32.8495 196.069,32.8495 170.2,38.1468 162.327,40.2657 156.703,42.3846 140.957,50.8602 136.458,54.0385 128.584,62.5142 120.711,76.287 118.462,81.5843 116.212,86.8816 110.588,112.308 109.464,117.606 109.464,123.962 111.713,151.508 111.713,156.805 115.087,165.281 126.335,189.648 129.709,196.005 134.208,201.302 155.578,220.372 162.327,225.67 181.448,236.264 188.196,238.383 196.069,239.443 224.188,241.562 232.061,241.562 238.81,241.562 265.804,230.967 272.552,226.729 278.176,223.551 302.92,206.6 307.419,202.362 313.043,196.005 326.54,180.113 329.914,174.816 340.037,151.508 340.037,146.211 340.037,139.854 343.411,115.487 343.411,110.189 341.162,104.892 332.164,82.6438 328.79,76.287 325.415,72.0492 320.916,67.8114 306.295,57.2169 300.671,57.2169 295.047,50.8602 269.178,42.3846 262.429,42.3846 232.061,37.0873 224.188,37.0873 216.315,37.0873 183.697,38.1468 176.949,40.2657 170.2,40.2657 162.327,43.444 137.582,56.1574 130.834,59.3358 130.834,59.3358 109.464,82.6438 104.965,89.0005 100.466,109.13 100.466,115.487 100.466,121.843 100.466,147.27 100.466,154.686 100.466,159.984 109.464,180.113 111.713,184.351 115.087,187.529 127.46,198.124 130.834,200.243 139.832,202.362 143.206,202.362 145.456,202.362 155.578,198.124 155.578,196.005 157.828,196.005 163.452,187.529 163.452,185.411 165.701,185.411 170.2,177.994 170.2,177.994 170.2,175.876 172.45,175.876 172.45,171.638 172.45,171.638 172.45,171.638 172.45,171.638 172.45,171.638 174.699,171.638 174.699,171.638 174.699,171.638 174.699,171.638 174.699,171.638 174.699,171.638 174.699,171.638 174.699,171.638 174.699,171.638 174.699,171.638 174.699,171.638" stroke-linecap="butt" stroke="#ff0000" stroke-linejoin="round" fill="none" stroke-width="0.5"/>
  </g>
  <clipPath id="cp00435324">
   <polygon points="0,324 435,324 435,0 0,0"/>
  </clipPath>
  <g clip-path="url(#cp00435324)">
   <polygon points="301.439,75.6289 386.308,75.6289 386.308,32.0912 301.439,32.0912" fill="#ffffff" shape-rendering="crispEdges"/>
   <polyline stroke-dasharray="16,0" points="301.439,75.6289 386.308,75.6289" stroke-linecap="square" stroke="#262626" stroke-linejoin="miter" fill="none" stroke-width="0.5"/>
   <polyline stroke-dasharray="16,0" points="301.439,32.0912 386.308,32.0912" stroke-linecap="square" stroke="#262626" stroke-linejoin="miter" fill="none" stroke-width="0.5"/>
   <polyline stroke-dasharray="16,0" points="301.439,75.6289 301.439,32.0912" stroke-linecap="square" stroke="#262626" stroke-linejoin="miter" fill="none" stroke-width="0.5"/>
   <polyline stroke-dasharray="16,0" points="386.308,75.6289 386.308,32.0912" stroke-linecap="square" stroke="#262626" stroke-linejoin="miter" fill="none" stroke-width="0.5"/>
   <polyline points="305.297,40.9498 324.591,40.9498" stroke-linecap="butt" stroke="#0071bc" stroke-linejoin="round" fill="none" stroke-width="0.5"/>
   <text font-family="FreeSans" font-style="normal" transform="translate(328.449,45.9498) rotate(-0,-0,-5)" font-size="9" xml:space="preserve" font-weight="normal">
    <tspan x="0 6 8 15 20 22 27 32 37 " fill="rgb(0,0,0)" y="-2">Simulaçâo</tspan>
   </text>
   <polyline points="305.297,53.86 324.591,53.86" stroke-linecap="butt" stroke="#000000" stroke-linejoin="round" fill="none" stroke-width="0.5"/>
   <text font-family="FreeSans" font-style="normal" transform="translate(328.449,57.86) rotate(-0,-0,-4)" font-size="9" xml:space="preserve" font-weight="normal">
    <tspan x="0 6 11 14 19 22 27 32 37 39 " fill="rgb(0,0,0)" y="-0">Referência</tspan>
   </text>
   <polyline points="305.297,66.7702 324.591,66.7702" stroke-linecap="butt" stroke="#ff0000" stroke-linejoin="round" fill="none" stroke-width="0.5"/>
   <text font-family="FreeSans" font-style="normal" transform="translate(328.449,71.7702) rotate(-0,-0,-5)" font-size="9" xml:space="preserve" font-weight="normal">
    <tspan x="0 6 11 15 20 25 29 32 37 39 42 47 52 " fill="rgb(0,0,0)" y="-2">Resposta real</tspan>
   </text>
  </g>
 </g>
</svg>
