<?xml version='1.0' encoding='UTF-8' standalone='no'?>
<svg xmlns:xlink="http://www.w3.org/1999/xlink" xmlns="http://www.w3.org/2000/svg" viewBox="0 0 394 295" height="295pt" width="394pt">
 <title>Figure 6</title>
 <desc>
Creator: GL2PS 1.4.2, (C) 1999-2020 C. Geuzaine
For: Octave
CreationDate: Sun Jun 19 17:29:53 2022
</desc>
 <defs/>
 <polygon fill="#ffffff" points="0,0 394,0 394,295 0,295"/>
 <g>
  <polygon fill="#ffffff" shape-rendering="crispEdges" points="0,295 394,295 394,0 0,0"/>
  <clipPath id="cp00394295">
   <polygon points="0,295 394,295 394,0 0,0"/>
  </clipPath>
  <g clip-path="url(#cp00394295)">
   <polygon fill="#ffffff" shape-rendering="crispEdges" points="51.2383,121.849 356.697,121.849 356.697,38.1704 51.2383,38.1704"/>
   <polyline stroke="#191919" fill="none" stroke-linejoin="miter" stroke-linecap="butt" stroke-width="0.5" stroke-dasharray="1,3,1,3,1,3,1,3" points="66.5112,121.849 66.5112,38.1704" stroke-opacity="0.25"/>
   <polyline stroke="#191919" fill="none" stroke-linejoin="miter" stroke-linecap="butt" stroke-width="0.5" stroke-dasharray="1,3,1,3,1,3,1,3" points="81.7841,121.849 81.7841,38.1704" stroke-opacity="0.25"/>
   <polyline stroke="#191919" fill="none" stroke-linejoin="miter" stroke-linecap="butt" stroke-width="0.5" stroke-dasharray="1,3,1,3,1,3,1,3" points="97.0571,121.849 97.0571,38.1704" stroke-opacity="0.25"/>
   <polyline stroke="#191919" fill="none" stroke-linejoin="miter" stroke-linecap="butt" stroke-width="0.5" stroke-dasharray="1,3,1,3,1,3,1,3" points="112.33,121.849 112.33,38.1704" stroke-opacity="0.25"/>
   <polyline stroke="#191919" fill="none" stroke-linejoin="miter" stroke-linecap="butt" stroke-width="0.5" stroke-dasharray="1,3,1,3,1,3,1,3" points="142.876,121.849 142.876,38.1704" stroke-opacity="0.25"/>
   <polyline stroke="#191919" fill="none" stroke-linejoin="miter" stroke-linecap="butt" stroke-width="0.5" stroke-dasharray="1,3,1,3,1,3,1,3" points="158.149,121.849 158.149,38.1704" stroke-opacity="0.25"/>
   <polyline stroke="#191919" fill="none" stroke-linejoin="miter" stroke-linecap="butt" stroke-width="0.5" stroke-dasharray="1,3,1,3,1,3,1,3" points="173.422,121.849 173.422,38.1704" stroke-opacity="0.25"/>
   <polyline stroke="#191919" fill="none" stroke-linejoin="miter" stroke-linecap="butt" stroke-width="0.5" stroke-dasharray="1,3,1,3,1,3,1,3" points="188.695,121.849 188.695,38.1704" stroke-opacity="0.25"/>
   <polyline stroke="#191919" fill="none" stroke-linejoin="miter" stroke-linecap="butt" stroke-width="0.5" stroke-dasharray="1,3,1,3,1,3,1,3" points="219.241,121.849 219.241,38.1704" stroke-opacity="0.25"/>
   <polyline stroke="#191919" fill="none" stroke-linejoin="miter" stroke-linecap="butt" stroke-width="0.5" stroke-dasharray="1,3,1,3,1,3,1,3" points="234.513,121.849 234.513,38.1704" stroke-opacity="0.25"/>
   <polyline stroke="#191919" fill="none" stroke-linejoin="miter" stroke-linecap="butt" stroke-width="0.5" stroke-dasharray="1,3,1,3,1,3,1,3" points="249.786,121.849 249.786,38.1704" stroke-opacity="0.25"/>
   <polyline stroke="#191919" fill="none" stroke-linejoin="miter" stroke-linecap="butt" stroke-width="0.5" stroke-dasharray="1,3,1,3,1,3,1,3" points="265.059,121.849 265.059,38.1704" stroke-opacity="0.25"/>
   <polyline stroke="#191919" fill="none" stroke-linejoin="miter" stroke-linecap="butt" stroke-width="0.5" stroke-dasharray="1,3,1,3,1,3,1,3" points="295.605,121.849 295.605,38.1704" stroke-opacity="0.25"/>
   <polyline stroke="#191919" fill="none" stroke-linejoin="miter" stroke-linecap="butt" stroke-width="0.5" stroke-dasharray="1,3,1,3,1,3,1,3" points="310.878,121.849 310.878,38.1704" stroke-opacity="0.25"/>
   <polyline stroke="#191919" fill="none" stroke-linejoin="miter" stroke-linecap="butt" stroke-width="0.5" stroke-dasharray="1,3,1,3,1,3,1,3" points="326.151,121.849 326.151,38.1704" stroke-opacity="0.25"/>
   <polyline stroke="#191919" fill="none" stroke-linejoin="miter" stroke-linecap="butt" stroke-width="0.5" stroke-dasharray="1,3,1,3,1,3,1,3" points="341.424,121.849 341.424,38.1704" stroke-opacity="0.25"/>
   <polyline stroke="#262626" fill="none" stroke-linejoin="miter" stroke-linecap="butt" stroke-width="0.5" stroke-dasharray="16,0" points="51.2383,121.849 51.2383,38.1704" stroke-opacity="0.15"/>
   <polyline stroke="#262626" fill="none" stroke-linejoin="miter" stroke-linecap="butt" stroke-width="0.5" stroke-dasharray="16,0" points="127.603,121.849 127.603,38.1704" stroke-opacity="0.15"/>
   <polyline stroke="#262626" fill="none" stroke-linejoin="miter" stroke-linecap="butt" stroke-width="0.5" stroke-dasharray="16,0" points="203.968,121.849 203.968,38.1704" stroke-opacity="0.15"/>
   <polyline stroke="#262626" fill="none" stroke-linejoin="miter" stroke-linecap="butt" stroke-width="0.5" stroke-dasharray="16,0" points="280.332,121.849 280.332,38.1704" stroke-opacity="0.15"/>
   <polyline stroke="#262626" fill="none" stroke-linejoin="miter" stroke-linecap="butt" stroke-width="0.5" stroke-dasharray="16,0" points="356.697,121.849 356.697,38.1704" stroke-opacity="0.15"/>
   <polyline stroke="#262626" fill="none" stroke-linejoin="miter" stroke-linecap="butt" stroke-width="0.5" points="51.2383,121.849 51.2383,118.806"/>
   <polyline stroke="#262626" fill="none" stroke-linejoin="miter" stroke-linecap="butt" stroke-width="0.5" points="51.2383,38.1704 51.2383,41.2133"/>
   <polyline stroke="#262626" fill="none" stroke-linejoin="miter" stroke-linecap="butt" stroke-width="0.5" points="127.603,121.849 127.603,118.806"/>
   <polyline stroke="#262626" fill="none" stroke-linejoin="miter" stroke-linecap="butt" stroke-width="0.5" points="127.603,38.1704 127.603,41.2133"/>
   <polyline stroke="#262626" fill="none" stroke-linejoin="miter" stroke-linecap="butt" stroke-width="0.5" points="203.968,121.849 203.968,118.806"/>
   <polyline stroke="#262626" fill="none" stroke-linejoin="miter" stroke-linecap="butt" stroke-width="0.5" points="203.968,38.1704 203.968,41.2133"/>
   <polyline stroke="#262626" fill="none" stroke-linejoin="miter" stroke-linecap="butt" stroke-width="0.5" points="280.332,121.849 280.332,118.806"/>
   <polyline stroke="#262626" fill="none" stroke-linejoin="miter" stroke-linecap="butt" stroke-width="0.5" points="280.332,38.1704 280.332,41.2133"/>
   <polyline stroke="#262626" fill="none" stroke-linejoin="miter" stroke-linecap="butt" stroke-width="0.5" points="356.697,121.849 356.697,118.806"/>
   <polyline stroke="#262626" fill="none" stroke-linejoin="miter" stroke-linecap="butt" stroke-width="0.5" points="356.697,38.1704 356.697,41.2133"/>
   <g xml:space="preserve" transform="translate(48.2382,137.321) rotate(-0,3,-8)" font-style="normal" font-weight="normal" font-size="10" font-family="FreeSans">
    <text fill="rgb(38,38,38)" x="0 " y="-0">0</text>
   </g>
   <g xml:space="preserve" transform="translate(124.603,137.321) rotate(-0,3,-8)" font-style="normal" font-weight="normal" font-size="10" font-family="FreeSans">
    <text fill="rgb(38,38,38)" x="0 " y="-0">5</text>
   </g>
   <g xml:space="preserve" transform="translate(197.968,137.321) rotate(-0,6,-8)" font-style="normal" font-weight="normal" font-size="10" font-family="FreeSans">
    <text fill="rgb(38,38,38)" x="0 6 " y="-0">10</text>
   </g>
   <g xml:space="preserve" transform="translate(274.332,137.321) rotate(-0,6,-8)" font-style="normal" font-weight="normal" font-size="10" font-family="FreeSans">
    <text fill="rgb(38,38,38)" x="0 6 " y="-0">15</text>
   </g>
   <g xml:space="preserve" transform="translate(350.697,137.321) rotate(-0,6,-8)" font-style="normal" font-weight="normal" font-size="10" font-family="FreeSans">
    <text fill="rgb(38,38,38)" x="0 6 " y="-0">20</text>
   </g>
   <polyline stroke="#191919" fill="none" stroke-linejoin="miter" stroke-linecap="butt" stroke-width="0.5" stroke-dasharray="1,3,1,3,1,3,1,3" points="51.2383,117.665 356.697,117.665" stroke-opacity="0.25"/>
   <polyline stroke="#191919" fill="none" stroke-linejoin="miter" stroke-linecap="butt" stroke-width="0.5" stroke-dasharray="1,3,1,3,1,3,1,3" points="51.2383,113.481 356.697,113.481" stroke-opacity="0.25"/>
   <polyline stroke="#191919" fill="none" stroke-linejoin="miter" stroke-linecap="butt" stroke-width="0.5" stroke-dasharray="1,3,1,3,1,3,1,3" points="51.2383,109.297 356.697,109.297" stroke-opacity="0.25"/>
   <polyline stroke="#191919" fill="none" stroke-linejoin="miter" stroke-linecap="butt" stroke-width="0.5" stroke-dasharray="1,3,1,3,1,3,1,3" points="51.2383,105.113 356.697,105.113" stroke-opacity="0.25"/>
   <polyline stroke="#191919" fill="none" stroke-linejoin="miter" stroke-linecap="butt" stroke-width="0.5" stroke-dasharray="1,3,1,3,1,3,1,3" points="51.2383,96.7456 356.697,96.7456" stroke-opacity="0.25"/>
   <polyline stroke="#191919" fill="none" stroke-linejoin="miter" stroke-linecap="butt" stroke-width="0.5" stroke-dasharray="1,3,1,3,1,3,1,3" points="51.2383,92.5617 356.697,92.5617" stroke-opacity="0.25"/>
   <polyline stroke="#191919" fill="none" stroke-linejoin="miter" stroke-linecap="butt" stroke-width="0.5" stroke-dasharray="1,3,1,3,1,3,1,3" points="51.2383,88.3777 356.697,88.3777" stroke-opacity="0.25"/>
   <polyline stroke="#191919" fill="none" stroke-linejoin="miter" stroke-linecap="butt" stroke-width="0.5" stroke-dasharray="1,3,1,3,1,3,1,3" points="51.2383,84.1938 356.697,84.1938" stroke-opacity="0.25"/>
   <polyline stroke="#191919" fill="none" stroke-linejoin="miter" stroke-linecap="butt" stroke-width="0.5" stroke-dasharray="1,3,1,3,1,3,1,3" points="51.2383,75.8259 356.697,75.8259" stroke-opacity="0.25"/>
   <polyline stroke="#191919" fill="none" stroke-linejoin="miter" stroke-linecap="butt" stroke-width="0.5" stroke-dasharray="1,3,1,3,1,3,1,3" points="51.2383,71.642 356.697,71.642" stroke-opacity="0.25"/>
   <polyline stroke="#191919" fill="none" stroke-linejoin="miter" stroke-linecap="butt" stroke-width="0.5" stroke-dasharray="1,3,1,3,1,3,1,3" points="51.2383,67.458 356.697,67.458" stroke-opacity="0.25"/>
   <polyline stroke="#191919" fill="none" stroke-linejoin="miter" stroke-linecap="butt" stroke-width="0.5" stroke-dasharray="1,3,1,3,1,3,1,3" points="51.2383,63.2741 356.697,63.2741" stroke-opacity="0.25"/>
   <polyline stroke="#191919" fill="none" stroke-linejoin="miter" stroke-linecap="butt" stroke-width="0.5" stroke-dasharray="1,3,1,3,1,3,1,3" points="51.2383,54.9062 356.697,54.9062" stroke-opacity="0.25"/>
   <polyline stroke="#191919" fill="none" stroke-linejoin="miter" stroke-linecap="butt" stroke-width="0.5" stroke-dasharray="1,3,1,3,1,3,1,3" points="51.2383,50.7222 356.697,50.7222" stroke-opacity="0.25"/>
   <polyline stroke="#191919" fill="none" stroke-linejoin="miter" stroke-linecap="butt" stroke-width="0.5" stroke-dasharray="1,3,1,3,1,3,1,3" points="51.2383,46.5383 356.697,46.5383" stroke-opacity="0.25"/>
   <polyline stroke="#191919" fill="none" stroke-linejoin="miter" stroke-linecap="butt" stroke-width="0.5" stroke-dasharray="1,3,1,3,1,3,1,3" points="51.2383,42.3543 356.697,42.3543" stroke-opacity="0.25"/>
   <polyline stroke="#262626" fill="none" stroke-linejoin="miter" stroke-linecap="butt" stroke-width="0.5" stroke-dasharray="16,0" points="51.2383,100.93 356.697,100.93" stroke-opacity="0.15"/>
   <polyline stroke="#262626" fill="none" stroke-linejoin="miter" stroke-linecap="butt" stroke-width="0.5" stroke-dasharray="16,0" points="51.2383,80.0098 356.697,80.0098" stroke-opacity="0.15"/>
   <polyline stroke="#262626" fill="none" stroke-linejoin="miter" stroke-linecap="butt" stroke-width="0.5" stroke-dasharray="16,0" points="51.2383,59.0901 356.697,59.0901" stroke-opacity="0.15"/>
   <polyline stroke="#262626" fill="none" stroke-linejoin="miter" stroke-linecap="butt" stroke-width="0.5" points="51.2383,100.93 54.2974,100.93"/>
   <polyline stroke="#262626" fill="none" stroke-linejoin="miter" stroke-linecap="butt" stroke-width="0.5" points="356.697,100.93 353.638,100.93"/>
   <polyline stroke="#262626" fill="none" stroke-linejoin="miter" stroke-linecap="butt" stroke-width="0.5" points="51.2383,80.0098 54.2974,80.0098"/>
   <polyline stroke="#262626" fill="none" stroke-linejoin="miter" stroke-linecap="butt" stroke-width="0.5" points="356.697,80.0098 353.638,80.0098"/>
   <polyline stroke="#262626" fill="none" stroke-linejoin="miter" stroke-linecap="butt" stroke-width="0.5" points="51.2383,59.0901 54.2974,59.0901"/>
   <polyline stroke="#262626" fill="none" stroke-linejoin="miter" stroke-linecap="butt" stroke-width="0.5" points="356.697,59.0901 353.638,59.0901"/>
   <g xml:space="preserve" transform="translate(22.2307,104.93) rotate(-0,24,-4)" font-style="normal" font-weight="normal" font-size="10" font-family="FreeSans">
    <text fill="rgb(38,38,38)" x="0 3 9 12 18 " y="-0">-0.05</text>
   </g>
   <g xml:space="preserve" transform="translate(40.2307,84.0098) rotate(-0,6,-4)" font-style="normal" font-weight="normal" font-size="10" font-family="FreeSans">
    <text fill="rgb(38,38,38)" x="0 " y="-0">0</text>
   </g>
   <g xml:space="preserve" transform="translate(25.2307,63.0901) rotate(-0,21,-4)" font-style="normal" font-weight="normal" font-size="10" font-family="FreeSans">
    <text fill="rgb(38,38,38)" x="0 6 9 15 " y="-0">0.05</text>
   </g>
   <polyline stroke="#262626" fill="none" stroke-linejoin="miter" stroke-linecap="square" stroke-width="0.5" stroke-dasharray="16,0" points="51.2383,121.849 356.697,121.849"/>
   <polyline stroke="#262626" fill="none" stroke-linejoin="miter" stroke-linecap="square" stroke-width="0.5" stroke-dasharray="16,0" points="51.2383,38.1704 356.697,38.1704"/>
   <polyline stroke="#262626" fill="none" stroke-linejoin="miter" stroke-linecap="square" stroke-width="0.5" stroke-dasharray="16,0" points="51.2383,121.849 51.2383,38.1704"/>
   <polyline stroke="#262626" fill="none" stroke-linejoin="miter" stroke-linecap="square" stroke-width="0.5" stroke-dasharray="16,0" points="356.697,121.849 356.697,38.1704"/>
   <g xml:space="preserve" transform="translate(142.968,28.1704) rotate(-0,61,0)" font-style="normal" font-weight="bold" font-size="11" font-family="FreeSans">
    <text fill="rgb(0,0,0)" x="0 7 13 23 30 37 40 47 53 56 62 65 72 79 85 88 94 100 107 111 118 " y="-3">Tempo pela Posição(X)</text>
   </g>
   <g xml:space="preserve" transform="translate(-11.7693,80.0098) rotate(-90,29,0)" font-style="normal" font-weight="normal" font-size="11" font-family="FreeSans">
    <text fill="rgb(38,38,38)" x="0 7 13 18 20 26 32 38 41 45 54 " y="-3">Posição (m)</text>
   </g>
   <g xml:space="preserve" transform="translate(178.968,154.321) rotate(-0,25,-12)" font-style="normal" font-weight="normal" font-size="11" font-family="FreeSans">
    <text fill="rgb(38,38,38)" x="0 7 13 22 28 34 37 41 46 " y="-3">Tempo (s)</text>
   </g>
   <polyline stroke="#0071bc" fill="none" stroke-linejoin="round" stroke-linecap="butt" stroke-width="0.5" points="51.2383,80.0098 52.2794,80.0098 52.2794,80.0098 53.3205,80.0098 53.3205,80.0098 54.3617,80.0098 54.3617,80.0098 55.4028,80.0098 55.4028,80.0098 56.4439,80.0098 56.4439,80.0098 57.4851,80.0098 57.4851,80.0098 58.5262,80.0098 58.5262,80.0098 59.5673,80.0098 59.5673,80.0098 60.6085,80.0098 60.6085,80.0098 61.6496,80.0098 61.6496,80.0098 62.6907,80.0098 62.6907,80.1226 63.7319,80.1226 63.7319,80.6843 64.773,80.6843 64.773,81.9812 65.8141,81.9812 65.8141,83.9375 66.8553,83.9375 66.8553,86.2403 67.8964,86.2403 67.8964,88.5717 68.9375,88.5717 68.9375,90.6823 69.9787,90.6823 69.9787,92.3967 71.0198,92.3967 71.0198,93.6007 72.0609,93.6007 72.0609,94.2287 73.1021,94.2287 73.1021,94.2523 74.1432,94.2523 74.1432,93.6717 75.1843,93.6717 75.1843,92.5078 76.2255,92.5078 76.2255,90.7968 77.2666,90.7968 77.2666,88.585 78.3077,88.585 78.3077,85.925 79.3489,85.925 79.3489,82.8728 80.39,82.8728 80.39,79.4848 81.4311,79.4848 81.4311,75.823 82.4723,75.823 82.4723,71.9732 83.5134,71.9732 83.5134,68.057 84.5546,68.057 84.5546,64.212 85.5957,64.212 85.5957,60.5596 86.6368,60.5596 86.6368,57.1896 87.6779,57.1896 87.6779,54.1606 88.7191,54.1606 88.7191,51.5055 89.7602,51.5055 89.7602,49.2366 90.8014,49.2366 90.8014,47.351 91.8425,47.351 91.8425,45.834 92.8836,45.834 92.8836,44.6624 93.9248,44.6624 93.9248,43.8077 94.9659,43.8077 94.9659,43.2375 96.007,43.2375 96.007,42.9178 97.0482,42.9178 97.0482,42.814 98.0893,42.814 98.0893,42.8923 99.1304,42.8923 99.1304,43.1205 100.172,43.1205 100.172,43.468 101.213,43.468 101.213,43.9072 102.254,43.9072 102.254,44.4128 103.295,44.4128 103.295,44.9626 104.336,44.9626 104.336,45.5372 105.377,45.5372 105.377,46.1198 106.418,46.1198 106.418,46.6968 107.459,46.6968 107.459,47.2567 108.501,47.2567 108.501,47.7905 109.542,47.7905 109.542,48.2915 110.583,48.2915 110.583,48.7547 111.624,48.7547 111.624,49.1768 112.665,49.1768 112.665,49.5562 113.706,49.5562 113.706,49.8923 114.747,49.8923 114.747,50.1856 115.789,50.1856 115.789,50.4374 116.83,50.4374 116.83,50.6497 117.871,50.6497 117.871,50.8251 118.912,50.8251 118.912,50.9664 119.953,50.9664 119.953,51.0767 120.994,51.0767 120.994,51.1592 122.035,51.1592 122.035,51.2171 123.077,51.2171 123.077,51.2535 124.118,51.2535 124.118,51.2717 125.159,51.2717 125.159,51.2745 126.2,51.2745 126.2,51.2646 127.241,51.2646 127.241,51.2445 128.282,51.2445 128.282,51.2166 129.323,51.2166 129.323,51.1829 130.364,51.1829 130.364,51.1451 131.406,51.1451 131.406,51.1049 132.447,51.1049 132.447,51.0635 133.488,51.0635 133.488,51.0221 134.529,51.0221 134.529,50.9816 135.57,50.9816 135.57,50.9427 136.611,50.9427 136.611,50.9189 137.652,50.9189 137.652,50.9634 138.694,50.9634 138.694,51.168 139.735,51.168 139.735,51.6261 140.776,51.6261 140.776,52.406 141.817,52.406 141.817,53.5475 142.858,53.5475 142.858,55.0663 143.899,55.0663 143.899,56.9595 144.94,56.9595 144.94,59.2113 145.981,59.2113 145.981,61.7963 147.023,61.7963 147.023,64.6829 148.064,64.6829 148.064,67.8361 149.105,67.8361 149.105,71.2193 150.146,71.2193 150.146,74.7956 151.187,74.7956 151.187,78.5296 152.228,78.5296 152.228,82.3878 153.269,82.3878 153.269,86.339 154.311,86.339 154.311,90.3489 155.352,90.3489 155.352,94.3598 156.393,94.3598 156.393,98.2778 157.434,98.2778 157.434,101.992 158.475,101.992 158.475,105.407 159.516,105.407 159.516,108.456 160.557,108.456 160.557,111.101 161.598,111.101 161.598,113.33 162.64,113.33 162.64,115.145 163.681,115.145 163.681,116.565 164.722,116.565 164.722,117.616 165.763,117.616 165.763,118.332 166.804,118.332 166.804,118.748 167.845,118.748 167.845,118.904 168.886,118.904 168.886,118.839 169.928,118.839 169.928,118.589 170.969,118.589 170.969,118.191 172.01,118.191 172.01,117.678 173.051,117.678 173.051,117.08 174.092,117.08 174.092,116.425 175.133,116.425 175.133,115.735 176.174,115.735 176.174,115.032 177.215,115.032 177.215,114.332 178.257,114.332 178.257,113.651 179.298,113.651 179.298,112.998 180.339,112.998 180.339,112.384 181.38,112.384 181.38,111.813 182.421,111.813 182.421,111.292 183.462,111.292 183.462,110.821 184.503,110.821 184.503,110.403 185.545,110.403 185.545,110.036 186.586,110.036 186.586,109.72 187.627,109.72 187.627,109.452 188.668,109.452 188.668,109.229 189.709,109.229 189.709,109.048 190.75,109.048 190.75,108.906 191.791,108.906 191.791,108.798 192.832,108.798 192.832,108.721 193.874,108.721 193.874,108.67 194.915,108.67 194.915,108.642 195.956,108.642 195.956,108.634 196.997,108.634 196.997,108.642 198.038,108.642 198.038,108.663 199.079,108.663 199.079,108.694 200.12,108.694 200.12,108.733 201.162,108.733 201.162,108.777 202.203,108.777 202.203,108.825 203.244,108.825 203.244,108.874 204.285,108.874 204.285,108.924 205.326,108.924 205.326,108.973 206.367,108.973 206.367,109.02 207.408,109.02 207.408,109.065 208.45,109.065 208.45,109.107 209.491,109.107 209.491,109.145 210.532,109.145 210.532,109.167 211.573,109.167 211.573,109.12 212.614,109.12 212.614,108.911 213.655,108.911 213.655,108.449 214.696,108.449 214.696,107.664 215.737,107.664 215.737,106.517 216.779,106.517 216.779,104.993 217.82,104.993 217.82,103.095 218.861,103.095 218.861,100.838 219.902,100.838 219.902,98.2486 220.943,98.2486 220.943,95.3575 221.984,95.3575 221.984,92.2003 223.025,92.2003 223.025,88.8134 224.067,88.8134 224.067,85.2338 225.108,85.2338 225.108,81.4968 226.149,81.4968 226.149,77.6361 227.19,77.6361 227.19,73.6827 228.231,73.6827 228.231,69.671 229.272,69.671 229.272,65.6586 230.313,65.6586 230.313,61.7393 231.354,61.7393 231.354,58.0239 232.396,58.0239 232.396,54.6084 233.437,54.6084 233.437,51.5591 234.478,51.5591 234.478,48.9133 235.519,48.9133 235.519,46.6849 236.56,46.6849 236.56,44.8695 237.601,44.8695 237.601,43.4497 238.642,43.4497 238.642,42.3988 239.684,42.3988 239.684,41.6836 240.725,41.6836 240.725,41.2673 241.766,41.2673 241.766,41.1115 242.807,41.1115 242.807,41.1774 243.848,41.1774 243.848,41.4274 244.889,41.4274 244.889,41.8257 245.93,41.8257 245.93,42.3391 246.971,42.3391 246.971,42.9373 248.013,42.9373 248.013,43.5932 249.054,43.5932 249.054,44.2831 250.095,44.2831 250.095,44.9866 251.136,44.9866 251.136,45.6864 252.177,45.6864 252.177,46.3684 253.218,46.3684 253.218,47.0211 254.259,47.0211 254.259,47.6359 255.301,47.6359 255.301,48.2064 256.342,48.2064 256.342,48.7281 257.383,48.7281 257.383,49.1987 258.424,49.1987 258.424,49.6172 259.465,49.6172 259.465,49.9838 260.506,49.9838 260.506,50.3 261.547,50.3 261.547,50.5681 262.588,50.5681 262.588,50.7908 263.63,50.7908 263.63,50.9716 264.671,50.9716 264.671,51.114 265.712,51.114 265.712,51.222 266.753,51.222 266.753,51.2993 267.794,51.2993 267.794,51.3499 268.835,51.3499 268.835,51.3775 269.876,51.3775 269.876,51.3857 270.918,51.3857 270.918,51.3777 271.959,51.3777 271.959,51.3568 273,51.3568 273,51.3256 274.041,51.3256 274.041,51.2869 275.082,51.2869 275.082,51.2427 276.123,51.2427 276.123,51.195 277.164,51.195 277.164,51.1456 278.206,51.1456 278.206,51.0958 279.247,51.0958 279.247,51.0468 280.288,51.0468 280.288,50.9996 281.329,50.9996 281.329,50.9548 282.37,50.9548 282.37,50.9129 283.411,50.9129 283.411,50.8874 284.452,50.8874 284.452,50.9311 285.493,50.9311 285.493,51.1358 286.535,51.1358 286.535,51.5947 287.576,51.5947 287.576,52.376 288.617,52.376 288.617,53.5193 289.658,53.5193 289.658,55.04 290.699,55.04 290.699,56.9356 291.74,56.9356 291.74,59.1898 292.781,59.1898 292.781,61.7771 293.822,61.7771 293.822,64.6662 294.864,64.6662 294.864,67.8217 295.905,67.8217 295.905,71.2071 296.946,71.2071 296.946,74.7855 297.987,74.7855 297.987,78.5215 299.028,78.5215 299.028,82.3814 300.069,82.3814 300.069,86.3342 301.11,86.3342 301.11,90.3455 302.152,90.3455 302.152,94.3576 303.193,94.3576 303.193,98.2767 304.234,98.2767 304.234,101.992 305.275,101.992 305.275,105.408 306.316,105.408 306.316,108.457 307.357,108.457 307.357,111.103 308.398,111.103 308.398,113.332 309.44,113.332 309.44,115.147 310.481,115.147 310.481,116.567 311.522,116.567 311.522,117.619 312.563,117.619 312.563,118.334 313.604,118.334 313.604,118.751 314.645,118.751 314.645,118.907 315.686,118.907 315.686,118.841 316.727,118.841 316.727,118.591 317.769,118.591 317.769,118.193 318.81,118.193 318.81,117.68 319.851,117.68 319.851,117.082 320.892,117.082 320.892,116.426 321.933,116.426 321.933,115.736 322.974,115.736 322.974,115.033 324.015,115.033 324.015,114.333 325.057,114.333 325.057,113.651 326.098,113.651 326.098,112.999 327.139,112.999 327.139,112.384 328.18,112.384 328.18,111.814 329.221,111.814 329.221,111.292 330.262,111.292 330.262,110.821 331.303,110.821 331.303,110.403 332.344,110.403 332.344,110.036 333.386,110.036 333.386,109.72 334.427,109.72 334.427,109.452 335.468,109.452 335.468,109.229 336.509,109.229 336.509,109.048 337.55,109.048 337.55,108.906 338.591,108.906 338.591,108.798 339.632,108.798 339.632,108.72 340.674,108.72 340.674,108.67 341.715,108.67 341.715,108.642 342.756,108.642 342.756,108.634 343.797,108.634 343.797,108.642 344.838,108.642 344.838,108.663 345.879,108.663 345.879,108.694 346.92,108.694 346.92,108.733 347.961,108.733 347.961,108.777 349.003,108.777 349.003,108.825 350.044,108.825 350.044,108.874 351.085,108.874 351.085,108.924 352.126,108.924 352.126,108.973 353.167,108.973 353.167,109.02 354.208,109.02 354.208,109.065 355.249,109.065 355.249,109.107 356.291,109.107 356.291,109.145 357.002,109.145"/>
   <polyline stroke="#7f7f7f" fill="none" stroke-linejoin="round" stroke-linecap="butt" stroke-width="0.5" points="51.2383,80.0098 52.2794,80.0098 53.3205,80.0098 54.3617,80.0098 55.4028,80.0098 56.4439,80.0098 57.4851,80.0098 58.5262,80.0098 59.5673,80.0098 60.6085,80.0098 61.6496,109.297 62.6907,105.95 63.7319,102.603 64.773,99.256 65.8141,95.9088 66.8553,92.5617 67.8964,89.2145 68.9375,85.8674 69.9787,82.5202 71.0198,79.173 72.0609,75.8259 73.1021,72.4787 74.1432,69.1316 75.1843,65.7844 76.2255,62.4373 77.2666,59.0901 78.3077,55.743 79.3489,52.3958 80.39,50.7222 81.4311,50.7222 82.4723,50.7222 83.5134,50.7222 84.5546,50.7222 85.5957,50.7222 86.6368,50.7222 87.6779,50.7222 88.7191,50.7222 89.7602,50.7222 90.8014,50.7222 91.8425,50.7222 92.8836,50.7222 93.9248,50.7222 94.9659,50.7222 96.007,50.7222 97.0482,50.7222 98.0893,50.7222 99.1304,50.7222 100.172,50.7222 101.213,50.7222 102.254,50.7222 103.295,50.7222 104.336,50.7222 105.377,50.7222 106.418,50.7222 107.459,50.7222 108.501,50.7222 109.542,50.7222 110.583,50.7222 111.624,50.7222 112.665,50.7222 113.706,50.7222 114.747,50.7222 115.789,50.7222 116.83,50.7222 117.871,50.7222 118.912,50.7222 119.953,50.7222 120.994,50.7222 122.035,50.7222 123.077,50.7222 124.118,50.7222 125.159,50.7222 126.2,50.7222 127.241,50.7222 128.282,50.7222 129.323,50.7222 130.364,50.7222 131.406,50.7222 132.447,50.7222 133.488,50.7222 134.529,50.7222 135.57,54.0694 136.611,57.4165 137.652,60.7637 138.694,64.1109 139.735,67.458 140.776,70.8052 141.817,74.1523 142.858,77.4995 143.899,80.8466 144.94,84.1938 145.981,87.5409 147.023,90.8881 148.064,94.2352 149.105,97.5824 150.146,100.93 151.187,104.277 152.228,107.624 153.269,109.297 154.311,109.297 155.352,109.297 156.393,109.297 157.434,109.297 158.475,109.297 159.516,109.297 160.557,109.297 161.598,109.297 162.64,109.297 163.681,109.297 164.722,109.297 165.763,109.297 166.804,109.297 167.845,109.297 168.886,109.297 169.928,109.297 170.969,109.297 172.01,109.297 173.051,109.297 174.092,109.297 175.133,109.297 176.174,109.297 177.215,109.297 178.257,109.297 179.298,109.297 180.339,109.297 181.38,109.297 182.421,109.297 183.462,109.297 184.503,109.297 185.545,109.297 186.586,109.297 187.627,109.297 188.668,109.297 189.709,109.297 190.75,109.297 191.791,109.297 192.832,109.297 193.874,109.297 194.915,109.297 195.956,109.297 196.997,109.297 198.038,109.297 199.079,109.297 200.12,109.297 201.162,109.297 202.203,109.297 203.244,109.297 204.285,109.297 205.326,109.297 206.367,109.297 207.408,109.297 208.45,109.297 209.491,105.95 210.532,102.603 211.573,99.256 212.614,95.9088 213.655,92.5617 214.696,89.2145 215.737,85.8674 216.779,82.5202 217.82,79.173 218.861,75.8259 219.902,72.4787 220.943,69.1316 221.984,65.7844 223.025,62.4373 224.067,59.0901 225.108,55.743 226.149,52.3958 227.19,50.7222 228.231,50.7222 229.272,50.7222 230.313,50.7222 231.354,50.7222 232.396,50.7222 233.437,50.7222 234.478,50.7222 235.519,50.7222 236.56,50.7222 237.601,50.7222 238.642,50.7222 239.684,50.7222 240.725,50.7222 241.766,50.7222 242.807,50.7222 243.848,50.7222 244.889,50.7222 245.93,50.7222 246.971,50.7222 248.013,50.7222 249.054,50.7222 250.095,50.7222 251.136,50.7222 252.177,50.7222 253.218,50.7222 254.259,50.7222 255.301,50.7222 256.342,50.7222 257.383,50.7222 258.424,50.7222 259.465,50.7222 260.506,50.7222 261.547,50.7222 262.588,50.7222 263.63,50.7222 264.671,50.7222 265.712,50.7222 266.753,50.7222 267.794,50.7222 268.835,50.7222 269.876,50.7222 270.918,50.7222 271.959,50.7222 273,50.7222 274.041,50.7222 275.082,50.7222 276.123,50.7222 277.164,50.7222 278.206,50.7222 279.247,50.7222 280.288,50.7222 281.329,50.7222 282.37,54.0694 283.411,57.4165 284.452,60.7637 285.493,64.1109 286.535,67.458 287.576,70.8052 288.617,74.1523 289.658,77.4995 290.699,80.8466 291.74,84.1938 292.781,87.5409 293.822,90.8881 294.864,94.2352 295.905,97.5824 296.946,100.93 297.987,104.277 299.028,107.624 300.069,109.297 301.11,109.297 302.152,109.297 303.193,109.297 304.234,109.297 305.275,109.297 306.316,109.297 307.357,109.297 308.398,109.297 309.44,109.297 310.481,109.297 311.522,109.297 312.563,109.297 313.604,109.297 314.645,109.297 315.686,109.297 316.727,109.297 317.769,109.297 318.81,109.297 319.851,109.297 320.892,109.297 321.933,109.297 322.974,109.297 324.015,109.297 325.057,109.297 326.098,109.297 327.139,109.297 328.18,109.297 329.221,109.297 330.262,109.297 331.303,109.297 332.344,109.297 333.386,109.297 334.427,109.297 335.468,109.297 336.509,109.297 337.55,109.297 338.591,109.297 339.632,109.297 340.674,109.297 341.715,109.297 342.756,109.297 343.797,109.297 344.838,109.297 345.879,109.297 346.92,109.297 347.961,109.297 349.003,109.297 350.044,109.297 351.085,109.297 352.126,109.297 353.167,109.297 354.208,109.297 355.249,109.297 356.291,105.95 357.002,103.662"/>
   <polyline stroke="#ff0000" fill="none" stroke-linejoin="round" stroke-linecap="butt" stroke-width="0.5" points="51.2383,80.0098 52.3277,80.0098 54.1251,80.0098 54.3993,80.0098 55.5234,80.0098 56.5592,80.0098 57.6558,80.0098 58.7834,80.0098 59.8036,80.0098 60.8853,80.0098 61.9513,80.0098 62.8652,80.0098 63.8404,80.0098 64.7846,80.0098 66.186,80.0098 68.3336,80.8466 68.562,82.9386 69.6134,83.7754 70.5732,83.7754 71.6394,85.0306 72.5532,86.7041 73.5586,86.7041 74.883,86.7041 76.926,85.8674 78.8847,83.357 80.3167,80.0098 81.1847,78.7546 82.251,73.3155 83.3326,71.642 84.3683,69.9684 85.3583,63.2741 86.3028,61.6005 87.2778,59.9269 88.405,53.651 89.3039,51.9774 90.3394,50.3038 91.5127,45.7015 92.274,44.8647 93.2336,43.6095 94.2847,43.6095 95.29,43.6095 96.2649,44.4463 97.3466,44.4463 98.4434,44.4463 99.403,45.2831 100.378,46.1199 101.459,46.1199 102.937,46.1199 103.455,46.9567 104.414,47.3751 105.45,47.3751 106.41,47.3751 107.507,47.3751 108.542,47.3751 109.487,47.3751 110.522,47.3751 111.665,47.3751 112.67,47.3751 113.569,47.3751 114.636,47.3751 116.083,48.2119 116.799,48.2119 117.789,49.0487 118.788,49.4671 119.732,50.3038 120.692,50.3038 121.813,51.9774 122.772,52.3958 123.786,52.3958 124.852,53.651 125.796,53.651 127.411,53.651 128.692,53.651 129.591,53.651 130.809,53.651 131.83,53.651 132.804,53.651 133.779,53.651 134.739,53.651 135.714,53.651 136.689,53.651 137.694,53.651 138.669,53.651 140.192,53.651 140.908,53.651 141.868,53.651 142.797,53.651 143.864,54.4878 144.93,54.4878 145.882,55.3246 146.811,55.743 147.801,56.9981 148.776,56.9981 149.858,56.9981 151.655,59.0901 152.89,59.0901 153.956,62.0189 154.932,63.2741 155.831,64.1109 156.897,69.55 158.024,70.8052 159.014,72.8971 159.982,80.8466 160.972,83.357 161.947,85.449 162.93,85.449 164.453,95.9088 165.642,101.766 166.689,103.858 167.719,105.113 168.953,110.553 169.775,111.389 170.804,112.226 171.794,113.9 172.756,113.9 173.792,113.9 175.62,112.645 175.802,112.645 176.793,112.645 177.92,110.971 178.91,110.971 179.854,110.971 180.951,109.297 181.941,109.297 183.007,109.297 184.028,108.042 184.957,108.042 185.993,108.042 186.968,107.205 188.445,107.205 189.758,107.205 190.666,107.205 191.641,106.369 192.6,106.369 193.575,106.369 194.611,106.369 195.663,106.369 196.6,106.369 197.636,106.369 198.604,106.787 199.968,106.787 200.988,106.787 201.857,108.042 202.862,108.042 203.989,108.042 204.903,108.042 205.863,108.042 206.838,108.042 207.874,108.042 208.909,108.042 209.915,108.042 210.89,108.042 212.873,108.042 213.101,108.042 214.076,108.042 215.272,108.042 216.263,108.042 217.222,107.205 218.114,107.205 219.119,107.205 220.125,105.532 221.145,105.532 222.166,102.185 223.226,101.348 224.594,100.093 225.356,98.8376 226.289,92.9801 227.295,91.3065 228.407,89.2145 229.428,81.265 230.281,78.7546 231.317,76.6627 232.292,66.6212 233.282,64.5292 234.287,57.4165 235.323,52.8142 236.907,50.7222 237.364,45.2831 238.4,43.6095 239.375,42.3543 240.426,42.3543 241.553,39.4256 242.482,39.4256 243.39,39.4256 244.471,40.6808 245.477,40.6808 246.543,42.3543 248.355,43.1911 248.523,43.6095 249.577,44.4463 250.582,45.2831 251.572,45.2831 252.624,45.2831 253.644,45.7015 254.665,45.7015 255.67,45.7015 256.63,45.7015 257.757,45.7015 258.93,46.9567 260.712,47.3751 260.91,47.3751 261.839,48.6302 263.119,48.6302 263.987,49.4671 264.962,50.7222 265.988,50.7222 266.963,50.7222 268.16,51.559 269.028,52.3958 270.197,52.3958 271.276,52.3958 272.398,53.2326 273.327,53.2326 274.394,53.2326 275.362,53.2326 276.367,53.2326 277.403,53.2326 278.454,53.2326 279.475,53.2326 280.495,53.2326 281.531,53.2326 282.582,53.2326 283.587,53.2326 284.806,53.2326 285.735,53.2326 286.695,53.2326 287.685,53.2326 288.751,53.2326 289.787,53.651 290.975,53.651 291.858,54.4878 292.99,54.4878 293.943,55.3246 295.025,56.9981 296.913,56.9981 297.416,57.8349 298.475,60.3453 299.45,61.1821 300.555,62.0189 301.545,66.2028 302.612,66.2028 303.571,69.1316 304.775,76.6627 305.689,76.6627 306.648,78.7546 307.608,87.1225 309.055,89.6329 310.03,98.0008 310.974,100.093 311.995,101.766 313.015,103.858 313.99,108.879 314.973,109.716 315.887,110.553 316.794,112.226 317.815,112.226 318.85,112.226 320.221,112.226 320.959,112.226 321.98,111.389 322.94,111.389 323.929,111.389 324.967,111.389 326.011,111.389 327.123,111.389 328,111.389 329.021,111.389 330.072,111.389 331.077,111.389 332.707,111.389 334.048,110.134 335.204,110.134 336.254,110.134 337.274,108.879 338.279,108.879 339.316,108.042 340.321,107.205 341.25,107.205 342.225,107.205 343.584,105.95 344.585,105.95 345.545,105.95 346.441,105.95 347.508,105.95 348.468,105.95 349.376,105.95 350.316,105.95 351.382,105.95 352.457,105.95 353.668,105.95 354.658,105.95 355.572,105.95 356.973,105.95 357.002,105.95"/>
  </g>
  <clipPath id="cp00394295">
   <polygon points="0,295 394,295 394,0 0,0"/>
  </clipPath>
  <g clip-path="url(#cp00394295)">
   <polygon fill="#ffffff" shape-rendering="crispEdges" points="260.073,92.6962 348.172,92.6962 348.172,46.6953 260.073,46.6953"/>
   <polyline stroke="#262626" fill="none" stroke-linejoin="miter" stroke-linecap="square" stroke-width="0.5" stroke-dasharray="16,0" points="260.073,92.6962 348.172,92.6962"/>
   <polyline stroke="#262626" fill="none" stroke-linejoin="miter" stroke-linecap="square" stroke-width="0.5" stroke-dasharray="16,0" points="260.073,46.6953 348.172,46.6953"/>
   <polyline stroke="#262626" fill="none" stroke-linejoin="miter" stroke-linecap="square" stroke-width="0.5" stroke-dasharray="16,0" points="260.073,92.6962 260.073,46.6953"/>
   <polyline stroke="#262626" fill="none" stroke-linejoin="miter" stroke-linecap="square" stroke-width="0.5" stroke-dasharray="16,0" points="348.172,92.6962 348.172,46.6953"/>
   <polyline stroke="#0071bc" fill="none" stroke-linejoin="round" stroke-linecap="butt" stroke-width="0.5" points="264.335,55.9577 285.647,55.9577"/>
   <g xml:space="preserve" transform="translate(289.91,60.9577) rotate(-0,-0,-5)" font-style="normal" font-weight="normal" font-size="9" font-family="FreeSans">
    <text fill="rgb(0,0,0)" x="0 6 8 15 20 22 27 32 " y="-2">Simulção</text>
   </g>
   <polyline stroke="#ff0000" fill="none" stroke-linejoin="round" stroke-linecap="butt" stroke-width="0.5" points="264.335,83.4337 285.647,83.4337"/>
   <g xml:space="preserve" transform="translate(289.91,88.4337) rotate(-0,-0,-5)" font-style="normal" font-weight="normal" font-size="9" font-family="FreeSans">
    <text fill="rgb(0,0,0)" x="0 6 11 15 20 25 29 32 37 39 42 47 52 " y="-2">Resposta real</text>
   </g>
   <polyline stroke="#7f7f7f" fill="none" stroke-linejoin="round" stroke-linecap="butt" stroke-width="0.5" points="264.335,69.6957 285.647,69.6957"/>
   <g xml:space="preserve" transform="translate(289.91,73.6957) rotate(-0,-0,-4)" font-style="normal" font-weight="normal" font-size="9" font-family="FreeSans">
    <text fill="rgb(0,0,0)" x="0 6 11 14 19 22 27 32 37 39 " y="-0">Referência</text>
   </g>
  </g>
  <clipPath id="cp00394295">
   <polygon points="0,295 394,295 394,0 0,0"/>
  </clipPath>
  <g clip-path="url(#cp00394295)">
   <polygon fill="#ffffff" shape-rendering="crispEdges" points="51.2383,263.089 356.697,263.089 356.697,179.41 51.2383,179.41"/>
   <polyline stroke="#191919" fill="none" stroke-linejoin="miter" stroke-linecap="butt" stroke-width="0.5" stroke-dasharray="1,3,1,3,1,3,1,3" points="66.5112,263.089 66.5112,179.41" stroke-opacity="0.25"/>
   <polyline stroke="#191919" fill="none" stroke-linejoin="miter" stroke-linecap="butt" stroke-width="0.5" stroke-dasharray="1,3,1,3,1,3,1,3" points="81.7841,263.089 81.7841,179.41" stroke-opacity="0.25"/>
   <polyline stroke="#191919" fill="none" stroke-linejoin="miter" stroke-linecap="butt" stroke-width="0.5" stroke-dasharray="1,3,1,3,1,3,1,3" points="97.0571,263.089 97.0571,179.41" stroke-opacity="0.25"/>
   <polyline stroke="#191919" fill="none" stroke-linejoin="miter" stroke-linecap="butt" stroke-width="0.5" stroke-dasharray="1,3,1,3,1,3,1,3" points="112.33,263.089 112.33,179.41" stroke-opacity="0.25"/>
   <polyline stroke="#191919" fill="none" stroke-linejoin="miter" stroke-linecap="butt" stroke-width="0.5" stroke-dasharray="1,3,1,3,1,3,1,3" points="142.876,263.089 142.876,179.41" stroke-opacity="0.25"/>
   <polyline stroke="#191919" fill="none" stroke-linejoin="miter" stroke-linecap="butt" stroke-width="0.5" stroke-dasharray="1,3,1,3,1,3,1,3" points="158.149,263.089 158.149,179.41" stroke-opacity="0.25"/>
   <polyline stroke="#191919" fill="none" stroke-linejoin="miter" stroke-linecap="butt" stroke-width="0.5" stroke-dasharray="1,3,1,3,1,3,1,3" points="173.422,263.089 173.422,179.41" stroke-opacity="0.25"/>
   <polyline stroke="#191919" fill="none" stroke-linejoin="miter" stroke-linecap="butt" stroke-width="0.5" stroke-dasharray="1,3,1,3,1,3,1,3" points="188.695,263.089 188.695,179.41" stroke-opacity="0.25"/>
   <polyline stroke="#191919" fill="none" stroke-linejoin="miter" stroke-linecap="butt" stroke-width="0.5" stroke-dasharray="1,3,1,3,1,3,1,3" points="219.241,263.089 219.241,179.41" stroke-opacity="0.25"/>
   <polyline stroke="#191919" fill="none" stroke-linejoin="miter" stroke-linecap="butt" stroke-width="0.5" stroke-dasharray="1,3,1,3,1,3,1,3" points="234.513,263.089 234.513,179.41" stroke-opacity="0.25"/>
   <polyline stroke="#191919" fill="none" stroke-linejoin="miter" stroke-linecap="butt" stroke-width="0.5" stroke-dasharray="1,3,1,3,1,3,1,3" points="249.786,263.089 249.786,179.41" stroke-opacity="0.25"/>
   <polyline stroke="#191919" fill="none" stroke-linejoin="miter" stroke-linecap="butt" stroke-width="0.5" stroke-dasharray="1,3,1,3,1,3,1,3" points="265.059,263.089 265.059,179.41" stroke-opacity="0.25"/>
   <polyline stroke="#191919" fill="none" stroke-linejoin="miter" stroke-linecap="butt" stroke-width="0.5" stroke-dasharray="1,3,1,3,1,3,1,3" points="295.605,263.089 295.605,179.41" stroke-opacity="0.25"/>
   <polyline stroke="#191919" fill="none" stroke-linejoin="miter" stroke-linecap="butt" stroke-width="0.5" stroke-dasharray="1,3,1,3,1,3,1,3" points="310.878,263.089 310.878,179.41" stroke-opacity="0.25"/>
   <polyline stroke="#191919" fill="none" stroke-linejoin="miter" stroke-linecap="butt" stroke-width="0.5" stroke-dasharray="1,3,1,3,1,3,1,3" points="326.151,263.089 326.151,179.41" stroke-opacity="0.25"/>
   <polyline stroke="#191919" fill="none" stroke-linejoin="miter" stroke-linecap="butt" stroke-width="0.5" stroke-dasharray="1,3,1,3,1,3,1,3" points="341.424,263.089 341.424,179.41" stroke-opacity="0.25"/>
   <polyline stroke="#262626" fill="none" stroke-linejoin="miter" stroke-linecap="butt" stroke-width="0.5" stroke-dasharray="16,0" points="51.2383,263.089 51.2383,179.41" stroke-opacity="0.15"/>
   <polyline stroke="#262626" fill="none" stroke-linejoin="miter" stroke-linecap="butt" stroke-width="0.5" stroke-dasharray="16,0" points="127.603,263.089 127.603,179.41" stroke-opacity="0.15"/>
   <polyline stroke="#262626" fill="none" stroke-linejoin="miter" stroke-linecap="butt" stroke-width="0.5" stroke-dasharray="16,0" points="203.968,263.089 203.968,179.41" stroke-opacity="0.15"/>
   <polyline stroke="#262626" fill="none" stroke-linejoin="miter" stroke-linecap="butt" stroke-width="0.5" stroke-dasharray="16,0" points="280.332,263.089 280.332,179.41" stroke-opacity="0.15"/>
   <polyline stroke="#262626" fill="none" stroke-linejoin="miter" stroke-linecap="butt" stroke-width="0.5" stroke-dasharray="16,0" points="356.697,263.089 356.697,179.41" stroke-opacity="0.15"/>
   <polyline stroke="#262626" fill="none" stroke-linejoin="miter" stroke-linecap="butt" stroke-width="0.5" points="51.2383,263.089 51.2383,260.046"/>
   <polyline stroke="#262626" fill="none" stroke-linejoin="miter" stroke-linecap="butt" stroke-width="0.5" points="51.2383,179.41 51.2383,182.453"/>
   <polyline stroke="#262626" fill="none" stroke-linejoin="miter" stroke-linecap="butt" stroke-width="0.5" points="127.603,263.089 127.603,260.046"/>
   <polyline stroke="#262626" fill="none" stroke-linejoin="miter" stroke-linecap="butt" stroke-width="0.5" points="127.603,179.41 127.603,182.453"/>
   <polyline stroke="#262626" fill="none" stroke-linejoin="miter" stroke-linecap="butt" stroke-width="0.5" points="203.968,263.089 203.968,260.046"/>
   <polyline stroke="#262626" fill="none" stroke-linejoin="miter" stroke-linecap="butt" stroke-width="0.5" points="203.968,179.41 203.968,182.453"/>
   <polyline stroke="#262626" fill="none" stroke-linejoin="miter" stroke-linecap="butt" stroke-width="0.5" points="280.332,263.089 280.332,260.046"/>
   <polyline stroke="#262626" fill="none" stroke-linejoin="miter" stroke-linecap="butt" stroke-width="0.5" points="280.332,179.41 280.332,182.453"/>
   <polyline stroke="#262626" fill="none" stroke-linejoin="miter" stroke-linecap="butt" stroke-width="0.5" points="356.697,263.089 356.697,260.046"/>
   <polyline stroke="#262626" fill="none" stroke-linejoin="miter" stroke-linecap="butt" stroke-width="0.5" points="356.697,179.41 356.697,182.453"/>
   <g xml:space="preserve" transform="translate(48.2382,278.56) rotate(-0,3,-8)" font-style="normal" font-weight="normal" font-size="10" font-family="FreeSans">
    <text fill="rgb(38,38,38)" x="0 " y="-0">0</text>
   </g>
   <g xml:space="preserve" transform="translate(124.603,278.56) rotate(-0,3,-8)" font-style="normal" font-weight="normal" font-size="10" font-family="FreeSans">
    <text fill="rgb(38,38,38)" x="0 " y="-0">5</text>
   </g>
   <g xml:space="preserve" transform="translate(197.968,278.56) rotate(-0,6,-8)" font-style="normal" font-weight="normal" font-size="10" font-family="FreeSans">
    <text fill="rgb(38,38,38)" x="0 6 " y="-0">10</text>
   </g>
   <g xml:space="preserve" transform="translate(274.332,278.56) rotate(-0,6,-8)" font-style="normal" font-weight="normal" font-size="10" font-family="FreeSans">
    <text fill="rgb(38,38,38)" x="0 6 " y="-0">15</text>
   </g>
   <g xml:space="preserve" transform="translate(350.697,278.56) rotate(-0,6,-8)" font-style="normal" font-weight="normal" font-size="10" font-family="FreeSans">
    <text fill="rgb(38,38,38)" x="0 6 " y="-0">20</text>
   </g>
   <polyline stroke="#191919" fill="none" stroke-linejoin="miter" stroke-linecap="butt" stroke-width="0.5" stroke-dasharray="1,3,1,3,1,3,1,3" points="51.2383,258.905 356.697,258.905" stroke-opacity="0.25"/>
   <polyline stroke="#191919" fill="none" stroke-linejoin="miter" stroke-linecap="butt" stroke-width="0.5" stroke-dasharray="1,3,1,3,1,3,1,3" points="51.2383,254.721 356.697,254.721" stroke-opacity="0.25"/>
   <polyline stroke="#191919" fill="none" stroke-linejoin="miter" stroke-linecap="butt" stroke-width="0.5" stroke-dasharray="1,3,1,3,1,3,1,3" points="51.2383,250.537 356.697,250.537" stroke-opacity="0.25"/>
   <polyline stroke="#191919" fill="none" stroke-linejoin="miter" stroke-linecap="butt" stroke-width="0.5" stroke-dasharray="1,3,1,3,1,3,1,3" points="51.2383,246.353 356.697,246.353" stroke-opacity="0.25"/>
   <polyline stroke="#191919" fill="none" stroke-linejoin="miter" stroke-linecap="butt" stroke-width="0.5" stroke-dasharray="1,3,1,3,1,3,1,3" points="51.2383,237.985 356.697,237.985" stroke-opacity="0.25"/>
   <polyline stroke="#191919" fill="none" stroke-linejoin="miter" stroke-linecap="butt" stroke-width="0.5" stroke-dasharray="1,3,1,3,1,3,1,3" points="51.2383,233.801 356.697,233.801" stroke-opacity="0.25"/>
   <polyline stroke="#191919" fill="none" stroke-linejoin="miter" stroke-linecap="butt" stroke-width="0.5" stroke-dasharray="1,3,1,3,1,3,1,3" points="51.2383,229.617 356.697,229.617" stroke-opacity="0.25"/>
   <polyline stroke="#191919" fill="none" stroke-linejoin="miter" stroke-linecap="butt" stroke-width="0.5" stroke-dasharray="1,3,1,3,1,3,1,3" points="51.2383,225.433 356.697,225.433" stroke-opacity="0.25"/>
   <polyline stroke="#191919" fill="none" stroke-linejoin="miter" stroke-linecap="butt" stroke-width="0.5" stroke-dasharray="1,3,1,3,1,3,1,3" points="51.2383,217.065 356.697,217.065" stroke-opacity="0.25"/>
   <polyline stroke="#191919" fill="none" stroke-linejoin="miter" stroke-linecap="butt" stroke-width="0.5" stroke-dasharray="1,3,1,3,1,3,1,3" points="51.2383,212.881 356.697,212.881" stroke-opacity="0.25"/>
   <polyline stroke="#191919" fill="none" stroke-linejoin="miter" stroke-linecap="butt" stroke-width="0.5" stroke-dasharray="1,3,1,3,1,3,1,3" points="51.2383,208.697 356.697,208.697" stroke-opacity="0.25"/>
   <polyline stroke="#191919" fill="none" stroke-linejoin="miter" stroke-linecap="butt" stroke-width="0.5" stroke-dasharray="1,3,1,3,1,3,1,3" points="51.2383,204.513 356.697,204.513" stroke-opacity="0.25"/>
   <polyline stroke="#191919" fill="none" stroke-linejoin="miter" stroke-linecap="butt" stroke-width="0.5" stroke-dasharray="1,3,1,3,1,3,1,3" points="51.2383,196.146 356.697,196.146" stroke-opacity="0.25"/>
   <polyline stroke="#191919" fill="none" stroke-linejoin="miter" stroke-linecap="butt" stroke-width="0.5" stroke-dasharray="1,3,1,3,1,3,1,3" points="51.2383,191.962 356.697,191.962" stroke-opacity="0.25"/>
   <polyline stroke="#191919" fill="none" stroke-linejoin="miter" stroke-linecap="butt" stroke-width="0.5" stroke-dasharray="1,3,1,3,1,3,1,3" points="51.2383,187.778 356.697,187.778" stroke-opacity="0.25"/>
   <polyline stroke="#191919" fill="none" stroke-linejoin="miter" stroke-linecap="butt" stroke-width="0.5" stroke-dasharray="1,3,1,3,1,3,1,3" points="51.2383,183.594 356.697,183.594" stroke-opacity="0.25"/>
   <polyline stroke="#262626" fill="none" stroke-linejoin="miter" stroke-linecap="butt" stroke-width="0.5" stroke-dasharray="16,0" points="51.2383,242.169 356.697,242.169" stroke-opacity="0.15"/>
   <polyline stroke="#262626" fill="none" stroke-linejoin="miter" stroke-linecap="butt" stroke-width="0.5" stroke-dasharray="16,0" points="51.2383,221.249 356.697,221.249" stroke-opacity="0.15"/>
   <polyline stroke="#262626" fill="none" stroke-linejoin="miter" stroke-linecap="butt" stroke-width="0.5" stroke-dasharray="16,0" points="51.2383,200.329 356.697,200.329" stroke-opacity="0.15"/>
   <polyline stroke="#262626" fill="none" stroke-linejoin="miter" stroke-linecap="butt" stroke-width="0.5" points="51.2383,242.169 54.2974,242.169"/>
   <polyline stroke="#262626" fill="none" stroke-linejoin="miter" stroke-linecap="butt" stroke-width="0.5" points="356.697,242.169 353.638,242.169"/>
   <polyline stroke="#262626" fill="none" stroke-linejoin="miter" stroke-linecap="butt" stroke-width="0.5" points="51.2383,221.249 54.2974,221.249"/>
   <polyline stroke="#262626" fill="none" stroke-linejoin="miter" stroke-linecap="butt" stroke-width="0.5" points="356.697,221.249 353.638,221.249"/>
   <polyline stroke="#262626" fill="none" stroke-linejoin="miter" stroke-linecap="butt" stroke-width="0.5" points="51.2383,200.329 54.2974,200.329"/>
   <polyline stroke="#262626" fill="none" stroke-linejoin="miter" stroke-linecap="butt" stroke-width="0.5" points="356.697,200.329 353.638,200.329"/>
   <g xml:space="preserve" transform="translate(22.2307,246.169) rotate(-0,24,-4)" font-style="normal" font-weight="normal" font-size="10" font-family="FreeSans">
    <text fill="rgb(38,38,38)" x="0 3 9 12 18 " y="-0">-0.05</text>
   </g>
   <g xml:space="preserve" transform="translate(40.2307,225.249) rotate(-0,6,-4)" font-style="normal" font-weight="normal" font-size="10" font-family="FreeSans">
    <text fill="rgb(38,38,38)" x="0 " y="-0">0</text>
   </g>
   <g xml:space="preserve" transform="translate(25.2307,204.329) rotate(-0,21,-4)" font-style="normal" font-weight="normal" font-size="10" font-family="FreeSans">
    <text fill="rgb(38,38,38)" x="0 6 9 15 " y="-0">0.05</text>
   </g>
   <polyline stroke="#262626" fill="none" stroke-linejoin="miter" stroke-linecap="square" stroke-width="0.5" stroke-dasharray="16,0" points="51.2383,263.089 356.697,263.089"/>
   <polyline stroke="#262626" fill="none" stroke-linejoin="miter" stroke-linecap="square" stroke-width="0.5" stroke-dasharray="16,0" points="51.2383,179.41 356.697,179.41"/>
   <polyline stroke="#262626" fill="none" stroke-linejoin="miter" stroke-linecap="square" stroke-width="0.5" stroke-dasharray="16,0" points="51.2383,263.089 51.2383,179.41"/>
   <polyline stroke="#262626" fill="none" stroke-linejoin="miter" stroke-linecap="square" stroke-width="0.5" stroke-dasharray="16,0" points="356.697,263.089 356.697,179.41"/>
   <g xml:space="preserve" transform="translate(142.968,169.41) rotate(-0,61,0)" font-style="normal" font-weight="bold" font-size="11" font-family="FreeSans">
    <text fill="rgb(0,0,0)" x="0 7 13 23 30 37 40 47 53 56 62 65 72 79 85 88 94 100 107 111 118 " y="-3">Tempo pela Posição(Y)</text>
   </g>
   <g xml:space="preserve" transform="translate(-11.7693,221.249) rotate(-90,29,0)" font-style="normal" font-weight="normal" font-size="11" font-family="FreeSans">
    <text fill="rgb(38,38,38)" x="0 7 13 18 20 26 32 38 41 45 54 " y="-3">Posição (m)</text>
   </g>
   <g xml:space="preserve" transform="translate(178.968,295.56) rotate(-0,25,-12)" font-style="normal" font-weight="normal" font-size="11" font-family="FreeSans">
    <text fill="rgb(38,38,38)" x="0 7 13 22 28 34 37 41 46 " y="-3">Tempo (s)</text>
   </g>
   <polyline stroke="#0071bc" fill="none" stroke-linejoin="round" stroke-linecap="butt" stroke-width="0.5" points="51.2383,221.249 52.2794,221.249 52.2794,221.249 53.3205,221.249 53.3205,221.249 54.3617,221.249 54.3617,221.249 55.4028,221.249 55.4028,221.249 56.4439,221.249 56.4439,221.249 57.4851,221.249 57.4851,221.249 58.5262,221.249 58.5262,221.249 59.5673,221.249 59.5673,221.249 60.6085,221.249 60.6085,221.249 61.6496,221.249 61.6496,221.249 62.6907,221.249 62.6907,221.362 63.7319,221.362 63.7319,221.937 64.773,221.937 64.773,223.312 65.8141,223.312 65.8141,225.504 66.8553,225.504 66.8553,228.293 67.8964,228.293 67.8964,231.43 68.9375,231.43 68.9375,234.704 69.9787,234.704 69.9787,237.956 71.0198,237.956 71.0198,241.069 72.0609,241.069 72.0609,243.962 73.1021,243.962 73.1021,246.582 74.1432,246.582 74.1432,248.896 75.1843,248.896 75.1843,250.892 76.2255,250.892 76.2255,252.568 77.2666,252.568 77.2666,253.936 78.3077,253.936 78.3077,255.012 79.3489,255.012 79.3489,255.818 80.39,255.818 80.39,256.381 81.4311,256.381 81.4311,256.727 82.4723,256.727 82.4723,256.887 83.5134,256.887 83.5134,256.886 84.5546,256.886 84.5546,256.753 85.5957,256.753 85.5957,256.512 86.6368,256.512 86.6368,256.188 87.6779,256.188 87.6779,255.802 88.7191,255.802 88.7191,255.372 89.7602,255.372 89.7602,254.916 90.8014,254.916 90.8014,254.447 91.8425,254.447 91.8425,253.979 92.8836,253.979 92.8836,253.52 93.9248,253.52 93.9248,253.08 94.9659,253.08 94.9659,252.664 96.007,252.664 96.007,252.277 97.0482,252.277 97.0482,251.922 98.0893,251.922 98.0893,251.602 99.1304,251.602 99.1304,251.316 100.172,251.316 100.172,251.052 101.213,251.052 101.213,250.756 102.254,250.756 102.254,250.336 103.295,250.336 103.295,249.696 104.336,249.696 104.336,248.766 105.377,248.766 105.377,247.503 106.418,247.503 106.418,245.89 107.459,245.89 107.459,243.926 108.501,243.926 108.501,241.624 109.542,241.624 109.542,239.008 110.583,239.008 110.583,236.105 111.624,236.105 111.624,232.95 112.665,232.95 112.665,229.575 113.706,229.575 113.706,226.016 114.747,226.016 114.747,222.306 115.789,222.306 115.789,218.476 116.83,218.476 116.83,214.558 117.871,214.558 117.871,210.582 118.912,210.582 118.912,206.607 119.953,206.607 119.953,202.724 120.994,202.724 120.994,199.044 122.035,199.044 122.035,195.663 123.077,195.663 123.077,192.645 124.118,192.645 124.118,190.029 125.159,190.029 125.159,187.827 126.2,187.827 126.2,186.036 127.241,186.036 127.241,184.638 128.282,184.638 128.282,183.606 129.323,183.606 129.323,182.906 130.364,182.906 130.364,182.504 131.406,182.504 131.406,182.359 132.447,182.359 132.447,182.434 133.488,182.434 133.488,182.69 134.529,182.69 134.529,183.094 135.57,183.094 135.57,183.611 136.611,183.611 136.611,184.211 137.652,184.211 137.652,184.868 138.694,184.868 138.694,185.558 139.735,185.558 139.735,186.261 140.776,186.261 140.776,186.96 141.817,186.96 141.817,187.64 142.858,187.64 142.858,188.29 143.899,188.29 143.899,188.902 144.94,188.902 144.94,189.47 145.981,189.47 145.981,189.989 147.023,189.989 147.023,190.457 148.064,190.457 148.064,190.873 149.105,190.873 149.105,191.237 150.146,191.237 150.146,191.551 151.187,191.551 151.187,191.817 152.228,191.817 152.228,192.038 153.269,192.038 153.269,192.217 154.311,192.217 154.311,192.357 155.352,192.357 155.352,192.464 156.393,192.464 156.393,192.54 157.434,192.54 157.434,192.59 158.475,192.59 158.475,192.616 159.516,192.616 159.516,192.624 160.557,192.624 160.557,192.615 161.598,192.615 161.598,192.594 162.64,192.594 162.64,192.563 163.681,192.563 163.681,192.524 164.722,192.524 164.722,192.479 165.763,192.479 165.763,192.432 166.804,192.432 166.804,192.382 167.845,192.382 167.845,192.333 168.886,192.333 168.886,192.284 169.928,192.284 169.928,192.237 170.969,192.237 170.969,192.192 172.01,192.192 172.01,192.15 173.051,192.15 173.051,192.125 174.092,192.125 174.092,192.169 175.133,192.169 175.133,192.374 176.174,192.374 176.174,192.833 177.215,192.833 177.215,193.614 178.257,193.614 178.257,194.758 179.298,194.758 179.298,196.279 180.339,196.279 180.339,198.174 181.38,198.174 181.38,200.429 182.421,200.429 182.421,203.016 183.462,203.016 183.462,205.905 184.503,205.905 184.503,209.061 185.545,209.061 185.545,212.446 186.586,212.446 186.586,216.025 187.627,216.025 187.627,219.761 188.668,219.761 188.668,223.621 189.709,223.621 189.709,227.574 190.75,227.574 190.75,231.585 191.791,231.585 191.791,235.597 192.832,235.597 192.832,239.516 193.874,239.516 193.874,243.232 194.915,243.232 194.915,246.647 195.956,246.647 195.956,249.697 196.997,249.697 196.997,252.343 198.038,252.343 198.038,254.571 199.079,254.571 199.079,256.387 200.12,256.387 200.12,257.807 201.162,257.807 201.162,258.858 202.203,258.858 202.203,259.573 203.244,259.573 203.244,259.99 204.285,259.99 204.285,260.146 205.326,260.146 205.326,260.08 206.367,260.08 206.367,259.831 207.408,259.831 207.408,259.433 208.45,259.433 208.45,258.919 209.491,258.919 209.491,258.321 210.532,258.321 210.532,257.666 211.573,257.666 211.573,256.976 212.614,256.976 212.614,256.272 213.655,256.272 213.655,255.573 214.696,255.573 214.696,254.891 215.737,254.891 215.737,254.238 216.779,254.238 216.779,253.623 217.82,253.623 217.82,253.053 218.861,253.053 218.861,252.531 219.902,252.531 219.902,252.061 220.943,252.061 220.943,251.642 221.984,251.642 221.984,251.275 223.025,251.275 223.025,250.959 224.067,250.959 224.067,250.691 225.108,250.691 225.108,250.468 226.149,250.468 226.149,250.288 227.19,250.288 227.19,250.145 228.231,250.145 228.231,250.037 229.272,250.037 229.272,249.96 230.313,249.96 230.313,249.909 231.354,249.909 231.354,249.882 232.396,249.882 232.396,249.873 233.437,249.873 233.437,249.881 234.478,249.881 234.478,249.902 235.519,249.902 235.519,249.933 236.56,249.933 236.56,249.972 237.601,249.972 237.601,250.016 238.642,250.016 238.642,250.064 239.684,250.064 239.684,250.113 240.725,250.113 240.725,250.163 241.766,250.163 241.766,250.212 242.807,250.212 242.807,250.259 243.848,250.259 243.848,250.304 244.889,250.304 244.889,250.346 245.93,250.346 245.93,250.385 246.971,250.385 246.971,250.406 248.013,250.406 248.013,250.359 249.054,250.359 249.054,250.151 250.095,250.151 250.095,249.688 251.136,249.688 251.136,248.903 252.177,248.903 252.177,247.757 253.218,247.757 253.218,246.233 254.259,246.233 254.259,244.334 255.301,244.334 255.301,242.078 256.342,242.078 256.342,239.488 257.383,239.488 257.383,236.597 258.424,236.597 258.424,233.44 259.465,233.44 259.465,230.053 260.506,230.053 260.506,226.473 261.547,226.473 261.547,222.736 262.588,222.736 262.588,218.876 263.63,218.876 263.63,214.922 264.671,214.922 264.671,210.91 265.712,210.91 265.712,206.898 266.753,206.898 266.753,202.979 267.794,202.979 267.794,199.263 268.835,199.263 268.835,195.848 269.876,195.848 269.876,192.799 270.918,192.799 270.918,190.153 271.959,190.153 271.959,187.924 273,187.924 273,186.109 274.041,186.109 274.041,184.689 275.082,184.689 275.082,183.638 276.123,183.638 276.123,182.923 277.164,182.923 277.164,182.507 278.206,182.507 278.206,182.351 279.247,182.351 279.247,182.417 280.288,182.417 280.288,182.667 281.329,182.667 281.329,183.065 282.37,183.065 282.37,183.578 283.411,183.578 283.411,184.177 284.452,184.177 284.452,184.833 285.493,184.833 285.493,185.523 286.535,185.523 286.535,186.226 287.576,186.226 287.576,186.926 288.617,186.926 288.617,187.608 289.658,187.608 289.658,188.261 290.699,188.261 290.699,188.875 291.74,188.875 291.74,189.446 292.781,189.446 292.781,189.967 293.822,189.967 293.822,190.438 294.864,190.438 294.864,190.857 295.905,190.857 295.905,191.223 296.946,191.223 296.946,191.539 297.987,191.539 297.987,191.807 299.028,191.807 299.028,192.03 300.069,192.03 300.069,192.211 301.11,192.211 301.11,192.353 302.152,192.353 302.152,192.461 303.193,192.461 303.193,192.539 304.234,192.539 304.234,192.589 305.275,192.589 305.275,192.617 306.316,192.617 306.316,192.625 307.357,192.625 307.357,192.617 308.398,192.617 308.398,192.596 309.44,192.596 309.44,192.565 310.481,192.565 310.481,192.526 311.522,192.526 311.522,192.482 312.563,192.482 312.563,192.434 313.604,192.434 313.604,192.385 314.645,192.385 314.645,192.335 315.686,192.335 315.686,192.286 316.727,192.286 316.727,192.239 317.769,192.239 317.769,192.194 318.81,192.194 318.81,192.152 319.851,192.152 319.851,192.127 320.892,192.127 320.892,192.171 321.933,192.171 321.933,192.375 322.974,192.375 322.974,192.834 324.015,192.834 324.015,193.615 325.057,193.615 325.057,194.759 326.098,194.759 326.098,196.279 327.139,196.279 327.139,198.175 328.18,198.175 328.18,200.429 329.221,200.429 329.221,203.017 330.262,203.017 330.262,205.906 331.303,205.906 331.303,209.061 332.344,209.061 332.344,212.446 333.386,212.446 333.386,216.025 334.427,216.025 334.427,219.761 335.468,219.761 335.468,223.621 336.509,223.621 336.509,227.574 337.55,227.574 337.55,231.585 338.591,231.585 338.591,235.597 339.632,235.597 339.632,239.516 340.674,239.516 340.674,243.231 341.715,243.231 341.715,246.647 342.756,246.647 342.756,249.696 343.797,249.696 343.797,252.342 344.838,252.342 344.838,254.571 345.879,254.571 345.879,256.387 346.92,256.387 346.92,257.807 347.961,257.807 347.961,258.858 349.003,258.858 349.003,259.573 350.044,259.573 350.044,259.99 351.085,259.99 351.085,260.146 352.126,260.146 352.126,260.08 353.167,260.08 353.167,259.831 354.208,259.831 354.208,259.432 355.249,259.432 355.249,258.919 356.291,258.919 356.291,258.321 357.002,258.321"/>
   <polyline stroke="#7f7f7f" fill="none" stroke-linejoin="round" stroke-linecap="butt" stroke-width="0.5" points="51.2383,221.249 52.2794,221.249 53.3205,221.249 54.3617,221.249 55.4028,221.249 56.4439,221.249 57.4851,221.249 58.5262,221.249 59.5673,221.249 60.6085,221.249 61.6496,250.537 62.6907,250.537 63.7319,250.537 64.773,250.537 65.8141,250.537 66.8553,250.537 67.8964,250.537 68.9375,250.537 69.9787,250.537 71.0198,250.537 72.0609,250.537 73.1021,250.537 74.1432,250.537 75.1843,250.537 76.2255,250.537 77.2666,250.537 78.3077,250.537 79.3489,250.537 80.39,250.537 81.4311,250.537 82.4723,250.537 83.5134,250.537 84.5546,250.537 85.5957,250.537 86.6368,250.537 87.6779,250.537 88.7191,250.537 89.7602,250.537 90.8014,250.537 91.8425,250.537 92.8836,250.537 93.9248,250.537 94.9659,250.537 96.007,250.537 97.0482,250.537 98.0893,250.537 99.1304,247.19 100.172,243.842 101.213,240.495 102.254,237.148 103.295,233.801 104.336,230.454 105.377,227.107 106.418,223.76 107.459,220.412 108.501,217.065 109.542,213.718 110.583,210.371 111.624,207.024 112.665,203.677 113.706,200.329 114.747,196.982 115.789,193.635 116.83,191.962 117.871,191.962 118.912,191.962 119.953,191.962 120.994,191.962 122.035,191.962 123.077,191.962 124.118,191.962 125.159,191.962 126.2,191.962 127.241,191.962 128.282,191.962 129.323,191.962 130.364,191.962 131.406,191.962 132.447,191.962 133.488,191.962 134.529,191.962 135.57,191.962 136.611,191.962 137.652,191.962 138.694,191.962 139.735,191.962 140.776,191.962 141.817,191.962 142.858,191.962 143.899,191.962 144.94,191.962 145.981,191.962 147.023,191.962 148.064,191.962 149.105,191.962 150.146,191.962 151.187,191.962 152.228,191.962 153.269,191.962 154.311,191.962 155.352,191.962 156.393,191.962 157.434,191.962 158.475,191.962 159.516,191.962 160.557,191.962 161.598,191.962 162.64,191.962 163.681,191.962 164.722,191.962 165.763,191.962 166.804,191.962 167.845,191.962 168.886,191.962 169.928,191.962 170.969,191.962 172.01,195.309 173.051,198.656 174.092,202.003 175.133,205.35 176.174,208.697 177.215,212.045 178.257,215.392 179.298,218.739 180.339,222.086 181.38,225.433 182.421,228.78 183.462,232.127 184.503,235.475 185.545,238.822 186.586,242.169 187.627,245.516 188.668,248.863 189.709,250.537 190.75,250.537 191.791,250.537 192.832,250.537 193.874,250.537 194.915,250.537 195.956,250.537 196.997,250.537 198.038,250.537 199.079,250.537 200.12,250.537 201.162,250.537 202.203,250.537 203.244,250.537 204.285,250.537 205.326,250.537 206.367,250.537 207.408,250.537 208.45,250.537 209.491,250.537 210.532,250.537 211.573,250.537 212.614,250.537 213.655,250.537 214.696,250.537 215.737,250.537 216.779,250.537 217.82,250.537 218.861,250.537 219.902,250.537 220.943,250.537 221.984,250.537 223.025,250.537 224.067,250.537 225.108,250.537 226.149,250.537 227.19,250.537 228.231,250.537 229.272,250.537 230.313,250.537 231.354,250.537 232.396,250.537 233.437,250.537 234.478,250.537 235.519,250.537 236.56,250.537 237.601,250.537 238.642,250.537 239.684,250.537 240.725,250.537 241.766,250.537 242.807,250.537 243.848,250.537 244.889,250.537 245.93,247.19 246.971,243.842 248.013,240.495 249.054,237.148 250.095,233.801 251.136,230.454 252.177,227.107 253.218,223.76 254.259,220.412 255.301,217.065 256.342,213.718 257.383,210.371 258.424,207.024 259.465,203.677 260.506,200.329 261.547,196.982 262.588,193.635 263.63,191.962 264.671,191.962 265.712,191.962 266.753,191.962 267.794,191.962 268.835,191.962 269.876,191.962 270.918,191.962 271.959,191.962 273,191.962 274.041,191.962 275.082,191.962 276.123,191.962 277.164,191.962 278.206,191.962 279.247,191.962 280.288,191.962 281.329,191.962 282.37,191.962 283.411,191.962 284.452,191.962 285.493,191.962 286.535,191.962 287.576,191.962 288.617,191.962 289.658,191.962 290.699,191.962 291.74,191.962 292.781,191.962 293.822,191.962 294.864,191.962 295.905,191.962 296.946,191.962 297.987,191.962 299.028,191.962 300.069,191.962 301.11,191.962 302.152,191.962 303.193,191.962 304.234,191.962 305.275,191.962 306.316,191.962 307.357,191.962 308.398,191.962 309.44,191.962 310.481,191.962 311.522,191.962 312.563,191.962 313.604,191.962 314.645,191.962 315.686,191.962 316.727,191.962 317.769,191.962 318.81,195.309 319.851,198.656 320.892,202.003 321.933,205.35 322.974,208.697 324.015,212.045 325.057,215.392 326.098,218.739 327.139,222.086 328.18,225.433 329.221,228.78 330.262,232.127 331.303,235.475 332.344,238.822 333.386,242.169 334.427,245.516 335.468,248.863 336.509,250.537 337.55,250.537 338.591,250.537 339.632,250.537 340.674,250.537 341.715,250.537 342.756,250.537 343.797,250.537 344.838,250.537 345.879,250.537 346.92,250.537 347.961,250.537 349.003,250.537 350.044,250.537 351.085,250.537 352.126,250.537 353.167,250.537 354.208,250.537 355.249,250.537 356.291,250.537 357.002,250.537"/>
   <polyline stroke="#ff0000" fill="none" stroke-linejoin="round" stroke-linecap="butt" stroke-width="0.5" points="51.2383,222.504 52.3277,222.504 54.1251,222.504 54.3993,222.504 55.5234,222.504 56.5592,222.504 57.6558,222.504 58.7834,222.504 59.8036,222.504 60.8853,222.504 61.9513,222.504 62.8652,222.504 63.8404,222.504 64.7846,222.504 66.186,223.76 68.3336,223.76 68.562,227.107 69.6134,228.362 70.5732,229.199 71.6394,230.454 72.5532,234.638 73.5586,235.893 74.883,236.73 76.926,240.077 78.8847,243.006 80.3167,244.679 81.1847,245.098 82.251,246.353 83.3326,246.353 84.3683,247.19 85.3583,247.19 86.3028,247.19 87.2778,247.19 88.405,246.353 89.3039,246.353 90.3394,246.353 91.5127,244.679 92.274,244.679 93.2336,243.424 94.2847,243.424 95.29,242.587 96.2649,242.587 97.3466,242.587 98.4434,242.587 99.403,243.006 100.378,243.006 101.459,243.006 102.937,243.842 103.455,243.842 104.414,243.842 105.45,243.842 106.41,243.842 107.507,243.842 108.542,243.842 109.487,243.006 110.522,243.006 111.665,243.006 112.67,241.332 113.569,241.332 114.636,240.077 116.083,237.148 116.799,237.148 117.789,235.056 118.788,231.709 119.732,228.78 120.692,227.107 121.813,221.668 122.772,219.994 123.786,217.902 124.852,210.371 125.796,208.279 127.411,206.605 128.692,199.493 129.591,194.054 130.809,193.217 131.83,192.38 132.804,190.706 133.779,190.706 134.739,190.706 135.714,191.543 136.689,191.543 137.694,192.38 138.669,194.472 140.192,194.472 140.908,194.89 141.868,195.727 142.797,195.727 143.864,195.727 144.93,195.727 145.882,195.727 146.811,195.727 147.801,195.727 148.776,195.727 149.858,195.727 151.655,196.564 152.89,196.564 153.956,196.564 154.932,196.564 155.831,196.564 156.897,196.564 158.024,196.564 159.014,196.564 159.982,196.564 160.972,196.564 161.947,196.564 162.93,196.564 164.453,196.564 165.642,196.982 166.689,196.982 167.719,196.982 168.953,196.982 169.775,197.819 170.804,197.819 171.794,197.819 172.756,197.819 173.792,197.819 175.62,197.819 175.802,197.819 176.793,197.819 177.92,197.819 178.91,197.819 179.854,197.819 180.951,198.656 181.941,199.074 183.007,199.074 184.028,202.003 184.957,202.003 185.993,203.258 186.968,207.024 188.445,208.279 189.758,212.881 190.666,214.555 191.641,219.157 192.6,222.504 193.575,224.178 194.611,229.617 195.663,231.709 196.6,233.383 197.636,235.475 198.604,242.587 199.968,244.261 200.988,245.516 201.857,251.374 202.862,252.21 203.989,254.721 204.903,254.721 205.863,255.558 206.838,255.558 207.874,255.558 208.909,255.558 209.915,255.558 210.89,254.302 212.873,254.302 213.101,253.466 214.076,253.466 215.272,253.466 216.263,253.466 217.222,253.466 218.114,252.629 219.119,252.629 220.125,252.629 221.145,252.629 222.166,252.629 223.226,252.629 224.594,252.629 225.356,252.629 226.289,251.374 227.295,251.374 228.407,251.374 229.428,250.537 230.281,250.537 231.317,250.537 232.292,249.7 233.282,249.7 234.287,248.445 235.323,247.608 236.907,247.608 237.364,245.934 238.4,245.934 239.375,245.934 240.426,245.934 241.553,244.679 242.482,244.679 243.39,244.679 244.471,244.679 245.477,244.679 246.543,244.679 248.355,243.424 248.523,243.424 249.577,243.424 250.582,243.424 251.572,243.424 252.624,243.424 253.644,242.587 254.665,242.587 255.67,242.587 256.63,240.914 257.757,240.914 258.93,239.24 260.712,237.567 260.91,237.567 261.839,234.638 263.119,233.801 263.987,232.964 264.962,227.944 265.988,226.27 266.963,225.015 268.16,223.341 269.028,216.647 270.197,214.973 271.276,212.881 272.398,206.187 273.327,204.513 274.394,202.84 275.362,197.819 276.367,197.819 277.403,194.054 278.454,192.798 279.475,192.798 280.495,192.798 281.531,192.798 282.582,192.798 283.587,194.054 284.806,194.054 285.735,194.89 286.695,194.89 287.685,194.89 288.751,194.89 289.787,194.89 290.975,194.89 291.858,194.89 292.99,194.89 293.943,194.89 295.025,195.727 296.913,195.727 297.416,195.727 298.475,195.727 299.45,195.727 300.555,196.564 301.545,196.982 302.612,196.982 303.571,196.982 304.775,196.982 305.689,196.982 306.648,196.982 307.608,196.982 309.055,196.982 310.03,196.982 310.974,196.982 311.995,196.982 313.015,196.982 313.99,196.982 314.973,196.982 315.887,196.982 316.794,197.819 317.815,197.819 318.85,197.819 320.221,197.819 320.959,197.819 321.98,197.819 322.94,197.819 323.929,197.819 324.967,197.819 326.011,199.074 327.123,199.074 328,199.074 329.021,201.166 330.072,201.166 331.077,204.095 332.707,204.932 334.048,208.697 335.204,210.371 336.254,211.626 337.274,217.484 338.279,219.157 339.316,220.831 340.321,228.362 341.25,230.454 342.225,232.546 343.584,240.914 344.585,242.587 345.545,242.587 346.441,251.374 347.508,252.629 348.468,255.976 349.376,255.976 350.316,256.813 351.382,258.068 352.457,258.068 353.668,258.068 354.658,257.231 355.572,257.231 356.973,257.231 357.002,257.231"/>
  </g>
  <clipPath id="cp00394295">
   <polygon points="0,295 394,295 394,0 0,0"/>
  </clipPath>
  <g clip-path="url(#cp00394295)">
   <polygon fill="#ffffff" shape-rendering="crispEdges" points="260.073,233.936 348.172,233.936 348.172,187.935 260.073,187.935"/>
   <polyline stroke="#262626" fill="none" stroke-linejoin="miter" stroke-linecap="square" stroke-width="0.5" stroke-dasharray="16,0" points="260.073,233.936 348.172,233.936"/>
   <polyline stroke="#262626" fill="none" stroke-linejoin="miter" stroke-linecap="square" stroke-width="0.5" stroke-dasharray="16,0" points="260.073,187.935 348.172,187.935"/>
   <polyline stroke="#262626" fill="none" stroke-linejoin="miter" stroke-linecap="square" stroke-width="0.5" stroke-dasharray="16,0" points="260.073,233.936 260.073,187.935"/>
   <polyline stroke="#262626" fill="none" stroke-linejoin="miter" stroke-linecap="square" stroke-width="0.5" stroke-dasharray="16,0" points="348.172,233.936 348.172,187.935"/>
   <polyline stroke="#0071bc" fill="none" stroke-linejoin="round" stroke-linecap="butt" stroke-width="0.5" points="264.335,197.197 285.647,197.197"/>
   <g xml:space="preserve" transform="translate(289.91,202.197) rotate(-0,-0,-5)" font-style="normal" font-weight="normal" font-size="9" font-family="FreeSans">
    <text fill="rgb(0,0,0)" x="0 6 8 15 20 22 27 32 " y="-2">Simulção</text>
   </g>
   <polyline stroke="#ff0000" fill="none" stroke-linejoin="round" stroke-linecap="butt" stroke-width="0.5" points="264.335,224.673 285.647,224.673"/>
   <g xml:space="preserve" transform="translate(289.91,229.673) rotate(-0,-0,-5)" font-style="normal" font-weight="normal" font-size="9" font-family="FreeSans">
    <text fill="rgb(0,0,0)" x="0 6 11 15 20 25 29 32 37 39 42 47 52 " y="-2">Resposta real</text>
   </g>
   <polyline stroke="#7f7f7f" fill="none" stroke-linejoin="round" stroke-linecap="butt" stroke-width="0.5" points="264.335,210.935 285.647,210.935"/>
   <g xml:space="preserve" transform="translate(289.91,214.935) rotate(-0,-0,-4)" font-style="normal" font-weight="normal" font-size="9" font-family="FreeSans">
    <text fill="rgb(0,0,0)" x="0 6 11 14 19 22 27 32 37 39 " y="-0">Referência</text>
   </g>
  </g>
 </g>
</svg>
