<?xml version='1.0' encoding='UTF-8' standalone='no'?>
<svg viewBox="0 0 435 324" height="324pt" width="435pt" xmlns="http://www.w3.org/2000/svg" xmlns:xlink="http://www.w3.org/1999/xlink">
 <title>gl2ps_renderer figure</title>
 <desc>
Creator: GL2PS 1.4.2, (C) 1999-2020 C. Geuzaine
For: Octave
CreationDate: Tue Jun 21 21:25:17 2022
</desc>
 <defs/>
 <polygon points="0,0 435,0 435,324 0,324" fill="#ffffff"/>
 <g>
  <polygon points="0,324 435,324 435,0 0,0" fill="#ffffff" shape-rendering="crispEdges"/>
  <clipPath id="cp00435324">
   <polygon points="0,324 435,324 435,0 0,0"/>
  </clipPath>
  <g clip-path="url(#cp00435324)">
   <polygon points="56.6003,289.237 394.025,289.237 394.025,24.3739 56.6003,24.3739" fill="#ffffff" shape-rendering="crispEdges"/>
   <polyline stroke-linejoin="miter" stroke="#191919" stroke-dasharray="1,3,1,3,1,3,1,3" stroke-width="0.5" points="70.0973,289.237 70.0973,24.3739" stroke-opacity="0.25" fill="none" stroke-linecap="butt"/>
   <polyline stroke-linejoin="miter" stroke="#191919" stroke-dasharray="1,3,1,3,1,3,1,3" stroke-width="0.5" points="83.5943,289.237 83.5943,24.3739" stroke-opacity="0.25" fill="none" stroke-linecap="butt"/>
   <polyline stroke-linejoin="miter" stroke="#191919" stroke-dasharray="1,3,1,3,1,3,1,3" stroke-width="0.5" points="97.0913,289.237 97.0913,24.3739" stroke-opacity="0.25" fill="none" stroke-linecap="butt"/>
   <polyline stroke-linejoin="miter" stroke="#191919" stroke-dasharray="1,3,1,3,1,3,1,3" stroke-width="0.5" points="110.588,289.237 110.588,24.3739" stroke-opacity="0.25" fill="none" stroke-linecap="butt"/>
   <polyline stroke-linejoin="miter" stroke="#191919" stroke-dasharray="1,3,1,3,1,3,1,3" stroke-width="0.5" points="137.582,289.237 137.582,24.3739" stroke-opacity="0.25" fill="none" stroke-linecap="butt"/>
   <polyline stroke-linejoin="miter" stroke="#191919" stroke-dasharray="1,3,1,3,1,3,1,3" stroke-width="0.5" points="151.079,289.237 151.079,24.3739" stroke-opacity="0.25" fill="none" stroke-linecap="butt"/>
   <polyline stroke-linejoin="miter" stroke="#191919" stroke-dasharray="1,3,1,3,1,3,1,3" stroke-width="0.5" points="164.576,289.237 164.576,24.3739" stroke-opacity="0.25" fill="none" stroke-linecap="butt"/>
   <polyline stroke-linejoin="miter" stroke="#191919" stroke-dasharray="1,3,1,3,1,3,1,3" stroke-width="0.5" points="178.073,289.237 178.073,24.3739" stroke-opacity="0.25" fill="none" stroke-linecap="butt"/>
   <polyline stroke-linejoin="miter" stroke="#191919" stroke-dasharray="1,3,1,3,1,3,1,3" stroke-width="0.5" points="205.067,289.237 205.067,24.3739" stroke-opacity="0.25" fill="none" stroke-linecap="butt"/>
   <polyline stroke-linejoin="miter" stroke="#191919" stroke-dasharray="1,3,1,3,1,3,1,3" stroke-width="0.5" points="218.564,289.237 218.564,24.3739" stroke-opacity="0.25" fill="none" stroke-linecap="butt"/>
   <polyline stroke-linejoin="miter" stroke="#191919" stroke-dasharray="1,3,1,3,1,3,1,3" stroke-width="0.5" points="232.061,289.237 232.061,24.3739" stroke-opacity="0.25" fill="none" stroke-linecap="butt"/>
   <polyline stroke-linejoin="miter" stroke="#191919" stroke-dasharray="1,3,1,3,1,3,1,3" stroke-width="0.5" points="245.558,289.237 245.558,24.3739" stroke-opacity="0.25" fill="none" stroke-linecap="butt"/>
   <polyline stroke-linejoin="miter" stroke="#191919" stroke-dasharray="1,3,1,3,1,3,1,3" stroke-width="0.5" points="272.552,289.237 272.552,24.3739" stroke-opacity="0.25" fill="none" stroke-linecap="butt"/>
   <polyline stroke-linejoin="miter" stroke="#191919" stroke-dasharray="1,3,1,3,1,3,1,3" stroke-width="0.5" points="286.049,289.237 286.049,24.3739" stroke-opacity="0.25" fill="none" stroke-linecap="butt"/>
   <polyline stroke-linejoin="miter" stroke="#191919" stroke-dasharray="1,3,1,3,1,3,1,3" stroke-width="0.5" points="299.546,289.237 299.546,24.3739" stroke-opacity="0.25" fill="none" stroke-linecap="butt"/>
   <polyline stroke-linejoin="miter" stroke="#191919" stroke-dasharray="1,3,1,3,1,3,1,3" stroke-width="0.5" points="313.043,289.237 313.043,24.3739" stroke-opacity="0.25" fill="none" stroke-linecap="butt"/>
   <polyline stroke-linejoin="miter" stroke="#191919" stroke-dasharray="1,3,1,3,1,3,1,3" stroke-width="0.5" points="340.037,289.237 340.037,24.3739" stroke-opacity="0.25" fill="none" stroke-linecap="butt"/>
   <polyline stroke-linejoin="miter" stroke="#191919" stroke-dasharray="1,3,1,3,1,3,1,3" stroke-width="0.5" points="353.534,289.237 353.534,24.3739" stroke-opacity="0.25" fill="none" stroke-linecap="butt"/>
   <polyline stroke-linejoin="miter" stroke="#191919" stroke-dasharray="1,3,1,3,1,3,1,3" stroke-width="0.5" points="367.031,289.237 367.031,24.3739" stroke-opacity="0.25" fill="none" stroke-linecap="butt"/>
   <polyline stroke-linejoin="miter" stroke="#191919" stroke-dasharray="1,3,1,3,1,3,1,3" stroke-width="0.5" points="380.528,289.237 380.528,24.3739" stroke-opacity="0.25" fill="none" stroke-linecap="butt"/>
   <polyline stroke-linejoin="miter" stroke="#191919" stroke-dasharray="1,3,1,3,1,3,1,3" stroke-width="0.5" points="56.6003,289.237 56.6003,24.3739" stroke-opacity="0.25" fill="none" stroke-linecap="butt"/>
   <polyline stroke-linejoin="miter" stroke="#191919" stroke-dasharray="1,3,1,3,1,3,1,3" stroke-width="0.5" points="124.085,289.237 124.085,24.3739" stroke-opacity="0.25" fill="none" stroke-linecap="butt"/>
   <polyline stroke-linejoin="miter" stroke="#191919" stroke-dasharray="1,3,1,3,1,3,1,3" stroke-width="0.5" points="191.57,289.237 191.57,24.3739" stroke-opacity="0.25" fill="none" stroke-linecap="butt"/>
   <polyline stroke-linejoin="miter" stroke="#191919" stroke-dasharray="1,3,1,3,1,3,1,3" stroke-width="0.5" points="259.055,289.237 259.055,24.3739" stroke-opacity="0.25" fill="none" stroke-linecap="butt"/>
   <polyline stroke-linejoin="miter" stroke="#191919" stroke-dasharray="1,3,1,3,1,3,1,3" stroke-width="0.5" points="326.54,289.237 326.54,24.3739" stroke-opacity="0.25" fill="none" stroke-linecap="butt"/>
   <polyline stroke-linejoin="miter" stroke="#191919" stroke-dasharray="1,3,1,3,1,3,1,3" stroke-width="0.5" points="394.025,289.237 394.025,24.3739" stroke-opacity="0.25" fill="none" stroke-linecap="butt"/>
   <polyline stroke-linejoin="miter" stroke="#262626" stroke-width="0.5" points="56.6003,289.237 56.6003,285.864" fill="none" stroke-linecap="butt"/>
   <polyline stroke-linejoin="miter" stroke="#262626" stroke-width="0.5" points="56.6003,24.3739 56.6003,27.7464" fill="none" stroke-linecap="butt"/>
   <polyline stroke-linejoin="miter" stroke="#262626" stroke-width="0.5" points="124.085,289.237 124.085,285.864" fill="none" stroke-linecap="butt"/>
   <polyline stroke-linejoin="miter" stroke="#262626" stroke-width="0.5" points="124.085,24.3739 124.085,27.7464" fill="none" stroke-linecap="butt"/>
   <polyline stroke-linejoin="miter" stroke="#262626" stroke-width="0.5" points="191.57,289.237 191.57,285.864" fill="none" stroke-linecap="butt"/>
   <polyline stroke-linejoin="miter" stroke="#262626" stroke-width="0.5" points="191.57,24.3739 191.57,27.7464" fill="none" stroke-linecap="butt"/>
   <polyline stroke-linejoin="miter" stroke="#262626" stroke-width="0.5" points="259.055,289.237 259.055,285.864" fill="none" stroke-linecap="butt"/>
   <polyline stroke-linejoin="miter" stroke="#262626" stroke-width="0.5" points="259.055,24.3739 259.055,27.7464" fill="none" stroke-linecap="butt"/>
   <polyline stroke-linejoin="miter" stroke="#262626" stroke-width="0.5" points="326.54,289.237 326.54,285.864" fill="none" stroke-linecap="butt"/>
   <polyline stroke-linejoin="miter" stroke="#262626" stroke-width="0.5" points="326.54,24.3739 326.54,27.7464" fill="none" stroke-linecap="butt"/>
   <polyline stroke-linejoin="miter" stroke="#262626" stroke-width="0.5" points="394.025,289.237 394.025,285.864" fill="none" stroke-linecap="butt"/>
   <polyline stroke-linejoin="miter" stroke="#262626" stroke-width="0.5" points="394.025,24.3739 394.025,27.7464" fill="none" stroke-linecap="butt"/>
   <text font-size="10" font-style="normal" font-family="FreeSans" transform="translate(47.6003,304.733) rotate(-0,9,-8)" font-weight="normal" xml:space="preserve">
    <tspan x="0 3 9 12 " fill="rgb(38,38,38)" y="-0">-0.1</tspan>
   </text>
   <text font-size="10" font-style="normal" font-family="FreeSans" transform="translate(112.085,304.733) rotate(-0,12,-8)" font-weight="normal" xml:space="preserve">
    <tspan x="0 3 9 12 18 " fill="rgb(38,38,38)" y="-0">-0.05</tspan>
   </text>
   <text font-size="10" font-style="normal" font-family="FreeSans" transform="translate(188.57,304.733) rotate(-0,3,-8)" font-weight="normal" xml:space="preserve">
    <tspan x="0 " fill="rgb(38,38,38)" y="-0">0</tspan>
   </text>
   <text font-size="10" font-style="normal" font-family="FreeSans" transform="translate(248.555,304.733) rotate(-0,10.5,-8)" font-weight="normal" xml:space="preserve">
    <tspan x="0 6 9 15 " fill="rgb(38,38,38)" y="-0">0.05</tspan>
   </text>
   <text font-size="10" font-style="normal" font-family="FreeSans" transform="translate(319.04,304.733) rotate(-0,7.5,-8)" font-weight="normal" xml:space="preserve">
    <tspan x="0 6 9 " fill="rgb(38,38,38)" y="-0">0.1</tspan>
   </text>
   <text font-size="10" font-style="normal" font-family="FreeSans" transform="translate(383.525,304.733) rotate(-0,10.5,-8)" font-weight="normal" xml:space="preserve">
    <tspan x="0 6 9 15 " fill="rgb(38,38,38)" y="-0">0.15</tspan>
   </text>
   <polyline stroke-linejoin="miter" stroke="#191919" stroke-dasharray="1,3,1,3,1,3,1,3" stroke-width="0.5" points="56.6003,275.994 394.025,275.994" stroke-opacity="0.25" fill="none" stroke-linecap="butt"/>
   <polyline stroke-linejoin="miter" stroke="#191919" stroke-dasharray="1,3,1,3,1,3,1,3" stroke-width="0.5" points="56.6003,262.751 394.025,262.751" stroke-opacity="0.25" fill="none" stroke-linecap="butt"/>
   <polyline stroke-linejoin="miter" stroke="#191919" stroke-dasharray="1,3,1,3,1,3,1,3" stroke-width="0.5" points="56.6003,249.507 394.025,249.507" stroke-opacity="0.25" fill="none" stroke-linecap="butt"/>
   <polyline stroke-linejoin="miter" stroke="#191919" stroke-dasharray="1,3,1,3,1,3,1,3" stroke-width="0.5" points="56.6003,236.264 394.025,236.264" stroke-opacity="0.25" fill="none" stroke-linecap="butt"/>
   <polyline stroke-linejoin="miter" stroke="#191919" stroke-dasharray="1,3,1,3,1,3,1,3" stroke-width="0.5" points="56.6003,209.778 394.025,209.778" stroke-opacity="0.25" fill="none" stroke-linecap="butt"/>
   <polyline stroke-linejoin="miter" stroke="#191919" stroke-dasharray="1,3,1,3,1,3,1,3" stroke-width="0.5" points="56.6003,196.535 394.025,196.535" stroke-opacity="0.25" fill="none" stroke-linecap="butt"/>
   <polyline stroke-linejoin="miter" stroke="#191919" stroke-dasharray="1,3,1,3,1,3,1,3" stroke-width="0.5" points="56.6003,183.292 394.025,183.292" stroke-opacity="0.25" fill="none" stroke-linecap="butt"/>
   <polyline stroke-linejoin="miter" stroke="#191919" stroke-dasharray="1,3,1,3,1,3,1,3" stroke-width="0.5" points="56.6003,170.049 394.025,170.049" stroke-opacity="0.25" fill="none" stroke-linecap="butt"/>
   <polyline stroke-linejoin="miter" stroke="#191919" stroke-dasharray="1,3,1,3,1,3,1,3" stroke-width="0.5" points="56.6003,143.562 394.025,143.562" stroke-opacity="0.25" fill="none" stroke-linecap="butt"/>
   <polyline stroke-linejoin="miter" stroke="#191919" stroke-dasharray="1,3,1,3,1,3,1,3" stroke-width="0.5" points="56.6003,130.319 394.025,130.319" stroke-opacity="0.25" fill="none" stroke-linecap="butt"/>
   <polyline stroke-linejoin="miter" stroke="#191919" stroke-dasharray="1,3,1,3,1,3,1,3" stroke-width="0.5" points="56.6003,117.076 394.025,117.076" stroke-opacity="0.25" fill="none" stroke-linecap="butt"/>
   <polyline stroke-linejoin="miter" stroke="#191919" stroke-dasharray="1,3,1,3,1,3,1,3" stroke-width="0.5" points="56.6003,103.833 394.025,103.833" stroke-opacity="0.25" fill="none" stroke-linecap="butt"/>
   <polyline stroke-linejoin="miter" stroke="#191919" stroke-dasharray="1,3,1,3,1,3,1,3" stroke-width="0.5" points="56.6003,77.3465 394.025,77.3465" stroke-opacity="0.25" fill="none" stroke-linecap="butt"/>
   <polyline stroke-linejoin="miter" stroke="#191919" stroke-dasharray="1,3,1,3,1,3,1,3" stroke-width="0.5" points="56.6003,64.1033 394.025,64.1033" stroke-opacity="0.25" fill="none" stroke-linecap="butt"/>
   <polyline stroke-linejoin="miter" stroke="#191919" stroke-dasharray="1,3,1,3,1,3,1,3" stroke-width="0.5" points="56.6003,50.8602 394.025,50.8602" stroke-opacity="0.25" fill="none" stroke-linecap="butt"/>
   <polyline stroke-linejoin="miter" stroke="#191919" stroke-dasharray="1,3,1,3,1,3,1,3" stroke-width="0.5" points="56.6003,37.617 394.025,37.617" stroke-opacity="0.25" fill="none" stroke-linecap="butt"/>
   <polyline stroke-linejoin="miter" stroke="#191919" stroke-dasharray="1,3,1,3,1,3,1,3" stroke-width="0.5" points="56.6003,289.237 394.025,289.237" stroke-opacity="0.25" fill="none" stroke-linecap="butt"/>
   <polyline stroke-linejoin="miter" stroke="#191919" stroke-dasharray="1,3,1,3,1,3,1,3" stroke-width="0.5" points="56.6003,223.021 394.025,223.021" stroke-opacity="0.25" fill="none" stroke-linecap="butt"/>
   <polyline stroke-linejoin="miter" stroke="#191919" stroke-dasharray="1,3,1,3,1,3,1,3" stroke-width="0.5" points="56.6003,156.805 394.025,156.805" stroke-opacity="0.25" fill="none" stroke-linecap="butt"/>
   <polyline stroke-linejoin="miter" stroke="#191919" stroke-dasharray="1,3,1,3,1,3,1,3" stroke-width="0.5" points="56.6003,90.5896 394.025,90.5896" stroke-opacity="0.25" fill="none" stroke-linecap="butt"/>
   <polyline stroke-linejoin="miter" stroke="#191919" stroke-dasharray="1,3,1,3,1,3,1,3" stroke-width="0.5" points="56.6003,24.3739 394.025,24.3739" stroke-opacity="0.25" fill="none" stroke-linecap="butt"/>
   <polyline stroke-linejoin="miter" stroke="#262626" stroke-width="0.5" points="56.6003,289.237 59.9788,289.237" fill="none" stroke-linecap="butt"/>
   <polyline stroke-linejoin="miter" stroke="#262626" stroke-width="0.5" points="394.025,289.237 390.647,289.237" fill="none" stroke-linecap="butt"/>
   <polyline stroke-linejoin="miter" stroke="#262626" stroke-width="0.5" points="56.6003,223.021 59.9788,223.021" fill="none" stroke-linecap="butt"/>
   <polyline stroke-linejoin="miter" stroke="#262626" stroke-width="0.5" points="394.025,223.021 390.647,223.021" fill="none" stroke-linecap="butt"/>
   <polyline stroke-linejoin="miter" stroke="#262626" stroke-width="0.5" points="56.6003,156.805 59.9788,156.805" fill="none" stroke-linecap="butt"/>
   <polyline stroke-linejoin="miter" stroke="#262626" stroke-width="0.5" points="394.025,156.805 390.647,156.805" fill="none" stroke-linecap="butt"/>
   <polyline stroke-linejoin="miter" stroke="#262626" stroke-width="0.5" points="56.6003,90.5896 59.9788,90.5896" fill="none" stroke-linecap="butt"/>
   <polyline stroke-linejoin="miter" stroke="#262626" stroke-width="0.5" points="394.025,90.5896 390.647,90.5896" fill="none" stroke-linecap="butt"/>
   <polyline stroke-linejoin="miter" stroke="#262626" stroke-width="0.5" points="56.6003,24.3739 59.9788,24.3739" fill="none" stroke-linecap="butt"/>
   <polyline stroke-linejoin="miter" stroke="#262626" stroke-width="0.5" points="394.025,24.3739 390.647,24.3739" fill="none" stroke-linecap="butt"/>
   <text font-size="10" font-style="normal" font-family="FreeSans" transform="translate(33.594,293.237) rotate(-0,18,-4)" font-weight="normal" xml:space="preserve">
    <tspan x="0 3 9 12 " fill="rgb(38,38,38)" y="-0">-0.1</tspan>
   </text>
   <text font-size="10" font-style="normal" font-family="FreeSans" transform="translate(27.594,227.021) rotate(-0,24,-4)" font-weight="normal" xml:space="preserve">
    <tspan x="0 3 9 12 18 " fill="rgb(38,38,38)" y="-0">-0.05</tspan>
   </text>
   <text font-size="10" font-style="normal" font-family="FreeSans" transform="translate(45.594,160.805) rotate(-0,6,-4)" font-weight="normal" xml:space="preserve">
    <tspan x="0 " fill="rgb(38,38,38)" y="-0">0</tspan>
   </text>
   <text font-size="10" font-style="normal" font-family="FreeSans" transform="translate(30.594,94.5896) rotate(-0,21,-4)" font-weight="normal" xml:space="preserve">
    <tspan x="0 6 9 15 " fill="rgb(38,38,38)" y="-0">0.05</tspan>
   </text>
   <text font-size="10" font-style="normal" font-family="FreeSans" transform="translate(36.594,28.3739) rotate(-0,15,-4)" font-weight="normal" xml:space="preserve">
    <tspan x="0 6 9 " fill="rgb(38,38,38)" y="-0">0.1</tspan>
   </text>
   <polyline stroke-linejoin="miter" stroke="#262626" stroke-dasharray="16,0" stroke-width="0.5" points="56.6003,289.237 394.025,289.237" fill="none" stroke-linecap="square"/>
   <polyline stroke-linejoin="miter" stroke="#262626" stroke-dasharray="16,0" stroke-width="0.5" points="56.6003,24.3739 394.025,24.3739" fill="none" stroke-linecap="square"/>
   <polyline stroke-linejoin="miter" stroke="#262626" stroke-dasharray="16,0" stroke-width="0.5" points="56.6003,289.237 56.6003,24.3739" fill="none" stroke-linecap="square"/>
   <polyline stroke-linejoin="miter" stroke="#262626" stroke-dasharray="16,0" stroke-width="0.5" points="394.025,289.237 394.025,24.3739" fill="none" stroke-linecap="square"/>
   <text font-size="11" font-style="normal" font-family="FreeSans" transform="translate(182.313,321.733) rotate(-0,43,-12)" font-weight="normal" xml:space="preserve">
    <tspan x="0 7 13 18 20 26 32 38 41 47 56 59 66 69 73 82 " fill="rgb(38,38,38)" y="-3">Posição em X (m)</tspan>
   </text>
   <text font-size="11" font-style="normal" font-family="FreeSans" transform="translate(-20.406,156.805) rotate(-90,43,0)" font-weight="normal" xml:space="preserve">
    <tspan x="0 7 13 18 20 26 32 38 41 47 56 59 66 69 73 82 " fill="rgb(38,38,38)" y="-3">Posição em Y (m)</tspan>
   </text>
   <text font-size="11" font-style="normal" font-family="FreeSans" transform="translate(154.313,14.3739) rotate(-0,71,0)" font-weight="bold" xml:space="preserve">
    <tspan x="0 7 14 20 23 29 35 42 46 53 57 60 67 73 76 82 85 92 99 105 108 114 120 127 131 138 " fill="rgb(0,0,0)" y="-3">Posição(X) pela Posição(Y)</tspan>
   </text>
   <polyline stroke-linejoin="round" stroke="#0071bc" stroke-width="0.5" points="191.57,156.805 191.57,156.805 191.57,156.805 191.57,156.805 191.57,156.805 191.57,156.805 191.57,156.805 191.57,156.805 191.57,156.805 191.57,156.805 191.57,156.805 191.206,157.162 189.394,158.981 185.211,163.335 178.9,170.273 171.471,179.101 163.951,189.028 157.142,199.392 151.611,209.685 147.727,219.54 145.702,228.697 145.625,236.988 147.498,244.314 151.253,250.631 156.773,255.938 163.908,260.267 172.488,263.671 182.335,266.223 193.264,268.005 205.077,269.102 217.496,269.606 230.129,269.604 242.533,269.183 254.315,268.422 265.186,267.396 274.957,266.172 283.522,264.812 290.842,263.368 296.924,261.885 301.818,260.402 305.597,258.951 308.355,257.558 310.194,256.241 311.226,255.016 311.56,253.893 311.308,252.878 310.572,251.973 309.45,251.138 308.034,250.202 306.403,248.871 304.629,246.845 302.776,243.901 300.896,239.904 299.035,234.798 297.229,228.581 295.507,221.297 293.891,213.015 292.396,203.829 291.034,193.841 289.811,183.159 288.726,171.893 287.78,160.149 286.968,148.029 286.283,135.625 285.717,123.042 285.261,110.458 284.906,98.169 284.64,86.5217 284.453,75.8184 284.335,66.2676 284.277,57.9865 284.268,51.0179 284.3,45.3482 284.364,40.922 284.454,37.6545 284.563,35.4413 284.685,34.1663 284.815,33.7082 284.948,33.945 285.082,34.7581 285.212,36.0351 285.338,37.6713 285.415,39.5717 285.271,41.6513 284.611,43.8353 283.133,46.0598 280.617,48.2706 276.935,50.4232 272.036,52.4822 265.928,54.4203 258.664,56.2176 250.325,57.8606 241.013,59.3417 230.841,60.6579 219.928,61.8105 208.391,62.804 196.345,63.6455 183.899,64.3441 171.153,64.9106 158.217,65.3564 145.279,65.6936 132.639,65.9346 120.657,66.0916 109.641,66.1762 99.8058,66.1998 91.2717,66.173 84.0833,66.1054 78.227,66.006 73.6467,65.8827 70.2558,65.7425 67.9478,65.5916 66.604,65.4354 66.1002,65.278 66.3117,65.1234 67.1169,64.9742 68.4005,64.833 70.0554,64.7012 71.9839,64.621 74.0989,64.76 76.3236,65.4084 78.5921,66.8615 80.8489,69.3351 83.048,72.9543 85.1531,77.7684 87.1358,83.7686 88.9755,90.904 90.6583,99.094 92.1761,108.239 93.5258,118.227 94.7084,128.943 95.7284,140.27 96.593,152.095 97.3114,164.312 97.8945,176.824 98.3541,189.521 98.7024,202.22 98.9519,214.625 99.1152,226.385 99.2043,237.196 99.2307,246.848 99.2051,255.223 99.1376,262.277 99.0373,268.024 98.9123,272.519 98.7699,275.846 98.6162,278.111 98.4569,279.429 98.2963,279.923 98.1383,279.715 97.9859,278.924 97.8414,277.664 97.7065,276.04 97.5826,274.147 97.5118,272.071 97.6649,269.888 98.3371,267.662 99.8293,265.447 102.361,263.289 106.06,261.223 110.976,259.277 117.1,257.471 124.38,255.82 132.734,254.33 142.06,253.006 152.245,251.845 163.171,250.844 174.718,249.996 186.773,249.291 199.228,248.719 211.981,248.268 224.922,247.926 237.866,247.681 250.509,247.521 262.495,247.434 273.513,247.408 283.349,247.433 291.884,247.499 299.073,247.598 304.93,247.72 309.51,247.86 312.9,248.011 315.207,248.167 316.55,248.325 317.052,248.48 316.84,248.63 316.033,248.771 314.749,248.904 313.092,249.025 311.163,249.095 309.047,248.945 306.821,248.285 304.552,246.821 302.294,244.337 300.094,240.708 297.989,235.884 296.005,229.875 294.165,222.732 292.482,214.535 290.964,205.384 289.614,195.391 288.431,184.671 287.411,173.34 286.546,161.512 285.828,149.292 285.245,136.779 284.785,124.081 284.437,111.38 284.188,98.9751 284.024,87.215 283.935,76.4041 283.909,66.7523 283.935,58.3778 284.002,51.3242 284.103,45.5781 284.228,41.0842 284.37,37.7578 284.524,35.494 284.683,34.1765 284.844,33.6833 285.002,33.8919 285.155,34.6831 285.299,35.9438 285.434,37.5687 285.516,39.4621 285.375,41.5383 284.715,43.7221 283.235,45.9489 280.714,48.1639 277.026,50.3225 272.12,52.3885 266.006,54.3345 258.734,56.14 250.387,57.7915 241.067,59.2811 230.888,60.6056 219.967,61.7661 208.423,62.7671 196.371,63.6155 183.92,64.3205 171.168,64.8926 158.228,65.3435 145.286,65.6852 132.643,65.93 120.658,66.0901 109.639,66.1775 99.8023,66.2032 91.2667,66.1781 84.0772,66.1118 78.2201,66.0133 73.6393,65.8906 70.2482,65.7507 67.9402,65.5999 66.5965,65.4435 66.0931,65.2859 66.3049,65.1308 67.1106,64.9812 68.3947,64.8394 70.0502,64.707 71.9793,64.6262 74.0948,64.7646 76.3201,65.4123 78.5891,66.8648 80.8464,69.3378 83.046,72.9566 85.1515,77.7702 87.1346,83.77 88.9746,90.905 90.6577,99.0947 92.1758,108.239 93.5257,118.227 94.7084,128.943 95.7286,140.269 96.5933,152.094 97.3119,164.312 97.895,176.824 98.3546,189.52 98.7029,202.219 98.9525,214.624 99.1158,226.384 99.2048,237.195 99.2312,246.847 99.2056,255.222 99.1381,262.277 99.0377,268.024 98.9126,272.518 98.7701,275.846 98.6165,278.11 98.4571,279.429 98.2965,279.923 98.1385,279.715 97.986,278.924 97.8415,277.664 97.7066,276.04 97.5826,274.147 97.5118,272.071 97.6649,269.888 98.3371,267.662 99.8293,265.447 102.361,263.289 106.06,261.223 110.976,259.277 117.1,257.471 124.38,255.82 132.734,254.33 142.06,253.006 152.245,251.845 163.171,250.845 174.718,249.996 186.773,249.291 199.228,248.719 211.981,248.268 224.922,247.926 237.866,247.681 250.509,247.521 262.495,247.434 273.513,247.408 283.349,247.433 291.884,247.499 299.073,247.598 304.93,247.72 309.51,247.86 312.9,248.011 315.207,248.167 316.55,248.325 317.052,248.48 316.84,248.63 316.033,248.771 314.749,248.904 313.092,249.025 311.163,249.095 309.047,248.945 306.821,248.285 304.552,246.821 302.294,244.337 300.094,240.708 297.989,235.884 296.005,229.875 294.165,222.732 292.482,214.535 290.964,205.384 289.614,195.391 288.431,184.671 287.411,173.34 286.546,161.512 285.828,149.292 285.245,136.779 284.785,124.081 284.437,111.38 284.188,98.9751 284.024,87.215 283.935,76.4041 283.909,66.7523 283.935,58.3778 284.002,51.3242 284.103,45.5781 284.228,41.0842 284.37,37.7578 284.524,35.494 284.683,34.1765 284.844,33.6833 285.002,33.8919 285.155,34.6831 285.299,35.9438 285.434,37.5687 285.516,39.4621 285.375,41.5383 284.715,43.7221 283.235,45.9489 280.714,48.1639 277.026,50.3225 272.12,52.3885 266.006,54.3345 258.734,56.14 250.387,57.7915 241.067,59.2811 230.888,60.6056 219.967,61.7661 208.423,62.7671 196.371,63.6155 183.92,64.3205 171.168,64.8926 158.228,65.3435 145.286,65.6852 132.643,65.93 120.658,66.0901 109.639,66.1775 99.8023,66.2032 91.2667,66.1781 84.0772,66.1118 78.2201,66.0133 73.6393,65.8906 70.2482,65.7507 67.9402,65.5999 66.5965,65.4435 66.0931,65.2859 66.3049,65.1308 67.1106,64.9812 68.3947,64.8394 70.0502,64.707 71.9793,64.6262 74.0948,64.7646 76.3201,65.4123 78.5891,66.8648 80.8464,69.3378 83.046,72.9566 85.1515,77.7702 87.1346,83.77 88.9746,90.905 90.6577,99.0947 92.1758,108.239 93.5257,118.227 94.7084,128.943 95.7286,140.269 96.5933,152.094 97.3119,164.312 97.895,176.824 98.3546,189.52 98.7029,202.219 98.9525,214.624 99.1158,226.384 99.2048,237.195 99.2312,246.847 99.2056,255.222 99.1381,262.277 99.0377,268.024 98.9126,272.518 98.7701,275.846 98.6165,278.11 98.4571,279.429 98.2965,279.923 98.1385,279.715 97.986,278.924 97.8415,277.664 97.7066,276.04 97.5826,274.147 97.5118,272.071 97.6649,269.888 98.3371,267.662 99.8293,265.447 102.361,263.289 106.06,261.223 110.976,259.277 117.1,257.471 124.38,255.82 132.734,254.33 142.06,253.006 152.245,251.845 163.171,250.845 174.718,249.996 186.773,249.291 199.228,248.719 211.981,248.268 224.922,247.926 237.866,247.681 250.509,247.521 262.495,247.434 273.513,247.408 283.349,247.433 291.884,247.499 299.073,247.598 304.93,247.72 309.51,247.86 312.9,248.011 315.207,248.167 316.55,248.325 317.052,248.48 316.84,248.63 316.033,248.771 314.749,248.904 313.092,249.025 311.163,249.095 309.047,248.945 306.821,248.285 304.552,246.821 302.294,244.337 300.094,240.708 297.989,235.884 296.005,229.875 294.165,222.732 292.482,214.535 290.964,205.384 289.614,195.391 288.431,184.671 287.411,173.34 286.546,161.512 285.828,149.292 285.245,136.779 284.785,124.081 284.437,111.38 284.188,98.9751 284.024,87.215 283.935,76.4041 283.909,66.7523 283.935,58.3778 284.002,51.3242 284.103,45.5781 284.228,41.0842 284.37,37.7578 284.524,35.494 284.683,34.1765 284.844,33.6833 285.002,33.8919 285.155,34.6831 285.299,35.9438 285.434,37.5687 285.516,39.4621 285.375,41.5383 284.715,43.7221 283.235,45.9489 280.714,48.1639 277.026,50.3225 272.12,52.3885 266.006,54.3345 258.734,56.14 250.387,57.7915 241.067,59.2811 230.888,60.6056 219.967,61.7661 208.423,62.7671 196.371,63.6155 183.92,64.3205 171.168,64.8926 158.228,65.3435 145.286,65.6852 132.643,65.93 120.658,66.0901 109.639,66.1775 99.8023,66.2032 91.2667,66.1781 84.0772,66.1118 78.2201,66.0133 73.6393,65.8906 70.2482,65.7507 67.9402,65.5999 66.5965,65.4435 66.0931,65.2859 66.3049,65.1308 67.1106,64.9812 68.3947,64.8394 70.0502,64.707 71.9793,64.6262 74.0948,64.7646 76.3201,65.4123 78.5891,66.8648 80.8464,69.3378 83.046,72.9566 85.1515,77.7702 87.1346,83.77 88.9746,90.905 90.6577,99.0947 92.1758,108.239 93.5257,118.227 94.7084,128.943 95.7286,140.269 96.5933,152.094 97.3119,164.312 97.895,176.824 98.3546,189.52 98.7029,202.219 98.9525,214.624 99.1158,226.384 99.2048,237.195 99.2312,246.847 99.2056,255.222 99.1381,262.277 99.0377,268.024 98.9126,272.518 98.7701,275.846 98.6165,278.11 98.4571,279.429 98.2965,279.923 98.1385,279.715 97.986,278.924 97.8415,277.664 97.7066,276.04 97.5826,274.147 97.5118,272.071 97.6649,269.888 98.3371,267.662 99.8293,265.447 102.361,263.289 106.06,261.223 110.976,259.277 117.1,257.471 124.38,255.82 132.734,254.33 142.06,253.006 152.245,251.845 163.171,250.845 174.718,249.996 186.773,249.291 199.228,248.719 211.981,248.268 224.922,247.926 237.866,247.681 250.509,247.521 262.495,247.434 273.513,247.408 283.349,247.433 291.884,247.499 299.073,247.598 304.93,247.72 309.51,247.86 312.9,248.011 315.207,248.167 316.55,248.325 317.052,248.48 316.84,248.63 316.033,248.771 314.749,248.904 313.092,249.025 311.163,249.095 309.047,248.945 306.821,248.285 304.552,246.821 302.294,244.337 300.094,240.708 297.989,235.884 296.005,229.875 294.165,222.732 292.482,214.535 290.964,205.384 289.614,195.391 288.431,184.671 287.411,173.34 286.546,161.512 285.828,149.292 285.245,136.779 284.785,124.081 284.437,111.38 284.188,98.9751 284.024,87.215 283.935,76.4041 283.909,66.7523 283.935,58.3778 284.002,51.3242 284.103,45.5781 284.228,41.0842 284.37,37.7578 284.524,35.494 284.683,34.1765 284.844,33.6833 285.002,33.8919 285.155,34.6831 285.299,35.9438 285.434,37.5687 285.516,39.4621 285.375,41.5383 284.715,43.7221 283.235,45.9489 280.714,48.1639 277.026,50.3225 272.12,52.3885 266.006,54.3345 258.734,56.14 250.387,57.7915 241.067,59.2811 230.888,60.6056 219.967,61.7661 208.423,62.7671 196.371,63.6155 183.92,64.3205 171.168,64.8926 158.228,65.3435 145.286,65.6852 132.643,65.93 120.658,66.0901 109.639,66.1775 99.8023,66.2032 91.2667,66.1781 84.0772,66.1118 78.2201,66.0133 73.6393,65.8906 70.2482,65.7507 67.9402,65.5999 66.5965,65.4435 66.0931,65.2859 66.3049,65.1308 67.1106,64.9812 68.3947,64.8394 70.0502,64.707 71.9793,64.6262 74.0948,64.7646 76.3201,65.4123 78.5891,66.8648 80.8464,69.3378 83.046,72.9566 85.1515,77.7702 87.1346,83.77 88.9746,90.905 90.6577,99.0947 92.1758,108.239 93.5257,118.227 94.7084,128.943 95.7286,140.269 96.5933,152.094 97.3119,164.312 97.895,176.824 98.3546,189.52 98.7029,202.219 98.9525,214.624 99.1158,226.384 99.2048,237.195 99.2312,246.847 99.2056,255.222 99.1381,262.277 99.0377,268.024 98.9126,272.518 98.7701,275.846 98.6165,278.11 98.4571,279.429 98.2965,279.923 98.1385,279.715 97.986,278.924 97.8415,277.664 97.7066,276.04 97.5826,274.147 97.5118,272.071 97.6649,269.888 98.3371,267.662 99.8293,265.447 102.361,263.289 106.06,261.223 110.976,259.277 117.1,257.471 124.38,255.82 132.734,254.33 142.06,253.006 152.245,251.845 163.171,250.845 174.718,249.996 186.773,249.291 199.228,248.719 211.981,248.268 224.922,247.926 237.866,247.681 250.509,247.521 262.495,247.434 273.513,247.408 283.349,247.433 291.884,247.499 299.073,247.598 304.93,247.72 309.51,247.86 312.9,248.011 315.207,248.167 316.55,248.325 317.052,248.48 316.84,248.63 316.033,248.771 314.749,248.904 313.092,249.025 311.163,249.136 309.047,249.234 306.821,249.321 304.552,249.396 302.294,249.46 300.094,249.513 297.989,249.557 296.005,249.591 294.165,249.618 292.482,249.637 290.964,249.65 289.614,249.657 288.431,249.66 287.411,249.659 286.546,249.655 285.828,249.648 285.245,249.64 284.785,249.63 284.437,249.619 284.188,249.608 284.024,249.596 283.935,249.585" fill="none" stroke-linecap="butt"/>
   <polyline stroke-linejoin="round" stroke="#000000" stroke-width="0.5" points="191.57,156.805 191.57,156.805 191.57,156.805 191.57,156.805 191.57,156.805 191.57,156.805 191.57,156.805 191.57,156.805 191.57,156.805 191.57,156.805 97.0913,249.507 107.889,249.507 118.686,249.507 129.484,249.507 140.282,249.507 151.079,249.507 161.877,249.507 172.674,249.507 183.472,249.507 194.27,249.507 205.067,249.507 215.865,249.507 226.662,249.507 237.46,249.507 248.258,249.507 259.055,249.507 269.853,249.507 280.65,249.507 286.049,249.507 286.049,249.507 286.049,249.507 286.049,249.507 286.049,249.507 286.049,249.507 286.049,249.507 286.049,249.507 286.049,249.507 286.049,249.507 286.049,249.507 286.049,249.507 286.049,249.507 286.049,249.507 286.049,249.507 286.049,249.507 286.049,249.507 286.049,249.507 286.049,238.913 286.049,228.318 286.049,217.724 286.049,207.129 286.049,196.535 286.049,185.94 286.049,175.346 286.049,164.751 286.049,154.157 286.049,143.562 286.049,132.968 286.049,122.373 286.049,111.779 286.049,101.184 286.049,90.5896 286.049,79.9951 286.049,69.4006 286.049,64.1033 286.049,64.1033 286.049,64.1033 286.049,64.1033 286.049,64.1033 286.049,64.1033 286.049,64.1033 286.049,64.1033 286.049,64.1033 286.049,64.1033 286.049,64.1033 286.049,64.1033 286.049,64.1033 286.049,64.1033 286.049,64.1033 286.049,64.1033 286.049,64.1033 286.049,64.1033 275.252,64.1033 264.454,64.1033 253.656,64.1033 242.859,64.1033 232.061,64.1033 221.264,64.1033 210.466,64.1033 199.668,64.1033 188.871,64.1033 178.073,64.1033 167.276,64.1033 156.478,64.1033 145.68,64.1033 134.883,64.1033 124.085,64.1033 113.288,64.1033 102.49,64.1033 97.0913,64.1033 97.0913,64.1033 97.0913,64.1033 97.0913,64.1033 97.0913,64.1033 97.0913,64.1033 97.0913,64.1033 97.0913,64.1033 97.0913,64.1033 97.0913,64.1033 97.0913,64.1033 97.0913,64.1033 97.0913,64.1033 97.0913,64.1033 97.0913,64.1033 97.0913,64.1033 97.0913,64.1033 97.0913,64.1033 97.0913,74.6979 97.0913,85.2924 97.0913,95.8869 97.0913,106.481 97.0913,117.076 97.0913,127.67 97.0913,138.265 97.0913,148.859 97.0913,159.454 97.0913,170.049 97.0913,180.643 97.0913,191.238 97.0913,201.832 97.0913,212.427 97.0913,223.021 97.0913,233.616 97.0913,244.21 97.0913,249.507 97.0913,249.507 97.0913,249.507 97.0913,249.507 97.0913,249.507 97.0913,249.507 97.0913,249.507 97.0913,249.507 97.0913,249.507 97.0913,249.507 97.0913,249.507 97.0913,249.507 97.0913,249.507 97.0913,249.507 97.0913,249.507 97.0913,249.507 97.0913,249.507 97.0913,249.507 97.0913,249.507 107.889,249.507 118.686,249.507 129.484,249.507 140.282,249.507 151.079,249.507 161.877,249.507 172.674,249.507 183.472,249.507 194.27,249.507 205.067,249.507 215.865,249.507 226.662,249.507 237.46,249.507 248.258,249.507 259.055,249.507 269.853,249.507 280.65,249.507 286.049,249.507 286.049,249.507 286.049,249.507 286.049,249.507 286.049,249.507 286.049,249.507 286.049,249.507 286.049,249.507 286.049,249.507 286.049,249.507 286.049,249.507 286.049,249.507 286.049,249.507 286.049,249.507 286.049,249.507 286.049,249.507 286.049,249.507 286.049,249.507 286.049,238.913 286.049,228.318 286.049,217.724 286.049,207.129 286.049,196.535 286.049,185.94 286.049,175.346 286.049,164.751 286.049,154.157 286.049,143.562 286.049,132.968 286.049,122.373 286.049,111.779 286.049,101.184 286.049,90.5896 286.049,79.9951 286.049,69.4006 286.049,64.1033 286.049,64.1033 286.049,64.1033 286.049,64.1033 286.049,64.1033 286.049,64.1033 286.049,64.1033 286.049,64.1033 286.049,64.1033 286.049,64.1033 286.049,64.1033 286.049,64.1033 286.049,64.1033 286.049,64.1033 286.049,64.1033 286.049,64.1033 286.049,64.1033 286.049,64.1033 275.252,64.1033 264.454,64.1033 253.656,64.1033 242.859,64.1033 232.061,64.1033 221.264,64.1033 210.466,64.1033 199.668,64.1033 188.871,64.1033 178.073,64.1033 167.276,64.1033 156.478,64.1033 145.68,64.1033 134.883,64.1033 124.085,64.1033 113.288,64.1033 102.49,64.1033 97.0913,64.1033 97.0913,64.1033 97.0913,64.1033 97.0913,64.1033 97.0913,64.1033 97.0913,64.1033 97.0913,64.1033 97.0913,64.1033 97.0913,64.1033 97.0913,64.1033 97.0913,64.1033 97.0913,64.1033 97.0913,64.1033 97.0913,64.1033 97.0913,64.1033 97.0913,64.1033 97.0913,64.1033 97.0913,64.1033 97.0913,74.6979 97.0913,85.2924 97.0913,95.8869 97.0913,106.481 97.0913,117.076 97.0913,127.67 97.0913,138.265 97.0913,148.859 97.0913,159.454 97.0913,170.049 97.0913,180.643 97.0913,191.238 97.0913,201.832 97.0913,212.427 97.0913,223.021 97.0913,233.616 97.0913,244.21 97.0913,249.507 97.0913,249.507 97.0913,249.507 97.0913,249.507 97.0913,249.507 97.0913,249.507 97.0913,249.507 97.0913,249.507 97.0913,249.507 97.0913,249.507 97.0913,249.507 97.0913,249.507 97.0913,249.507 97.0913,249.507 97.0913,249.507 97.0913,249.507 97.0913,249.507 97.0913,249.507 97.0913,249.507 107.889,249.507 118.686,249.507 129.484,249.507 140.282,249.507 151.079,249.507 161.877,249.507 172.674,249.507 183.472,249.507 194.27,249.507 205.067,249.507 215.865,249.507 226.662,249.507 237.46,249.507 248.258,249.507 259.055,249.507 269.853,249.507 280.65,249.507 286.049,249.507 286.049,249.507 286.049,249.507 286.049,249.507 286.049,249.507 286.049,249.507 286.049,249.507 286.049,249.507 286.049,249.507 286.049,249.507 286.049,249.507 286.049,249.507 286.049,249.507 286.049,249.507 286.049,249.507 286.049,249.507 286.049,249.507 286.049,249.507 286.049,238.913 286.049,228.318 286.049,217.724 286.049,207.129 286.049,196.535 286.049,185.94 286.049,175.346 286.049,164.751 286.049,154.157 286.049,143.562 286.049,132.968 286.049,122.373 286.049,111.779 286.049,101.184 286.049,90.5896 286.049,79.9951 286.049,69.4006 286.049,64.1033 286.049,64.1033 286.049,64.1033 286.049,64.1033 286.049,64.1033 286.049,64.1033 286.049,64.1033 286.049,64.1033 286.049,64.1033 286.049,64.1033 286.049,64.1033 286.049,64.1033 286.049,64.1033 286.049,64.1033 286.049,64.1033 286.049,64.1033 286.049,64.1033 286.049,64.1033 275.252,64.1033 264.454,64.1033 253.656,64.1033 242.859,64.1033 232.061,64.1033 221.264,64.1033 210.466,64.1033 199.668,64.1033 188.871,64.1033 178.073,64.1033 167.276,64.1033 156.478,64.1033 145.68,64.1033 134.883,64.1033 124.085,64.1033 113.288,64.1033 102.49,64.1033 97.0913,64.1033 97.0913,64.1033 97.0913,64.1033 97.0913,64.1033 97.0913,64.1033 97.0913,64.1033 97.0913,64.1033 97.0913,64.1033 97.0913,64.1033 97.0913,64.1033 97.0913,64.1033 97.0913,64.1033 97.0913,64.1033 97.0913,64.1033 97.0913,64.1033 97.0913,64.1033 97.0913,64.1033 97.0913,64.1033 97.0913,74.6979 97.0913,85.2924 97.0913,95.8869 97.0913,106.481 97.0913,117.076 97.0913,127.67 97.0913,138.265 97.0913,148.859 97.0913,159.454 97.0913,170.049 97.0913,180.643 97.0913,191.238 97.0913,201.832 97.0913,212.427 97.0913,223.021 97.0913,233.616 97.0913,244.21 97.0913,249.507 97.0913,249.507 97.0913,249.507 97.0913,249.507 97.0913,249.507 97.0913,249.507 97.0913,249.507 97.0913,249.507 97.0913,249.507 97.0913,249.507 97.0913,249.507 97.0913,249.507 97.0913,249.507 97.0913,249.507 97.0913,249.507 97.0913,249.507 97.0913,249.507 97.0913,249.507 97.0913,249.507 107.889,249.507 118.686,249.507 129.484,249.507 140.282,249.507 151.079,249.507 161.877,249.507 172.674,249.507 183.472,249.507 194.27,249.507 205.067,249.507 215.865,249.507 226.662,249.507 237.46,249.507 248.258,249.507 259.055,249.507 269.853,249.507 280.65,249.507 286.049,249.507 286.049,249.507 286.049,249.507 286.049,249.507 286.049,249.507 286.049,249.507 286.049,249.507 286.049,249.507 286.049,249.507 286.049,249.507 286.049,249.507 286.049,249.507 286.049,249.507 286.049,249.507 286.049,249.507 286.049,249.507 286.049,249.507 286.049,249.507 286.049,238.913 286.049,228.318 286.049,217.724 286.049,207.129 286.049,196.535 286.049,185.94 286.049,175.346 286.049,164.751 286.049,154.157 286.049,143.562 286.049,132.968 286.049,122.373 286.049,111.779 286.049,101.184 286.049,90.5896 286.049,79.9951 286.049,69.4006 286.049,64.1033 286.049,64.1033 286.049,64.1033 286.049,64.1033 286.049,64.1033 286.049,64.1033 286.049,64.1033 286.049,64.1033 286.049,64.1033 286.049,64.1033 286.049,64.1033 286.049,64.1033 286.049,64.1033 286.049,64.1033 286.049,64.1033 286.049,64.1033 286.049,64.1033 286.049,64.1033 275.252,64.1033 264.454,64.1033 253.656,64.1033 242.859,64.1033 232.061,64.1033 221.264,64.1033 210.466,64.1033 199.668,64.1033 188.871,64.1033 178.073,64.1033 167.276,64.1033 156.478,64.1033 145.68,64.1033 134.883,64.1033 124.085,64.1033 113.288,64.1033 102.49,64.1033 97.0913,64.1033 97.0913,64.1033 97.0913,64.1033 97.0913,64.1033 97.0913,64.1033 97.0913,64.1033 97.0913,64.1033 97.0913,64.1033 97.0913,64.1033 97.0913,64.1033 97.0913,64.1033 97.0913,64.1033 97.0913,64.1033 97.0913,64.1033 97.0913,64.1033 97.0913,64.1033 97.0913,64.1033 97.0913,64.1033 97.0913,74.6979 97.0913,85.2924 97.0913,95.8869 97.0913,106.481 97.0913,117.076 97.0913,127.67 97.0913,138.265 97.0913,148.859 97.0913,159.454 97.0913,170.049 97.0913,180.643 97.0913,191.238 97.0913,201.832 97.0913,212.427 97.0913,223.021 97.0913,233.616 97.0913,244.21 97.0913,249.507 97.0913,249.507 97.0913,249.507 97.0913,249.507 97.0913,249.507 97.0913,249.507 97.0913,249.507 97.0913,249.507 97.0913,249.507 97.0913,249.507 97.0913,249.507 97.0913,249.507 97.0913,249.507 97.0913,249.507 97.0913,249.507 97.0913,249.507 97.0913,249.507 97.0913,249.507 97.0913,249.507 107.889,249.507 118.686,249.507 129.484,249.507 140.282,249.507 151.079,249.507 161.877,249.507 172.674,249.507 183.472,249.507 194.27,249.507 205.067,249.507 215.865,249.507 226.662,249.507 237.46,249.507 248.258,249.507 259.055,249.507 269.853,249.507 280.65,249.507 286.049,249.507 286.049,249.507 286.049,249.507 286.049,249.507 286.049,249.507 286.049,249.507 286.049,249.507 286.049,249.507 286.049,249.507 286.049,249.507 286.049,249.507 286.049,249.507 286.049,249.507 286.049,249.507 286.049,249.507 286.049,249.507 286.049,249.507 286.049,249.507 286.049,238.913 286.049,228.318 286.049,217.724 286.049,207.129 286.049,196.535 286.049,185.94 286.049,175.346 286.049,164.751 286.049,154.157 286.049,143.562 286.049,132.968 286.049,122.373 286.049,111.779 286.049,101.184 286.049,90.5896 286.049,79.9951 286.049,69.4006 286.049,64.1033 286.049,64.1033 286.049,64.1033 286.049,64.1033 286.049,64.1033 286.049,64.1033 286.049,64.1033 286.049,64.1033 286.049,64.1033 286.049,64.1033 286.049,64.1033 286.049,64.1033 286.049,64.1033 286.049,64.1033 286.049,64.1033 286.049,64.1033 286.049,64.1033 286.049,64.1033 275.252,64.1033 264.454,64.1033 253.656,64.1033 242.859,64.1033 232.061,64.1033 221.264,64.1033 210.466,64.1033 199.668,64.1033 188.871,64.1033 178.073,64.1033 167.276,64.1033 156.478,64.1033 145.68,64.1033 134.883,64.1033 124.085,64.1033 113.288,64.1033 102.49,64.1033 97.0913,64.1033 97.0913,64.1033 97.0913,64.1033 97.0913,64.1033 97.0913,64.1033 97.0913,64.1033 97.0913,64.1033 97.0913,64.1033 97.0913,64.1033 97.0913,64.1033 97.0913,64.1033 97.0913,64.1033 97.0913,64.1033 97.0913,64.1033 97.0913,64.1033 97.0913,64.1033 97.0913,64.1033 97.0913,64.1033 97.0913,74.6979 97.0913,85.2924 97.0913,95.8869 97.0913,106.481 97.0913,117.076 97.0913,127.67 97.0913,138.265 97.0913,148.859 97.0913,159.454 97.0913,170.049 97.0913,180.643 97.0913,191.238 97.0913,201.832 97.0913,212.427 97.0913,223.021 97.0913,233.616 97.0913,244.21 97.0913,249.507 97.0913,249.507 97.0913,249.507 97.0913,249.507 97.0913,249.507 97.0913,249.507 97.0913,249.507 97.0913,249.507 97.0913,249.507 97.0913,249.507 97.0913,249.507 97.0913,249.507 97.0913,249.507 97.0913,249.507 97.0913,249.507 97.0913,249.507 97.0913,249.507 97.0913,249.507 97.0913,249.507 107.889,249.507 118.686,249.507 129.484,249.507 140.282,249.507 151.079,249.507 161.877,249.507 172.674,249.507 183.472,249.507 194.27,249.507 205.067,249.507 215.865,249.507 226.662,249.507 237.46,249.507 248.258,249.507 259.055,249.507 269.853,249.507 280.65,249.507 286.049,249.507 286.049,249.507 286.049,249.507 286.049,249.507 286.049,249.507 286.049,249.507 286.049,249.507 286.049,249.507 286.049,249.507 286.049,249.507 286.049,249.507 286.049,249.507 286.049,249.507 286.049,249.507 286.049,249.507 286.049,249.507 286.049,249.507 286.049,249.507 286.049,249.507 286.049,249.507 286.049,249.507 286.049,249.507 286.049,249.507 286.049,249.507 286.049,249.507 286.049,249.507 286.049,249.507 286.049,249.507 286.049,249.507 286.049,249.507 286.049,249.507 286.049,249.507 286.049,249.507 286.049,249.507 286.049,249.507 286.049,249.507 286.049,249.507 286.049,249.507 286.049,249.507 286.049,249.507 286.049,249.507" fill="none" stroke-linecap="butt"/>
   <polyline stroke-linejoin="round" stroke="#ff0000" stroke-width="0.5" points="191.57,160.778 191.57,160.778 191.57,160.778 191.57,160.778 191.57,160.778 191.57,160.778 191.57,160.778 191.57,160.778 191.57,160.778 191.57,160.778 191.57,160.778 191.57,160.778 191.57,160.778 191.57,160.778 191.57,164.751 188.871,164.751 182.122,175.346 179.423,179.319 179.423,181.967 175.374,185.94 169.975,199.183 169.975,203.156 169.975,205.805 172.674,216.4 180.773,225.67 191.57,230.967 195.619,232.291 213.165,236.264 218.564,236.264 223.963,238.913 245.558,238.913 250.957,238.913 256.356,238.913 276.601,236.264 282,236.264 287.399,236.264 302.246,230.967 304.945,230.967 308.994,226.994 308.994,226.994 308.994,224.345 306.295,224.345 306.295,224.345 306.295,224.345 303.595,225.67 300.896,225.67 300.896,225.67 300.896,228.318 298.197,228.318 296.847,228.318 296.847,228.318 296.847,228.318 296.847,228.318 296.847,228.318 296.847,225.67 296.847,225.67 296.847,225.67 296.847,220.372 296.847,220.372 296.847,216.4 294.147,207.129 294.147,207.129 291.448,200.508 290.098,189.913 287.399,180.643 287.399,175.346 282,158.13 280.65,152.832 280.65,146.211 276.601,122.373 276.601,115.752 276.601,110.454 276.601,87.941 276.601,70.7249 276.601,68.0763 276.601,65.4277 276.601,60.1304 276.601,60.1304 276.601,60.1304 276.601,62.779 276.601,62.779 276.601,65.4277 276.601,72.0492 276.601,72.0492 276.601,73.3736 276.601,76.0222 276.601,76.0222 273.902,76.0222 273.902,76.0222 271.203,76.0222 269.853,76.0222 265.804,76.0222 265.804,76.0222 265.804,76.0222 259.055,78.6708 259.055,78.6708 249.607,78.6708 245.558,78.6708 242.859,78.6708 225.313,78.6708 221.264,78.6708 214.515,78.6708 188.871,78.6708 180.773,78.6708 174.024,78.6708 174.024,78.6708 140.282,78.6708 121.386,79.9951 114.637,79.9951 110.588,79.9951 93.0422,79.9951 90.3428,82.6438 87.6434,82.6438 82.2446,82.6438 82.2446,82.6438 82.2446,82.6438 86.2937,82.6438 86.2937,82.6438 86.2937,82.6438 91.6925,82.6438 91.6925,82.6438 91.6925,82.6438 97.0913,85.2924 97.0913,86.6167 97.0913,86.6167 101.14,95.8869 101.14,95.8869 101.14,99.8598 103.84,111.779 103.84,115.752 103.84,130.319 103.84,135.616 106.539,150.184 106.539,160.778 106.539,166.076 106.539,183.292 106.539,189.913 106.539,195.211 106.539,201.832 105.189,224.345 105.189,229.643 105.189,233.616 101.14,252.156 101.14,254.805 101.14,262.751 101.14,262.751 101.14,265.399 101.14,265.399 101.14,265.399 101.14,265.399 101.14,265.399 101.14,261.426 101.14,261.426 101.14,258.778 101.14,258.778 101.14,258.778 101.14,258.778 103.84,258.778 103.84,256.129 103.84,256.129 109.239,256.129 109.239,256.129 120.036,256.129 122.736,256.129 126.785,256.129 130.834,256.129 149.73,252.156 155.128,252.156 161.877,252.156 187.521,249.507 195.619,249.507 202.368,249.507 234.761,246.859 241.509,246.859 264.454,242.886 279.301,240.237 286.049,240.237 303.595,234.94 308.994,234.94 313.043,234.94 313.043,234.94 322.491,230.967 322.491,230.967 322.491,230.967 318.442,230.967 318.442,230.967 313.043,230.967 310.344,226.994 308.994,226.994 306.295,226.994 303.595,226.994 303.595,226.994 303.595,226.994 302.246,224.345 302.246,224.345 302.246,224.345 302.246,219.048 302.246,219.048 298.197,213.751 296.847,208.454 296.847,208.454 292.798,199.183 292.798,196.535 290.098,193.886 286.049,177.994 286.049,172.697 286.049,168.724 283.35,163.427 280.65,142.238 280.65,136.941 280.65,130.319 277.951,109.13 277.951,103.833 277.951,98.5355 277.951,82.6438 277.951,82.6438 277.951,70.7249 277.951,66.752 277.951,66.752 277.951,66.752 277.951,66.752 277.951,66.752 277.951,70.7249 277.951,70.7249 277.951,73.3736 277.951,73.3736 277.951,73.3736 277.951,73.3736 276.601,73.3736 276.601,73.3736 273.902,73.3736 273.902,73.3736 271.203,73.3736 265.804,76.0222 265.804,76.0222 263.104,76.0222 255.006,76.0222 252.307,76.0222 249.607,78.6708 236.11,79.9951 236.11,79.9951 226.662,79.9951 202.368,79.9951 202.368,79.9951 195.619,79.9951 168.625,79.9951 160.527,79.9951 133.533,79.9951 126.785,79.9951 121.386,79.9951 114.637,79.9951 98.441,79.9951 95.7416,79.9951 93.0422,79.9951 87.6434,82.6438 87.6434,82.6438 87.6434,82.6438 87.6434,82.6438 87.6434,82.6438 90.3428,82.6438 90.3428,82.6438 90.3428,82.6438 90.3428,82.6438 90.3428,86.6167 90.3428,86.6167 90.3428,86.6167 90.3428,93.2383 90.3428,93.2383 90.3428,102.508 90.3428,105.157 94.3919,117.076 94.3919,122.373 94.3919,126.346 98.441,144.887 98.441,150.184 101.14,155.481 103.84,179.319 103.84,185.94 103.84,192.562 107.889,219.048 107.889,224.345 107.889,224.345 107.889,252.156 107.889,256.129 107.889,266.724 107.889,266.724 107.889,269.372 107.889,273.345 107.889,273.345 107.889,273.345 107.889,270.696 107.889,270.696 107.889,270.696 107.889,270.696 107.889,270.696 107.889,270.696 107.889,270.696 107.889,266.724 107.889,266.724 111.938,266.724 111.938,266.724 111.938,266.724 114.637,266.724 124.085,264.075 140.282,258.778 145.68,258.778 149.73,258.778 172.674,253.48 178.073,253.48 198.319,249.507 211.816,249.507 218.564,246.859 240.159,242.886 246.908,242.886 252.307,240.237 277.951,234.94 284.699,234.94 290.098,232.291 294.147,232.291 310.344,225.67 310.344,225.67 315.743,223.021 315.743,223.021 315.743,223.021 311.693,223.021 311.693,223.021 308.994,223.021 302.246,225.67 302.246,225.67 299.546,225.67 299.546,228.318 294.147,230.967 294.147,230.967 294.147,230.967 294.147,230.967 291.448,226.994 291.448,226.994 291.448,220.372 291.448,220.372 290.098,208.454 290.098,208.454 290.098,192.562 290.098,188.589 290.098,184.616 290.098,166.076 290.098,160.778 290.098,155.481 290.098,135.616 290.098,128.995 287.399,113.103 287.399,107.806 287.399,102.508 287.399,82.6438 287.399,79.9951 284.699,76.0222 284.699,72.0492 284.699,64.1033 284.699,64.1033 283.35,64.1033 283.35,64.1033 283.35,66.752 283.35,70.7249 283.35,70.7249 283.35,70.7249 283.35,76.0222 283.35,76.0222 283.35,76.0222 283.35,76.0222 283.35,76.0222 283.35,76.0222 283.35,76.0222 277.951,76.0222 276.601,76.0222 276.601,76.0222 269.853,76.0222 267.153,76.0222 263.104,76.0222 250.957,76.0222 250.957,76.0222 248.258,76.0222 230.712,76.0222 225.313,76.0222 221.264,76.0222 194.27,78.6708 187.521,79.9951 180.773,79.9951 149.73,79.9951 142.981,79.9951 136.233,79.9951 109.239,82.6438 103.84,82.6438 90.3428,82.6438 86.2937,82.6438 83.5943,82.6438 75.4961,82.6438 75.4961,82.6438 75.4961,82.6438 75.4961,82.6438 75.4961,82.6438 79.5452,82.6438 79.5452,82.6438 83.5943,82.6438 83.5943,82.6438 86.2937,85.2924 86.2937,86.6167 86.2937,86.6167 91.6925,91.914 91.6925,94.5626 91.6925,95.8869 91.6925,106.481 91.6925,110.454 91.6925,113.103 91.6925,117.076 95.7416,132.968 95.7416,138.265 95.7416,142.238 95.7416,158.13 95.7416,163.427 101.14,175.346 101.14,195.211 101.14,200.508 103.84,207.129 107.889,230.967 107.889,236.264 107.889,241.562 107.889,256.129 107.889,258.778 107.889,261.426 107.889,265.399 107.889,265.399 107.889,265.399 107.889,265.399 107.889,265.399 107.889,261.426 107.889,261.426 107.889,258.778 107.889,258.778 107.889,258.778 107.889,256.129 107.889,256.129 107.889,256.129 110.588,256.129 110.588,256.129 113.288,256.129 117.337,256.129 120.036,256.129 138.932,253.48 138.932,253.48 159.177,250.832 165.926,250.832 171.325,250.832 178.073,250.832 205.067,246.859 213.165,246.859 221.264,244.21 250.957,238.913 259.055,238.913 259.055,238.913 292.798,230.967 298.197,230.967 311.693,226.994 315.743,226.994 318.442,224.345 322.491,224.345 322.491,224.345 322.491,224.345 322.491,224.345 315.743,225.67 313.043,225.67 313.043,228.318 302.246,230.967 302.246,230.967 294.147,230.967 291.448,230.967 290.098,230.967 284.699,225.67 284.699,225.67 283.35,223.021 283.35,223.021 283.35,212.427 283.35,200.508 283.35,200.508 283.35,193.886 283.35,179.319 283.35,174.021 283.35,160.778 283.35,155.481 283.35,147.535 283.35,132.968 280.65,127.67 280.65,122.373 277.951,102.508 277.951,97.2112 276.601,91.914 276.601,91.914 276.601,76.0222 276.601,73.3736 276.601,68.0763 276.601,68.0763 276.601,68.0763 276.601,69.4006 276.601,69.4006 276.601,69.4006 276.601,72.0492 276.601,72.0492 276.601,72.0492 276.601,72.0492 276.601,72.0492 276.601,72.0492 276.601,72.0492 273.902,72.0492 273.902,72.0492 273.902,72.0492 273.902,72.0492 271.203,72.0492 269.853,73.3736 269.853,73.3736 269.853,73.3736 264.454,73.3736 263.104,73.3736 263.104,73.3736 252.307,77.3465 249.607,77.3465 245.558,77.3465 228.012,79.9951 221.264,79.9951 202.368,82.6438 195.619,82.6438 188.871,82.6438 160.527,85.2924 153.779,85.2924 147.03,85.2924 121.386,86.6167 114.637,86.6167 110.588,86.6167 95.7416,86.6167 93.0422,86.6167 90.3428,86.6167 86.2937,86.6167 86.2937,86.6167 86.2937,86.6167 86.2937,86.6167 86.2937,86.6167 88.9931,86.6167 88.9931,86.6167 88.9931,89.2653 88.9931,89.2653 93.0422,94.5626 93.0422,97.2112 95.7416,97.2112 95.7416,99.8598 95.7416,107.806 99.7907,110.454 102.49,127.67 102.49,127.67 102.49,132.968 102.49,150.184 102.49,156.805 106.539,162.103 106.539,185.94 109.239,192.562 109.239,197.859 107.889,223.021 107.889,228.318 107.889,233.616 102.49,253.48 102.49,257.453 99.7907,265.399 98.441,266.724 98.441,266.724 98.441,266.724 98.441,266.724 98.441,266.724 98.441,266.724 98.441,261.426 98.441,261.426 101.14,261.426 101.14,261.426 101.14,258.778 103.84,258.778 103.84,258.778 103.84,258.778 107.889,258.778 107.889,258.778 110.588,258.778 110.588,258.778 120.036,258.778 122.736,256.129 126.785,256.129 145.68,253.48 149.73,253.48 156.478,253.48 175.374,250.832 182.122,250.832 188.871,250.832 219.914,244.21 228.012,244.21 260.405,236.264 268.503,236.264 275.252,236.264 283.35,233.616 310.344,229.643 315.743,229.643 319.792,229.643 330.589,225.67 330.589,225.67 330.589,225.67 329.24,225.67 329.24,225.67 325.19,225.67 325.19,225.67 322.491,225.67 314.393,229.643 314.393,229.643 310.344,229.643 308.994,229.643 302.246,226.994 302.246,226.994 299.546,224.345 295.497,216.4 294.147,213.751 291.448,204.481 291.448,200.508 290.098,200.508 290.098,193.886 290.098,176.67 287.399,172.697 287.399,167.4 287.399,147.535 287.399,142.238 287.399,135.616 287.399,113.103 290.098,107.806 290.098,102.508 290.098,86.6167 290.098,81.3194 290.098,77.3465 290.098,64.1033 290.098,61.4547 287.399,61.4547 287.399,54.8331 284.699,54.8331 284.699,54.8331 284.699,54.8331 284.699,54.8331 284.699,54.8331 284.699,54.8331 284.699,54.8331 284.699,54.8331 283.35,54.8331 283.35,54.8331 283.35,52.1845 283.35,52.1845 283.35,52.1845 279.301,52.1845 279.301,52.1845 279.301,52.1845 275.252,52.1845 273.902,52.1845 271.203,52.1845 261.755,53.5088 259.055,53.5088 248.258,56.1574 244.209,56.1574 238.81,56.1574 215.865,62.779 209.116,62.779 202.368,65.4277 195.619,66.752 165.926,72.0492 157.828,74.6979 151.079,76.0222 124.085,81.3194 117.337,82.6438 111.938,85.2924 97.0913,87.941 93.0422,89.2653 90.3428,89.2653 82.2446,93.2383 82.2446,93.2383 79.5452,93.2383 79.5452,93.2383 79.5452,93.2383 79.5452,93.2383 82.2446,95.8869 82.2446,95.8869 82.2446,95.8869 86.2937,101.184 86.2937,102.508 86.2937,102.508 91.6925,111.779 91.6925,114.427 94.3919,121.049 94.3919,125.022 94.3919,127.67 98.441,142.238 98.441,146.211 98.441,150.184 98.441,155.481 101.14,175.346 101.14,180.643 101.14,185.94 105.189,209.778 105.189,225.67 105.189,230.967 105.189,236.264 105.189,252.156 105.189,254.805 105.189,257.453 105.189,262.751 105.189,262.751 105.189,262.751 105.189,260.102 105.189,260.102 105.189,260.102 102.49,256.129 102.49,253.48 102.49,253.48 102.49,253.48 102.49,253.48 102.49,253.48 102.49,254.805 107.889,254.805 107.889,254.805 110.588,254.805 117.337,254.805 120.036,254.805 122.736,254.805 134.883,252.156 138.932,252.156 148.38,252.156 164.576,252.156 171.325,252.156 178.073,249.507 205.067,249.507 211.816,249.507 242.859,249.507 249.607,246.859 256.356,246.859 280.65,244.21 286.049,244.21 286.049,244.21 304.945,244.21 304.945,244.21 310.344,244.21 308.994,240.237 308.994,240.237 304.945,240.237 304.945,240.237 304.945,237.589 300.896,237.589 300.896,237.589 300.896,237.589 300.896,237.589 300.896,237.589 300.896,237.589 300.896,237.589 300.896,237.589 300.896,237.589 300.896,237.589 300.896,237.589 300.896,237.589 300.896,237.589 300.896,237.589 300.896,237.589 300.896,237.589 300.896,237.589 300.896,237.589 300.896,237.589 300.896,237.589 300.896,237.589 300.896,237.589 300.896,237.589 300.896,237.589" fill="none" stroke-linecap="butt"/>
  </g>
  <clipPath id="cp00435324">
   <polygon points="0,324 435,324 435,0 0,0"/>
  </clipPath>
  <g clip-path="url(#cp00435324)">
   <polygon points="301.439,75.6289 386.308,75.6289 386.308,32.0912 301.439,32.0912" fill="#ffffff" shape-rendering="crispEdges"/>
   <polyline stroke-linejoin="miter" stroke="#262626" stroke-dasharray="16,0" stroke-width="0.5" points="301.439,75.6289 386.308,75.6289" fill="none" stroke-linecap="square"/>
   <polyline stroke-linejoin="miter" stroke="#262626" stroke-dasharray="16,0" stroke-width="0.5" points="301.439,32.0912 386.308,32.0912" fill="none" stroke-linecap="square"/>
   <polyline stroke-linejoin="miter" stroke="#262626" stroke-dasharray="16,0" stroke-width="0.5" points="301.439,75.6289 301.439,32.0912" fill="none" stroke-linecap="square"/>
   <polyline stroke-linejoin="miter" stroke="#262626" stroke-dasharray="16,0" stroke-width="0.5" points="386.308,75.6289 386.308,32.0912" fill="none" stroke-linecap="square"/>
   <polyline stroke-linejoin="round" stroke="#0071bc" stroke-width="0.5" points="305.297,40.9498 324.591,40.9498" fill="none" stroke-linecap="butt"/>
   <text font-size="9" font-style="normal" font-family="FreeSans" transform="translate(328.449,45.9498) rotate(-0,-0,-5)" font-weight="normal" xml:space="preserve">
    <tspan x="0 6 8 15 20 22 27 32 37 " fill="rgb(0,0,0)" y="-2">Simulaçâo</tspan>
   </text>
   <polyline stroke-linejoin="round" stroke="#000000" stroke-width="0.5" points="305.297,53.86 324.591,53.86" fill="none" stroke-linecap="butt"/>
   <text font-size="9" font-style="normal" font-family="FreeSans" transform="translate(328.449,57.86) rotate(-0,-0,-4)" font-weight="normal" xml:space="preserve">
    <tspan x="0 6 11 14 19 22 27 32 37 39 " fill="rgb(0,0,0)" y="-0">Referência</tspan>
   </text>
   <polyline stroke-linejoin="round" stroke="#ff0000" stroke-width="0.5" points="305.297,66.7702 324.591,66.7702" fill="none" stroke-linecap="butt"/>
   <text font-size="9" font-style="normal" font-family="FreeSans" transform="translate(328.449,71.7702) rotate(-0,-0,-5)" font-weight="normal" xml:space="preserve">
    <tspan x="0 6 11 15 20 25 29 32 37 39 42 47 52 " fill="rgb(0,0,0)" y="-2">Resposta real</tspan>
   </text>
  </g>
 </g>
</svg>
