<?xml version='1.0' encoding='UTF-8' standalone='no'?>
<svg xmlns:xlink="http://www.w3.org/1999/xlink" width="394pt" xmlns="http://www.w3.org/2000/svg" height="295pt" viewBox="0 0 394 295">
 <title>Figure 3</title>
 <desc>
Creator: GL2PS 1.4.2, (C) 1999-2020 C. Geuzaine
For: Octave
CreationDate: Sun Jun 19 17:28:57 2022
</desc>
 <defs/>
 <polygon points="0,0 394,0 394,295 0,295" fill="#ffffff"/>
 <g>
  <polygon points="0,295 394,295 394,0 0,0" shape-rendering="crispEdges" fill="#ffffff"/>
  <clipPath id="cp00394295">
   <polygon points="0,295 394,295 394,0 0,0"/>
  </clipPath>
  <g clip-path="url(#cp00394295)">
   <polygon points="51.2383,121.849 356.697,121.849 356.697,38.1704 51.2383,38.1704" shape-rendering="crispEdges" fill="#ffffff"/>
   <polyline points="66.5112,121.849 66.5112,38.1704" stroke-dasharray="1,3,1,3,1,3,1,3" stroke-opacity="0.25" stroke="#191919" stroke-width="0.5" fill="none" stroke-linejoin="miter" stroke-linecap="butt"/>
   <polyline points="81.7841,121.849 81.7841,38.1704" stroke-dasharray="1,3,1,3,1,3,1,3" stroke-opacity="0.25" stroke="#191919" stroke-width="0.5" fill="none" stroke-linejoin="miter" stroke-linecap="butt"/>
   <polyline points="97.0571,121.849 97.0571,38.1704" stroke-dasharray="1,3,1,3,1,3,1,3" stroke-opacity="0.25" stroke="#191919" stroke-width="0.5" fill="none" stroke-linejoin="miter" stroke-linecap="butt"/>
   <polyline points="112.33,121.849 112.33,38.1704" stroke-dasharray="1,3,1,3,1,3,1,3" stroke-opacity="0.25" stroke="#191919" stroke-width="0.5" fill="none" stroke-linejoin="miter" stroke-linecap="butt"/>
   <polyline points="142.876,121.849 142.876,38.1704" stroke-dasharray="1,3,1,3,1,3,1,3" stroke-opacity="0.25" stroke="#191919" stroke-width="0.5" fill="none" stroke-linejoin="miter" stroke-linecap="butt"/>
   <polyline points="158.149,121.849 158.149,38.1704" stroke-dasharray="1,3,1,3,1,3,1,3" stroke-opacity="0.25" stroke="#191919" stroke-width="0.5" fill="none" stroke-linejoin="miter" stroke-linecap="butt"/>
   <polyline points="173.422,121.849 173.422,38.1704" stroke-dasharray="1,3,1,3,1,3,1,3" stroke-opacity="0.25" stroke="#191919" stroke-width="0.5" fill="none" stroke-linejoin="miter" stroke-linecap="butt"/>
   <polyline points="188.695,121.849 188.695,38.1704" stroke-dasharray="1,3,1,3,1,3,1,3" stroke-opacity="0.25" stroke="#191919" stroke-width="0.5" fill="none" stroke-linejoin="miter" stroke-linecap="butt"/>
   <polyline points="219.241,121.849 219.241,38.1704" stroke-dasharray="1,3,1,3,1,3,1,3" stroke-opacity="0.25" stroke="#191919" stroke-width="0.5" fill="none" stroke-linejoin="miter" stroke-linecap="butt"/>
   <polyline points="234.513,121.849 234.513,38.1704" stroke-dasharray="1,3,1,3,1,3,1,3" stroke-opacity="0.25" stroke="#191919" stroke-width="0.5" fill="none" stroke-linejoin="miter" stroke-linecap="butt"/>
   <polyline points="249.786,121.849 249.786,38.1704" stroke-dasharray="1,3,1,3,1,3,1,3" stroke-opacity="0.25" stroke="#191919" stroke-width="0.5" fill="none" stroke-linejoin="miter" stroke-linecap="butt"/>
   <polyline points="265.059,121.849 265.059,38.1704" stroke-dasharray="1,3,1,3,1,3,1,3" stroke-opacity="0.25" stroke="#191919" stroke-width="0.5" fill="none" stroke-linejoin="miter" stroke-linecap="butt"/>
   <polyline points="295.605,121.849 295.605,38.1704" stroke-dasharray="1,3,1,3,1,3,1,3" stroke-opacity="0.25" stroke="#191919" stroke-width="0.5" fill="none" stroke-linejoin="miter" stroke-linecap="butt"/>
   <polyline points="310.878,121.849 310.878,38.1704" stroke-dasharray="1,3,1,3,1,3,1,3" stroke-opacity="0.25" stroke="#191919" stroke-width="0.5" fill="none" stroke-linejoin="miter" stroke-linecap="butt"/>
   <polyline points="326.151,121.849 326.151,38.1704" stroke-dasharray="1,3,1,3,1,3,1,3" stroke-opacity="0.25" stroke="#191919" stroke-width="0.5" fill="none" stroke-linejoin="miter" stroke-linecap="butt"/>
   <polyline points="341.424,121.849 341.424,38.1704" stroke-dasharray="1,3,1,3,1,3,1,3" stroke-opacity="0.25" stroke="#191919" stroke-width="0.5" fill="none" stroke-linejoin="miter" stroke-linecap="butt"/>
   <polyline points="51.2383,121.849 51.2383,38.1704" stroke-dasharray="16,0" stroke-opacity="0.15" stroke="#262626" stroke-width="0.5" fill="none" stroke-linejoin="miter" stroke-linecap="butt"/>
   <polyline points="127.603,121.849 127.603,38.1704" stroke-dasharray="16,0" stroke-opacity="0.15" stroke="#262626" stroke-width="0.5" fill="none" stroke-linejoin="miter" stroke-linecap="butt"/>
   <polyline points="203.968,121.849 203.968,38.1704" stroke-dasharray="16,0" stroke-opacity="0.15" stroke="#262626" stroke-width="0.5" fill="none" stroke-linejoin="miter" stroke-linecap="butt"/>
   <polyline points="280.332,121.849 280.332,38.1704" stroke-dasharray="16,0" stroke-opacity="0.15" stroke="#262626" stroke-width="0.5" fill="none" stroke-linejoin="miter" stroke-linecap="butt"/>
   <polyline points="356.697,121.849 356.697,38.1704" stroke-dasharray="16,0" stroke-opacity="0.15" stroke="#262626" stroke-width="0.5" fill="none" stroke-linejoin="miter" stroke-linecap="butt"/>
   <polyline points="51.2383,121.849 51.2383,118.806" stroke="#262626" stroke-width="0.5" fill="none" stroke-linejoin="miter" stroke-linecap="butt"/>
   <polyline points="51.2383,38.1704 51.2383,41.2133" stroke="#262626" stroke-width="0.5" fill="none" stroke-linejoin="miter" stroke-linecap="butt"/>
   <polyline points="127.603,121.849 127.603,118.806" stroke="#262626" stroke-width="0.5" fill="none" stroke-linejoin="miter" stroke-linecap="butt"/>
   <polyline points="127.603,38.1704 127.603,41.2133" stroke="#262626" stroke-width="0.5" fill="none" stroke-linejoin="miter" stroke-linecap="butt"/>
   <polyline points="203.968,121.849 203.968,118.806" stroke="#262626" stroke-width="0.5" fill="none" stroke-linejoin="miter" stroke-linecap="butt"/>
   <polyline points="203.968,38.1704 203.968,41.2133" stroke="#262626" stroke-width="0.5" fill="none" stroke-linejoin="miter" stroke-linecap="butt"/>
   <polyline points="280.332,121.849 280.332,118.806" stroke="#262626" stroke-width="0.5" fill="none" stroke-linejoin="miter" stroke-linecap="butt"/>
   <polyline points="280.332,38.1704 280.332,41.2133" stroke="#262626" stroke-width="0.5" fill="none" stroke-linejoin="miter" stroke-linecap="butt"/>
   <polyline points="356.697,121.849 356.697,118.806" stroke="#262626" stroke-width="0.5" fill="none" stroke-linejoin="miter" stroke-linecap="butt"/>
   <polyline points="356.697,38.1704 356.697,41.2133" stroke="#262626" stroke-width="0.5" fill="none" stroke-linejoin="miter" stroke-linecap="butt"/>
   <g transform="translate(48.2382,137.321) rotate(-0,3,-8)" font-family="FreeSans" font-weight="normal" xml:space="preserve" font-style="normal" font-size="10">
    <text y="-0" x="0 " fill="rgb(38,38,38)">0</text>
   </g>
   <g transform="translate(124.603,137.321) rotate(-0,3,-8)" font-family="FreeSans" font-weight="normal" xml:space="preserve" font-style="normal" font-size="10">
    <text y="-0" x="0 " fill="rgb(38,38,38)">5</text>
   </g>
   <g transform="translate(197.968,137.321) rotate(-0,6,-8)" font-family="FreeSans" font-weight="normal" xml:space="preserve" font-style="normal" font-size="10">
    <text y="-0" x="0 6 " fill="rgb(38,38,38)">10</text>
   </g>
   <g transform="translate(274.332,137.321) rotate(-0,6,-8)" font-family="FreeSans" font-weight="normal" xml:space="preserve" font-style="normal" font-size="10">
    <text y="-0" x="0 6 " fill="rgb(38,38,38)">15</text>
   </g>
   <g transform="translate(350.697,137.321) rotate(-0,6,-8)" font-family="FreeSans" font-weight="normal" xml:space="preserve" font-style="normal" font-size="10">
    <text y="-0" x="0 6 " fill="rgb(38,38,38)">20</text>
   </g>
   <polyline points="51.2383,117.665 356.697,117.665" stroke-dasharray="1,3,1,3,1,3,1,3" stroke-opacity="0.25" stroke="#191919" stroke-width="0.5" fill="none" stroke-linejoin="miter" stroke-linecap="butt"/>
   <polyline points="51.2383,113.481 356.697,113.481" stroke-dasharray="1,3,1,3,1,3,1,3" stroke-opacity="0.25" stroke="#191919" stroke-width="0.5" fill="none" stroke-linejoin="miter" stroke-linecap="butt"/>
   <polyline points="51.2383,109.297 356.697,109.297" stroke-dasharray="1,3,1,3,1,3,1,3" stroke-opacity="0.25" stroke="#191919" stroke-width="0.5" fill="none" stroke-linejoin="miter" stroke-linecap="butt"/>
   <polyline points="51.2383,105.113 356.697,105.113" stroke-dasharray="1,3,1,3,1,3,1,3" stroke-opacity="0.25" stroke="#191919" stroke-width="0.5" fill="none" stroke-linejoin="miter" stroke-linecap="butt"/>
   <polyline points="51.2383,96.7456 356.697,96.7456" stroke-dasharray="1,3,1,3,1,3,1,3" stroke-opacity="0.25" stroke="#191919" stroke-width="0.5" fill="none" stroke-linejoin="miter" stroke-linecap="butt"/>
   <polyline points="51.2383,92.5617 356.697,92.5617" stroke-dasharray="1,3,1,3,1,3,1,3" stroke-opacity="0.25" stroke="#191919" stroke-width="0.5" fill="none" stroke-linejoin="miter" stroke-linecap="butt"/>
   <polyline points="51.2383,88.3777 356.697,88.3777" stroke-dasharray="1,3,1,3,1,3,1,3" stroke-opacity="0.25" stroke="#191919" stroke-width="0.5" fill="none" stroke-linejoin="miter" stroke-linecap="butt"/>
   <polyline points="51.2383,84.1938 356.697,84.1938" stroke-dasharray="1,3,1,3,1,3,1,3" stroke-opacity="0.25" stroke="#191919" stroke-width="0.5" fill="none" stroke-linejoin="miter" stroke-linecap="butt"/>
   <polyline points="51.2383,75.8259 356.697,75.8259" stroke-dasharray="1,3,1,3,1,3,1,3" stroke-opacity="0.25" stroke="#191919" stroke-width="0.5" fill="none" stroke-linejoin="miter" stroke-linecap="butt"/>
   <polyline points="51.2383,71.642 356.697,71.642" stroke-dasharray="1,3,1,3,1,3,1,3" stroke-opacity="0.25" stroke="#191919" stroke-width="0.5" fill="none" stroke-linejoin="miter" stroke-linecap="butt"/>
   <polyline points="51.2383,67.458 356.697,67.458" stroke-dasharray="1,3,1,3,1,3,1,3" stroke-opacity="0.25" stroke="#191919" stroke-width="0.5" fill="none" stroke-linejoin="miter" stroke-linecap="butt"/>
   <polyline points="51.2383,63.2741 356.697,63.2741" stroke-dasharray="1,3,1,3,1,3,1,3" stroke-opacity="0.25" stroke="#191919" stroke-width="0.5" fill="none" stroke-linejoin="miter" stroke-linecap="butt"/>
   <polyline points="51.2383,54.9062 356.697,54.9062" stroke-dasharray="1,3,1,3,1,3,1,3" stroke-opacity="0.25" stroke="#191919" stroke-width="0.5" fill="none" stroke-linejoin="miter" stroke-linecap="butt"/>
   <polyline points="51.2383,50.7222 356.697,50.7222" stroke-dasharray="1,3,1,3,1,3,1,3" stroke-opacity="0.25" stroke="#191919" stroke-width="0.5" fill="none" stroke-linejoin="miter" stroke-linecap="butt"/>
   <polyline points="51.2383,46.5383 356.697,46.5383" stroke-dasharray="1,3,1,3,1,3,1,3" stroke-opacity="0.25" stroke="#191919" stroke-width="0.5" fill="none" stroke-linejoin="miter" stroke-linecap="butt"/>
   <polyline points="51.2383,42.3543 356.697,42.3543" stroke-dasharray="1,3,1,3,1,3,1,3" stroke-opacity="0.25" stroke="#191919" stroke-width="0.5" fill="none" stroke-linejoin="miter" stroke-linecap="butt"/>
   <polyline points="51.2383,100.93 356.697,100.93" stroke-dasharray="16,0" stroke-opacity="0.15" stroke="#262626" stroke-width="0.5" fill="none" stroke-linejoin="miter" stroke-linecap="butt"/>
   <polyline points="51.2383,80.0098 356.697,80.0098" stroke-dasharray="16,0" stroke-opacity="0.15" stroke="#262626" stroke-width="0.5" fill="none" stroke-linejoin="miter" stroke-linecap="butt"/>
   <polyline points="51.2383,59.0901 356.697,59.0901" stroke-dasharray="16,0" stroke-opacity="0.15" stroke="#262626" stroke-width="0.5" fill="none" stroke-linejoin="miter" stroke-linecap="butt"/>
   <polyline points="51.2383,100.93 54.2974,100.93" stroke="#262626" stroke-width="0.5" fill="none" stroke-linejoin="miter" stroke-linecap="butt"/>
   <polyline points="356.697,100.93 353.638,100.93" stroke="#262626" stroke-width="0.5" fill="none" stroke-linejoin="miter" stroke-linecap="butt"/>
   <polyline points="51.2383,80.0098 54.2974,80.0098" stroke="#262626" stroke-width="0.5" fill="none" stroke-linejoin="miter" stroke-linecap="butt"/>
   <polyline points="356.697,80.0098 353.638,80.0098" stroke="#262626" stroke-width="0.5" fill="none" stroke-linejoin="miter" stroke-linecap="butt"/>
   <polyline points="51.2383,59.0901 54.2974,59.0901" stroke="#262626" stroke-width="0.5" fill="none" stroke-linejoin="miter" stroke-linecap="butt"/>
   <polyline points="356.697,59.0901 353.638,59.0901" stroke="#262626" stroke-width="0.5" fill="none" stroke-linejoin="miter" stroke-linecap="butt"/>
   <g transform="translate(22.2307,104.93) rotate(-0,24,-4)" font-family="FreeSans" font-weight="normal" xml:space="preserve" font-style="normal" font-size="10">
    <text y="-0" x="0 3 9 12 18 " fill="rgb(38,38,38)">-0.05</text>
   </g>
   <g transform="translate(40.2307,84.0098) rotate(-0,6,-4)" font-family="FreeSans" font-weight="normal" xml:space="preserve" font-style="normal" font-size="10">
    <text y="-0" x="0 " fill="rgb(38,38,38)">0</text>
   </g>
   <g transform="translate(25.2307,63.0901) rotate(-0,21,-4)" font-family="FreeSans" font-weight="normal" xml:space="preserve" font-style="normal" font-size="10">
    <text y="-0" x="0 6 9 15 " fill="rgb(38,38,38)">0.05</text>
   </g>
   <polyline points="51.2383,121.849 356.697,121.849" stroke-dasharray="16,0" stroke="#262626" stroke-width="0.5" fill="none" stroke-linejoin="miter" stroke-linecap="square"/>
   <polyline points="51.2383,38.1704 356.697,38.1704" stroke-dasharray="16,0" stroke="#262626" stroke-width="0.5" fill="none" stroke-linejoin="miter" stroke-linecap="square"/>
   <polyline points="51.2383,121.849 51.2383,38.1704" stroke-dasharray="16,0" stroke="#262626" stroke-width="0.5" fill="none" stroke-linejoin="miter" stroke-linecap="square"/>
   <polyline points="356.697,121.849 356.697,38.1704" stroke-dasharray="16,0" stroke="#262626" stroke-width="0.5" fill="none" stroke-linejoin="miter" stroke-linecap="square"/>
   <g transform="translate(142.968,28.1704) rotate(-0,61,0)" font-family="FreeSans" font-weight="bold" xml:space="preserve" font-style="normal" font-size="11">
    <text y="-3" x="0 7 13 23 30 37 40 47 53 56 62 65 72 79 85 88 94 100 107 111 118 " fill="rgb(0,0,0)">Tempo pela Posição(X)</text>
   </g>
   <g transform="translate(-11.7693,80.0098) rotate(-90,29,0)" font-family="FreeSans" font-weight="normal" xml:space="preserve" font-style="normal" font-size="11">
    <text y="-3" x="0 7 13 18 20 26 32 38 41 45 54 " fill="rgb(38,38,38)">Posição (m)</text>
   </g>
   <g transform="translate(178.968,154.321) rotate(-0,25,-12)" font-family="FreeSans" font-weight="normal" xml:space="preserve" font-style="normal" font-size="11">
    <text y="-3" x="0 7 13 22 28 34 37 41 46 " fill="rgb(38,38,38)">Tempo (s)</text>
   </g>
   <polyline points="51.2383,80.0098 52.2789,80.0098 52.2789,80.0098 53.3195,80.0098 53.3195,80.0098 54.3601,80.0098 54.3601,80.0098 55.4007,80.0098 55.4007,80.0098 56.4413,80.0098 56.4413,80.0098 57.4819,80.0098 57.4819,80.0098 58.5225,80.0098 58.5225,80.0098 59.5631,80.0098 59.5631,80.0098 60.6037,80.0098 60.6037,80.0098 61.6443,80.0098 61.6443,80.0098 62.6849,80.0098 62.6849,80.0098 63.7255,80.0098 63.7255,80.0098 64.7661,80.0098 64.7661,80.0098 65.8067,80.0098 65.8067,80.0098 66.8473,80.0098 66.8473,80.0098 67.8879,80.0098 67.8879,80.0098 68.9285,80.0098 68.9285,80.0098 69.9691,80.0098 69.9691,80.0098 71.0097,80.0098 71.0097,80.0098 72.0503,80.0098 72.0503,80.0098 73.0909,80.0098 73.0909,79.9975 74.1315,79.9975 74.1315,79.9223 75.1721,79.9223 75.1721,79.6975 76.2127,79.6975 76.2127,79.237 77.2533,79.237 77.2533,78.482 78.2939,78.482 78.2939,77.4059 79.3345,77.4059 79.3345,76.0094 80.3751,76.0094 80.3751,74.3159 81.4157,74.3159 81.4157,72.3658 82.4563,72.3658 82.4563,70.2123 83.4969,70.2123 83.4969,67.9176 84.5375,67.9176 84.5375,65.5493 85.5781,65.5493 85.5781,63.1777 86.6188,63.1777 86.6188,60.8731 87.6593,60.8731 87.6593,58.7038 88.7,58.7038 88.7,56.7341 89.7406,56.7341 89.7406,55.023 90.7812,55.023 90.7812,53.6226 91.8218,53.6226 91.8218,52.5776 92.8624,52.5776 92.8624,51.9241 93.903,51.9241 93.903,51.6893 94.9436,51.6893 94.9436,51.8914 95.9842,51.8914 95.9842,52.539 97.0248,52.539 97.0248,53.6317 98.0654,53.6317 98.0654,55.16 99.106,55.16 99.106,57.1059 100.147,57.1059 100.147,59.4433 101.187,59.4433 101.187,62.1386 102.228,62.1386 102.228,65.1518 103.268,65.1518 103.268,68.4368 104.309,68.4368 104.309,71.9425 105.35,71.9425 105.35,75.6142 106.39,75.6142 106.39,79.3938 107.431,79.3938 107.431,83.2215 108.471,83.2215 108.471,87.0365 109.512,87.0365 109.512,90.7782 110.553,90.7782 110.553,94.3868 111.593,94.3868 111.593,97.8049 112.634,97.8049 112.634,100.978 113.674,100.978 113.674,103.855 114.715,103.855 114.715,106.391 115.756,106.391 115.756,108.544 116.796,108.544 116.796,110.28 117.837,110.28 117.837,111.571 118.877,111.571 118.877,112.396 119.918,112.396 119.918,112.739 120.959,112.739 120.959,112.596 121.999,112.596 121.999,111.966 123.04,111.966 123.04,110.859 124.08,110.859 124.08,109.29 125.121,109.29 125.121,107.281 126.162,107.281 126.162,104.875 127.202,104.875 127.202,102.152 128.243,102.152 128.243,99.2136 129.283,99.2136 129.283,96.126 130.324,96.126 130.324,92.9133 131.365,92.9133 131.365,89.5827 132.405,89.5827 132.405,86.1457 133.446,86.1457 133.446,82.6233 134.486,82.6233 134.486,79.0454 135.527,79.0454 135.527,75.4492 136.568,75.4492 136.568,71.8774 137.608,71.8774 137.608,68.3765 138.649,68.3765 138.649,64.9953 139.689,64.9953 139.689,61.7831 140.73,61.7831 140.73,58.789 141.771,58.789 141.771,56.0599 142.811,56.0599 142.811,53.6402 143.852,53.6402 143.852,51.5701 144.893,51.5701 144.893,49.885 145.933,49.885 145.933,48.6148 146.974,48.6148 146.974,47.7834 148.014,47.7834 148.014,47.4077 149.055,47.4077 149.055,47.4978 150.096,47.4978 150.096,48.0566 151.136,48.0566 151.136,49.0795 152.177,49.0795 152.177,50.5547 153.217,50.5547 153.217,52.4632 154.258,52.4632 154.258,54.7792 155.299,54.7792 155.299,57.4704 156.339,57.4704 156.339,60.4986 157.38,60.4986 157.38,63.8201 158.42,63.8201 158.42,67.3867 159.461,67.3867 159.461,71.146 160.502,71.146 160.502,75.0426 161.542,75.0426 161.542,79.019 162.583,79.019 162.583,83.016 163.623,83.016 163.623,86.9741 164.664,86.9741 164.664,90.8342 165.705,90.8342 165.705,94.5387 166.745,94.5387 166.745,98.0318 167.786,98.0318 167.786,101.261 168.826,101.261 168.826,104.179 169.867,104.179 169.867,106.74 170.908,106.74 170.908,108.906 171.948,108.906 171.948,110.645 172.989,110.645 172.989,111.931 174.029,111.931 174.029,112.742 175.07,112.742 175.07,113.068 176.111,113.068 176.111,112.903 177.151,112.903 177.151,112.249 178.192,112.249 178.192,111.115 179.232,111.115 179.232,109.518 180.273,109.518 180.273,107.482 181.314,107.482 181.314,105.049 182.354,105.049 182.354,102.301 183.395,102.301 183.395,99.3378 184.435,99.3378 184.435,96.2275 185.476,96.2275 185.476,92.9939 186.517,92.9939 186.517,89.6444 187.557,89.6444 187.557,86.1907 188.598,86.1907 188.598,82.6536 189.638,82.6536 189.638,79.0629 190.679,79.0629 190.679,75.4559 191.72,75.4559 191.72,71.8751 192.76,71.8751 192.76,68.3669 193.801,68.3669 193.801,64.9799 194.841,64.9799 194.841,61.7633 195.882,61.7633 195.882,58.766 196.923,58.766 196.923,56.0349 197.963,56.0349 197.963,53.614 199.004,53.614 199.004,51.5435 200.044,51.5435 200.044,49.8587 201.085,49.8587 201.085,48.5893 202.126,48.5893 202.126,47.7591 203.166,47.7591 203.166,47.3849 204.207,47.3849 204.207,47.4768 205.247,47.4768 205.247,48.0375 206.288,48.0375 206.288,49.0624 207.329,49.0624 207.329,50.5396 208.369,50.5396 208.369,52.45 209.41,52.45 209.41,54.7679 210.45,54.7679 210.45,57.461 211.491,57.461 211.491,60.4908 212.532,60.4908 212.532,63.8139 213.572,63.8139 213.572,67.3819 214.613,67.3819 214.613,71.1424 215.653,71.1424 215.653,75.0402 216.694,75.0402 216.694,79.0175 217.735,79.0175 217.735,83.0154 218.775,83.0154 218.775,86.9742 219.816,86.9742 219.816,90.8348 220.857,90.8348 220.857,94.5397 221.897,94.5397 221.897,98.0332 222.938,98.0332 222.938,101.263 223.978,101.263 223.978,104.18 225.019,104.18 225.019,106.742 226.06,106.742 226.06,108.908 227.1,108.908 227.1,110.647 228.141,110.647 228.141,111.933 229.181,111.933 229.181,112.744 230.222,112.744 230.222,113.07 231.263,113.07 231.263,112.905 232.303,112.905 232.303,112.25 233.344,112.25 233.344,111.116 234.384,111.116 234.384,109.519 235.425,109.519 235.425,107.483 236.466,107.483 236.466,105.05 237.506,105.05 237.506,102.302 238.547,102.302 238.547,99.3384 239.587,99.3384 239.587,96.228 240.628,96.228 240.628,92.9942 241.669,92.9942 241.669,89.6447 242.709,89.6447 242.709,86.1909 243.75,86.1909 243.75,82.6537 244.79,82.6537 244.79,79.063 245.831,79.063 245.831,75.4559 246.872,75.4559 246.872,71.8751 247.912,71.8751 247.912,68.3668 248.953,68.3668 248.953,64.9798 249.993,64.9798 249.993,61.7632 251.034,61.7632 251.034,58.7659 252.075,58.7659 252.075,56.0347 253.115,56.0347 253.115,53.6139 254.156,53.6139 254.156,51.5434 255.196,51.5434 255.196,49.8585 256.237,49.8585 256.237,48.5892 257.278,48.5892 257.278,47.759 258.318,47.759 258.318,47.3848 259.359,47.3848 259.359,47.4767 260.399,47.4767 260.399,48.0374 261.44,48.0374 261.44,49.0623 262.481,49.0623 262.481,50.5395 263.521,50.5395 263.521,52.45 264.562,52.45 264.562,54.7679 265.602,54.7679 265.602,57.4609 266.643,57.4609 266.643,60.4908 267.684,60.4908 267.684,63.8139 268.724,63.8139 268.724,67.3819 269.765,67.3819 269.765,71.1424 270.805,71.1424 270.805,75.0402 271.846,75.0402 271.846,79.0175 272.887,79.0175 272.887,83.0154 273.927,83.0154 273.927,86.9742 274.968,86.9742 274.968,90.8348 276.008,90.8348 276.008,94.5397 277.049,94.5397 277.049,98.0332 278.09,98.0332 278.09,101.263 279.13,101.263 279.13,104.18 280.171,104.18 280.171,106.742 281.211,106.742 281.211,108.908 282.252,108.908 282.252,110.647 283.293,110.647 283.293,111.933 284.333,111.933 284.333,112.744 285.374,112.744 285.374,113.07 286.414,113.07 286.414,112.905 287.455,112.905 287.455,112.25 288.496,112.25 288.496,111.116 289.536,111.116 289.536,109.519 290.577,109.519 290.577,107.483 291.617,107.483 291.617,105.05 292.658,105.05 292.658,102.302 293.699,102.302 293.699,99.3384 294.739,99.3384 294.739,96.228 295.78,96.228 295.78,92.9942 296.82,92.9942 296.82,89.6447 297.861,89.6447 297.861,86.1909 298.902,86.1909 298.902,82.6537 299.942,82.6537 299.942,79.063 300.983,79.063 300.983,75.4559 302.024,75.4559 302.024,71.8751 303.064,71.8751 303.064,68.3668 304.105,68.3668 304.105,64.9798 305.145,64.9798 305.145,61.7632 306.186,61.7632 306.186,58.7659 307.227,58.7659 307.227,56.0347 308.267,56.0347 308.267,53.6139 309.308,53.6139 309.308,51.5434 310.348,51.5434 310.348,49.8585 311.389,49.8585 311.389,48.5892 312.43,48.5892 312.43,47.759 313.47,47.759 313.47,47.3848 314.511,47.3848 314.511,47.4767 315.551,47.4767 315.551,48.0374 316.592,48.0374 316.592,49.0623 317.633,49.0623 317.633,50.5395 318.673,50.5395 318.673,52.45 319.714,52.45 319.714,54.7679 320.754,54.7679 320.754,57.4609 321.795,57.4609 321.795,60.4908 322.836,60.4908 322.836,63.8139 323.876,63.8139 323.876,67.3819 324.917,67.3819 324.917,71.1424 325.957,71.1424 325.957,75.0402 326.998,75.0402 326.998,79.0175 328.039,79.0175 328.039,83.0154 329.079,83.0154 329.079,86.9742 330.12,86.9742 330.12,90.8348 331.16,90.8348 331.16,94.5397 332.201,94.5397 332.201,98.0332 333.242,98.0332 333.242,101.263 334.282,101.263 334.282,104.18 335.323,104.18 335.323,106.742 336.363,106.742 336.363,108.908 337.404,108.908 337.404,110.647 338.445,110.647 338.445,111.933 339.485,111.933 339.485,112.744 340.526,112.744 340.526,113.07 341.566,113.07 341.566,112.905 342.607,112.905 342.607,112.25 343.648,112.25 343.648,111.116 344.688,111.116 344.688,109.519 345.729,109.519 345.729,107.483 346.769,107.483 346.769,105.05 347.81,105.05 347.81,102.302 348.851,102.302 348.851,99.3384 349.891,99.3384 349.891,96.228 350.932,96.228 350.932,92.9942 351.972,92.9942 351.972,89.6447 353.013,89.6447 353.013,86.1909 354.054,86.1909 354.054,82.6537 355.094,82.6537 355.094,79.063 356.135,79.063 356.135,75.4559 357.002,75.4559" stroke="#0071bc" stroke-width="0.5" fill="none" stroke-linejoin="round" stroke-linecap="butt"/>
   <polyline points="51.2383,80.0098 52.2789,80.0098 53.3195,80.0098 54.3601,80.0098 55.4007,80.0098 56.4413,80.0098 57.4819,80.0098 58.5225,80.0098 59.5631,80.0098 60.6037,80.0098 61.6443,80.0098 62.6849,80.0098 63.7255,80.0098 64.7661,80.0098 65.8067,80.0098 66.8473,80.0098 67.8879,80.0098 68.9285,80.0098 69.9691,80.0098 71.0097,80.0098 72.0503,76.7975 73.0909,73.633 74.1315,70.5637 75.1721,67.6351 76.2127,64.891 77.2533,62.3723 78.2939,60.1166 79.3345,58.1574 80.3751,56.5239 81.4157,55.2406 82.4563,54.3266 83.4969,53.7954 84.5375,53.655 85.5781,53.9075 86.6188,54.5491 87.6593,55.5703 88.7,56.9559 89.7406,58.6851 90.7812,60.7322 91.8218,63.0667 92.8624,65.6538 93.903,68.4549 94.9436,71.4282 95.9842,74.5295 97.0248,77.7125 98.0654,80.9297 99.106,84.1333 100.147,87.2753 101.187,90.3091 102.228,93.1893 103.268,95.873 104.309,98.3202 105.35,100.495 106.39,102.363 107.431,103.899 108.471,105.079 109.512,105.884 110.553,106.304 111.593,106.333 112.634,105.968 113.674,105.217 114.715,104.09 115.756,102.604 116.796,100.781 117.837,98.6483 118.877,96.2379 119.918,93.5856 120.959,90.7309 121.999,87.7164 123.04,84.587 124.08,81.3893 125.121,81.3893 126.162,80.0098 127.202,76.7975 128.243,73.633 129.283,70.5637 130.324,67.6351 131.365,64.891 132.405,62.3723 133.446,60.1166 134.486,58.1574 135.527,56.5239 136.568,55.2406 137.608,54.3266 138.649,53.7954 139.689,53.655 140.73,53.9075 141.771,54.5491 142.811,55.5703 143.852,56.9559 144.893,58.6851 145.933,60.7322 146.974,63.0667 148.014,65.6538 149.055,68.4549 150.096,71.4282 151.136,74.5295 152.177,77.7125 153.217,80.9297 154.258,84.1333 155.299,87.2753 156.339,90.3091 157.38,93.1893 158.42,95.873 159.461,98.3202 160.502,100.495 161.542,102.363 162.583,103.899 163.623,105.079 164.664,105.884 165.705,106.304 166.745,106.333 167.786,105.968 168.826,105.217 169.867,104.09 170.908,102.604 171.948,100.781 172.989,98.6483 174.029,96.2379 175.07,93.5856 176.111,90.7309 177.151,87.7164 178.192,84.587 179.232,81.3893 180.273,81.3893 181.314,80.0098 182.354,76.7975 183.395,73.633 184.435,70.5637 185.476,67.6351 186.517,64.891 187.557,62.3723 188.598,60.1166 189.638,58.1574 190.679,56.5239 191.72,55.2406 192.76,54.3266 193.801,53.7954 194.841,53.655 195.882,53.9075 196.923,54.5491 197.963,55.5703 199.004,56.9559 200.044,58.6851 201.085,60.7322 202.126,63.0667 203.166,65.6538 204.207,68.4549 205.247,71.4282 206.288,74.5295 207.329,77.7125 208.369,80.9297 209.41,84.1333 210.45,87.2753 211.491,90.3091 212.532,93.1893 213.572,95.873 214.613,98.3202 215.653,100.495 216.694,102.363 217.735,103.899 218.775,105.079 219.816,105.884 220.857,106.304 221.897,106.333 222.938,105.968 223.978,105.217 225.019,104.09 226.06,102.604 227.1,100.781 228.141,98.6483 229.181,96.2379 230.222,93.5856 231.263,90.7309 232.303,87.7164 233.344,84.587 234.384,81.3893 235.425,81.3893 236.466,80.0098 237.506,76.7975 238.547,73.633 239.587,70.5637 240.628,67.6351 241.669,64.891 242.709,62.3723 243.75,60.1166 244.79,58.1574 245.831,56.5239 246.872,55.2406 247.912,54.3266 248.953,53.7954 249.993,53.655 251.034,53.9075 252.075,54.5491 253.115,55.5703 254.156,56.9559 255.196,58.6851 256.237,60.7322 257.278,63.0667 258.318,65.6538 259.359,68.4549 260.399,71.4282 261.44,74.5295 262.481,77.7125 263.521,80.9297 264.562,84.1333 265.602,87.2753 266.643,90.3091 267.684,93.1893 268.724,95.873 269.765,98.3202 270.805,100.495 271.846,102.363 272.887,103.899 273.927,105.079 274.968,105.884 276.008,106.304 277.049,106.333 278.09,105.968 279.13,105.217 280.171,104.09 281.211,102.604 282.252,100.781 283.293,98.6483 284.333,96.2379 285.374,93.5856 286.414,90.7309 287.455,87.7164 288.496,84.587 289.536,81.3893 290.577,81.3893 291.617,80.0098 292.658,76.7975 293.699,73.633 294.739,70.5637 295.78,67.6351 296.82,64.891 297.861,62.3723 298.902,60.1166 299.942,58.1574 300.983,56.5239 302.024,55.2406 303.064,54.3266 304.105,53.7954 305.145,53.655 306.186,53.9075 307.227,54.5491 308.267,55.5703 309.308,56.9559 310.348,58.6851 311.389,60.7322 312.43,63.0667 313.47,65.6538 314.511,68.4549 315.551,71.4282 316.592,74.5295 317.633,77.7125 318.673,80.9297 319.714,84.1333 320.754,87.2753 321.795,90.3091 322.836,93.1893 323.876,95.873 324.917,98.3202 325.957,100.495 326.998,102.363 328.039,103.899 329.079,105.079 330.12,105.884 331.16,106.304 332.201,106.333 333.242,105.968 334.282,105.217 335.323,104.09 336.363,102.604 337.404,100.781 338.445,98.6483 339.485,96.2379 340.526,93.5856 341.566,90.7309 342.607,87.7164 343.648,84.587 344.688,81.3893 345.729,81.3893 346.769,80.0098 347.81,76.7975 348.851,73.633 349.891,70.5637 350.932,67.6351 351.972,64.891 353.013,62.3723 354.054,60.1166 355.094,58.1574 356.135,56.5239 357.002,55.454" stroke="#7f7f7f" stroke-width="0.5" fill="none" stroke-linejoin="round" stroke-linecap="butt"/>
   <polyline points="51.2383,79.5914 52.3959,79.5914 53.4095,79.5914 54.3842,79.5914 55.4351,79.5914 56.4862,79.5914 57.5829,79.5914 58.7101,79.5914 59.8221,79.5914 61.0103,79.5914 61.8936,79.5914 63.0969,79.5914 64.148,79.5914 65.1837,79.5914 66.4632,79.5914 67.499,79.5914 68.55,79.5914 69.7458,79.5914 70.8731,79.5914 72.0348,79.5914 73.1548,79.5914 73.9315,79.5914 74.9826,79.5914 75.9237,79.5914 77.0895,79.5914 78.1557,79.5914 79.3438,79.5914 80.3187,76.6627 81.2783,74.5707 82.3903,74.5707 83.4261,72.8971 84.4619,72.8971 85.4481,67.8764 86.5218,67.0396 87.7099,63.6925 88.761,63.6925 89.7662,62.0189 90.7258,59.0901 91.7616,59.0901 92.7518,58.2533 93.9704,56.5798 94.8843,56.5798 95.9812,56.5798 96.9256,55.3246 97.9154,55.3246 98.9439,55.3246 99.9035,56.1614 100.917,56.5798 102.242,56.5798 103.08,59.5085 104.177,59.9269 105.304,60.7637 106.309,64.1109 107.33,64.1109 108.325,65.366 109.43,66.6212 110.359,72.4787 111.433,74.1523 112.432,81.6834 113.452,83.7754 114.469,85.449 115.474,93.3985 116.571,95.072 117.851,97.164 118.749,103.022 119.77,104.277 120.76,104.277 121.978,106.787 123.044,106.787 124.08,105.95 125.025,105.95 126.137,105.113 126.959,100.511 128.178,99.256 129.259,97.5824 130.181,90.0513 131.203,88.3777 132.27,82.5202 133.282,78.3363 134.333,76.6627 135.428,70.3868 136.54,68.7132 137.607,67.0396 138.622,59.9269 139.582,58.6717 140.618,56.9981 141.616,50.7222 142.606,49.4671 143.589,48.2119 144.701,46.9567 145.676,44.0279 146.712,43.1911 147.809,43.1911 148.875,43.1911 150.002,44.0279 151.099,44.0279 152.074,46.1199 153.033,46.1199 153.917,50.3038 154.922,51.559 155.958,52.8142 157.093,59.0901 157.961,60.7637 158.982,62.4373 160.048,69.9684 161.267,72.0603 162.337,74.1523 163.451,81.265 164.502,85.8674 165.518,92.9801 166.6,95.072 167.605,97.5824 168.938,105.95 170.104,107.624 171.078,109.297 172.16,113.9 173.302,114.737 174.414,116.829 175.435,116.829 176.516,116.829 177.522,116.829 178.512,113.9 179.563,110.553 180.781,109.297 181.817,107.624 182.792,100.511 183.958,98.4192 185.121,96.3272 186.157,87.1225 187.147,84.6122 188.244,82.5202 189.234,74.1523 190.239,72.0603 191.23,65.7844 192.289,64.1109 193.34,62.0189 194.376,60.7637 195.335,54.4878 196.296,52.8142 197.361,51.559 198.321,46.5383 199.204,46.5383 200.21,44.8647 201.413,42.3543 202.403,42.3543 203.469,42.3543 204.505,42.3543 205.45,43.1911 206.486,43.6095 207.354,46.1199 208.572,47.3751 209.624,48.2119 210.766,53.2326 211.756,54.9062 212.655,56.5798 213.806,62.8557 214.75,64.5292 215.87,66.6212 216.915,74.5707 217.92,76.6627 218.888,76.6627 219.924,87.9593 220.975,90.0513 221.98,96.3272 223.153,98.4192 224.097,100.511 225.316,107.624 226.245,108.879 227.266,109.716 228.286,113.481 229.292,113.481 230.404,114.318 231.439,114.737 232.506,114.737 233.587,113.063 234.541,112.226 235.638,111.389 236.628,110.553 237.679,105.113 238.867,103.44 239.872,95.4904 240.878,92.9801 241.883,90.8881 243.117,82.1018 244.244,79.5914 245.265,77.4995 246.27,69.1316 247.26,67.0396 248.235,61.6005 249.423,57.8349 250.352,56.1614 251.418,51.559 252.405,50.3038 253.532,48.6302 254.538,44.4463 255.597,44.4463 256.633,43.1911 257.646,41.5175 258.621,41.5175 259.955,41.5175 260.945,42.3543 261.89,43.6095 262.971,44.4463 264.022,47.3751 264.997,48.6302 266.049,49.8854 267.099,55.743 268.067,57.4165 269.072,59.5085 269.987,66.6212 270.955,68.2948 272.051,70.3868 273.148,77.0811 274.199,81.6834 275.235,84.1938 276.286,90.8881 277.246,93.3985 278.358,95.9088 279.302,104.277 280.27,106.369 281.305,108.042 282.311,113.481 283.392,114.737 284.413,115.573 285.51,118.084 286.547,118.084 287.431,118.084 288.458,118.084 289.559,116.829 290.381,113.9 291.585,112.645 292.666,109.716 293.656,104.277 294.707,102.185 295.682,100.093 296.627,98.0008 297.632,88.3777 298.774,85.8674 299.841,83.7754 300.77,73.7339 301.79,71.642 302.613,64.5292 303.74,62.4373 304.837,58.2533 305.903,52.3958 307.091,50.7222 308.157,49.0487 309.224,44.0279 310.214,42.7727 311.218,42.7727 312.254,40.2624 313.275,40.2624 314.372,40.2624 315.407,41.0992 316.321,41.5175 317.311,42.7727 318.469,44.0279 319.352,47.3751 320.48,48.6302 321.47,55.3246 322.612,56.9981 323.465,59.0901 324.76,67.0396 325.78,69.55 326.812,71.642 327.817,81.265 328.838,83.7754 329.965,86.2857 331.169,95.9088 332.098,98.0008 333.103,104.695 334.124,106.787 335.19,108.461 336.112,114.318 337.133,115.573 338.077,116.41 339.052,118.502 340.103,118.921 341.245,118.921 342.281,118.921 343.348,118.084 344.338,118.084 345.343,115.155 346.47,113.9 347.573,112.645 348.685,106.369 349.736,104.695 350.764,102.603 351.724,93.3985 352.79,90.8881 353.765,88.3777 354.771,78.3363 355.654,75.8259 356.705,73.3155 357.002,70.5529" stroke="#ff0000" stroke-width="0.5" fill="none" stroke-linejoin="round" stroke-linecap="butt"/>
  </g>
  <clipPath id="cp00394295">
   <polygon points="0,295 394,295 394,0 0,0"/>
  </clipPath>
  <g clip-path="url(#cp00394295)">
   <polygon points="260.073,92.6962 348.172,92.6962 348.172,46.6953 260.073,46.6953" shape-rendering="crispEdges" fill="#ffffff"/>
   <polyline points="260.073,92.6962 348.172,92.6962" stroke-dasharray="16,0" stroke="#262626" stroke-width="0.5" fill="none" stroke-linejoin="miter" stroke-linecap="square"/>
   <polyline points="260.073,46.6953 348.172,46.6953" stroke-dasharray="16,0" stroke="#262626" stroke-width="0.5" fill="none" stroke-linejoin="miter" stroke-linecap="square"/>
   <polyline points="260.073,92.6962 260.073,46.6953" stroke-dasharray="16,0" stroke="#262626" stroke-width="0.5" fill="none" stroke-linejoin="miter" stroke-linecap="square"/>
   <polyline points="348.172,92.6962 348.172,46.6953" stroke-dasharray="16,0" stroke="#262626" stroke-width="0.5" fill="none" stroke-linejoin="miter" stroke-linecap="square"/>
   <polyline points="264.335,55.9577 285.647,55.9577" stroke="#0071bc" stroke-width="0.5" fill="none" stroke-linejoin="round" stroke-linecap="butt"/>
   <g transform="translate(289.91,60.9577) rotate(-0,-0,-5)" font-family="FreeSans" font-weight="normal" xml:space="preserve" font-style="normal" font-size="9">
    <text y="-2" x="0 6 8 15 20 22 27 32 " fill="rgb(0,0,0)">Simulção</text>
   </g>
   <polyline points="264.335,83.4337 285.647,83.4337" stroke="#ff0000" stroke-width="0.5" fill="none" stroke-linejoin="round" stroke-linecap="butt"/>
   <g transform="translate(289.91,88.4337) rotate(-0,-0,-5)" font-family="FreeSans" font-weight="normal" xml:space="preserve" font-style="normal" font-size="9">
    <text y="-2" x="0 6 11 15 20 25 29 32 37 39 42 47 52 " fill="rgb(0,0,0)">Resposta real</text>
   </g>
   <polyline points="264.335,69.6957 285.647,69.6957" stroke="#7f7f7f" stroke-width="0.5" fill="none" stroke-linejoin="round" stroke-linecap="butt"/>
   <g transform="translate(289.91,73.6957) rotate(-0,-0,-4)" font-family="FreeSans" font-weight="normal" xml:space="preserve" font-style="normal" font-size="9">
    <text y="-0" x="0 6 11 14 19 22 27 32 37 39 " fill="rgb(0,0,0)">Referência</text>
   </g>
  </g>
  <clipPath id="cp00394295">
   <polygon points="0,295 394,295 394,0 0,0"/>
  </clipPath>
  <g clip-path="url(#cp00394295)">
   <polygon points="51.2383,263.089 356.697,263.089 356.697,179.41 51.2383,179.41" shape-rendering="crispEdges" fill="#ffffff"/>
   <polyline points="66.5112,263.089 66.5112,179.41" stroke-dasharray="1,3,1,3,1,3,1,3" stroke-opacity="0.25" stroke="#191919" stroke-width="0.5" fill="none" stroke-linejoin="miter" stroke-linecap="butt"/>
   <polyline points="81.7841,263.089 81.7841,179.41" stroke-dasharray="1,3,1,3,1,3,1,3" stroke-opacity="0.25" stroke="#191919" stroke-width="0.5" fill="none" stroke-linejoin="miter" stroke-linecap="butt"/>
   <polyline points="97.0571,263.089 97.0571,179.41" stroke-dasharray="1,3,1,3,1,3,1,3" stroke-opacity="0.25" stroke="#191919" stroke-width="0.5" fill="none" stroke-linejoin="miter" stroke-linecap="butt"/>
   <polyline points="112.33,263.089 112.33,179.41" stroke-dasharray="1,3,1,3,1,3,1,3" stroke-opacity="0.25" stroke="#191919" stroke-width="0.5" fill="none" stroke-linejoin="miter" stroke-linecap="butt"/>
   <polyline points="142.876,263.089 142.876,179.41" stroke-dasharray="1,3,1,3,1,3,1,3" stroke-opacity="0.25" stroke="#191919" stroke-width="0.5" fill="none" stroke-linejoin="miter" stroke-linecap="butt"/>
   <polyline points="158.149,263.089 158.149,179.41" stroke-dasharray="1,3,1,3,1,3,1,3" stroke-opacity="0.25" stroke="#191919" stroke-width="0.5" fill="none" stroke-linejoin="miter" stroke-linecap="butt"/>
   <polyline points="173.422,263.089 173.422,179.41" stroke-dasharray="1,3,1,3,1,3,1,3" stroke-opacity="0.25" stroke="#191919" stroke-width="0.5" fill="none" stroke-linejoin="miter" stroke-linecap="butt"/>
   <polyline points="188.695,263.089 188.695,179.41" stroke-dasharray="1,3,1,3,1,3,1,3" stroke-opacity="0.25" stroke="#191919" stroke-width="0.5" fill="none" stroke-linejoin="miter" stroke-linecap="butt"/>
   <polyline points="219.241,263.089 219.241,179.41" stroke-dasharray="1,3,1,3,1,3,1,3" stroke-opacity="0.25" stroke="#191919" stroke-width="0.5" fill="none" stroke-linejoin="miter" stroke-linecap="butt"/>
   <polyline points="234.513,263.089 234.513,179.41" stroke-dasharray="1,3,1,3,1,3,1,3" stroke-opacity="0.25" stroke="#191919" stroke-width="0.5" fill="none" stroke-linejoin="miter" stroke-linecap="butt"/>
   <polyline points="249.786,263.089 249.786,179.41" stroke-dasharray="1,3,1,3,1,3,1,3" stroke-opacity="0.25" stroke="#191919" stroke-width="0.5" fill="none" stroke-linejoin="miter" stroke-linecap="butt"/>
   <polyline points="265.059,263.089 265.059,179.41" stroke-dasharray="1,3,1,3,1,3,1,3" stroke-opacity="0.25" stroke="#191919" stroke-width="0.5" fill="none" stroke-linejoin="miter" stroke-linecap="butt"/>
   <polyline points="295.605,263.089 295.605,179.41" stroke-dasharray="1,3,1,3,1,3,1,3" stroke-opacity="0.25" stroke="#191919" stroke-width="0.5" fill="none" stroke-linejoin="miter" stroke-linecap="butt"/>
   <polyline points="310.878,263.089 310.878,179.41" stroke-dasharray="1,3,1,3,1,3,1,3" stroke-opacity="0.25" stroke="#191919" stroke-width="0.5" fill="none" stroke-linejoin="miter" stroke-linecap="butt"/>
   <polyline points="326.151,263.089 326.151,179.41" stroke-dasharray="1,3,1,3,1,3,1,3" stroke-opacity="0.25" stroke="#191919" stroke-width="0.5" fill="none" stroke-linejoin="miter" stroke-linecap="butt"/>
   <polyline points="341.424,263.089 341.424,179.41" stroke-dasharray="1,3,1,3,1,3,1,3" stroke-opacity="0.25" stroke="#191919" stroke-width="0.5" fill="none" stroke-linejoin="miter" stroke-linecap="butt"/>
   <polyline points="51.2383,263.089 51.2383,179.41" stroke-dasharray="16,0" stroke-opacity="0.15" stroke="#262626" stroke-width="0.5" fill="none" stroke-linejoin="miter" stroke-linecap="butt"/>
   <polyline points="127.603,263.089 127.603,179.41" stroke-dasharray="16,0" stroke-opacity="0.15" stroke="#262626" stroke-width="0.5" fill="none" stroke-linejoin="miter" stroke-linecap="butt"/>
   <polyline points="203.968,263.089 203.968,179.41" stroke-dasharray="16,0" stroke-opacity="0.15" stroke="#262626" stroke-width="0.5" fill="none" stroke-linejoin="miter" stroke-linecap="butt"/>
   <polyline points="280.332,263.089 280.332,179.41" stroke-dasharray="16,0" stroke-opacity="0.15" stroke="#262626" stroke-width="0.5" fill="none" stroke-linejoin="miter" stroke-linecap="butt"/>
   <polyline points="356.697,263.089 356.697,179.41" stroke-dasharray="16,0" stroke-opacity="0.15" stroke="#262626" stroke-width="0.5" fill="none" stroke-linejoin="miter" stroke-linecap="butt"/>
   <polyline points="51.2383,263.089 51.2383,260.046" stroke="#262626" stroke-width="0.5" fill="none" stroke-linejoin="miter" stroke-linecap="butt"/>
   <polyline points="51.2383,179.41 51.2383,182.453" stroke="#262626" stroke-width="0.5" fill="none" stroke-linejoin="miter" stroke-linecap="butt"/>
   <polyline points="127.603,263.089 127.603,260.046" stroke="#262626" stroke-width="0.5" fill="none" stroke-linejoin="miter" stroke-linecap="butt"/>
   <polyline points="127.603,179.41 127.603,182.453" stroke="#262626" stroke-width="0.5" fill="none" stroke-linejoin="miter" stroke-linecap="butt"/>
   <polyline points="203.968,263.089 203.968,260.046" stroke="#262626" stroke-width="0.5" fill="none" stroke-linejoin="miter" stroke-linecap="butt"/>
   <polyline points="203.968,179.41 203.968,182.453" stroke="#262626" stroke-width="0.5" fill="none" stroke-linejoin="miter" stroke-linecap="butt"/>
   <polyline points="280.332,263.089 280.332,260.046" stroke="#262626" stroke-width="0.5" fill="none" stroke-linejoin="miter" stroke-linecap="butt"/>
   <polyline points="280.332,179.41 280.332,182.453" stroke="#262626" stroke-width="0.5" fill="none" stroke-linejoin="miter" stroke-linecap="butt"/>
   <polyline points="356.697,263.089 356.697,260.046" stroke="#262626" stroke-width="0.5" fill="none" stroke-linejoin="miter" stroke-linecap="butt"/>
   <polyline points="356.697,179.41 356.697,182.453" stroke="#262626" stroke-width="0.5" fill="none" stroke-linejoin="miter" stroke-linecap="butt"/>
   <g transform="translate(48.2382,278.56) rotate(-0,3,-8)" font-family="FreeSans" font-weight="normal" xml:space="preserve" font-style="normal" font-size="10">
    <text y="-0" x="0 " fill="rgb(38,38,38)">0</text>
   </g>
   <g transform="translate(124.603,278.56) rotate(-0,3,-8)" font-family="FreeSans" font-weight="normal" xml:space="preserve" font-style="normal" font-size="10">
    <text y="-0" x="0 " fill="rgb(38,38,38)">5</text>
   </g>
   <g transform="translate(197.968,278.56) rotate(-0,6,-8)" font-family="FreeSans" font-weight="normal" xml:space="preserve" font-style="normal" font-size="10">
    <text y="-0" x="0 6 " fill="rgb(38,38,38)">10</text>
   </g>
   <g transform="translate(274.332,278.56) rotate(-0,6,-8)" font-family="FreeSans" font-weight="normal" xml:space="preserve" font-style="normal" font-size="10">
    <text y="-0" x="0 6 " fill="rgb(38,38,38)">15</text>
   </g>
   <g transform="translate(350.697,278.56) rotate(-0,6,-8)" font-family="FreeSans" font-weight="normal" xml:space="preserve" font-style="normal" font-size="10">
    <text y="-0" x="0 6 " fill="rgb(38,38,38)">20</text>
   </g>
   <polyline points="51.2383,258.905 356.697,258.905" stroke-dasharray="1,3,1,3,1,3,1,3" stroke-opacity="0.25" stroke="#191919" stroke-width="0.5" fill="none" stroke-linejoin="miter" stroke-linecap="butt"/>
   <polyline points="51.2383,254.721 356.697,254.721" stroke-dasharray="1,3,1,3,1,3,1,3" stroke-opacity="0.25" stroke="#191919" stroke-width="0.5" fill="none" stroke-linejoin="miter" stroke-linecap="butt"/>
   <polyline points="51.2383,250.537 356.697,250.537" stroke-dasharray="1,3,1,3,1,3,1,3" stroke-opacity="0.25" stroke="#191919" stroke-width="0.5" fill="none" stroke-linejoin="miter" stroke-linecap="butt"/>
   <polyline points="51.2383,246.353 356.697,246.353" stroke-dasharray="1,3,1,3,1,3,1,3" stroke-opacity="0.25" stroke="#191919" stroke-width="0.5" fill="none" stroke-linejoin="miter" stroke-linecap="butt"/>
   <polyline points="51.2383,237.985 356.697,237.985" stroke-dasharray="1,3,1,3,1,3,1,3" stroke-opacity="0.25" stroke="#191919" stroke-width="0.5" fill="none" stroke-linejoin="miter" stroke-linecap="butt"/>
   <polyline points="51.2383,233.801 356.697,233.801" stroke-dasharray="1,3,1,3,1,3,1,3" stroke-opacity="0.25" stroke="#191919" stroke-width="0.5" fill="none" stroke-linejoin="miter" stroke-linecap="butt"/>
   <polyline points="51.2383,229.617 356.697,229.617" stroke-dasharray="1,3,1,3,1,3,1,3" stroke-opacity="0.25" stroke="#191919" stroke-width="0.5" fill="none" stroke-linejoin="miter" stroke-linecap="butt"/>
   <polyline points="51.2383,225.433 356.697,225.433" stroke-dasharray="1,3,1,3,1,3,1,3" stroke-opacity="0.25" stroke="#191919" stroke-width="0.5" fill="none" stroke-linejoin="miter" stroke-linecap="butt"/>
   <polyline points="51.2383,217.065 356.697,217.065" stroke-dasharray="1,3,1,3,1,3,1,3" stroke-opacity="0.25" stroke="#191919" stroke-width="0.5" fill="none" stroke-linejoin="miter" stroke-linecap="butt"/>
   <polyline points="51.2383,212.881 356.697,212.881" stroke-dasharray="1,3,1,3,1,3,1,3" stroke-opacity="0.25" stroke="#191919" stroke-width="0.5" fill="none" stroke-linejoin="miter" stroke-linecap="butt"/>
   <polyline points="51.2383,208.697 356.697,208.697" stroke-dasharray="1,3,1,3,1,3,1,3" stroke-opacity="0.25" stroke="#191919" stroke-width="0.5" fill="none" stroke-linejoin="miter" stroke-linecap="butt"/>
   <polyline points="51.2383,204.513 356.697,204.513" stroke-dasharray="1,3,1,3,1,3,1,3" stroke-opacity="0.25" stroke="#191919" stroke-width="0.5" fill="none" stroke-linejoin="miter" stroke-linecap="butt"/>
   <polyline points="51.2383,196.146 356.697,196.146" stroke-dasharray="1,3,1,3,1,3,1,3" stroke-opacity="0.25" stroke="#191919" stroke-width="0.5" fill="none" stroke-linejoin="miter" stroke-linecap="butt"/>
   <polyline points="51.2383,191.962 356.697,191.962" stroke-dasharray="1,3,1,3,1,3,1,3" stroke-opacity="0.25" stroke="#191919" stroke-width="0.5" fill="none" stroke-linejoin="miter" stroke-linecap="butt"/>
   <polyline points="51.2383,187.778 356.697,187.778" stroke-dasharray="1,3,1,3,1,3,1,3" stroke-opacity="0.25" stroke="#191919" stroke-width="0.5" fill="none" stroke-linejoin="miter" stroke-linecap="butt"/>
   <polyline points="51.2383,183.594 356.697,183.594" stroke-dasharray="1,3,1,3,1,3,1,3" stroke-opacity="0.25" stroke="#191919" stroke-width="0.5" fill="none" stroke-linejoin="miter" stroke-linecap="butt"/>
   <polyline points="51.2383,242.169 356.697,242.169" stroke-dasharray="16,0" stroke-opacity="0.15" stroke="#262626" stroke-width="0.5" fill="none" stroke-linejoin="miter" stroke-linecap="butt"/>
   <polyline points="51.2383,221.249 356.697,221.249" stroke-dasharray="16,0" stroke-opacity="0.15" stroke="#262626" stroke-width="0.5" fill="none" stroke-linejoin="miter" stroke-linecap="butt"/>
   <polyline points="51.2383,200.329 356.697,200.329" stroke-dasharray="16,0" stroke-opacity="0.15" stroke="#262626" stroke-width="0.5" fill="none" stroke-linejoin="miter" stroke-linecap="butt"/>
   <polyline points="51.2383,242.169 54.2974,242.169" stroke="#262626" stroke-width="0.5" fill="none" stroke-linejoin="miter" stroke-linecap="butt"/>
   <polyline points="356.697,242.169 353.638,242.169" stroke="#262626" stroke-width="0.5" fill="none" stroke-linejoin="miter" stroke-linecap="butt"/>
   <polyline points="51.2383,221.249 54.2974,221.249" stroke="#262626" stroke-width="0.5" fill="none" stroke-linejoin="miter" stroke-linecap="butt"/>
   <polyline points="356.697,221.249 353.638,221.249" stroke="#262626" stroke-width="0.5" fill="none" stroke-linejoin="miter" stroke-linecap="butt"/>
   <polyline points="51.2383,200.329 54.2974,200.329" stroke="#262626" stroke-width="0.5" fill="none" stroke-linejoin="miter" stroke-linecap="butt"/>
   <polyline points="356.697,200.329 353.638,200.329" stroke="#262626" stroke-width="0.5" fill="none" stroke-linejoin="miter" stroke-linecap="butt"/>
   <g transform="translate(22.2307,246.169) rotate(-0,24,-4)" font-family="FreeSans" font-weight="normal" xml:space="preserve" font-style="normal" font-size="10">
    <text y="-0" x="0 3 9 12 18 " fill="rgb(38,38,38)">-0.05</text>
   </g>
   <g transform="translate(40.2307,225.249) rotate(-0,6,-4)" font-family="FreeSans" font-weight="normal" xml:space="preserve" font-style="normal" font-size="10">
    <text y="-0" x="0 " fill="rgb(38,38,38)">0</text>
   </g>
   <g transform="translate(25.2307,204.329) rotate(-0,21,-4)" font-family="FreeSans" font-weight="normal" xml:space="preserve" font-style="normal" font-size="10">
    <text y="-0" x="0 6 9 15 " fill="rgb(38,38,38)">0.05</text>
   </g>
   <polyline points="51.2383,263.089 356.697,263.089" stroke-dasharray="16,0" stroke="#262626" stroke-width="0.5" fill="none" stroke-linejoin="miter" stroke-linecap="square"/>
   <polyline points="51.2383,179.41 356.697,179.41" stroke-dasharray="16,0" stroke="#262626" stroke-width="0.5" fill="none" stroke-linejoin="miter" stroke-linecap="square"/>
   <polyline points="51.2383,263.089 51.2383,179.41" stroke-dasharray="16,0" stroke="#262626" stroke-width="0.5" fill="none" stroke-linejoin="miter" stroke-linecap="square"/>
   <polyline points="356.697,263.089 356.697,179.41" stroke-dasharray="16,0" stroke="#262626" stroke-width="0.5" fill="none" stroke-linejoin="miter" stroke-linecap="square"/>
   <g transform="translate(142.968,169.41) rotate(-0,61,0)" font-family="FreeSans" font-weight="bold" xml:space="preserve" font-style="normal" font-size="11">
    <text y="-3" x="0 7 13 23 30 37 40 47 53 56 62 65 72 79 85 88 94 100 107 111 118 " fill="rgb(0,0,0)">Tempo pela Posição(Y)</text>
   </g>
   <g transform="translate(-11.7693,221.249) rotate(-90,29,0)" font-family="FreeSans" font-weight="normal" xml:space="preserve" font-style="normal" font-size="11">
    <text y="-3" x="0 7 13 18 20 26 32 38 41 45 54 " fill="rgb(38,38,38)">Posição (m)</text>
   </g>
   <g transform="translate(178.968,295.56) rotate(-0,25,-12)" font-family="FreeSans" font-weight="normal" xml:space="preserve" font-style="normal" font-size="11">
    <text y="-3" x="0 7 13 22 28 34 37 41 46 " fill="rgb(38,38,38)">Tempo (s)</text>
   </g>
   <polyline points="51.2383,221.249 52.2789,221.249 52.2789,221.249 53.3195,221.249 53.3195,221.249 54.3601,221.249 54.3601,221.249 55.4007,221.249 55.4007,221.249 56.4413,221.249 56.4413,221.249 57.4819,221.249 57.4819,221.249 58.5225,221.249 58.5225,221.249 59.5631,221.249 59.5631,221.249 60.6037,221.249 60.6037,221.249 61.6443,221.249 61.6443,221.249 62.6849,221.249 62.6849,221.249 63.7255,221.249 63.7255,221.249 64.7661,221.249 64.7661,221.249 65.8067,221.249 65.8067,221.249 66.8473,221.249 66.8473,221.249 67.8879,221.249 67.8879,221.249 68.9285,221.249 68.9285,221.249 69.9691,221.249 69.9691,221.249 71.0097,221.249 71.0097,221.249 72.0503,221.249 72.0503,221.351 73.0909,221.351 73.0909,221.867 74.1315,221.867 74.1315,223.099 75.1721,223.099 75.1721,225.047 76.2127,225.047 76.2127,227.491 77.2533,227.491 77.2533,230.173 78.2939,230.173 78.2939,232.867 79.3345,232.867 79.3345,235.39 80.3751,235.39 80.3751,237.599 81.4157,237.599 81.4157,239.387 82.4563,239.387 82.4563,240.678 83.4969,240.678 83.4969,241.422 84.5375,241.422 84.5375,241.594 85.5781,241.594 85.5781,241.189 86.6188,241.189 86.6188,240.22 87.6593,240.22 87.6593,238.715 88.7,238.715 88.7,236.713 89.7406,236.713 89.7406,234.268 90.7812,234.268 90.7812,231.438 91.8218,231.438 91.8218,228.289 92.8624,228.289 92.8624,224.893 93.903,224.893 93.903,221.324 94.9436,221.324 94.9436,217.655 95.9842,217.655 95.9842,213.963 97.0248,213.963 97.0248,210.322 98.0654,210.322 98.0654,206.802 99.106,206.802 99.106,203.471 100.147,203.471 100.147,200.39 101.187,200.39 101.187,197.618 102.228,197.618 102.228,195.203 103.268,195.203 103.268,193.19 104.309,193.19 104.309,191.615 105.35,191.615 105.35,190.504 106.39,190.504 106.39,189.878 107.431,189.878 107.431,189.749 108.471,189.749 108.471,190.117 109.512,190.117 109.512,190.98 110.553,190.98 110.553,192.322 111.593,192.322 111.593,194.124 112.634,194.124 112.634,196.357 113.674,196.357 113.674,198.985 114.715,198.985 114.715,201.967 115.756,201.967 115.756,205.258 116.796,205.258 116.796,208.806 117.837,208.806 117.837,212.555 118.877,212.555 118.877,216.447 119.918,216.447 119.918,220.424 120.959,220.424 120.959,224.422 121.999,224.422 121.999,228.381 123.04,228.381 123.04,232.241 124.08,232.241 124.08,235.941 125.121,235.941 125.121,239.426 126.162,239.426 126.162,242.643 127.202,242.643 127.202,245.545 128.243,245.545 128.243,248.095 129.283,248.095 129.283,250.27 130.324,250.27 130.324,252.054 131.365,252.054 131.365,253.433 132.405,253.433 132.405,254.396 133.446,254.396 133.446,254.93 134.486,254.93 134.486,255.029 135.527,255.029 135.527,254.689 136.568,254.689 136.568,253.909 137.608,253.909 137.608,252.698 138.649,252.698 138.649,251.065 139.689,251.065 139.689,249.029 140.73,249.029 140.73,246.615 141.771,246.615 141.771,243.85 142.811,243.85 142.811,240.771 143.852,240.771 143.852,237.418 144.893,237.418 144.893,233.836 145.933,233.836 145.933,230.073 146.974,230.073 146.974,226.183 148.014,226.183 148.014,222.218 149.055,222.218 149.055,218.237 150.096,218.237 150.096,214.295 151.136,214.295 151.136,210.45 152.177,210.45 152.177,206.758 153.217,206.758 153.217,203.273 154.258,203.273 154.258,200.046 155.299,200.046 155.299,197.125 156.339,197.125 156.339,194.555 157.38,194.555 157.38,192.372 158.42,192.372 158.42,190.611 159.461,190.611 159.461,189.298 160.502,189.298 160.502,188.453 161.542,188.453 161.542,188.089 162.583,188.089 162.583,188.213 163.623,188.213 163.623,188.824 164.664,188.824 164.664,189.912 165.705,189.912 165.705,191.464 166.745,191.464 166.745,193.455 167.786,193.455 167.786,195.857 168.826,195.857 168.826,198.635 169.867,198.635 169.867,201.749 170.908,201.749 170.908,205.151 171.948,205.151 171.948,208.792 172.989,208.792 172.989,212.619 174.029,212.619 174.029,216.573 175.07,216.573 175.07,220.597 176.111,220.597 176.111,224.631 177.151,224.631 177.151,228.614 178.192,228.614 178.192,232.489 179.232,232.489 179.232,236.196 180.273,236.196 180.273,239.681 181.314,239.681 181.314,242.892 182.354,242.892 182.354,245.783 183.395,245.783 183.395,248.32 184.435,248.32 184.435,250.479 185.476,250.479 185.476,252.245 186.517,252.245 186.517,253.606 187.557,253.606 187.557,254.549 188.598,254.549 188.598,255.064 189.638,255.064 189.638,255.145 190.679,255.145 190.679,254.787 191.72,254.787 191.72,253.991 192.76,253.991 192.76,252.763 193.801,252.763 193.801,251.117 194.841,251.117 194.841,249.068 195.882,249.068 195.882,246.642 196.923,246.642 196.923,243.868 197.963,243.868 197.963,240.781 199.004,240.781 199.004,237.421 200.044,237.421 200.044,233.833 201.085,233.833 201.085,230.065 202.126,230.065 202.126,226.171 203.166,226.171 203.166,222.204 204.207,222.204 204.207,218.22 205.247,218.22 205.247,214.277 206.288,214.277 206.288,210.431 207.329,210.431 207.329,206.739 208.369,206.739 208.369,203.254 209.41,203.254 209.41,200.028 210.45,200.028 210.45,197.109 211.491,197.109 211.491,194.539 212.532,194.539 212.532,192.358 213.572,192.358 213.572,190.598 214.613,190.598 214.613,189.286 215.653,189.286 215.653,188.443 216.694,188.443 216.694,188.081 217.735,188.081 217.735,188.206 218.775,188.206 218.775,188.818 219.816,188.818 219.816,189.907 220.857,189.907 220.857,191.46 221.897,191.46 221.897,193.452 222.938,193.452 222.938,195.855 223.978,195.855 223.978,198.634 225.019,198.634 225.019,201.748 226.06,201.748 226.06,205.151 227.1,205.151 227.1,208.793 228.141,208.793 228.141,212.619 229.181,212.619 229.181,216.574 230.222,216.574 230.222,220.598 231.263,220.598 231.263,224.632 232.303,224.632 232.303,228.616 233.344,228.616 233.344,232.49 234.384,232.49 234.384,236.197 235.425,236.197 235.425,239.682 236.466,239.682 236.466,242.893 237.506,242.893 237.506,245.784 238.547,245.784 238.547,248.321 239.587,248.321 239.587,250.48 240.628,250.48 240.628,252.246 241.669,252.246 241.669,253.606 242.709,253.606 242.709,254.55 243.75,254.55 243.75,255.065 244.79,255.065 244.79,255.145 245.831,255.145 245.831,254.787 246.872,254.787 246.872,253.991 247.912,253.991 247.912,252.764 248.953,252.764 248.953,251.117 249.993,251.117 249.993,249.068 251.034,249.068 251.034,246.642 252.075,246.642 252.075,243.868 253.115,243.868 253.115,240.781 254.156,240.781 254.156,237.421 255.196,237.421 255.196,233.833 256.237,233.833 256.237,230.065 257.278,230.065 257.278,226.171 258.318,226.171 258.318,222.203 259.359,222.203 259.359,218.22 260.399,218.22 260.399,214.277 261.44,214.277 261.44,210.431 262.481,210.431 262.481,206.739 263.521,206.739 263.521,203.254 264.562,203.254 264.562,200.028 265.602,200.028 265.602,197.109 266.643,197.109 266.643,194.539 267.684,194.539 267.684,192.358 268.724,192.358 268.724,190.598 269.765,190.598 269.765,189.286 270.805,189.286 270.805,188.443 271.846,188.443 271.846,188.081 272.887,188.081 272.887,188.206 273.927,188.206 273.927,188.818 274.968,188.818 274.968,189.907 276.008,189.907 276.008,191.46 277.049,191.46 277.049,193.452 278.09,193.452 278.09,195.855 279.13,195.855 279.13,198.634 280.171,198.634 280.171,201.748 281.211,201.748 281.211,205.151 282.252,205.151 282.252,208.793 283.293,208.793 283.293,212.619 284.333,212.619 284.333,216.574 285.374,216.574 285.374,220.598 286.414,220.598 286.414,224.632 287.455,224.632 287.455,228.616 288.496,228.616 288.496,232.49 289.536,232.49 289.536,236.197 290.577,236.197 290.577,239.682 291.617,239.682 291.617,242.893 292.658,242.893 292.658,245.784 293.699,245.784 293.699,248.321 294.739,248.321 294.739,250.48 295.78,250.48 295.78,252.246 296.82,252.246 296.82,253.606 297.861,253.606 297.861,254.55 298.902,254.55 298.902,255.065 299.942,255.065 299.942,255.145 300.983,255.145 300.983,254.787 302.024,254.787 302.024,253.991 303.064,253.991 303.064,252.764 304.105,252.764 304.105,251.117 305.145,251.117 305.145,249.068 306.186,249.068 306.186,246.642 307.227,246.642 307.227,243.868 308.267,243.868 308.267,240.781 309.308,240.781 309.308,237.421 310.348,237.421 310.348,233.833 311.389,233.833 311.389,230.065 312.43,230.065 312.43,226.171 313.47,226.171 313.47,222.203 314.511,222.203 314.511,218.22 315.551,218.22 315.551,214.277 316.592,214.277 316.592,210.431 317.633,210.431 317.633,206.739 318.673,206.739 318.673,203.254 319.714,203.254 319.714,200.028 320.754,200.028 320.754,197.109 321.795,197.109 321.795,194.539 322.836,194.539 322.836,192.358 323.876,192.358 323.876,190.598 324.917,190.598 324.917,189.286 325.957,189.286 325.957,188.443 326.998,188.443 326.998,188.081 328.039,188.081 328.039,188.206 329.079,188.206 329.079,188.818 330.12,188.818 330.12,189.907 331.16,189.907 331.16,191.46 332.201,191.46 332.201,193.452 333.242,193.452 333.242,195.855 334.282,195.855 334.282,198.634 335.323,198.634 335.323,201.748 336.363,201.748 336.363,205.151 337.404,205.151 337.404,208.793 338.445,208.793 338.445,212.619 339.485,212.619 339.485,216.574 340.526,216.574 340.526,220.598 341.566,220.598 341.566,224.632 342.607,224.632 342.607,228.616 343.648,228.616 343.648,232.49 344.688,232.49 344.688,236.197 345.729,236.197 345.729,239.682 346.769,239.682 346.769,242.893 347.81,242.893 347.81,245.784 348.851,245.784 348.851,248.321 349.891,248.321 349.891,250.48 350.932,250.48 350.932,252.246 351.972,252.246 351.972,253.606 353.013,253.606 353.013,254.55 354.054,254.55 354.054,255.065 355.094,255.065 355.094,255.145 356.135,255.145 356.135,254.787 357.002,254.787" stroke="#0071bc" stroke-width="0.5" fill="none" stroke-linejoin="round" stroke-linecap="butt"/>
   <polyline points="51.2383,221.249 52.2789,221.249 53.3195,221.249 54.3601,221.249 55.4007,221.249 56.4413,221.249 57.4819,221.249 58.5225,221.249 59.5631,221.249 60.6037,221.249 61.6443,221.249 62.6849,221.249 63.7255,221.249 64.7661,221.249 65.8067,221.249 66.8473,221.249 67.8879,221.249 68.9285,221.249 69.9691,221.249 71.0097,247.608 72.0503,247.412 73.0909,246.825 74.1315,245.857 75.1721,244.523 76.2127,242.841 77.2533,240.838 78.2939,238.542 79.3345,235.989 80.3751,233.216 81.4157,230.264 82.4563,227.179 83.4969,224.004 84.5375,220.789 85.5781,217.581 86.6188,214.427 87.6593,211.375 88.7,208.47 89.7406,205.756 90.7812,203.273 91.8218,201.057 92.8624,199.143 93.903,197.558 94.9436,196.326 95.9842,195.466 97.0248,194.991 98.0654,194.906 99.106,195.215 100.147,195.911 101.187,196.986 102.228,198.422 103.268,200.198 104.309,202.288 105.35,204.661 106.39,207.281 107.431,210.109 108.471,213.104 109.512,216.22 110.553,219.411 111.593,222.629 112.634,225.826 113.674,228.956 114.715,231.97 115.756,234.825 116.796,237.477 117.837,239.888 118.877,242.02 119.918,243.843 120.959,245.329 121.999,246.456 123.04,247.208 124.08,247.572 125.121,247.572 126.162,247.608 127.202,247.412 128.243,246.825 129.283,245.857 130.324,244.523 131.365,242.841 132.405,240.838 133.446,238.542 134.486,235.989 135.527,233.216 136.568,230.264 137.608,227.179 138.649,224.004 139.689,220.789 140.73,217.581 141.771,214.427 142.811,211.375 143.852,208.47 144.893,205.756 145.933,203.273 146.974,201.057 148.014,199.143 149.055,197.558 150.096,196.326 151.136,195.466 152.177,194.991 153.217,194.906 154.258,195.215 155.299,195.911 156.339,196.986 157.38,198.422 158.42,200.198 159.461,202.288 160.502,204.661 161.542,207.281 162.583,210.109 163.623,213.104 164.664,216.22 165.705,219.411 166.745,222.629 167.786,225.826 168.826,228.956 169.867,231.97 170.908,234.825 171.948,237.477 172.989,239.888 174.029,242.02 175.07,243.843 176.111,245.329 177.151,246.456 178.192,247.208 179.232,247.572 180.273,247.572 181.314,247.608 182.354,247.412 183.395,246.825 184.435,245.857 185.476,244.523 186.517,242.841 187.557,240.838 188.598,238.542 189.638,235.989 190.679,233.216 191.72,230.264 192.76,227.179 193.801,224.004 194.841,220.789 195.882,217.581 196.923,214.427 197.963,211.375 199.004,208.47 200.044,205.756 201.085,203.273 202.126,201.057 203.166,199.143 204.207,197.558 205.247,196.326 206.288,195.466 207.329,194.991 208.369,194.906 209.41,195.215 210.45,195.911 211.491,196.986 212.532,198.422 213.572,200.198 214.613,202.288 215.653,204.661 216.694,207.281 217.735,210.109 218.775,213.104 219.816,216.22 220.857,219.411 221.897,222.629 222.938,225.826 223.978,228.956 225.019,231.97 226.06,234.825 227.1,237.477 228.141,239.888 229.181,242.02 230.222,243.843 231.263,245.329 232.303,246.456 233.344,247.208 234.384,247.572 235.425,247.572 236.466,247.608 237.506,247.412 238.547,246.825 239.587,245.857 240.628,244.523 241.669,242.841 242.709,240.838 243.75,238.542 244.79,235.989 245.831,233.216 246.872,230.264 247.912,227.179 248.953,224.004 249.993,220.789 251.034,217.581 252.075,214.427 253.115,211.375 254.156,208.47 255.196,205.756 256.237,203.273 257.278,201.057 258.318,199.143 259.359,197.558 260.399,196.326 261.44,195.466 262.481,194.991 263.521,194.906 264.562,195.215 265.602,195.911 266.643,196.986 267.684,198.422 268.724,200.198 269.765,202.288 270.805,204.661 271.846,207.281 272.887,210.109 273.927,213.104 274.968,216.22 276.008,219.411 277.049,222.629 278.09,225.826 279.13,228.956 280.171,231.97 281.211,234.825 282.252,237.477 283.293,239.888 284.333,242.02 285.374,243.843 286.414,245.329 287.455,246.456 288.496,247.208 289.536,247.572 290.577,247.572 291.617,247.608 292.658,247.412 293.699,246.825 294.739,245.857 295.78,244.523 296.82,242.841 297.861,240.838 298.902,238.542 299.942,235.989 300.983,233.216 302.024,230.264 303.064,227.179 304.105,224.004 305.145,220.789 306.186,217.581 307.227,214.427 308.267,211.375 309.308,208.47 310.348,205.756 311.389,203.273 312.43,201.057 313.47,199.143 314.511,197.558 315.551,196.326 316.592,195.466 317.633,194.991 318.673,194.906 319.714,195.215 320.754,195.911 321.795,196.986 322.836,198.422 323.876,200.198 324.917,202.288 325.957,204.661 326.998,207.281 328.039,210.109 329.079,213.104 330.12,216.22 331.16,219.411 332.201,222.629 333.242,225.826 334.282,228.956 335.323,231.97 336.363,234.825 337.404,237.477 338.445,239.888 339.485,242.02 340.526,243.843 341.566,245.329 342.607,246.456 343.648,247.208 344.688,247.572 345.729,247.572 346.769,247.608 347.81,247.412 348.851,246.825 349.891,245.857 350.932,244.523 351.972,242.841 353.013,240.838 354.054,238.542 355.094,235.989 356.135,233.216 357.002,230.755" stroke="#7f7f7f" stroke-width="0.5" fill="none" stroke-linejoin="round" stroke-linecap="butt"/>
   <polyline points="51.2383,222.923 52.3959,222.923 53.4095,222.923 54.3842,222.923 55.4351,222.923 56.4862,222.923 57.5829,222.923 58.7101,222.923 59.8221,222.923 61.0103,222.923 61.8936,222.923 63.0969,222.923 64.148,222.923 65.1837,222.923 66.4632,222.923 67.499,222.923 68.55,222.923 69.7458,222.923 70.8731,222.923 72.0348,222.923 73.1548,222.923 73.9315,222.923 74.9826,222.923 75.9237,222.923 77.0895,224.178 78.1557,224.178 79.3438,225.015 80.3187,227.525 81.2783,228.362 82.3903,228.78 83.4261,228.78 84.4619,229.617 85.4481,229.617 86.5218,229.617 87.7099,227.944 88.761,227.944 89.7662,226.688 90.7258,223.76 91.7616,223.76 92.7518,222.086 93.9704,219.576 94.8843,219.576 95.9812,217.484 96.9256,212.881 97.9154,211.626 98.9439,210.789 99.9035,205.769 100.917,204.513 102.242,203.677 103.08,199.911 104.177,199.074 105.304,199.074 106.309,196.564 107.33,196.564 108.325,196.564 109.43,196.564 110.359,196.564 111.433,196.564 112.432,199.074 113.452,199.911 114.469,200.748 115.474,205.35 116.571,206.605 117.851,208.279 118.749,214.973 119.77,216.647 120.76,216.647 121.978,226.688 123.044,228.78 124.08,235.056 125.025,237.148 126.137,239.24 126.959,246.771 128.178,248.863 129.259,250.118 130.181,255.139 131.203,255.976 132.27,258.068 133.282,258.905 134.333,258.905 135.428,258.905 136.54,258.905 137.607,257.231 138.622,253.884 139.582,252.629 140.618,251.374 141.616,245.098 142.606,243.424 143.589,241.751 144.701,240.077 145.676,232.546 146.712,230.035 147.809,228.362 148.875,219.994 150.002,212.881 151.099,211.208 152.074,207.442 153.033,207.442 153.917,199.911 154.922,198.238 155.958,196.982 157.093,191.962 157.961,191.125 158.982,190.288 160.048,187.778 161.267,187.778 162.337,187.778 163.451,187.778 164.502,187.778 165.518,189.033 166.6,189.451 167.605,190.288 168.938,194.472 170.104,195.727 171.078,197.401 172.16,204.513 173.302,206.605 174.414,214.973 175.435,217.484 176.516,217.484 177.522,222.086 178.512,231.709 179.563,238.822 180.781,240.914 181.817,243.006 182.792,250.955 183.958,252.21 185.121,253.884 186.157,258.486 187.147,258.486 188.244,259.741 189.234,260.578 190.239,260.578 191.23,258.486 192.289,257.65 193.34,257.65 194.376,256.394 195.335,251.792 196.296,250.537 197.361,249.282 198.321,242.587 199.204,240.914 200.21,238.822 201.413,231.291 202.403,229.199 203.469,227.107 204.505,220.831 205.45,218.739 206.486,216.647 207.354,207.861 208.572,206.605 209.624,204.513 210.766,196.982 211.756,195.727 212.655,194.054 213.806,188.614 214.75,187.778 215.87,187.778 216.915,184.431 217.92,184.431 218.888,184.431 219.924,184.431 220.975,184.431 221.98,186.522 223.153,187.359 224.097,188.614 225.316,194.472 226.245,196.146 227.266,198.238 228.286,206.605 229.292,209.116 230.404,211.626 231.439,221.668 232.506,224.178 233.587,231.709 234.541,234.638 235.638,236.73 236.628,239.24 237.679,247.608 238.867,249.7 239.872,256.394 240.878,257.65 241.883,258.905 243.117,261.833 244.244,261.833 245.265,262.252 246.27,260.578 247.26,260.578 248.235,257.231 249.423,254.721 250.352,253.047 251.418,248.445 252.405,246.771 253.532,245.098 254.538,237.567 255.597,235.475 256.633,233.383 257.646,225.015 258.621,222.923 259.955,220.831 260.945,214.555 261.89,210.371 262.971,208.697 264.022,203.258 264.997,201.585 266.049,199.911 267.099,194.472 268.067,193.217 269.072,191.962 269.987,188.196 270.955,188.196 272.051,186.941 273.148,185.686 274.199,185.686 275.235,185.686 276.286,185.686 277.246,186.522 278.358,187.359 279.302,191.125 280.27,192.38 281.305,193.635 282.311,200.748 283.392,202.84 284.413,204.932 285.51,214.137 286.547,216.647 287.431,219.576 288.458,229.617 289.559,232.127 290.381,239.24 291.585,241.751 292.666,245.934 293.656,251.792 294.707,253.047 295.682,254.721 296.627,255.976 297.632,259.323 298.774,259.323 299.841,260.578 300.77,260.578 301.79,260.578 302.613,258.068 303.74,257.231 304.837,255.139 305.903,250.955 307.091,249.7 308.157,248.026 309.224,240.077 310.214,237.985 311.218,236.311 312.254,227.525 313.275,225.015 314.372,222.923 315.407,216.647 316.321,214.137 317.311,209.953 318.469,207.861 319.352,202.003 320.48,200.329 321.47,193.635 322.612,192.38 323.465,191.125 324.76,186.941 325.78,186.104 326.812,186.104 327.817,184.012 328.838,184.012 329.965,184.012 331.169,185.267 332.098,186.104 333.103,189.451 334.124,190.706 335.19,191.962 336.112,199.074 337.133,200.748 338.077,203.258 339.052,212.463 340.103,214.973 341.245,217.484 342.281,227.525 343.348,229.617 344.338,232.546 345.343,239.24 346.47,241.332 347.573,243.424 348.685,250.955 349.736,252.21 350.764,253.884 351.724,258.486 352.79,259.323 353.765,260.16 354.771,260.16 355.654,260.16 356.705,260.16 357.002,259.319" stroke="#ff0000" stroke-width="0.5" fill="none" stroke-linejoin="round" stroke-linecap="butt"/>
  </g>
  <clipPath id="cp00394295">
   <polygon points="0,295 394,295 394,0 0,0"/>
  </clipPath>
  <g clip-path="url(#cp00394295)">
   <polygon points="260.073,233.936 348.172,233.936 348.172,187.935 260.073,187.935" shape-rendering="crispEdges" fill="#ffffff"/>
   <polyline points="260.073,233.936 348.172,233.936" stroke-dasharray="16,0" stroke="#262626" stroke-width="0.5" fill="none" stroke-linejoin="miter" stroke-linecap="square"/>
   <polyline points="260.073,187.935 348.172,187.935" stroke-dasharray="16,0" stroke="#262626" stroke-width="0.5" fill="none" stroke-linejoin="miter" stroke-linecap="square"/>
   <polyline points="260.073,233.936 260.073,187.935" stroke-dasharray="16,0" stroke="#262626" stroke-width="0.5" fill="none" stroke-linejoin="miter" stroke-linecap="square"/>
   <polyline points="348.172,233.936 348.172,187.935" stroke-dasharray="16,0" stroke="#262626" stroke-width="0.5" fill="none" stroke-linejoin="miter" stroke-linecap="square"/>
   <polyline points="264.335,197.197 285.647,197.197" stroke="#0071bc" stroke-width="0.5" fill="none" stroke-linejoin="round" stroke-linecap="butt"/>
   <g transform="translate(289.91,202.197) rotate(-0,-0,-5)" font-family="FreeSans" font-weight="normal" xml:space="preserve" font-style="normal" font-size="9">
    <text y="-2" x="0 6 8 15 20 22 27 32 " fill="rgb(0,0,0)">Simulção</text>
   </g>
   <polyline points="264.335,224.673 285.647,224.673" stroke="#ff0000" stroke-width="0.5" fill="none" stroke-linejoin="round" stroke-linecap="butt"/>
   <g transform="translate(289.91,229.673) rotate(-0,-0,-5)" font-family="FreeSans" font-weight="normal" xml:space="preserve" font-style="normal" font-size="9">
    <text y="-2" x="0 6 11 15 20 25 29 32 37 39 42 47 52 " fill="rgb(0,0,0)">Resposta real</text>
   </g>
   <polyline points="264.335,210.935 285.647,210.935" stroke="#7f7f7f" stroke-width="0.5" fill="none" stroke-linejoin="round" stroke-linecap="butt"/>
   <g transform="translate(289.91,214.935) rotate(-0,-0,-4)" font-family="FreeSans" font-weight="normal" xml:space="preserve" font-style="normal" font-size="9">
    <text y="-0" x="0 6 11 14 19 22 27 32 37 39 " fill="rgb(0,0,0)">Referência</text>
   </g>
  </g>
 </g>
</svg>
